<?xml version="1.0" encoding="UTF-8" standalone="no"?>
<svg width="20px" height="20px" viewBox="0 0 20 20" version="1.1" xmlns="http://www.w3.org/2000/svg" xmlns:xlink="http://www.w3.org/1999/xlink">
    <!-- Generator: Sketch 39.1 (31720) - http://www.bohemiancoding.com/sketch -->
    <title>acc_other_small</title>
    <desc>Created with Sketch.</desc>
    <defs></defs>
    <g id="Page-1" stroke="none" stroke-width="1" fill="none" fill-rule="evenodd">
        <g id="acc_other_small" fill="#FFFFFF">
            <path d="M10.0411358,0.598613333 C7.27564465,0.598613333 5,2.87425798 5,5.63974911 C5,6.46968009 5.70229293,7.1711221 6.55321327,7.1711221 C7.42540663,7.1711221 8.10671019,6.46854553 8.10671019,5.63974911 C8.10671019,4.57609868 8.9786199,3.70418896 10.0422703,3.70418896 C11.0849314,3.70418896 11.9358518,4.57609868 11.9358518,5.63974911 C11.9358518,6.61830751 11.5103916,7.10787035 10.7235739,8.00105308 C9.74529914,9.0003172 8.44792925,10.3830628 8.44792925,13.0211995 C8.44792925,13.9140986 9.15050581,14.5956858 10.0224155,14.5956858 C10.8733359,14.5956858 11.5535049,13.9152331 11.5535049,13.0211995 C11.5535049,11.5961915 12.1497164,10.9580013 12.9572398,10.1070809 C13.8725465,9.10781681 14.9994486,7.89468803 14.9994486,5.61875974 C15.0402928,2.87425798 12.8066269,0.598613333 10.0411358,0.598613333 L10.0411358,0.598613333 Z M10.0411358,16.0005553 C8.99847471,16.0005553 8.14755436,16.8092132 8.14755436,17.8728637 C8.14755436,18.9155247 8.99847471,19.7454557 10.0411358,19.7454557 C11.0406835,19.7454557 11.9137278,18.9155247 11.9137278,17.8728637 C11.9137278,16.8304862 11.0628075,16.0005553 10.0411358,16.0005553 L10.0411358,16.0005553 Z" id="Page-1"></path>
        </g>
    </g>
</svg>