<?xml version="1.0" encoding="UTF-8" standalone="no"?>
<svg width="20px" height="20px" viewBox="0 0 20 20" version="1.1" xmlns="http://www.w3.org/2000/svg" xmlns:xlink="http://www.w3.org/1999/xlink">
    <!-- Generator: Sketch 39.1 (31720) - http://www.bohemiancoding.com/sketch -->
    <title>acc_markers_maps_small</title>
    <desc>Created with Sketch.</desc>
    <defs></defs>
    <g id="Page-1" stroke="none" stroke-width="1" fill="none" fill-rule="evenodd">
        <g id="acc_markers_maps_small" fill="#FFFFFF">
            <g id="Page-1-Copy-2" transform="translate(4.000000, 1.000000)">
                <path d="M10.4123077,9.63815385 C11.2584615,8.63446154 11.7692308,7.33907692 11.7692308,5.92307692 C11.7692308,2.73692308 9.18615385,0.153846154 6,0.153846154 C2.81384615,0.153846154 0.230769231,2.73692308 0.230769231,5.92307692 C0.230769231,7.33907692 0.741538462,8.63446154 1.58769231,9.63815385 L6,15.1538462 L10.4123077,9.63815385 Z M6,4.11538462 C6.99876923,4.11538462 7.80769231,4.92430769 7.80769231,5.92307692 C7.80769231,6.92184615 6.99876923,7.73076923 6,7.73076923 C5.00123077,7.73076923 4.19230769,6.92184615 4.19230769,5.92307692 C4.19230769,4.92430769 5.00123077,4.11538462 6,4.11538462 L6,4.11538462 Z" id="Fill-1"></path>
                <path d="M9.46153846,17.4615385 C9.46153846,18.0984615 7.91230769,18.6153846 6,18.6153846 C4.08769231,18.6153846 2.53846154,18.0984615 2.53846154,17.4615385 C2.53846154,16.8246154 4.08769231,16.3076923 6,16.3076923 C7.91230769,16.3076923 9.46153846,16.8246154 9.46153846,17.4615385" id="Fill-2"></path>
            </g>
        </g>
    </g>
</svg>