<?xml version="1.0" encoding="UTF-8" standalone="no"?>
<svg width="20px" height="20px" viewBox="0 0 20 20" version="1.1" xmlns="http://www.w3.org/2000/svg" xmlns:xlink="http://www.w3.org/1999/xlink">
    <!-- Generator: Sketch 39.1 (31720) - http://www.bohemiancoding.com/sketch -->
    <title>acc_kb_small</title>
    <desc>Created with Sketch.</desc>
    <defs></defs>
    <g id="Page-1" stroke="none" stroke-width="1" fill="none" fill-rule="evenodd">
        <g id="acc_kb_small" fill="#FFFFFF">
            <path d="M17.2977415,3.754176 C16.8831193,2.68459598 16.0759879,2.02992921 14.8542342,1.5061958 C13.7631229,1.02639779 12.6720116,0.960640155 11.6239629,1.46284231 C9.72601119,0.656001885 6.99823299,0.851529027 5.60131958,2.46637372 C4.57625691,2.40061608 3.59425675,2.75064458 2.78596152,3.36108497 C1.9791211,3.99392951 1.71667246,4.84528728 1.58573911,5.80459231 C-0.0509278101,6.67748134 -0.334907706,9.53590193 0.342454177,11.0419265 C1.23687446,13.0719754 4.03070127,13.617531 5.97317031,12.8537531 C6.01623283,13.2468441 6.14803908,13.617531 6.3877926,13.9448644 C6.84605933,14.5561777 7.588015,14.8392847 8.33026164,14.9268645 C8.98492841,15.0141534 9.7487063,15.1017333 10.3157932,14.7301735 C10.97046,14.8608159 11.6251267,14.9483958 12.2582622,14.8392847 C12.2797935,14.8823472 12.3016157,14.9268645 12.3458421,14.9699271 C12.5425331,15.1666181 12.8038179,15.3187917 13.0880887,15.4279028 C13.5902909,16.4759516 13.2187311,17.6534789 12.826513,18.7445902 C12.7174019,19.0934548 13.0016727,19.0934548 13.3505374,19.1376812 C13.416586,19.1376812 13.4596485,19.1595034 13.4811798,19.1595034 C14.6156445,19.2467923 14.7029334,19.2025659 15.2054266,18.1341498 C15.7079197,17.0430385 16.1658954,15.930396 16.7545136,14.8823472 C18.348118,14.293729 19.3731807,12.7661732 19.221007,10.9761688 C19.7005141,10.3430333 19.8756738,9.53590193 19.9632537,8.70636639 C20.2006795,6.5480028 19.2847279,4.58400249 17.2977415,3.754176 L17.2977415,3.754176 Z M8.41667765,13.3774865 L10.4897891,8.38019686 L6.6708996,9.05639489 L9.07134442,3.44837387 L13.0653936,2.83706059 L9.96692856,6.58990147 L13.7200604,6.08769932 L8.41667765,13.3774865 Z" id="Fill-19-Copy"></path>
        </g>
    </g>
</svg>