<?xml version="1.0" encoding="UTF-8" standalone="no"?>
<svg width="20px" height="20px" viewBox="0 0 20 20" version="1.1" xmlns="http://www.w3.org/2000/svg" xmlns:xlink="http://www.w3.org/1999/xlink">
    <!-- Generator: Sketch 39.1 (31720) - http://www.bohemiancoding.com/sketch -->
    <title>acc_kb_cat_small</title>
    <desc>Created with Sketch.</desc>
    <defs></defs>
    <g id="Page-1" stroke="none" stroke-width="1" fill="none" fill-rule="evenodd">
        <g id="acc_kb_cat_small" fill="#FFFFFF">
            <g id="Page-1-Copy-2" transform="translate(2.000000, 1.000000)">
                <path d="M11.0767213,8.71527869 C11.0992787,8.82780328 11.2797377,9.24170492 11.3033443,9.36078689 C11.3319344,9.50111475 11.2786885,9.58714754 11.1415082,9.62098361 C11.0523279,9.6424918 10.9610492,9.65770492 10.8718689,9.6802623 C10.7766557,9.70491803 10.7047869,9.67632787 10.6392131,9.60655738 C10.3525246,9.29914754 9.90478689,8.69980328 9.61783607,8.39239344 C9.58085246,8.35252459 9.54911475,8.34019672 9.49193443,8.35357377 C9.23567213,8.41390164 8.99986885,8.38740984 8.82570492,8.17311475 C8.44563934,8.37718033 8.06347541,8.30321311 7.68340984,8.20485246 C7.50295082,8.15790164 7.34216393,8.06767213 7.19685246,7.95068852 C7.03685246,7.82268852 6.92721311,7.66295082 6.87501639,7.46413115 C6.86898361,7.44157377 6.86163934,7.41901639 6.85665574,7.40170492 C6.70793443,7.43737705 6.56865574,7.48065574 6.42518033,7.50295082 C6.13822951,7.54806557 5.86281967,7.51842623 5.62098361,7.33613115 C5.50819672,7.25114754 5.42321311,7.14334426 5.36996721,7.01219672 C5.35868852,6.98360656 5.34111475,6.95186885 5.31672131,6.93455738 C4.97547541,6.69167213 4.80419672,6.35462295 4.76747541,5.94465574 C4.72734426,5.49193443 4.83304918,5.07593443 5.10557377,4.71213115 C5.18636066,4.60354098 5.30544262,4.52354098 5.40563934,4.43042623 C5.42819672,4.40891803 5.45704918,4.38819672 5.46832787,4.36065574 C5.7335082,3.70701639 6.24183607,3.35763934 6.90780328,3.20393443 C7.00511475,3.18137705 7.10557377,3.17009836 7.20288525,3.14963934 C7.24170492,3.1415082 7.28183607,3.12708197 7.31462295,3.10557377 C7.64852459,2.88419672 8.01940984,2.7787541 8.41390164,2.74491803 C8.84118033,2.70793443 9.25613115,2.77455738 9.66688525,2.88629508 C10.1445246,3.01639344 10.6300328,3.11895082 11.0830164,3.328 C11.517377,3.52760656 11.8769836,3.82478689 12.194623,4.17416393 C12.3422951,4.33704918 12.4314754,4.53481967 12.5009836,4.74281967 C12.5143607,4.78163934 12.5481967,4.81547541 12.5799344,4.84537705 C12.6659672,4.92721311 12.7745574,4.99068852 12.839082,5.08616393 C13.0245246,5.35763934 13.1158033,5.65980328 13.0738361,5.99291803 C13.0410492,6.24996721 12.9017705,6.44354098 12.7029508,6.60039344 C12.6772459,6.61980328 12.651541,6.63921311 12.6281967,6.65783607 C12.6300328,6.66491803 12.6289836,6.66911475 12.6300328,6.67016393 C12.88,6.91278689 12.8760656,7.20288525 12.7808525,7.50714754 C12.584918,8.13429508 12.1230164,8.47344262 11.5205246,8.64970492 C11.3822951,8.68957377 11.229377,8.69377049 11.0767213,8.71527869 L11.0767213,8.71527869 Z" id="Fill-1"></path>
                <path d="M6.86977049,19.1260328 L6.25311475,17.8289836 C6.16393443,17.6424918 6.0747541,17.4580984 5.98268852,17.2734426 C5.70911475,16.7121311 5.65167213,16.7121311 5.4077377,16.7121311 C5.29101639,16.7121311 5.13836066,16.724459 4.95186885,16.7488525 C4.34832787,16.8207213 3.71934426,16.7858361 3.14439344,16.7375738 C2.66701639,16.6977049 2.26937705,16.5009836 1.99291803,16.1699672 C1.83606557,15.9816393 1.58085246,15.5685246 1.63934426,14.9222295 C1.67003279,14.583082 1.62386885,14.3349508 1.47436066,14.0388197 C1.39645902,13.8872131 1.32983607,13.712 1.27265574,13.5071475 L1.26216393,13.4620328 L1.12183607,12.731541 C1.10452459,12.6127213 1.088,12.5062295 1.07068852,12.4068197 C0.797114754,12.2940328 0.39947541,12.0708197 0.205901639,11.6280656 C-0.0236065574,11.1003279 0.153704918,10.5891148 0.306360656,10.2499672 C0.402622951,10.0430164 0.510163934,9.83711475 0.645508197,9.59842623 C0.787934426,9.33718033 0.918032787,9.0984918 0.998032787,8.87291803 C1.0984918,8.58806557 1.10452459,8.3892459 1.09219672,8.33704918 C0.391344262,6.2347541 0.784786885,4.30531148 2.25809836,2.60563934 C3.64642623,1.01114754 6.01652459,0.0215081967 8.44459016,0.0215081967 C9.54701639,0.0215081967 10.616918,0.228459016 11.5388852,0.619803279 C14.7068852,1.96721311 16.4417049,5.19160656 15.7571148,8.45901639 C15.6587541,8.90570492 15.5276066,9.32065574 15.3657705,9.69678689 C15.2039344,10.08 15.0051148,10.4734426 14.8288525,10.8217705 L14.7480656,10.9815082 C14.1628852,12.1188197 13.6598033,13.0974426 13.805377,14.148459 C13.8216393,14.269377 13.8413115,14.3729836 13.8678033,14.475541 L14.0716066,15.3935738 L6.86977049,19.1260328 Z M5.4077377,15.6548197 C6.22137705,15.6548197 6.55947541,16.0419672 6.93036066,16.8062951 C7.02242623,16.9896393 7.11370492,17.1803279 7.20498361,17.3710164 L7.3544918,17.684459 L12.8616393,14.8309508 L12.8369836,14.7223607 C12.8041967,14.5961967 12.7766557,14.4498361 12.7561967,14.2919344 C12.564459,12.912 13.1947541,11.6876066 13.8043279,10.503082 L13.8832787,10.3462295 C14.059541,9.99790164 14.2418361,9.6372459 14.3913443,9.28472131 C14.5287869,8.96629508 14.6392131,8.61586885 14.7213115,8.23868852 C15.3001967,5.47540984 13.8205902,2.74072131 11.1228852,1.59422951 C10.3299672,1.25822951 9.40380328,1.07986885 8.44170492,1.07986885 C6.31134426,1.07986885 4.24681967,1.93022951 3.05337705,3.30019672 C1.82478689,4.71606557 1.5092459,6.25704918 2.09232787,8.00813115 C2.23160656,8.42098361 2.08813115,8.94872131 1.99081967,9.2264918 C1.88222951,9.53180328 1.73245902,9.80642623 1.57481967,10.0973115 C1.44157377,10.3349508 1.34636066,10.516459 1.26321311,10.6927213 C1.15462295,10.9335082 1.12393443,11.0974426 1.17114754,11.2049836 C1.2162623,11.3083279 1.36157377,11.3996066 1.61259016,11.4796066 L1.69259016,11.5050492 L1.85232787,11.6199344 L2.01652459,11.8145574 L2.04616393,11.9312787 C2.09940984,12.1353443 2.13009836,12.3472787 2.16078689,12.5531803 L2.29298361,13.2377705 C2.32996721,13.3657705 2.37088525,13.4712131 2.41495082,13.5593443 C2.65363934,14.0338361 2.73783607,14.4815738 2.68957377,15.0163934 C2.66491803,15.2839344 2.74990164,15.4292459 2.80236066,15.4927213 C2.89442623,15.6034098 3.03790164,15.6679344 3.22937705,15.6834098 C3.75396721,15.7274754 4.3144918,15.7592131 4.81652459,15.6996721 C5.04813115,15.6700328 5.2427541,15.6548197 5.4077377,15.6548197 L5.4077377,15.6548197 Z" id="Fill-2"></path>
                <path d="M4.37403279,10.269377 C4.03698361,10.2777705 3.82688525,10.107541 3.82268852,9.8135082 C3.82059016,9.65272131 3.75108197,9.61259016 3.62098361,9.57481967 C3.20891803,9.45180328 3.05127869,9.22859016 3.1464918,8.93036066 C3.23881967,8.64340984 3.49088525,8.55527869 3.89245902,8.67121311 C4.4642623,8.83619672 5.03790164,8.99908197 5.60865574,9.16695082 C5.90478689,9.25403279 6.04511475,9.43554098 6.02360656,9.68131148 C6.00104918,9.93547541 5.8187541,10.0881311 5.50714754,10.1240656 C5.1147541,10.1699672 4.72445902,10.2242623 4.37403279,10.269377 L4.37403279,10.269377 Z" id="Fill-3"></path>
            </g>
        </g>
    </g>
</svg>