<?xml version="1.0" encoding="UTF-8" standalone="no"?>
<svg width="20px" height="20px" viewBox="0 0 20 20" version="1.1" xmlns="http://www.w3.org/2000/svg" xmlns:xlink="http://www.w3.org/1999/xlink">
    <!-- Generator: Sketch 39.1 (31720) - http://www.bohemiancoding.com/sketch -->
    <title>acc_process_autit_small</title>
    <desc>Created with Sketch.</desc>
    <defs></defs>
    <g id="Page-1" stroke="none" stroke-width="1" fill="none" fill-rule="evenodd">
        <g id="acc_process_autit_small" fill="#FFFFFF">
            <path d="M7.44773333,1.68837333 L5.51026667,1.31026667 L5.71765333,1.91512 C2.35898667,3.35773333 0,6.69557333 0,10.5754933 C0,11.838 0.25432,13.0424267 0.706933333,14.1436 C0.39864,14.4117067 0.202693333,14.8059467 0.202693333,15.2447733 C0.202693333,16.0502667 0.858,16.7055733 1.66349333,16.7055733 C2.46898667,16.7055733 3.12458667,16.0502667 3.12458667,15.2447733 C3.12458667,14.43928 2.46898667,13.78368 1.66349333,13.78368 C1.53530667,13.78368 1.41152,13.80216 1.29242667,13.83296 C0.886746667,12.8247733 0.66,11.72712 0.66,10.57432 C0.66,6.98333333 2.8336,3.89189333 5.93178667,2.5408 L6.15061333,3.17674667 L7.44773333,1.68837333 Z M2.46458667,15.2459467 C2.46458667,15.68712 2.10584,16.0467467 1.66349333,16.0467467 C1.22232,16.0467467 0.862693333,15.68712 0.862693333,15.2459467 C0.862693333,14.8047733 1.22144,14.4448533 1.66349333,14.4448533 C2.10466667,14.4448533 2.46458667,14.8036 2.46458667,15.2459467 L2.46458667,15.2459467 Z M18.74224,11.9377333 C18.8076533,11.4933333 18.8466667,11.0383733 18.8466667,10.5754933 C18.8466667,5.87072 15.3791733,1.96322667 10.8656533,1.26656 C10.7603467,0.563146667 10.15432,0.02224 9.42304,0.02224 C8.61754667,0.02224 7.96224,0.67784 7.96224,1.48333333 C7.96224,2.28882667 8.61754667,2.94413333 9.42304,2.94413333 C10.0739467,2.94413333 10.6274667,2.51557333 10.8154933,1.92568 C14.9884533,2.59477333 18.1866667,6.21773333 18.1866667,10.5766667 C18.1866667,10.9890933 18.1532267,11.3936 18.0972,11.7898933 L17.47152,11.6455733 L18.0502667,13.5340533 L19.3954933,12.0890933 L18.74224,11.9377333 Z M9.42304,2.28296 C8.98216,2.28296 8.62224,1.92333333 8.62224,1.48216 C8.62224,1.04098667 8.98098667,0.681066667 9.42304,0.681066667 C9.86421333,0.681066667 10.2241333,1.04098667 10.2241333,1.48216 C10.2241333,1.92333333 9.86538667,2.28296 9.42304,2.28296 L9.42304,2.28296 Z M17.18288,13.7848533 C16.3773867,13.7848533 15.7217867,14.4404533 15.7217867,15.2459467 C15.7217867,15.6264 15.8696267,15.97224 16.1089867,16.2324267 C14.5003467,18.1311733 12.10088,19.34 9.42421333,19.34 C7.48322667,19.34 5.68890667,18.70288 4.23485333,17.6304533 L4.66693333,17.1388267 L2.73034667,16.7513333 L3.36394667,18.6213333 L3.79837333,18.12648 C5.36917333,19.3009867 7.31602667,20 9.42421333,20 C12.32792,20 14.9242133,18.6776533 16.6545867,16.60584 C16.8182667,16.67008 16.9972,16.7067467 17.1840533,16.7067467 C17.9895467,16.7067467 18.6448533,16.05144 18.6448533,15.2459467 C18.6448533,14.4404533 17.9883733,13.7848533 17.18288,13.7848533 L17.18288,13.7848533 Z M17.18288,16.0467467 C16.7417067,16.0467467 16.3817867,15.68712 16.3817867,15.2459467 C16.3817867,14.8047733 16.7417067,14.4448533 17.18288,14.4448533 C17.6240533,14.4448533 17.98368,14.8047733 17.98368,15.2459467 C17.98368,15.68712 17.6240533,16.0467467 17.18288,16.0467467 L17.18288,16.0467467 Z" id="Page-1-Copy-2"></path>
        </g>
    </g>
</svg>