<?xml version="1.0" encoding="UTF-8" standalone="no"?>
<svg width="20px" height="20px" viewBox="0 0 20 20" version="1.1" xmlns="http://www.w3.org/2000/svg" xmlns:xlink="http://www.w3.org/1999/xlink">
    <!-- Generator: Sketch 39.1 (31720) - http://www.bohemiancoding.com/sketch -->
    <title>acc_aos_contracts_small</title>
    <desc>Created with Sketch.</desc>
    <defs></defs>
    <g id="Page-1" stroke="none" stroke-width="1" fill="none" fill-rule="evenodd">
        <g id="acc_aos_contracts_small" fill="#FFFFFF">
            <path d="M4.17057068,0.94 L4.17057068,0.94 C4.07005068,0.9596 3.99781068,1.04836 4.00005068,1.15 L4.00005068,18.79 C4.00005068,18.90592 4.09413068,19 4.21005068,19 L16.8100507,19 C16.9259707,19 17.0200507,18.90592 17.0200507,18.79 L17.0200507,4.09 C17.0211707,4.03428 17.0004507,3.9794 16.9609707,3.93908 L14.0209707,0.99908 C13.9806507,0.9596 13.9257707,0.93888 13.8700507,0.94 L4.21005068,0.94 C4.19689068,0.93888 4.18373068,0.93888 4.17057068,0.94 L4.17057068,0.94 Z M4.42005068,1.36 L13.6600507,1.36 L13.6600507,4.09 C13.6600507,4.20592 13.7541307,4.3 13.8700507,4.3 L16.6000507,4.3 L16.6000507,18.58 L4.42005068,18.58 L4.42005068,1.36 Z M14.0800507,1.6554 L16.3046507,3.88 L14.0800507,3.88 L14.0800507,1.6554 Z M6.10005068,3.88 C5.98413068,3.88 5.89005068,3.97408 5.89005068,4.09 C5.89005068,4.20592 5.98413068,4.3 6.10005068,4.3 L11.9800507,4.3 C12.0959707,4.3 12.1900507,4.20592 12.1900507,4.09 C12.1900507,3.97408 12.0959707,3.88 11.9800507,3.88 L6.10005068,3.88 Z M6.10005068,6.4 C5.98413068,6.4 5.89005068,6.49408 5.89005068,6.61 C5.89005068,6.72592 5.98413068,6.82 6.10005068,6.82 L14.9200507,6.82 C15.0359707,6.82 15.1300507,6.72592 15.1300507,6.61 C15.1300507,6.49408 15.0359707,6.4 14.9200507,6.4 L6.10005068,6.4 Z M6.10005068,8.92 C5.98413068,8.92 5.89005068,9.01408 5.89005068,9.13 C5.89005068,9.24592 5.98413068,9.34 6.10005068,9.34 L14.9200507,9.34 C15.0359707,9.34 15.1300507,9.24592 15.1300507,9.13 C15.1300507,9.01408 15.0359707,8.92 14.9200507,8.92 L6.10005068,8.92 Z M6.10005068,11.44 C5.98413068,11.44 5.89005068,11.53408 5.89005068,11.65 C5.89005068,11.76592 5.98413068,11.86 6.10005068,11.86 L14.9200507,11.86 C15.0359707,11.86 15.1300507,11.76592 15.1300507,11.65 C15.1300507,11.53408 15.0359707,11.44 14.9200507,11.44 L6.10005068,11.44 Z M11.1005707,13.75 L11.1005707,13.75 C11.0305707,13.76204 10.9714907,13.80908 10.9432107,13.8746 L9.93269068,16.30276 L9.19741068,16.48644 C9.08373068,16.515 9.01485068,16.6298 9.04453068,16.74264 C9.07393068,16.85632 9.18985068,16.92408 9.30269068,16.89356 L10.1426907,16.68356 C10.2082107,16.66704 10.2616907,16.62112 10.2868907,16.55868 L11.1268907,14.53736 L11.7832107,16.34224 C11.8464907,16.5094 12.0774907,16.52592 12.1637307,16.36856 L13.0104507,14.84592 L13.6796507,16.3554 C13.7213707,16.44836 13.8241307,16.49848 13.9226907,16.47356 L14.7626907,16.26356 C14.8763707,16.235 14.9452507,16.1202 14.9155707,16.00736 C14.8861707,15.89368 14.7702507,15.82592 14.6574107,15.85644 L13.9882107,16.02052 L13.2204507,14.2946 C13.1504507,14.13724 12.9314907,14.12632 12.8463707,14.275 L12.0195307,15.7646 L11.3368907,13.88776 C11.3030107,13.78948 11.2024907,13.73152 11.1005707,13.75 L11.1005707,13.75 Z" id="Page-1-Copy-2"></path>
        </g>
    </g>
</svg>