<?xml version="1.0" encoding="UTF-8" standalone="no"?>
<svg width="20px" height="20px" viewBox="0 0 20 20" version="1.1" xmlns="http://www.w3.org/2000/svg" xmlns:xlink="http://www.w3.org/1999/xlink">
    <!-- Generator: Sketch 39.1 (31720) - http://www.bohemiancoding.com/sketch -->
    <title>acc_invoices_small</title>
    <desc>Created with Sketch.</desc>
    <defs>
        <rect id="path-1" x="0" y="0" width="16.32" height="20.4"></rect>
        <mask id="mask-2" maskContentUnits="userSpaceOnUse" maskUnits="objectBoundingBox" x="0" y="0" width="16.32" height="20.4" fill="white">
            <use xlink:href="#path-1"></use>
        </mask>
    </defs>
    <g id="Page-1" stroke="none" stroke-width="1" fill="none" fill-rule="evenodd">
        <g id="acc_invoices_small">
            <g id="Group-2" transform="translate(2.000000, 0.000000)">
                <path d="M4.2636,10.54 C4.2636,10.3586658 4.32139942,10.201134 4.437,10.0674 C4.55260058,9.933666 4.72599884,9.8668 4.9572,9.8668 L5.5284,9.8668 L5.5284,8.398 C5.5284,7.96733118 5.59413268,7.55820194 5.7256,7.1706 C5.85706732,6.78299806 6.05766532,6.44186814 6.3274,6.1472 C6.59713468,5.85253186 6.93486464,5.61793421 7.3406,5.4434 C7.74633536,5.26886579 8.22573057,5.1816 8.7788,5.1816 C9.14600184,5.1816 9.47806518,5.2280662 9.775,5.321 C10.0719348,5.4139338 10.3371322,5.54313251 10.5706,5.7086 C10.8040678,5.87406749 11.0091991,6.06899888 11.186,6.2934 C11.3628009,6.51780112 11.5169327,6.75919871 11.6484,7.0176 L10.8052,7.548 C10.614799,7.64773383 10.4300676,7.69193339 10.251,7.6806 C10.0719324,7.66926661 9.90760075,7.58426746 9.758,7.4256 C9.58573247,7.24879912 9.42933404,7.11733376 9.2888,7.0312 C9.14826596,6.94506624 8.97826766,6.902 8.7788,6.902 C8.41159816,6.902 8.13846756,7.03006539 7.9594,7.2862 C7.78033244,7.54233461 7.6908,7.91066426 7.6908,8.3912 L7.6908,9.8668 L10.2748,9.8668 L10.2748,10.6692 C10.2748,10.7372003 10.2600668,10.8017997 10.2306,10.863 C10.2011332,10.9242003 10.1603336,10.9797331 10.1082,11.0296 C10.0560664,11.0794669 9.99486702,11.1191332 9.9246,11.1486 C9.85433298,11.1780668 9.77613376,11.1928 9.69,11.1928 L7.6908,11.1928 L7.6908,12.2536 C7.6908,12.5256014 7.63980051,12.7715322 7.5378,12.9914 C7.43579949,13.2112678 7.29866753,13.416399 7.1264,13.6068 C7.33040102,13.5614664 7.53439898,13.5263335 7.7384,13.5014 C7.94240102,13.4764665 8.14866562,13.464 8.3572,13.464 L11.7708,13.464 L11.7708,14.3276 C11.7708,14.4273338 11.7492669,14.5293328 11.7062,14.6336 C11.6631331,14.7378672 11.6030671,14.8319329 11.526,14.9158 C11.4489329,14.9996671 11.3548672,15.0676664 11.2438,15.1198 C11.1327328,15.1719336 11.0092007,15.198 10.8732,15.198 L4.386,15.198 L4.386,13.9332 C4.53560075,13.9059999 4.67953264,13.8629336 4.8178,13.804 C4.95606736,13.7450664 5.07733281,13.6702671 5.1816,13.5796 C5.28586719,13.4889329 5.36973302,13.380134 5.4332,13.2532 C5.49666698,13.126266 5.5284,12.9789342 5.5284,12.8112 L5.5284,11.1928 L4.2636,11.1928 L4.2636,10.54 Z" id="£" fill="#FFFFFF"></path>
                <use id="Rectangle-807" stroke="#FFFFFF" mask="url(#mask-2)" stroke-width="4" xlink:href="#path-1"></use>
            </g>
        </g>
    </g>
</svg>