<?xml version="1.0" encoding="UTF-8" standalone="no"?>
<svg width="20px" height="20px" viewBox="0 0 20 20" version="1.1" xmlns="http://www.w3.org/2000/svg" xmlns:xlink="http://www.w3.org/1999/xlink">
    <!-- Generator: Sketch 39.1 (31720) - http://www.bohemiancoding.com/sketch -->
    <title>acc_contracts_small</title>
    <desc>Created with Sketch.</desc>
    <defs></defs>
    <g id="Page-1" stroke="none" stroke-width="1" fill="none" fill-rule="evenodd">
        <g id="acc_contracts_small" fill="#FFFFFF">
            <g id="Page-1" transform="translate(0.000000, 2.000000)">
                <polygon id="Fill-1" points="0 15.7998463 19.9758054 15.7998463 19.9758054 14.6549349 0 14.6549349"></polygon>
                <path d="M5.17374832,1.54949602 C4.99394966,1.54949602 4.79418456,1.61083731 4.63438591,1.73348554 C4.37468792,1.9175094 4.13498993,2.22421584 3.89525839,2.6739718 C3.0562651,4.28917787 3.0762651,6.37457556 3.93522483,7.98974729 C3.99515772,8.11242986 4.07505705,8.23511244 4.17492282,8.35779501 C4.35472148,8.07155857 4.49455369,7.80575777 4.61441946,7.60129826 C5.33354698,6.29279863 5.79297651,4.84118077 5.91284228,3.36912726 C5.95280872,3.00111388 5.97277517,2.57175922 5.8529094,2.20374584 C5.77301007,1.9175094 5.59324497,1.69261424 5.39347987,1.59036732 C5.33354698,1.56993167 5.25364765,1.54949602 5.17374832,1.54949602 L5.17374832,1.54949602 Z M2.13740604,11.6494454 C1.63801007,11.6494454 1.17854698,11.4654559 0.819016779,11.1178782 C0.519352349,10.8316761 0.339553691,10.4431927 0.239721477,9.91162545 L0.0998892617,9.13469306 L1.59804362,8.86889226 L1.73787584,9.64582466 C1.77784228,9.85028416 1.83777517,9.95249675 1.85774161,9.97293239 C1.93764094,10.034308 2.03754027,10.0751793 2.15737248,10.0751793 C2.51693624,10.0547437 2.85653356,9.85028416 3.17616443,9.58448337 C2.93643289,9.31871692 2.73666779,9.03248048 2.57686913,8.72577404 C1.45821141,6.64037636 1.43827852,4.04381273 2.53693624,1.93797939 C2.8965,1.26325958 3.29599664,0.77256363 3.77542617,0.445455893 C4.45458725,-0.0247700651 5.29358054,-0.127016992 5.97277517,0.15921945 C6.59203691,0.425020246 7.09139933,0.997493131 7.31113087,1.75395553 C7.49092953,2.36733406 7.47096309,3.00111388 7.4310302,3.51224548 C7.29119799,5.1887585 6.77180201,6.88570716 5.93280872,8.37823066 C5.79297651,8.64403145 5.59321141,8.97113919 5.39347987,9.31871692 C5.81297651,9.48227079 6.2524396,9.50270644 6.67193624,9.29824693 C7.03146644,9.13469306 7.29119799,8.82802097 7.63076174,8.37823066 C7.99035906,7.92844035 8.1900906,7.51952133 8.28995638,7.06973102 C8.3698557,6.64037636 8.76938591,6.37457556 9.18888255,6.45635249 C9.48851342,6.51769378 9.72824497,6.76302458 9.78817785,7.06973102 C9.90801007,7.37640311 10.5472383,8.60312581 10.7070369,8.82802097 L10.7669698,8.93023355 C11.1265336,9.44136515 11.3262987,9.6867303 11.5460302,9.62538901 C11.9055604,9.54361208 12.2251913,9.13469306 12.5448221,8.6644671 C12.8843859,8.17377115 13.1441174,7.60129826 13.3038826,7.02882538 C13.3837819,6.72215329 13.6434799,6.47682249 13.9631107,6.45635249 C14.2827081,6.4154812 14.5823389,6.59947072 14.7221711,6.88570716 L15.1416678,7.74441649 C15.521198,8.52134888 15.8608289,9.13469306 16.3601913,9.44136515 C16.6798221,9.64582466 17.0993188,9.70716594 17.4588826,9.60495336 C17.6985805,9.54361208 17.7784799,9.4209295 18.0781443,8.9097979 L18.4576409,8.23511244 L19.7760638,9.03248048 L19.3965336,9.70716594 C19.0769027,10.2591688 18.7173725,10.892983 17.8583792,11.1178782 C17.0993188,11.3223377 16.2803255,11.1996894 15.6010973,10.7907361 C14.9019362,10.3818514 14.4625067,9.70716594 14.1229094,9.09382176 C14.0230436,9.27781128 13.9231443,9.44136515 13.8032785,9.60495336 C13.4237483,10.1365206 12.844453,10.9543243 11.8856275,11.1792195 C10.6670705,11.4654559 9.96794295,10.4636627 9.54844631,9.8911898 L9.44858054,9.72760159 C9.44858054,9.72760159 9.24881544,9.4209295 9.02908389,9.03248048 C8.94918456,9.13469306 8.86925168,9.23693999 8.78935235,9.35958821 C8.42978859,9.80937852 7.99035906,10.3614158 7.29119799,10.7089935 C6.33230537,11.1587838 5.29358054,11.0361012 4.39465436,10.5658753 C3.81539262,11.1587838 3.11623154,11.6085741 2.23727181,11.6494454 L2.13740604,11.6494454 Z" id="Fill-2"></path>
            </g>
        </g>
    </g>
</svg>