<?xml version="1.0" encoding="UTF-8" standalone="no"?>
<svg width="20px" height="20px" viewBox="0 0 20 20" version="1.1" xmlns="http://www.w3.org/2000/svg" xmlns:xlink="http://www.w3.org/1999/xlink">
    <!-- Generator: Sketch 39.1 (31720) - http://www.bohemiancoding.com/sketch -->
    <title>acc_quotes_small</title>
    <desc>Created with Sketch.</desc>
    <defs></defs>
    <g id="Page-1" stroke="none" stroke-width="1" fill="none" fill-rule="evenodd">
        <g id="acc_quotes_small" fill="#FFFFFF">
            <path d="M3.21642906,10.2789855 C3.21642906,9.96497428 3.31651864,9.69218111 3.5167008,9.46059783 C3.71688296,9.22901454 4.01715169,9.11322464 4.41751601,9.11322464 L5.40664645,9.11322464 L5.40664645,6.56974638 C5.40664645,5.8239697 5.52047381,5.11549249 5.74813195,4.44429348 C5.9757901,3.77309447 6.32315981,3.1823697 6.79025152,2.67210145 C7.25734323,2.1618332 7.84218037,1.75558726 8.54478051,1.45335145 C9.24738064,1.15111564 10.0775354,1 11.0352696,1 C11.6711424,1 12.2461668,1.08046417 12.7603602,1.24139493 C13.2745536,1.40232568 13.7337881,1.62605533 14.1380776,1.91259058 C14.5423671,2.19912583 14.8975869,2.53668284 15.2037479,2.92527174 C15.5099088,3.31386064 15.7768144,3.73188182 16.0044725,4.17934783 L14.5443276,5.09782609 C14.2146158,5.27053226 13.8947217,5.34707135 13.5846356,5.32744565 C13.2745495,5.30781995 12.9899811,5.16062939 12.7309218,4.88586957 C12.4326111,4.57970861 12.1617805,4.35205389 11.9184218,4.20289855 C11.6750631,4.05374322 11.380682,3.97916667 11.0352696,3.97916667 C10.3993969,3.97916667 9.92642457,4.20093377 9.61633848,4.64447464 C9.30625239,5.0880155 9.15121167,5.72584125 9.15121167,6.55797101 L9.15121167,9.11322464 L13.6258493,9.11322464 L13.6258493,10.5027174 C13.6258493,10.6204716 13.6003363,10.7323364 13.5493095,10.8383152 C13.4982827,10.944294 13.4276312,11.0404585 13.337353,11.1268116 C13.2470747,11.2131647 13.1410975,11.2818536 13.0194182,11.3328804 C12.8977388,11.3839073 12.7623235,11.4094203 12.6131682,11.4094203 L9.15121167,11.4094203 L9.15121167,13.2463768 C9.15121167,13.7173937 9.06289733,14.143265 8.88626601,14.5240036 C8.70963469,14.9047422 8.47216726,15.2599621 8.17385659,15.5896739 C8.52711923,15.5111711 8.88037657,15.4503323 9.2336392,15.4071558 C9.58690184,15.3639793 9.94408426,15.3423913 10.3051972,15.3423913 L16.2164291,15.3423913 L16.2164291,16.8378623 C16.2164291,17.0105685 16.1791408,17.1871972 16.1045631,17.3677536 C16.0299854,17.5483101 15.9259708,17.711201 15.792516,17.8564312 C15.6590612,18.0016614 15.4961704,18.1194138 15.3038385,18.209692 C15.1115066,18.2999703 14.8975897,18.3451087 14.6620812,18.3451087 L3.42838558,18.3451087 L3.42838558,16.1548913 C3.68744484,16.1077896 3.93668752,16.0332131 4.17612109,15.9311594 C4.41555465,15.8291058 4.62554651,15.6995781 4.80610297,15.5425725 C4.98665943,15.3855668 5.13188744,15.1971629 5.24179138,14.9773551 C5.35169531,14.7575472 5.40664645,14.5024169 5.40664645,14.2119565 L5.40664645,11.4094203 L3.21642906,11.4094203 L3.21642906,10.2789855 Z" id="£"></path>
        </g>
    </g>
</svg>