<?xml version="1.0" encoding="UTF-8" standalone="no"?>
<svg width="20px" height="20px" viewBox="0 0 20 20" version="1.1" xmlns="http://www.w3.org/2000/svg" xmlns:xlink="http://www.w3.org/1999/xlink">
    <!-- Generator: Sketch 39.1 (31720) - http://www.bohemiancoding.com/sketch -->
    <title>acc_product_categories_small</title>
    <desc>Created with Sketch.</desc>
    <defs></defs>
    <g id="Page-1" stroke="none" stroke-width="1" fill="none" fill-rule="evenodd">
        <g id="acc_product_categories_small" fill="#FFFFFF">
            <path d="M14.3763828,19.1265137 C13.1414771,20.3614193 11.1361065,20.3614193 9.90086302,19.1265137 L1.10824002,10.5554711 C0.474911756,9.97483576 0,9.10945601 0,8.18057456 L0,3.16664133 C0,1.41426424 1.41460202,0 3.16664133,0 L8.18057456,0 C9.10945601,0 9.97483576,0.474911756 10.5554711,1.10824002 L19.0738207,9.9538937 C20.3087264,11.1887994 20.3087264,13.1945078 19.0738207,14.4294135 L14.3763828,19.1265137 L14.3763828,19.1265137 Z M13.6271976,18.3769908 L18.3242979,13.6798906 C19.1477935,12.8567327 19.1477935,11.5161034 18.3242979,10.6926078 L9.61611863,1.66759555 C9.26787252,1.26665653 8.76120991,1.05554711 8.18057456,1.05554711 L3.13489048,1.02379625 C1.97395754,1.02379625 1.05554711,2.00537062 1.05554711,3.16664133 L1.05554711,8.18057456 C1.05554711,8.76087214 1.26665653,9.26753475 1.66793332,9.61611863 L10.6399149,18.3769908 C11.4634105,19.2004864 12.803702,19.2004864 13.6271976,18.3769908 L13.6271976,18.3769908 Z M4.74979311,2.11109422 C6.20661701,2.11109422 7.38882978,3.29330699 7.38882978,4.75013089 C7.38882978,6.20661701 6.20661701,7.38882978 4.74979311,7.38882978 C3.29330699,7.38882978 2.11109422,6.20661701 2.11109422,4.75013089 C2.11109422,3.29330699 3.29330699,2.11109422 4.74979311,2.11109422 L4.74979311,2.11109422 Z M4.74979311,3.16664133 C3.87394234,3.16664133 3.16664133,3.87394234 3.16664133,4.75013089 C3.16664133,5.62598166 3.87394234,6.33328267 4.74979311,6.33328267 C5.62598166,6.33328267 6.33328267,5.62598166 6.33328267,4.75013089 C6.33328267,3.87394234 5.62598166,3.16664133 4.74979311,3.16664133 L4.74979311,3.16664133 Z" id="Page-1-Copy-2"></path>
        </g>
    </g>
</svg>