<?xml version="1.0" encoding="UTF-8" standalone="no"?>
<svg width="20px" height="20px" viewBox="0 0 20 20" version="1.1" xmlns="http://www.w3.org/2000/svg" xmlns:xlink="http://www.w3.org/1999/xlink">
    <!-- Generator: Sketch 39.1 (31720) - http://www.bohemiancoding.com/sketch -->
    <title>acc_workflow_small</title>
    <desc>Created with Sketch.</desc>
    <defs></defs>
    <g id="Page-1" stroke="none" stroke-width="1" fill="none" fill-rule="evenodd">
        <g id="acc_workflow_small" fill="#FFFFFF">
            <path d="M17.9965785,14.1830161 L17.9965785,9.00047319 L12.8136716,9.00047319 C12.3987187,7.8371492 11.2994576,7.00141958 9.99854403,7.00141958 C8.6976304,7.00141958 7.59836931,7.83860518 7.18341645,9.00047319 L3.9999272,9.00047319 L3.9999272,5.81698395 C5.1628872,5.40166709 5.99898082,4.302406 5.99898082,3.00149237 C5.99898082,1.34932479 4.65511593,0 2.99748844,0 C1.33949696,0 0,1.34386489 0,3.00149237 C0,4.302406 0.837549594,5.40166709 1.99905362,5.81698395 L1.99905362,10.9995268 L7.18196047,10.9995268 C7.59691333,12.1624868 8.69617443,12.9985804 9.99708805,12.9985804 C11.2980017,12.9985804 12.3972628,12.1610308 12.8122156,10.9995268 L15.9960689,10.9995268 L15.9960689,14.1830161 C14.8327449,14.5983329 13.9966513,15.69723 13.9966513,16.9981436 C13.9966513,18.6503112 15.3405161,19.999636 16.9981436,19.999636 C18.6561351,19.999636 20,18.6561351 20,16.9981436 C19.9956321,15.6917701 19.1580825,14.592509 17.9965785,14.1830161 L17.9965785,14.1830161 Z M3.00294835,1.99905362 C3.55185091,1.99905362 4.00538711,2.44712991 4.00538711,3.00149237 C4.00538711,3.55621883 3.55767481,4.00393113 3.00294835,4.00393113 C2.45404579,4.00393113 2.00050959,3.55621883 2.00050959,3.00149237 C2.00050959,2.44712991 2.44858588,1.99905362 3.00294835,1.99905362 L3.00294835,1.99905362 Z M9.99854403,10.9995268 C9.44964147,10.9995268 8.99610527,10.5514505 8.99610527,9.99708805 C8.99610527,9.44818549 9.44418156,8.99464929 9.99854403,8.99464929 C10.5474466,8.99464929 11.0009828,9.44272559 11.0009828,9.99708805 C11.0009828,10.5459906 10.5474466,10.9995268 9.99854403,10.9995268 L9.99854403,10.9995268 Z M16.9995996,17.9951225 C16.451061,17.9951225 15.9971608,17.5470462 15.9971608,16.9926837 C15.9971608,16.4379573 16.4452371,15.990245 16.9995996,15.990245 C17.5485022,15.990245 18.0020384,16.4379573 18.0020384,16.9926837 C18.0020384,17.5470462 17.5485022,17.9951225 16.9995996,17.9951225 L16.9995996,17.9951225 Z" id="Page-1-Copy-2"></path>
        </g>
    </g>
</svg>