<?xml version="1.0" encoding="UTF-8" standalone="no"?>
<svg width="20px" height="20px" viewBox="0 0 20 20" version="1.1" xmlns="http://www.w3.org/2000/svg" xmlns:xlink="http://www.w3.org/1999/xlink">
    <!-- Generator: Sketch 39.1 (31720) - http://www.bohemiancoding.com/sketch -->
    <title>acc_bugs_small</title>
    <desc>Created with Sketch.</desc>
    <defs>
        <polygon id="path-1" points="8.99379396 18.6916023 17.9875714 18.6916023 17.9875714 0 8.99379396 0 1.64835163e-05 0 1.64835163e-05 18.6916023 8.99379396 18.6916023"></polygon>
    </defs>
    <g id="Page-1" stroke="none" stroke-width="1" fill="none" fill-rule="evenodd">
        <g id="acc_bugs_small">
            <g id="Page-1" transform="translate(1.000000, 1.000000)">
                <mask id="mask-2" fill="white">
                    <use xlink:href="#path-1"></use>
                </mask>
                <g id="Clip-2"></g>
                <path d="M15.0528956,7.78712561 C15.0128077,7.33382913 14.9294341,6.91871883 14.8026758,6.53935796 L15.1166868,6.19664428 C16.4838297,4.71110278 17.1706978,3.96514184 17.1706978,1.59211651 L17.1706978,1.19290909 C17.1706978,0.972609183 16.9867418,0.795272727 16.7618736,0.795272727 C16.5361813,0.795272727 16.3530495,0.972609183 16.3530495,1.19290909 L16.3530495,1.59131495 C16.3530495,3.66135176 15.8509615,4.20689141 14.5082802,5.66540441 L14.4396099,5.74014158 C14.3161484,5.52782517 14.1803901,5.32583283 14.018522,5.14371909 C13.565522,4.63158834 12.9718516,4.24985486 12.233489,3.99059929 C12.1631703,3.4999182 11.968533,3.02754466 11.6676099,2.61480697 C12.5392912,2.25218261 13.8999396,1.54520939 13.8999396,0.657693495 L13.8999396,0.397636364 C13.8999396,0.177368518 13.7159505,0 13.4910824,0 C13.2653901,0 13.0822582,0.177368518 13.0822582,0.397636364 L13.0822582,0.657693495 C13.0822582,1.00601808 12.0585,1.61199512 11.0682692,1.99132392 C10.5105989,1.53405172 9.80985165,1.23346787 9.03875275,1.23346787 C8.2545989,1.23346787 7.54399451,1.54280472 6.98226923,2.0136072 C5.95854396,1.61837551 4.90531319,0.993289352 4.90531319,0.656891938 L4.90531319,0.397636364 C4.90531319,0.177368518 4.72218132,0 4.49648901,0 C4.2707967,0 4.08763187,0.177368518 4.08763187,0.397636364 L4.08763187,0.657693495 C4.08763187,1.54520939 5.48833516,2.2680855 6.38780769,2.64026441 C6.09588462,3.04822483 5.91028022,3.51501953 5.84160989,3.99774918 C5.10812637,4.25620319 4.5104011,4.63396094 4.05819231,5.14371909 C3.86358791,5.36478849 3.70168681,5.61368795 3.56022527,5.87852236 L3.40158791,5.70355852 C1.93874176,4.09557118 1.63458791,3.76234794 1.63458791,1.59131495 L1.63458791,1.19290909 C1.63458791,0.972609183 1.45139011,0.795272727 1.2256978,0.795272727 C1.00000549,0.795272727 0.816873626,0.972609183 0.816873626,1.19290909 L0.816873626,1.59131495 C0.816873626,4.06456696 1.31401648,4.61010661 2.79077473,6.23082267 L3.05978571,6.5266613 C3.11048901,6.58232141 3.17428022,6.61412719 3.24133516,6.63641048 C3.13745604,6.97437894 3.07043407,7.34418525 3.03199451,7.73941694 C0.939543956,8.3676452 1.64835163e-05,9.82138092 1.64835163e-05,12.4472814 L1.64835163e-05,13.1216794 C1.64835163e-05,13.3419472 0.183148352,13.5193157 0.408840659,13.5193157 C0.634532967,13.5193157 0.817664835,13.3419472 0.817664835,13.1216794 L0.817664835,12.4472814 C0.817664835,10.2977302 1.46286264,9.15894221 2.9952033,8.59749967 C3.00173077,9.08180037 3.04752198,9.60111308 3.13422527,10.1593494 C3.14401648,10.2277703 3.15792857,10.294556 3.16936813,10.3629448 C3.12848901,10.4019005 3.09413736,10.4456335 3.07204945,10.5013256 L2.92488462,10.8584032 C1.77519231,13.6600371 1.46609341,14.4139495 2.51929121,17.5647736 C2.5756978,17.7317539 2.73601648,17.8390984 2.90853297,17.8390984 C2.95023626,17.8390984 2.99355495,17.8327501 3.03443407,17.8208229 C3.24951099,17.7524341 3.36644505,17.527389 3.29691758,17.3198178 C2.40891758,14.6636505 2.54055495,13.9733817 3.44493956,11.7411098 C4.41881868,15.7436362 6.66829121,18.6916023 8.91773077,18.6916023 C8.96599451,18.6916023 9.01504945,18.6916023 9.01587363,18.6868571 C9.06492857,18.6916023 9.11236813,18.6916023 9.16142308,18.6916023 C11.3985989,18.6916023 13.6366319,15.7762115 14.6186868,11.8111017 C15.4968956,13.986912 15.6179176,14.6914805 14.7380604,17.3198178 C14.6685659,17.52896 14.7863242,17.7524341 14.9997527,17.8208229 C15.0414231,17.8351227 15.0847747,17.8390984 15.126478,17.8390984 C15.2981703,17.8390984 15.4576319,17.7317539 15.5156868,17.5647736 C16.5697088,14.4155526 16.2597857,13.6624738 15.1117418,10.8631484 L14.9629286,10.5013256 C14.9482253,10.4655441 14.9236978,10.4369125 14.9008187,10.4082809 C14.915522,10.3255602 14.9318736,10.2444747 14.9441374,10.1609525 C15.0291593,9.61701597 15.0716868,9.11280459 15.081511,8.6396295 C16.5492692,9.21222971 17.1699066,10.3446693 17.1699066,12.4457104 L17.1699066,13.1201083 C17.1699066,13.3403762 17.3530385,13.5177126 17.5787308,13.5177126 C17.8044231,13.5177126 17.9875879,13.3403762 17.9875879,13.1201083 L17.9875879,12.4457104 C17.9884121,9.87226376 17.0734121,8.43209038 15.0528956,7.78712561" id="Fill-1" fill="#FFFFFF" mask="url(#mask-2)"></path>
            </g>
        </g>
    </g>
</svg>