<?xml version="1.0" encoding="UTF-8" standalone="no"?>
<svg width="20px" height="20px" viewBox="0 0 20 20" version="1.1" xmlns="http://www.w3.org/2000/svg" xmlns:xlink="http://www.w3.org/1999/xlink">
    <!-- Generator: Sketch 39.1 (31720) - http://www.bohemiancoding.com/sketch -->
    <title>acc_calendar_small</title>
    <desc>Created with Sketch.</desc>
    <defs></defs>
    <g id="Page-1" stroke="none" stroke-width="1" fill="none" fill-rule="evenodd">
        <g id="acc_calendar_small" fill="#FFFFFF">
            <path d="M14.1960967,0.28 L12.9346881,0.28 L12.9346881,2.51963801 L7.06531191,2.51963801 L7.06531191,0.28 L5.80390326,0.28 L5.80390326,2.51963801 L1,2.51963801 L1,18.4315893 L19,18.4315893 L19,2.51963801 L14.1960967,2.51963801 L14.1960967,0.28 Z M2.26140865,17.1716299 L2.26140865,8.28032205 L17.7385913,8.28032205 L17.7385913,17.1716299 L2.26140865,17.1716299 Z M17.7385913,3.77959744 L17.7385913,6.99746482 L2.26140865,6.99746482 L2.26140865,3.77959744 L5.80506264,3.77959744 L5.80506264,5.30128756 L7.06647129,5.30128756 L7.06647129,3.77959744 L12.9143989,3.77959744 L12.9143989,5.30128756 L14.1755177,5.30128756 L14.1755177,3.77959744 L17.7385913,3.77959744 Z" id="Page-1"></path>
        </g>
    </g>
</svg>