<?xml version="1.0" encoding="UTF-8" standalone="no"?>
<svg width="20px" height="20px" viewBox="0 0 20 20" version="1.1" xmlns="http://www.w3.org/2000/svg" xmlns:xlink="http://www.w3.org/1999/xlink">
    <!-- Generator: Sketch 39.1 (31720) - http://www.bohemiancoding.com/sketch -->
    <title>acc_campaigns_small</title>
    <desc>Created with Sketch.</desc>
    <defs></defs>
    <g id="Page-1" stroke="none" stroke-width="1" fill="none" fill-rule="evenodd">
        <g id="acc_campaigns_small" fill="#FFFFFF">
            <path d="M11.7724155,15.374411 C11.7724155,15.4570309 11.7724155,15.5613989 11.5826659,15.5638921 L6.04137899,15.5638921 C5.95914266,15.5638921 5.85550339,15.5638921 5.84978827,15.374411 L5.84978827,12.9217045 L11.7721854,14.2071843 L11.7721854,15.374411 L11.7724155,15.374411 Z M19.8132422,3.10995824 C19.695411,3.01517933 19.5408343,2.97889408 19.3910522,3.01199574 L1.79331983,6.83648406 L1.79331983,6.6670634 C1.79331983,6.39012947 1.56908773,6.16589736 1.29165516,6.16589736 L0.500283838,6.16589736 C0.222659486,6.16589736 0,6.39012947 0,6.6670634 L0,12.2076983 C0,12.4849007 0.222889625,12.7109356 0.500283838,12.7109356 L1.29165516,12.7109356 C1.56908773,12.7109356 1.79331983,12.4849007 1.79331983,12.2076983 L1.79331983,12.0382776 L4.64715855,12.6588858 L4.64715855,15.3746411 C4.64715855,15.9340323 5.01867962,16.7669821 6.04137899,16.7669821 L11.5826659,16.7669821 C12.1438982,16.7669821 12.9768097,16.3973021 12.9768097,15.3746411 L12.9768097,14.4695428 L19.3910522,15.8648372 C19.4271073,15.8712427 19.4643515,15.875577 19.4990257,15.875577 C19.6116021,15.875577 19.7214167,15.8367602 19.8132422,15.7646117 C19.9308049,15.6698327 20,15.5243849 20,15.3746411 L20,3.50038906 C20,3.34830554 19.9305747,3.20607963 19.8132422,3.10995824 L19.8132422,3.10995824 Z" id="Fill-1"></path>
        </g>
    </g>
</svg>