<?xml version="1.0" encoding="UTF-8" standalone="no"?>
<svg width="20px" height="20px" viewBox="0 0 20 20" version="1.1" xmlns="http://www.w3.org/2000/svg" xmlns:xlink="http://www.w3.org/1999/xlink">
    <!-- Generator: Sketch 39.1 (31720) - http://www.bohemiancoding.com/sketch -->
    <title>acc_tracker_url_small</title>
    <desc>Created with Sketch.</desc>
    <defs></defs>
    <g id="Page-1" stroke="none" stroke-width="1" fill="none" fill-rule="evenodd">
        <g id="acc_tracker_url_small" fill="#FFFFFF">
            <path d="M18.6519107,0.362993002 C18.1877917,-0.120464334 17.4297981,-0.120464334 16.9656791,0.362993002 L14.549068,2.88240741 C13.5585082,2.19575021 12.4222779,1.85558836 11.2812342,1.85558836 C9.76220699,1.85558836 8.22341929,2.45964614 7.08338889,3.66776169 L3.52066722,7.37893009 C1.48913304,9.49326425 1.23883304,12.7618792 2.76470039,15.1606932 L0.348089282,17.6811632 C-0.116029761,18.1646205 -0.116029761,18.9470719 0.348089282,19.4305292 C0.579642124,19.6717301 0.883396891,19.7923306 1.187405,19.7923306 C1.49115976,19.7923306 1.79491453,19.6717301 2.02646737,19.4294737 L4.44307848,16.9100593 C5.43363823,17.5967165 6.57670871,17.9368783 7.71775247,17.9368783 C9.21701912,17.9368783 10.7558068,17.3328205 11.9155977,16.124705 L15.4712259,12.4135366 C17.5040268,10.2992024 17.7543268,7.03058747 16.2284594,4.6317735 L18.6519107,2.1123591 C19.1160298,1.62890176 19.1160298,0.845394755 18.6519107,0.362993002 L18.6519107,0.362993002 Z M14.8368623,8.04078108 C14.8368623,9.03144638 14.4659724,9.96431848 13.7938612,10.6641705 L10.238233,14.3753389 C9.56333502,15.0762465 8.65080402,15.462854 7.71977919,15.462854 C7.1814315,15.462854 6.66664444,15.3256281 6.1936585,15.0907607 L7.94626523,13.2445448 C8.41038428,12.7608236 8.41038428,11.9786361 7.94626523,11.4951787 C7.50190672,11.0117214 6.75075335,11.0117214 6.28663431,11.4951787 L4.51426705,13.3413946 C4.28676765,12.8505482 4.15705752,12.3145756 4.15705752,11.7516856 C4.15705752,10.7610203 4.52820075,9.82814818 5.20107203,9.12829619 L8.74403317,5.41712778 C9.41690445,4.7162202 10.3312088,4.32961267 11.2822475,4.32961267 C11.8205952,4.32961267 12.3333556,4.46683855 12.8063415,4.70170592 L10.9992666,6.58618673 C10.5351476,7.06964407 10.5351476,7.85209549 10.9992666,8.33555283 C11.2308195,8.5767537 11.5345743,8.69840972 11.838329,8.69840972 C12.1403104,8.69840972 12.4440652,8.57780929 12.675618,8.33555283 L14.4806662,6.45107202 C14.7074055,6.94086286 14.8368623,7.47789107 14.8368623,8.04078108 L14.8368623,8.04078108 Z" id="Page-1"></path>
        </g>
    </g>
</svg>