<?xml version="1.0" encoding="UTF-8" standalone="no"?>
<svg width="20px" height="20px" viewBox="0 0 20 20" version="1.1" xmlns="http://www.w3.org/2000/svg" xmlns:xlink="http://www.w3.org/1999/xlink">
    <!-- Generator: Sketch 39.1 (31720) - http://www.bohemiancoding.com/sketch -->
    <title>acc_documents_small</title>
    <desc>Created with Sketch.</desc>
    <defs>
        <polygon id="path-1" points="6.37583868e-06 20.45409 18.9770151 20.45409 18.9770151 0.0129003759 6.37583868e-06 0.0129003759 6.37583868e-06 20.45409"></polygon>
    </defs>
    <g id="Page-1" stroke="none" stroke-width="1" fill="none" fill-rule="evenodd">
        <g id="acc_documents_small">
            <g id="Page-1">
                <polygon id="Fill-1" fill="#FFFFFF" points="3.53055705 12.9410354 11.4744379 12.9410354 11.4744379 11.6502207 3.53055705 11.6502207"></polygon>
                <polygon id="Fill-2" fill="#FFFFFF" points="3.53055705 9.06793843 11.4744379 9.06793843 11.4744379 7.77712372 3.53055705 7.77712372"></polygon>
                <polygon id="Fill-3" fill="#FFFFFF" points="3.53055705 5.195028 11.4744379 5.195028 11.4744379 3.90418219 3.53055705 3.90418219"></polygon>
                <g id="Group-6" transform="translate(0.000000, 0.018185)">
                    <mask id="mask-2" fill="white">
                        <use xlink:href="#path-1"></use>
                    </mask>
                    <g id="Clip-5"></g>
                    <path d="M17.6528235,18.7323498 C17.6528235,19.0013304 17.4874342,19.1624142 17.211743,19.1624142 L5.9578453,19.1624142 C5.68196275,19.1624142 5.51660537,19.001548 5.51660537,18.7323498 L5.51660537,17.6563652 L14.1224577,17.6563652 C14.6744141,17.6563652 15.0051926,17.3337937 15.0051926,16.7955838 L15.0051926,4.53152281 L17.211743,4.53152281 C17.4874342,4.53152281 17.6528235,4.69260654 17.6528235,4.96158715 L17.6528235,18.7323498 Z M1.32401309,15.935424 L1.32401309,1.73419287 C1.32401309,1.46518117 1.48940235,1.30372442 1.7652849,1.30372442 L13.2396909,1.30372442 C13.5156054,1.30372442 13.6809628,1.46518117 13.6809628,1.73419287 L13.6809628,15.935424 C13.6809628,16.2042492 13.5156054,16.3654883 13.2396909,16.3654883 L1.7652849,16.3654883 C1.48940235,16.3654883 1.32401309,16.2042492 1.32401309,15.935424 L1.32401309,15.935424 Z M18.0943185,3.02544278 L15.0051926,3.02544278 L15.0051926,0.873442486 C15.0051926,0.335450184 14.6744141,0.0128786162 14.1224577,0.0128786162 L0.882518121,0.0128786162 C0.330784899,0.0128786162 6.37583868e-06,0.335450184 6.37583868e-06,0.873442486 L6.37583868e-06,16.7957703 C6.37583868e-06,17.3341978 0.330784899,17.6569559 0.882518121,17.6569559 L3.97183523,17.6569559 L3.97183523,19.5935043 C3.97183523,20.1315277 4.30280503,20.4540993 4.85457013,20.4540993 L18.0943185,20.4540993 C18.646243,20.4540993 18.9770215,20.1315277 18.9770215,19.5935043 L18.9770215,3.88600665 C18.9770215,3.34779675 18.646243,3.02544278 18.0943185,3.02544278 L18.0943185,3.02544278 Z" id="Fill-4" fill="#FFFFFF" mask="url(#mask-2)"></path>
                </g>
            </g>
        </g>
    </g>
</svg>