<?xml version="1.0" encoding="UTF-8" standalone="no"?>
<svg width="20px" height="20px" viewBox="0 0 20 20" version="1.1" xmlns="http://www.w3.org/2000/svg" xmlns:xlink="http://www.w3.org/1999/xlink">
    <!-- Generator: Sketch 39.1 (31720) - http://www.bohemiancoding.com/sketch -->
    <title>acc_email_small</title>
    <desc>Created with Sketch.</desc>
    <defs></defs>
    <g id="Page-1" stroke="none" stroke-width="1" fill="none" fill-rule="evenodd">
        <g id="acc_email_small" fill="#FFFFFF">
            <path d="M1.81866667,2 C0.940533333,2 0.211466667,2.6168 0.0397333333,3.44293333 L10,13.4032 L19.9605333,3.44293333 C19.7874667,2.61786667 19.0594667,2 18.1813333,2 L1.8176,2 M0,4.68853333 L0,15.8730667 L5.5928,10.2802667 L0,4.68773333 M20,4.68773333 L14.4885333,10.1989333 L20,15.7104 L20,4.6856 M13.8458667,10.8397333 L10.3218667,14.3637333 C10.1448,14.5408 9.85626667,14.5408 9.6792,14.3637333 L6.23653333,10.9210667 L0.0792,17.0781333 C0.3064,17.8229333 0.9968,18.3616 1.8176,18.3616 L18.1813333,18.3616 C19.0490667,18.3616 19.7688,17.7594667 19.9530667,16.9490667 L13.8448,10.8408" id="Page-1"></path>
        </g>
    </g>
</svg>