<?xml version="1.0" encoding="UTF-8" standalone="no"?>
<svg width="20px" height="20px" viewBox="0 0 20 20" version="1.1" xmlns="http://www.w3.org/2000/svg" xmlns:xlink="http://www.w3.org/1999/xlink">
    <!-- Generator: Sketch 39.1 (31720) - http://www.bohemiancoding.com/sketch -->
    <title>acc_view_email_templates_small</title>
    <desc>Created with Sketch.</desc>
    <defs></defs>
    <g id="Page-1" stroke="none" stroke-width="1" fill="none" fill-rule="evenodd">
        <g id="acc_view_email_templates_small" fill="#FFFFFF">
            <g id="Group-35" transform="translate(0.000000, 3.000000)">
                <g id="Page-1">
                    <path d="M10,0.271142857 C4.65246377,0.271142857 0.217391304,5.15742857 0.217391304,7 C0.217391304,8.84257143 4.65246377,13.7288571 10,13.7288571 C15.3475362,13.7288571 19.7826087,8.84257143 19.7826087,7 C19.7826087,5.15742857 15.3475362,0.271142857 10,0.271142857 L10,0.271142857 Z M10,12.7645714 C5.1515942,12.7645714 1.19565217,8.13628571 1.19565217,7 C1.19565217,5.86371429 5.1515942,1.23542857 10,1.23542857 C14.8484058,1.23542857 18.8043478,5.86371429 18.8043478,7 C18.8043478,8.13628571 14.8484058,12.7645714 10,12.7645714 L10,12.7645714 Z" id="Fill-2"></path>
                </g>
                <path d="M12.0388376,4.68145093 L10.7803116,4.68145093 L10.7016537,4.97608086 C10.3870222,4.71287812 10.0247764,4.58840989 9.64784789,4.58840989 C9.04983827,4.58840989 8.53111579,4.82101247 8.09021216,5.30172447 C7.66587913,5.78222971 7.44542732,6.38720318 7.44542732,7.13173819 C7.44542732,7.86035285 7.63399647,8.44981948 8.01155429,8.89972456 C8.38932185,9.34962964 8.86126912,9.56672538 9.39635244,9.56672538 C9.88382152,9.56672538 10.2926327,9.36492972 10.6393567,8.96195867 C10.8908521,9.34962964 11.2841415,9.53529819 11.7716106,9.53529819 C12.5107849,9.53529819 13.1400479,9.22516142 13.690653,8.58958779 C14.2255266,7.95401416 14.4927536,7.19397231 14.4927536,6.29416215 C14.4927536,5.16195617 14.05185,4.20073893 13.1710915,3.39479683 C12.2903331,2.58864798 11.2046446,2.20097701 9.89850432,2.20097701 C8.53027677,2.20097701 7.35040861,2.65088209 6.39015324,3.56599233 C5.41500532,4.47944851 4.92753623,5.61186125 4.92753623,6.9605427 C4.92753623,8.2633239 5.38396167,9.37940277 6.31233438,10.3098131 C7.22497551,11.2402234 8.46714071,11.7054286 10.0247764,11.7054286 C10.968671,11.7054286 11.8815219,11.51976 12.793324,11.1320891 C13.0924337,11.0076208 13.2342276,10.682184 13.1079555,10.3873473 C12.9818931,10.0925106 12.6360082,9.9374422 12.3368985,10.0772105 C11.5503197,10.4026474 10.7794726,10.5732226 10.0247764,10.5732226 C8.82938646,10.5732226 7.90101375,10.2161518 7.24070709,9.50304396 C6.58019067,8.78993614 6.24919833,7.93706002 6.24919833,6.97501574 C6.24919833,5.92034396 6.59487348,5.05216775 7.30279437,4.33885317 C8.01071527,3.64104543 8.8604301,3.28418138 9.8829825,3.28418138 C10.826877,3.28418138 11.6134558,3.57901808 12.2739722,4.15235759 C12.9187571,4.72569711 13.2489104,5.4551388 13.2489104,6.33861509 C13.2489104,6.94358855 13.1071165,7.43939387 12.8082165,7.84257168 C12.5091068,8.24554273 12.1944753,8.44733839 11.8798438,8.44733839 C11.7070062,8.44733839 11.6126168,8.35450411 11.6126168,8.16800853 C11.6126168,8.01294015 11.6283484,7.84257168 11.6438702,7.64056926 L12.0388376,4.68145093 Z M10.2607501,7.86035285 C10.0402983,8.15498279 9.77328098,8.31005118 9.45864947,8.31005118 C9.25371948,8.31005118 9.08088191,8.20191682 8.95544881,7.98461432 C8.82938646,7.76731182 8.76708942,7.50410908 8.76708942,7.17867223 C8.76708942,6.77549442 8.86126912,6.46535765 9.03410669,6.21745499 C9.20715402,5.96955233 9.44312765,5.8450841 9.71098394,5.8450841 C9.94695758,5.8450841 10.1516778,5.93812513 10.3247251,6.12462071 C10.4975627,6.31028926 10.5917424,6.55922571 10.5917424,6.85302861 C10.6064252,7.24007931 10.4967237,7.56551616 10.2607501,7.86035285 L10.2607501,7.86035285 Z" id="Page-1"></path>
            </g>
        </g>
    </g>
</svg>