<?xml version="1.0" encoding="UTF-8" standalone="no"?>
<svg width="20px" height="20px" viewBox="0 0 20 20" version="1.1" xmlns="http://www.w3.org/2000/svg" xmlns:xlink="http://www.w3.org/1999/xlink">
    <!-- Generator: Sketch 39.1 (31720) - http://www.bohemiancoding.com/sketch -->
    <title>acc_email_marketing_small</title>
    <desc>Created with Sketch.</desc>
    <defs></defs>
    <g id="Page-1" stroke="none" stroke-width="1" fill="none" fill-rule="evenodd">
        <g id="acc_email_marketing_small" fill="#FFFFFF">
            <g id="Page-1-Copy-2" transform="translate(1.000000, 0.000000)">
                <path d="M9.92528855,9.55388475 C9.92528855,10.7572438 8.11971126,10.7572438 8.11971126,9.55388475 C8.11971126,8.35025633 9.92528855,8.35025633 9.92528855,9.55388475" id="Fill-1"></path>
                <path d="M17.256945,6.07362374 L13.5369818,6.07362374 L12.7203782,6.88995798 L12.5900233,7.0192356 L12.049212,7.56004693 L15.3632974,7.56004693 L9.0224999,12.5733249 L2.68170243,7.56004693 L5.99363322,7.56004693 L5.45389919,7.02031291 L5.32462158,6.88995798 L4.50801801,6.07362374 L0.786977454,6.07362374 C0.387294175,6.07362374 0.0619455217,6.38389001 0.0619455217,6.76364299 L0.0619455217,17.6894864 C0.0630228351,18.071394 0.387294175,18.3816602 0.786977454,18.3816602 L17.256945,18.3816602 C17.6568976,18.3816602 17.981977,18.071394 17.981977,17.6905637 L17.981977,6.7647203 C17.981977,6.38389001 17.6568976,6.07362374 17.256945,6.07362374 L17.256945,6.07362374 Z M1.66741185,8.36183745 L6.4038203,12.1060402 L1.66741185,16.0724389 L1.66741185,8.36183745 Z M2.64803639,16.8949677 L7.41272432,12.9056761 L9.02142259,14.177714 L10.5899909,12.9371875 L15.3875369,16.8949677 L2.64803639,16.8949677 Z M16.377588,16.0786335 L11.6021269,12.1375517 L16.377588,8.36183745 L16.377588,16.0786335 Z" id="Fill-2"></path>
                <path d="M6.33244829,7.02031291 L6.33137098,7.02031291 L7.34027499,8.02921693 C8.26811118,7.10138074 9.77365668,7.10138074 10.7025702,8.02921693 L11.7125515,7.0192356 L11.7114742,7.0192356 C10.2272056,5.53604434 7.81779417,5.53604434 6.33244829,7.02031291 L6.33244829,7.02031291 Z" id="Fill-3"></path>
                <path d="M2.29871751,2.98792877 L3.30654422,3.99575548 C6.46388053,0.839496483 11.5821966,0.840573797 14.7373783,3.99575548 L15.7462823,2.98792877 C12.0325136,-0.726917231 6.01140889,-0.726917231 2.29871751,2.98792877 L2.29871751,2.98792877 Z" id="Fill-4"></path>
                <path d="M4.31652555,5.00358218 L5.32462158,6.0124862 C7.36666917,3.97043861 10.6783306,3.97043861 12.7203782,6.0124862 L13.7295516,5.00358218 C11.129725,2.40510221 6.91527485,2.40510221 4.31652555,5.00358218 L4.31652555,5.00358218 Z" id="Fill-5"></path>
            </g>
        </g>
    </g>
</svg>