<?xml version="1.0" encoding="UTF-8" standalone="no"?>
<svg width="20px" height="20px" viewBox="0 0 20 20" version="1.1" xmlns="http://www.w3.org/2000/svg" xmlns:xlink="http://www.w3.org/1999/xlink">
    <!-- Generator: Sketch 39.1 (31720) - http://www.bohemiancoding.com/sketch -->
    <title>acc_direct_reports_small</title>
    <desc>Created with Sketch.</desc>
    <defs></defs>
    <g id="Page-1" stroke="none" stroke-width="1" fill="none" fill-rule="evenodd">
        <g id="acc_direct_reports_small" fill="#FFFFFF">
            <path d="M19.8530119,9.50249742 C19.7984903,9.39019461 19.7371534,9.27907706 19.6447036,9.18662726 C19.6387773,9.18070099 19.6319621,9.17951574 19.6272211,9.17507103 L16.5461536,6.09370725 C16.1004981,5.64805179 15.372456,5.64805179 14.9279857,6.09370725 C14.4823303,6.53936271 14.4823303,7.26740491 14.9279857,7.71187511 L16.2139862,8.99787558 L10.9926465,8.99787558 L10.9926465,3.7765359 L12.2902032,5.07409259 C12.7355624,5.51974805 13.4639009,5.51974805 13.9083711,5.07409259 C14.3537302,4.62843713 14.3537302,3.90039493 13.9083711,3.45592473 L10.8246368,0.372486747 C10.8201921,0.366560478 10.8178216,0.359745268 10.8130806,0.355004252 C10.6987036,0.240330939 10.5641773,0.157066854 10.4219468,0.102841489 C10.2909762,0.0403193461 10.149931,-0.00146085329 9.99584802,-0.00146085329 C9.81420786,-0.00146085329 9.65330964,0.0598760352 9.50752342,0.144325374 C9.39403536,0.198847053 9.28291781,0.261369196 9.18928275,0.355004252 C9.18335648,0.360930522 9.18217123,0.367745732 9.17772652,0.372486747 L6.08036181,3.46866621 C5.63470635,3.91432167 5.63470635,4.64236387 6.08036181,5.08683407 C6.52572096,5.53248953 7.25376316,5.53248953 7.69823336,5.08683407 L8.99934581,3.78572162 L8.99934581,8.99669032 L3.76526466,8.99669032 L5.07793334,7.68431796 C5.5235888,7.2386625 5.5235888,6.5106203 5.07793334,6.06615009 C4.63227788,5.62049463 3.90423568,5.62049463 3.45976547,6.06615009 L0.350844532,9.17507103 C0.344918262,9.17951574 0.338103053,9.18188624 0.333362037,9.18662726 C0.10994168,9.41004762 -0.00117587193,9.70517583 9.38195687e-06,9.9991188 C-0.00117587193,10.2930618 0.10994168,10.58819 0.333362037,10.8116103 C0.339288306,10.8175366 0.346103516,10.8187219 0.350844532,10.8231666 L3.45265395,13.9252723 C3.89830941,14.3709277 4.62635161,14.3709277 5.07082181,13.9252723 C5.51647727,13.4796168 5.51647727,12.7515746 5.07082181,12.3071044 L3.75489369,10.9911763 L8.99934581,10.9911763 L8.99934581,16.2356284 L7.69260341,14.928886 C7.24694795,14.4832306 6.51890575,14.4832306 6.07443554,14.928886 C5.62878008,15.3745415 5.62878008,16.1025837 6.07443554,16.5470539 L9.17654127,19.6488633 C9.18098597,19.6547896 9.18335648,19.6616048 9.18809749,19.6663458 C9.41151785,19.8897661 9.70546082,20.0008837 10.000589,19.9996984 C10.294532,20.0008837 10.5896602,19.8897661 10.8130806,19.6663458 C10.8190068,19.6604195 10.8201921,19.6536043 10.8246368,19.6488633 L13.9060006,16.5677958 C14.351656,16.1221404 14.351656,15.3940982 13.9060006,14.949628 C13.4603451,14.5039725 12.7323029,14.5039725 12.2878327,14.949628 L10.9926465,16.2448141 L10.9926465,10.9911763 L16.2231719,10.9911763 L14.9256152,12.288733 C14.4799598,12.7340921 14.4799598,13.4624306 14.9256152,13.9069009 C15.3712707,14.35226 16.0993129,14.35226 16.5437831,13.9069009 L19.6272211,10.8231666 C19.6331474,10.8187219 19.6399626,10.8163514 19.6447036,10.8116103 C19.7593769,10.696937 19.842641,10.562707 19.8968663,10.4204766 C19.9593885,10.289506 19.9999834,10.1484608 19.9999834,9.99437778 C20.0011687,9.81155237 19.9386465,9.6494689 19.8530119,9.50249742 L19.8530119,9.50249742 Z" id="Page-1"></path>
        </g>
    </g>
</svg>