<?xml version="1.0" encoding="UTF-8" standalone="no"?>
<svg width="20px" height="20px" viewBox="0 0 20 20" version="1.1" xmlns="http://www.w3.org/2000/svg" xmlns:xlink="http://www.w3.org/1999/xlink">
    <!-- Generator: Sketch 39.1 (31720) - http://www.bohemiancoding.com/sketch -->
    <title>acc_events_small</title>
    <desc>Created with Sketch.</desc>
    <defs></defs>
    <g id="Page-1" stroke="none" stroke-width="1" fill="none" fill-rule="evenodd">
        <g id="acc_events_small" fill="#FFFFFF">
            <g id="Page-1" transform="translate(10.000000, 9.916667) rotate(90.000000) translate(-10.000000, -9.916667) translate(3.000000, -0.000000)">
                <path d="M1.428,1.23865778 L3.77762264,1.23125333 C4.43060377,2.36968667 5.64833962,3.09902444 7,3.09902444 C8.22698113,3.09902444 9.34433962,2.49767778 10.0284906,1.5351 C10.1750943,1.32830444 10.2213208,1.23971556 10.2213208,1.23971556 L12.5730566,1.23971556 L12.572,18.5946756 L10.2213208,18.6010222 C9.56939623,17.4636467 8.35060377,16.7343089 7,16.7343089 C5.79890566,16.7343089 4.70426415,17.30974 4.0169434,18.2363533 C3.85079245,18.4606022 3.7805283,18.5936178 3.7805283,18.5936178 L1.4269434,18.5936178 C1.428,18.5936178 1.428,1.23865778 1.428,1.23865778 L1.428,1.23865778 Z M4.16249057,19.8333333 C4.40815094,19.8333333 4.63083019,19.6876244 4.72883019,19.4615244 C5.12109434,18.5658511 6.00626415,17.9740244 7,17.9740244 C7.99373585,17.9740244 8.87890566,18.5658511 9.27116981,19.4615244 C9.36916981,19.6876244 9.59184906,19.8333333 9.83750943,19.8333333 L12.5730566,19.8333333 C13.2572075,19.8333333 13.8100755,19.2785289 13.8100755,18.5946756 L13.8100755,1.23865778 C13.8100755,0.554804444 13.2561509,0 12.5730566,0 L9.83750943,0 C9.59184906,0 9.36916981,0.145708889 9.27116981,0.371808889 C8.87890566,1.26748222 7.99373585,1.85930889 7,1.85930889 C6.00626415,1.85930889 5.12109434,1.26748222 4.72883019,0.371808889 C4.63083019,0.145708889 4.40815094,0 4.16249057,0 L1.4269434,0 C0.742792453,0 0.189924528,0.554804444 0.189924528,1.23865778 L0.189924528,18.5946756 C0.189924528,19.2785289 0.743849057,19.8333333 1.4269434,19.8333333 L4.16249057,19.8333333 Z" id="Fill-1"></path>
                <path d="M4.21611321,7.4375 L9.78388679,7.4375 C10.1275472,7.4375 10.4051698,7.71543111 10.4051698,8.05735778 L10.4051698,11.7759756 C10.4051698,12.11896 10.1286038,12.3958333 9.78388679,12.3958333 L4.21611321,12.3958333 C3.87245283,12.3958333 3.59483019,12.1179022 3.59483019,11.7759756 L3.59483019,8.05735778 C3.59483019,7.71437333 3.87139623,7.4375 4.21611321,7.4375 L4.21611321,7.4375 Z M2.35675472,11.7759756 C2.35675472,12.8028133 3.18935849,13.6352844 4.21611321,13.6352844 L9.78388679,13.6352844 C10.8127547,13.6352844 11.6432453,12.8038711 11.6432453,11.7759756 L11.6432453,8.05735778 C11.6432453,7.03052 10.8106415,6.19804889 9.78388679,6.19804889 L4.21611321,6.19804889 C3.18724528,6.19804889 2.35675472,7.02946222 2.35675472,8.05735778 L2.35675472,11.7759756 Z" id="Fill-2"></path>
            </g>
        </g>
    </g>
</svg>