<?xml version="1.0" encoding="UTF-8" standalone="no"?>
<svg width="30px" height="30px" viewBox="0 0 30 30" version="1.1" xmlns="http://www.w3.org/2000/svg" xmlns:xlink="http://www.w3.org/1999/xlink">
    <!-- Generator: Sketch 3.8.3 (29802) - http://www.bohemiancoding.com/sketch -->
    <title>acc_invoices</title>
    <desc>Created with Sketch.</desc>
    <defs>
        <rect id="path-1" x="0" y="0" width="19.2" height="24"></rect>
        <mask id="mask-2" maskContentUnits="userSpaceOnUse" maskUnits="objectBoundingBox" x="0" y="0" width="19.2" height="24" fill="white">
            <use xlink:href="#path-1"></use>
        </mask>
    </defs>
    <g id="Page-1" stroke="none" stroke-width="1" fill="none" fill-rule="evenodd">
        <g id="acc_invoices">
            <g id="Group-2" transform="translate(6.000000, 3.000000)">
                <path d="M5.016,12.4 C5.016,12.1866656 5.08399932,12.0013341 5.22,11.844 C5.35600068,11.6866659 5.55999864,11.608 5.832,11.608 L6.504,11.608 L6.504,9.88 C6.504,9.3733308 6.58133256,8.89200228 6.736,8.436 C6.89066744,7.97999772 7.12666508,7.5786684 7.444,7.232 C7.76133492,6.8853316 8.15866428,6.60933436 8.636,6.404 C9.11333572,6.19866564 9.67733008,6.096 10.328,6.096 C10.7600022,6.096 11.1506649,6.15066612 11.5,6.26 C11.8493351,6.36933388 12.161332,6.52133236 12.436,6.716 C12.710668,6.91066764 12.951999,7.13999868 13.16,7.404 C13.368001,7.66800132 13.5493326,7.95199848 13.704,8.256 L12.712,8.88 C12.4879989,8.99733392 12.2706677,9.0493334 12.06,9.036 C11.8493323,9.0226666 11.6560009,8.9226676 11.48,8.736 C11.2773323,8.52799896 11.0933342,8.37333384 10.928,8.272 C10.7626658,8.17066616 10.5626678,8.12 10.328,8.12 C9.89599784,8.12 9.57466772,8.27066516 9.364,8.572 C9.15333228,8.87333484 9.048,9.30666384 9.048,9.872 L9.048,11.608 L12.088,11.608 L12.088,12.552 C12.088,12.6320004 12.0706668,12.7079996 12.036,12.78 C12.0013332,12.8520004 11.9533336,12.917333 11.892,12.976 C11.8306664,13.034667 11.7586671,13.0813332 11.676,13.116 C11.5933329,13.1506668 11.5013338,13.168 11.4,13.168 L9.048,13.168 L9.048,14.416 C9.048,14.7360016 8.9880006,15.025332 8.868,15.284 C8.7479994,15.542668 8.58666768,15.7839989 8.384,16.008 C8.6240012,15.9546664 8.8639988,15.9133335 9.104,15.884 C9.3440012,15.8546665 9.58666544,15.84 9.832,15.84 L13.848,15.84 L13.848,16.856 C13.848,16.9733339 13.8226669,17.0933327 13.772,17.216 C13.7213331,17.3386673 13.6506671,17.4493328 13.56,17.548 C13.4693329,17.6466672 13.3586673,17.7266664 13.228,17.788 C13.0973327,17.8493336 12.9520008,17.88 12.792,17.88 L5.16,17.88 L5.16,16.392 C5.33600088,16.3599998 5.50533252,16.3093337 5.668,16.24 C5.83066748,16.1706663 5.97333272,16.0826672 6.096,15.976 C6.21866728,15.8693328 6.31733296,15.7413341 6.392,15.592 C6.46666704,15.4426659 6.504,15.2693343 6.504,15.072 L6.504,13.168 L5.016,13.168 L5.016,12.4 Z" id="£" fill="#FFFFFF"></path>
                <use id="Rectangle-807" stroke="#FFFFFF" mask="url(#mask-2)" stroke-width="4" xlink:href="#path-1"></use>
            </g>
        </g>
    </g>
</svg>