<?xml version="1.0" encoding="UTF-8" standalone="no"?>
<svg width="20px" height="20px" viewBox="0 0 20 20" version="1.1" xmlns="http://www.w3.org/2000/svg" xmlns:xlink="http://www.w3.org/1999/xlink">
    <!-- Generator: Sketch 39.1 (31720) - http://www.bohemiancoding.com/sketch -->
    <title>acc_notes_small</title>
    <desc>Created with Sketch.</desc>
    <defs></defs>
    <g id="Page-1" stroke="none" stroke-width="1" fill="none" fill-rule="evenodd">
        <g id="acc_notes_small" fill="#FFFFFF">
            <g id="Page-1" transform="translate(0.000000, 1.000000)">
                <polygon id="Fill-1" points="19.1837669 15.2173913 18.4189873 15.2173913 18.4189873 3.51755233 0.831012712 3.51755233 0.831012712 13.7075684 0.0662330508 13.7075684 0.0662330508 2.7626409 19.1837669 2.7626409"></polygon>
                <polygon id="Fill-2" points="19.1837669 17.1043478 0.0662330508 17.1043478 0.0662330508 13.7075684 0.831012712 13.7075684 0.831012712 16.3497585 18.4189873 16.3497585 18.4189873 13.7075684 19.1837669 13.7075684"></polygon>
                <polygon id="Fill-3" points="6.1838178 4.64959742 6.94859746 4.64959742 6.94859746 0.120772947 6.1838178 0.120772947"></polygon>
                <polygon id="Fill-4" points="12.3014025 4.64959742 13.0661822 4.64959742 13.0661822 0.120772947 12.3014025 0.120772947"></polygon>
                <polygon id="Fill-5" points="3.50741525 11.0660225 15.7425847 11.0660225 15.7425847 10.3111111 3.50741525 10.3111111"></polygon>
                <polygon id="Fill-6" points="3.50741525 8.04669887 15.7425847 8.04669887 15.7425847 7.29178744 3.50741525 7.29178744"></polygon>
                <polygon id="Fill-7" points="3.50741525 14.0853462 15.7425847 14.0853462 15.7425847 13.3304348 3.50741525 13.3304348"></polygon>
            </g>
        </g>
    </g>
</svg>