<?xml version="1.0" encoding="UTF-8" standalone="no"?>
<svg width="20px" height="20px" viewBox="0 0 20 20" version="1.1" xmlns="http://www.w3.org/2000/svg" xmlns:xlink="http://www.w3.org/1999/xlink">
    <!-- Generator: Sketch 39.1 (31720) - http://www.bohemiancoding.com/sketch -->
    <title>acc_opportunities_small</title>
    <desc>Created with Sketch.</desc>
    <defs>
        <polygon id="path-1" points="0.0139835196 1.08436715 3.70906173 1.08436715 3.70906173 0.0085303549 0.0139835196 0.0085303549 0.0139835196 1.08436715"></polygon>
        <polygon id="path-3" points="10.9744358 13.4696683 10.9744358 0.0217084279 1.53631285e-05 0.0217084279 1.53631285e-05 13.4696683"></polygon>
    </defs>
    <g id="Page-1" stroke="none" stroke-width="1" fill="none" fill-rule="evenodd">
        <g id="acc_opportunities_small">
            <g id="Page-1" transform="translate(4.000000, 1.000000)">
                <g id="Group-3" transform="translate(3.625698, 16.876367)">
                    <mask id="mask-2" fill="white">
                        <use xlink:href="#path-1"></use>
                    </mask>
                    <g id="Clip-2"></g>
                    <path d="M0.0139835196,0.0085303549 C0.370838268,0.649361218 1.06423771,1.08437317 1.86152263,1.08437317 C2.65880754,1.08437317 3.35205335,0.649361218 3.70906173,0.0085303549 L0.0139835196,0.0085303549 Z" id="Fill-1" fill="#FFFFFF" mask="url(#mask-2)"></path>
                </g>
                <g id="Group-6" transform="translate(0.000000, 0.008434)">
                    <mask id="mask-4" fill="white">
                        <use xlink:href="#path-3"></use>
                    </mask>
                    <g id="Clip-5"></g>
                    <path d="M7.49918855,13.4696683 C7.86501536,13.4696683 8.23084218,13.111044 8.23084218,12.7524197 C8.23084218,9.70423354 10.9744511,9.29021614 10.9744511,5.40089239 C10.9744511,2.42996738 8.51764106,0.0217084279 5.48723324,0.0217084279 C2.45664106,0.0217084279 1.53631285e-05,2.42996738 1.53631285e-05,5.40089239 C1.53631285e-05,9.29021614 2.7436243,9.70423354 2.7436243,12.7524197 C2.7436243,13.111044 3.10945112,13.4696683 3.47524721,13.4696683 L7.49918855,13.4696683 Z" id="Fill-4" fill="#FFFFFF" mask="url(#mask-4)"></path>
                </g>
                <path d="M7.86502151,14.46428 C7.86502151,14.7108229 7.65924777,14.9125453 7.40775335,14.9125453 L3.56669469,14.9125453 C3.31520028,14.9125453 3.10945726,14.7108229 3.10945726,14.46428 C3.10945726,14.217707 3.31520028,14.0160147 3.56669469,14.0160147 L7.40775335,14.0160147 C7.65924777,14.0160147 7.86502151,14.217707 7.86502151,14.46428" id="Fill-7" fill="#FFFFFF"></path>
                <path d="M7.86502151,15.89872 C7.86502151,16.1452931 7.65924777,16.3469854 7.40775335,16.3469854 L3.56669469,16.3469854 C3.31520028,16.3469854 3.10945726,16.1452931 3.10945726,15.89872 C3.10945726,15.6521771 3.31520028,15.4504547 3.56669469,15.4504547 L7.40775335,15.4504547 C7.65924777,15.4504547 7.86502151,15.6521771 7.86502151,15.89872" id="Fill-9" fill="#FFFFFF"></path>
            </g>
        </g>
    </g>
</svg>