<?xml version="1.0" encoding="UTF-8" standalone="no"?>
<svg width="30px" height="30px" viewBox="0 0 30 30" version="1.1" xmlns="http://www.w3.org/2000/svg" xmlns:xlink="http://www.w3.org/1999/xlink">
    <!-- Generator: Sketch 3.8.3 (29802) - http://www.bohemiancoding.com/sketch -->
    <title>acc_overview</title>
    <desc>Created with Sketch.</desc>
    <defs></defs>
    <g id="Page-1" stroke="none" stroke-width="1" fill="none" fill-rule="evenodd">
        <g id="acc_overview" fill="#FFFFFF">
            <path d="M23.2818226,6.71705763 C21.0418083,4.47704331 18.0638486,3.23888 14.8800001,3.23888 C11.6961516,3.23888 8.71819194,4.47704331 6.47817763,6.71705763 C4.23816331,8.95707194 3,11.9350316 3,15.1188801 C3,18.3027286 4.23816331,21.2806883 6.47817763,23.5207026 C8.71819194,25.7607169 11.6961516,26.9988802 14.8800001,26.9988802 C18.0638486,26.9988802 21.0418083,25.7607169 23.2818226,23.5207026 C25.5218369,21.2806883 26.7600002,18.3027286 26.7600002,15.1188801 C26.7600002,11.9350316 25.5218369,8.95707194 23.2818226,6.71705763 L23.2818226,6.71705763 Z M16.6488048,25.2604989 C16.2066037,25.3489392 15.7644025,25.3779476 15.3222013,25.408371 L15.3222013,21.6634576 C16.8256853,21.6344492 18.2697375,21.4271453 19.5963411,21.1038078 C19.3904522,21.6938811 19.1251315,22.2245225 18.8598108,22.7551639 C18.2117207,23.9034719 17.444767,24.7588659 16.6488048,25.2604989 L16.6488048,25.2604989 Z M10.9291979,22.7537489 C10.6348688,22.2521158 10.3985564,21.692466 10.1926676,21.1023928 C11.5192711,21.4271453 12.9633233,21.6330342 14.4668073,21.6620426 L14.4668073,25.3765325 C14.0246061,25.3475241 13.582405,25.3171007 13.1402038,25.2286605 C12.3152333,24.7588659 11.5482795,23.9034719 10.9291979,22.7537489 L10.9291979,22.7537489 Z M13.1111954,4.97726129 C13.5533966,4.88882106 13.9955977,4.85981266 14.4377989,4.82938922 L14.4377989,8.54387916 C12.9343149,8.57288756 11.4902627,8.78019147 10.1636592,9.10352898 C10.369548,8.51345572 10.6348688,7.9828143 10.9001895,7.45217288 C11.5482795,6.33428828 12.3152333,5.47889431 13.1111954,4.97726129 L13.1111954,4.97726129 Z M18.8308024,7.48401136 C19.1251315,7.98564438 19.3614438,8.5452942 19.5673327,9.13536746 C18.2407291,8.81061491 16.7966769,8.60472604 15.2931929,8.57571764 L15.2931929,4.83080426 C15.7353941,4.85981266 16.1775953,4.8902361 16.6197965,4.97867634 C17.444767,5.47889431 18.2117207,6.33428828 18.8308024,7.48401136 L18.8308024,7.48401136 Z M25.168076,14.7651192 L21.4245776,14.7651192 C21.3955692,13.2326267 21.2186888,11.7581511 20.8649278,10.4025392 C21.4550011,10.608428 21.9856425,10.8737488 22.5162839,11.1390695 C23.666007,11.7871595 24.521401,12.5251049 25.0216189,13.3500754 C25.1100592,13.821285 25.1390676,14.2939096 25.168076,14.7651192 L25.168076,14.7651192 Z M20.5691837,14.7651192 L15.2931929,14.7651192 L15.2931929,9.42969657 C16.943134,9.45870497 18.5060498,9.69501728 19.8920852,10.106795 C20.3342864,11.5218388 20.5401753,13.1137631 20.5691837,14.7651192 L20.5691837,14.7651192 Z M14.4668073,9.42969657 L14.4668073,14.7955426 L9.19081657,14.7955426 C9.21982497,13.1441865 9.45613728,11.5522622 9.86933006,10.1082101 C11.2539504,9.69501728 12.8168663,9.45870497 14.4668073,9.42969657 L14.4668073,9.42969657 Z M8.3354226,14.7651192 L4.59192426,14.7651192 C4.62093266,14.2939096 4.6513561,13.821285 4.73979634,13.3500754 C5.24142936,12.5251049 6.09540828,11.7871595 7.24513136,11.1390695 C7.74676438,10.8447404 8.3064142,10.608428 8.89648746,10.4025392 C8.54131147,11.7581511 8.3354226,13.2326267 8.3354226,14.7651192 L8.3354226,14.7651192 Z M4.59192426,15.6205131 L8.3064142,15.6205131 C8.3354226,17.0949888 8.54272651,18.5100326 8.86606402,19.8366361 C8.27599076,19.6307472 7.74534934,19.3654265 7.21470792,19.1001058 C6.06498484,18.4520158 5.20959087,17.7140704 4.70937289,16.8890999 C4.6803645,16.4744921 4.62093266,16.0627143 4.59192426,15.6205131 L4.59192426,15.6205131 Z M9.19081657,15.6205131 L14.4682224,15.6205131 L14.4682224,20.8094787 C12.8168663,20.7790553 11.2539504,20.542743 9.86791502,20.1309652 C9.45613728,18.7739382 9.21982497,17.2124374 9.19081657,15.6205131 L9.19081657,15.6205131 Z M15.2931929,20.8080637 L15.2931929,15.6205131 L20.5705987,15.6205131 C20.5401753,17.2124374 20.303863,18.7739382 19.8920852,20.1309652 C18.5060498,20.542743 16.943134,20.7790553 15.2931929,20.8080637 L15.2931929,20.8080637 Z M21.4245776,15.6205131 L25.1390676,15.6205131 C25.1100592,16.0337059 25.0796357,16.4454837 24.9911955,16.8586765 C24.4895625,17.683647 23.6355835,18.4215923 22.4858605,19.0696824 C21.9842274,19.3640115 21.4245776,19.6003238 20.8345044,19.8062127 C21.2186888,18.5086175 21.3955692,17.0935737 21.4245776,15.6205131 L21.4245776,15.6205131 Z M24.5199859,11.4928304 C24.0777847,11.1100611 23.5471433,10.7258767 22.9280617,10.4025392 C22.2205398,10.0197698 21.4245776,9.66600888 20.5996071,9.40068817 C20.3342864,8.5452942 19.9805254,7.77975551 19.5977561,7.07223362 C19.2730036,6.48216036 18.8902342,5.95151894 18.5074649,5.48030936 C21.2767056,6.54017716 23.4587031,8.72217467 24.5199859,11.4928304 L24.5199859,11.4928304 Z M11.2539504,5.47889431 C10.8711811,5.9210955 10.4869967,6.45173692 10.1636592,7.07081858 C9.78088983,7.77834047 9.42712888,8.5743026 9.16180817,9.39927313 C8.3064142,9.66459384 7.54087551,10.0183548 6.83335362,10.4011241 C6.24328036,10.7258767 5.71263894,11.108646 5.24142936,11.4914154 C6.30129716,8.72217467 8.48329467,6.54017716 11.2539504,5.47889431 L11.2539504,5.47889431 Z M5.24001431,18.7449298 C5.6822155,19.1276992 6.21285692,19.5118836 6.83193858,19.8352211 C7.53946047,20.2179904 8.3354226,20.5717513 9.16039313,20.8370721 C9.42571384,21.692466 9.77947478,22.4580047 10.1622441,23.1655266 C10.4869967,23.7555999 10.869766,24.2862413 11.2525354,24.7574509 C8.48329467,23.6975831 6.30129716,21.5155856 5.24001431,18.7449298 L5.24001431,18.7449298 Z M18.5060498,24.7588659 C18.8888192,24.3166647 19.2730036,23.7860233 19.5963411,23.1669417 C19.9791104,22.4594198 20.3328713,21.6634576 20.5981921,20.8384871 C21.453586,20.5731664 22.2191247,20.2194054 22.9266466,19.8366361 C23.5167199,19.5118836 24.0473613,19.1291142 24.5185709,18.7463449 C23.4587031,21.5155856 21.2767056,23.6975831 18.5060498,24.7588659 L18.5060498,24.7588659 Z" id="Page-1"></path>
        </g>
    </g>
</svg>