<?xml version="1.0" encoding="UTF-8" standalone="no"?>
<svg width="20px" height="20px" viewBox="0 0 20 20" version="1.1" xmlns="http://www.w3.org/2000/svg" xmlns:xlink="http://www.w3.org/1999/xlink">
    <!-- Generator: Sketch 39.1 (31720) - http://www.bohemiancoding.com/sketch -->
    <title>acc_security_groups_small</title>
    <desc>Created with Sketch.</desc>
    <defs>
        <polygon id="path-1" points="14.9528471 0 2.36593052e-05 0 2.36593052e-05 20.2903349 14.9528471 20.2903349 14.9528471 5.506382e-15"></polygon>
    </defs>
    <g id="Page-1" stroke="none" stroke-width="1" fill="none" fill-rule="evenodd">
        <g id="acc_security_groups_small">
            <g id="Page-1" transform="translate(3.000000, 0.000000)">
                <mask id="mask-2" fill="white">
                    <use xlink:href="#path-1"></use>
                </mask>
                <g id="Clip-2"></g>
                <path d="M10.4327839,6.05185603 L10.4327839,9.61151207 L4.52037066,9.61151207 L4.52037066,6.05185603 L4.53054416,6.05185603 C4.52708991,5.99189394 4.52037066,5.93338488 4.52037066,5.87313218 C4.52037066,4.20257272 5.84373028,2.84804935 7.47574921,2.84804935 C9.10776814,2.84804935 10.4327839,4.20257272 10.4327839,5.87313218 C10.4327839,5.93338488 10.4277208,5.99189394 10.4245978,6.05185603 L10.4327839,6.05185603 Z M13.9100868,9.61151207 L13.214929,9.61151207 L13.214929,6.05185603 L13.206459,6.05185603 C13.2084464,5.99189394 13.214929,5.93338488 13.214929,5.87313218 C13.214929,2.62975439 10.6457177,-4.84346495e-06 7.47574921,-4.84346495e-06 C4.30880915,-4.84346495e-06 1.73964511,2.62975439 1.73964511,5.87313218 C1.73964511,5.93338488 1.7447082,5.99189394 1.74641167,6.05185603 L1.73964511,6.05185603 L1.73964511,9.61151207 L1.04278391,9.61151207 C0.467011041,9.61151207 2.36593052e-05,10.089223 2.36593052e-05,10.6788664 L2.36593052e-05,19.2229806 C2.36593052e-05,19.812624 0.466727129,20.2903349 1.04278391,20.2903349 L13.9100868,20.2903349 C14.4861435,20.2903349 14.952847,19.812624 14.952847,19.2229806 L14.952847,10.6788664 C14.9531309,10.089223 14.4861435,9.61151207 13.9100868,9.61151207 L13.9100868,9.61151207 Z" id="Fill-1" fill="#FFFFFF" mask="url(#mask-2)"></path>
            </g>
        </g>
    </g>
</svg>