<?xml version="1.0" encoding="UTF-8" standalone="no"?>
<svg width="20px" height="20px" viewBox="0 0 20 20" version="1.1" xmlns="http://www.w3.org/2000/svg" xmlns:xlink="http://www.w3.org/1999/xlink">
    <!-- Generator: Sketch 39.1 (31720) - http://www.bohemiancoding.com/sketch -->
    <title>suite_spots_small</title>
    <desc>Created with Sketch.</desc>
    <defs></defs>
    <g id="Page-1" stroke="none" stroke-width="1" fill="none" fill-rule="evenodd">
        <g id="suite_spots_small" fill="#FFFFFF">
            <path d="M9.57296,0.2 L1,5.04117333 L1,15.1623467 L9.57296,20 L18.1553067,15.1611733 L18.1553067,5.04117333 L9.57296,0.2 Z M10.01648,1.96586667 L16.4011733,5.56712 L12.94512,7.60549333 L10.01648,5.95432 L10.01648,1.96586667 Z M9.57648,9.59136 L11.4981067,8.45792 C11.7066667,8.33413333 11.97712,8.40424 12.1009067,8.61397333 C12.2244,8.82341333 12.1545867,9.09269333 11.9448533,9.21648 L10.01648,10.35432 L10.01648,12.5783733 C10.01648,12.8212533 9.81936,13.0183733 9.57648,13.0183733 C9.3336,13.0183733 9.13648,12.8212533 9.13648,12.5783733 L9.13648,10.3531467 L7.20810667,9.21530667 C6.99837333,9.09152 6.92973333,8.82253333 7.05234667,8.6128 C7.17584,8.40306667 7.44512,8.33413333 7.65485333,8.45674667 L9.57648,9.59136 Z M9.13648,1.96234667 L9.13648,5.94874667 L6.20666667,7.60314667 L2.75296,5.56712 L9.13648,1.96234667 Z M2.32,6.33242667 L5.32197333,8.10269333 L2.32,9.79757333 L2.32,6.33242667 Z M16.8353067,14.39 L9.57648,18.4611733 L2.32,14.39 L2.32,13.5994667 L9.57296,17.5811733 L16.8353067,13.4618933 L16.8353067,14.39 Z M16.8353067,12.2290133 L9.57296,16.2611733 L2.32,12.2301867 L2.32,11.2882933 L9.57296,15.3823467 L16.8353067,11.28712 L16.8353067,12.2290133 Z M16.8353067,9.79874667 L13.8298133,8.10386667 L16.8353067,6.33125333 L16.8353067,9.79874667 Z" id="Page-1-Copy-3"></path>
        </g>
    </g>
</svg>