<?xml version="1.0" encoding="UTF-8" standalone="no"?>
<svg
   xmlns:dc="http://purl.org/dc/elements/1.1/"
   xmlns:cc="http://creativecommons.org/ns#"
   xmlns:rdf="http://www.w3.org/1999/02/22-rdf-syntax-ns#"
   xmlns:svg="http://www.w3.org/2000/svg"
   xmlns="http://www.w3.org/2000/svg"
   xmlns:sodipodi="http://sodipodi.sourceforge.net/DTD/sodipodi-0.dtd"
   xmlns:inkscape="http://www.inkscape.org/namespaces/inkscape"
   width="32"
   height="32"
   viewBox="0 0 32 32"
   version="1.1"
   id="svg2"
   inkscape:version="0.48.4 r9939"
   sodipodi:docname="Subtract.svg">
  <metadata
     id="metadata24">
    <rdf:RDF>
      <cc:Work
         rdf:about="">
        <dc:format>image/svg+xml</dc:format>
        <dc:type
           rdf:resource="http://purl.org/dc/dcmitype/StillImage" />
        <dc:title>sb_add</dc:title>
      </cc:Work>
    </rdf:RDF>
  </metadata>
  <sodipodi:namedview
     pagecolor="#ffffff"
     bordercolor="#666666"
     borderopacity="1"
     objecttolerance="10"
     gridtolerance="10"
     guidetolerance="10"
     inkscape:pageopacity="0"
     inkscape:pageshadow="2"
     inkscape:window-width="1855"
     inkscape:window-height="1056"
     id="namedview22"
     showgrid="false"
     inkscape:zoom="11.9198"
     inkscape:cx="12.867975"
     inkscape:cy="1.5005738"
     inkscape:window-x="65"
     inkscape:window-y="24"
     inkscape:window-maximized="1"
     inkscape:current-layer="sb_add" />
  <!-- Generator: Sketch 3.8.3 (29802) - http://www.bohemiancoding.com/sketch -->
  <title
     id="title4">sb_add</title>
  <desc
     id="desc6">Created with Sketch.</desc>
  <defs
     id="defs8" />
  <g
     id="Page-1"
     style="fill:none;stroke:none"
     transform="translate(0,-80)">
    <g
       id="sb_add">
      <g
         id="g3001"
         transform="translate(0,80)">
        <ellipse
           d="M 31,16 C 31,24.284271 24.284271,31 16,31 7.7157288,31 1,24.284271 1,16 1,7.7157288 7.7157288,1 16,1 24.284271,1 31,7.7157288 31,16 z"
           style="stroke:#f5f5f5"
           sodipodi:ry="15"
           sodipodi:rx="15"
           sodipodi:cy="16"
           sodipodi:cx="16"
           ry="15"
           rx="15"
           cy="16"
           cx="16"
           id="Oval-7" />
        <polygon
           style="fill:#f5f5f5"
           transform="matrix(0.70710678,0.70710678,-0.70710678,0.70710678,15.756547,-6.8276697)"
           points="9.19,17.146 9.19,14.038 14.342,14.038 14.342,8.494 17.87,8.494 17.87,14.038 23.05,14.038 23.05,17.146 17.87,17.146 17.87,22.718 14.342,22.718 14.342,17.146 "
           id="polygon20" />
      </g>
    </g>
  </g>
</svg>
