<?xml version="1.0" encoding="UTF-8" standalone="no"?>
<svg width="20px" height="20px" viewBox="0 0 20 20" version="1.1" xmlns="http://www.w3.org/2000/svg" xmlns:xlink="http://www.w3.org/1999/xlink">
    <!-- Generator: Sketch 39.1 (31720) - http://www.bohemiancoding.com/sketch -->
    <title>acc_tasks_small</title>
    <desc>Created with Sketch.</desc>
    <defs></defs>
    <g id="Page-1" stroke="none" stroke-width="1" fill="none" fill-rule="evenodd">
        <g id="acc_tasks_small" fill="#FFFFFF">
            <g id="Page-1">
                <path d="M14.493597,9.86440299 C14.8004328,11.6722388 14.3109701,13.5943582 12.9628209,15.0287164 C10.6754478,17.4624179 6.83574627,17.5786866 4.40431343,15.2935821 C1.97174627,13.0070597 1.85207463,9.16877612 4.13973134,6.73620896 C5.48873134,5.30043284 7.37653731,4.69356716 9.19968657,4.88838806 L11.1405224,2.82362687 C8.12320896,1.86001493 4.68477612,2.61973134 2.37613433,5.07668657 C-0.825223881,8.48307463 -0.660179104,13.8566716 2.74620896,17.0580299 C6.1511791,20.2593881 11.526194,20.093209 14.7275522,16.6882388 C17.0370448,14.2312836 17.5820896,10.7517313 16.4344328,7.80077612 L14.493597,9.86440299 Z" id="Fill-1"></path>
                <path d="M18.4495672,0.684567164 C17.8202985,0.0552985075 16.8011045,0.0564328358 16.1718358,0.684567164 L15.4132537,1.44343284 L17.6907015,3.7208806 L18.4495672,2.96201493 C19.0774179,2.33302985 19.0785522,1.31270149 18.4495672,0.684567164 L18.4495672,0.684567164 Z" id="Fill-2"></path>
                <polygon id="Fill-3" points="6.30629851 12.8275522 9.34147761 12.0689701 16.9318358 4.47861194 14.6532537 2.20229851 7.06402985 9.79237313"></polygon>
            </g>
        </g>
    </g>
</svg>