<?xml version="1.0" encoding="UTF-8" standalone="no"?>
<svg
   xmlns:dc="http://purl.org/dc/elements/1.1/"
   xmlns:cc="http://creativecommons.org/ns#"
   xmlns:rdf="http://www.w3.org/1999/02/22-rdf-syntax-ns#"
   xmlns:svg="http://www.w3.org/2000/svg"
   xmlns="http://www.w3.org/2000/svg"
   xmlns:sodipodi="http://sodipodi.sourceforge.net/DTD/sodipodi-0.dtd"
   xmlns:inkscape="http://www.inkscape.org/namespaces/inkscape"
   width="20"
   height="20"
   viewBox="0 0 20 20"
   version="1.1"
   id="svg2"
   inkscape:version="0.48.4 r9939"
   sodipodi:docname="basic.svg">
  <metadata
     id="metadata23">
    <rdf:RDF>
      <cc:Work
         rdf:about="">
        <dc:format>image/svg+xml</dc:format>
        <dc:type
           rdf:resource="http://purl.org/dc/dcmitype/StillImage" />
      </cc:Work>
    </rdf:RDF>
  </metadata>
  <sodipodi:namedview
     pagecolor="#ffffff"
     bordercolor="#666666"
     borderopacity="1"
     objecttolerance="10"
     gridtolerance="10"
     guidetolerance="10"
     inkscape:pageopacity="0"
     inkscape:pageshadow="2"
     inkscape:window-width="1855"
     inkscape:window-height="1056"
     id="namedview21"
     showgrid="false"
     inkscape:zoom="7.8666667"
     inkscape:cx="-0.81527822"
     inkscape:cy="15"
     inkscape:window-x="65"
     inkscape:window-y="24"
     inkscape:window-maximized="1"
     inkscape:current-layer="svg2" />
  <!-- Generator: Sketch 39.1 (31720) - http://www.bohemiancoding.com/sketch -->
  <title
     id="title4">acc_default_module</title>
  <desc
     id="desc6">Created with Sketch.</desc>
  <defs
     id="defs8" />
  <g
     id="Page-1"
     style="fill:#ffffff;stroke:none"
     transform="matrix(0.66671202,0,0,0.66671202,-0.38420269,-0.11652868)">
    <g
       id="acc_default_module"
       style="fill:#ffffff">
      <path
         d="m 27.770673,8.6206102 c 0,-0.0059 -0.0014,-0.013271 -0.0014,-0.01917 C 27.748558,8.3212712 27.6,8.0676441 27.359615,7.9255932 L 15.990385,1.2167627 c -0.259616,-0.1513898 -0.578846,-0.1513898 -0.836058,0 L 3.7870192,7.9255932 c -0.2403846,0.1420509 -0.3889423,0.395678 -0.4096153,0.6758475 0,0.0059 -0.00192,0.011305 -0.00192,0.01917 0,0.015237 -0.00529,0.030475 -0.00529,0.046203 l 0,13.4206103 c 0,0.305237 0.1596154,0.587864 0.41875,0.74122 L 15.15625,29.538949 c 0.0096,0.0059 0.02067,0.0079 0.03029,0.01376 0.04471,0.02507 0.09183,0.04424 0.142789,0.05947 0.01683,0.0059 0.03173,0.01131 0.04856,0.01524 0.06394,0.01524 0.129807,0.02703 0.197115,0.02703 0.06779,0 0.133654,-0.0118 0.197115,-0.02703 0.01731,-0.0039 0.03221,-0.0093 0.04904,-0.01524 0.04904,-0.01524 0.0976,-0.03637 0.142788,-0.05947 0.0091,-0.0059 0.02067,-0.0079 0.02981,-0.01376 l 11.367789,-6.710305 c 0.259134,-0.15139 0.418749,-0.434017 0.418749,-0.74122 l 0,-13.4206104 c -0.0038,-0.015729 -0.0096,-0.030966 -0.0096,-0.046203 l 0,0 z m -12.197596,-5.6756441 9.7375,5.7483898 -9.7375,5.7469151 L 5.8341346,8.6913898 15.573077,2.9449661 z M 5.0413461,10.198898 14.106731,15.550136 c -0.03606,0.0034 -0.06971,0.01524 -0.101442,0.03637 l -0.944712,0.558372 c -0.133654,0.07914 -0.178365,0.253627 -0.101442,0.38978 0.05048,0.09241 0.144711,0.142542 0.242307,0.142542 0.04664,0 0.09567,-0.0118 0.138943,-0.03883 L 14.285096,16.08 c 0.123558,-0.07324 0.166827,-0.226593 0.1125,-0.357339 l 0.339904,0.201525 0,11.395526 -9.6961539,-5.72578 0,-11.395034 z m 11.3677889,17.116882 0,-11.395526 0.339903,-0.201525 c -0.05481,0.130746 -0.01154,0.286068 0.112501,0.359305 l 0.944711,0.558373 c 0.04327,0.02703 0.09183,0.03883 0.138942,0.03883 0.09567,0 0.189423,-0.0521 0.242308,-0.142051 0.07692,-0.136644 0.03173,-0.311135 -0.101442,-0.389779 l -0.944712,-0.558865 c -0.03173,-0.01917 -0.06779,-0.03097 -0.101442,-0.03637 l 9.065384,-5.351238 0,11.395526 -9.696153,5.723322 z"
         id="Fill-1"
         inkscape:connector-curvature="0"
         style="fill:#ffffff" />
      <path
         d="m 23.759615,19.491678 -0.944711,-0.558864 c -0.133173,-0.08061 -0.304327,-0.03244 -0.38125,0.103711 -0.07692,0.136644 -0.03221,0.311136 0.101442,0.38978 l 0.944712,0.558865 c 0.04327,0.02703 0.09183,0.03834 0.138942,0.03834 0.09567,0 0.189423,-0.05161 0.242308,-0.14205 0.07885,-0.136153 0.03173,-0.311136 -0.101443,-0.38978 l 0,0 z"
         id="Fill-2"
         inkscape:connector-curvature="0"
         style="fill:#ffffff" />
      <path
         d="m 25.652404,20.609407 -0.944712,-0.558865 c -0.133173,-0.07864 -0.303846,-0.03293 -0.38125,0.103712 -0.07692,0.136153 -0.03173,0.311136 0.101443,0.38978 l 0.944711,0.558373 c 0.04327,0.02703 0.09231,0.03883 0.138942,0.03883 0.09567,0 0.189904,-0.0521 0.242308,-0.142051 0.07692,-0.13861 0.03221,-0.311135 -0.101442,-0.389779 l 0,0 z"
         id="Fill-3"
         inkscape:connector-curvature="0"
         style="fill:#ffffff" />
      <path
         d="m 21.868269,18.376407 -0.944711,-0.558865 c -0.133173,-0.07864 -0.304327,-0.03293 -0.38125,0.103712 -0.07692,0.136153 -0.03173,0.311136 0.101442,0.38978 l 0.944711,0.558373 c 0.04327,0.02703 0.09183,0.03883 0.138943,0.03883 0.09567,0 0.189904,-0.0521 0.242307,-0.142051 0.07885,-0.136644 0.03173,-0.311135 -0.101442,-0.389779 l 0,0 z"
         id="Fill-4"
         inkscape:connector-curvature="0"
         style="fill:#ffffff" />
      <path
         d="M 19.976923,17.260644 19.032692,16.70178 c -0.133654,-0.08061 -0.304327,-0.03244 -0.38125,0.103711 -0.07692,0.136645 -0.03221,0.311136 0.101443,0.38978 l 0.94423,0.558865 c 0.04327,0.02703 0.09231,0.03834 0.139423,0.03834 0.09567,0 0.189423,-0.05161 0.241827,-0.142051 0.07933,-0.138119 0.03221,-0.313102 -0.101442,-0.38978 l 0,0 z"
         id="Fill-5"
         inkscape:connector-curvature="0"
         style="fill:#ffffff" />
      <path
         d="M 6.4403846,20.050542 5.4956731,20.607441 C 5.3625,20.686085 5.3173077,20.860576 5.3942308,20.99722 c 0.050962,0.09192 0.1447115,0.142051 0.2423077,0.142051 0.047115,0 0.096154,-0.0118 0.1389423,-0.03834 l 0.9447115,-0.556898 c 0.1336538,-0.07864 0.1783654,-0.253627 0.1014423,-0.38978 -0.078846,-0.136644 -0.2495192,-0.182356 -0.38125,-0.103712 l 0,0 z"
         id="Fill-6"
         inkscape:connector-curvature="0"
         style="fill:#ffffff" />
      <path
         d="m 12.113942,16.70178 -0.946634,0.558864 c -0.133173,0.07864 -0.178366,0.253627 -0.101443,0.38978 0.05096,0.09192 0.144712,0.142051 0.242308,0.142051 0.04712,0 0.09567,-0.01131 0.138942,-0.03834 L 12.39375,17.19527 c 0.133173,-0.07864 0.178365,-0.253135 0.101442,-0.38978 -0.07885,-0.136152 -0.248077,-0.184322 -0.38125,-0.103711 l 0,0 z"
         id="Fill-7"
         inkscape:connector-curvature="0"
         style="fill:#ffffff" />
      <path
         d="m 8.3317308,18.93478 -0.9447116,0.556898 c -0.1331731,0.07864 -0.1783654,0.253627 -0.1014423,0.38978 0.050962,0.09241 0.1447116,0.14205 0.2423077,0.14205 0.047115,0 0.095673,-0.01131 0.1389423,-0.03834 l 0.9447116,-0.556899 c 0.133173,-0.07864 0.1783654,-0.253135 0.1014423,-0.38978 -0.078846,-0.136152 -0.25,-0.184322 -0.38125,-0.103711 l 0,0 z"
         id="Fill-8"
         inkscape:connector-curvature="0"
         style="fill:#ffffff" />
      <path
         d="M 10.222596,17.817542 9.2783654,18.376407 C 9.1447115,18.455051 9.1,18.629542 9.1769231,18.766186 c 0.050481,0.09192 0.1442308,0.142051 0.2423077,0.142051 0.046635,0 0.095673,-0.0118 0.1389423,-0.03883 l 0.9442309,-0.558373 c 0.133654,-0.07864 0.178846,-0.253627 0.101442,-0.38978 -0.07885,-0.136644 -0.249519,-0.182356 -0.38125,-0.103712 l 0,0 z"
         id="Fill-9"
         inkscape:connector-curvature="0"
         style="fill:#ffffff" />
    </g>
  </g>
</svg>
