<?xml version="1.0" encoding="UTF-8" standalone="no"?>
<svg
   xmlns:dc="http://purl.org/dc/elements/1.1/"
   xmlns:cc="http://creativecommons.org/ns#"
   xmlns:rdf="http://www.w3.org/1999/02/22-rdf-syntax-ns#"
   xmlns:svg="http://www.w3.org/2000/svg"
   xmlns="http://www.w3.org/2000/svg"
   xmlns:sodipodi="http://sodipodi.sourceforge.net/DTD/sodipodi-0.dtd"
   xmlns:inkscape="http://www.inkscape.org/namespaces/inkscape"
   width="30px"
   height="30px"
   viewBox="0 0 30 30"
   version="1.1"
   id="svg2"
   inkscape:version="0.48.4 r9939"
   sodipodi:docname="Createissue.svg">
  <metadata
     id="metadata27">
    <rdf:RDF>
      <cc:Work
         rdf:about="">
        <dc:format>image/svg+xml</dc:format>
        <dc:type
           rdf:resource="http://purl.org/dc/dcmitype/StillImage" />
        <dc:title>my_pdf_templates_dark</dc:title>
      </cc:Work>
    </rdf:RDF>
  </metadata>
  <sodipodi:namedview
     pagecolor="#ffffff"
     bordercolor="#666666"
     borderopacity="1"
     objecttolerance="10"
     gridtolerance="10"
     guidetolerance="10"
     inkscape:pageopacity="0"
     inkscape:pageshadow="2"
     inkscape:window-width="1855"
     inkscape:window-height="1056"
     id="namedview25"
     showgrid="false"
     inkscape:zoom="30.3"
     inkscape:cx="15"
     inkscape:cy="15"
     inkscape:window-x="65"
     inkscape:window-y="24"
     inkscape:window-maximized="1"
     inkscape:current-layer="g3775"
     showguides="true"
     inkscape:guide-bbox="true" />
  <!-- Generator: Sketch 39.1 (31720) - http://www.bohemiancoding.com/sketch -->
  <title
     id="title4">my_pdf_templates_dark</title>
  <desc
     id="desc6">Created with Sketch.</desc>
  <defs
     id="defs8" />
  <g
     id="Page-1"
     stroke="none"
     stroke-width="1"
     fill="none"
     fill-rule="evenodd">
    <g
       id="g3775"
       transform="matrix(1.1619723,0,0,1.1619723,-2.3340882,-4.6322072)">
      <path
         sodipodi:nodetypes="sscs"
         inkscape:connector-curvature="0"
         id="path2999"
         d="m 24.194974,25.307183 c -3.585096,3.727226 -14.090891,4.019563 -18.4276354,0 C 2.3957752,22.18221 10.221886,5.287912 14.981157,5.3554569 19.819066,5.4241179 27.183392,22.200292 24.194974,25.307183 z"
         style="fill:#778591;fill-opacity:1;stroke:none" />
      <path
         sodipodi:nodetypes="ccccc"
         inkscape:connector-curvature="0"
         id="rect3770"
         d="m 11.369882,9.9831081 7.166887,0 -2.053643,10.7738809 -2.966253,0 z"
         style="fill:#ffffff;fill-opacity:1" />
      <rect
         y="22.70072"
         x="13.569182"
         height="2.8849297"
         width="3.0223072"
         id="rect3772"
         style="fill:#ffffff;fill-opacity:1;stroke:none" />
      <path
         sodipodi:type="arc"
         style="fill:#ffffff;fill-opacity:1;stroke:none"
         id="path3756"
         sodipodi:cx="26.930693"
         sodipodi:cy="23.729372"
         sodipodi:rx="5.6765676"
         sodipodi:ry="5.6765676"
         d="m 32.60726,23.729372 a 5.6765676,5.6765676 0 1 1 -11.353135,0 5.6765676,5.6765676 0 1 1 11.353135,0 z"
         transform="matrix(0.87061275,0,0,0.87061275,-0.7034103,3.9762658)" />
      <polygon
         transform="matrix(0.5133072,0,0,0.5133072,15.14995,-3.5951688)"
         style="fill:#534d64"
         id="polygon18"
         points="9.19,54.038 14.342,54.038 14.342,48.494 17.87,48.494 17.87,54.038 23.05,54.038 23.05,57.146 17.87,57.146 17.87,62.718 14.342,62.718 14.342,57.146 9.19,57.146 " />
    </g>
  </g>
</svg>
