<?xml version="1.0" encoding="UTF-8" standalone="no"?>
<svg width="30px" height="30px" viewBox="0 0 30 30" version="1.1" xmlns="http://www.w3.org/2000/svg" xmlns:xlink="http://www.w3.org/1999/xlink">
    <!-- Generator: Sketch 3.8.3 (29802) - http://www.bohemiancoding.com/sketch -->
    <title>acc_aos_contracts</title>
    <desc>Created with Sketch.</desc>
    <defs></defs>
    <g id="Page-1" stroke="none" stroke-width="1" fill="none" fill-rule="evenodd">
        <g id="acc_aos_contracts" fill="#FFFFFF">
            <path d="M4.28428447,-0.1 L4.28428447,-0.1 C4.11675114,-0.0673333333 3.99635114,0.0806 4.00008447,0.25 L4.00008447,29.65 C4.00008447,29.8432 4.15688447,30 4.35008447,30 L25.3500845,30 C25.5432845,30 25.7000845,29.8432 25.7000845,29.65 L25.7000845,5.15 C25.7019511,5.05713333 25.6674178,4.96566667 25.6016178,4.89846667 L20.7016178,-0.00153333333 C20.6344178,-0.0673333333 20.5429511,-0.101866667 20.4500845,-0.1 L4.35008447,-0.1 C4.32815114,-0.101866667 4.30621781,-0.101866667 4.28428447,-0.1 L4.28428447,-0.1 Z M4.70008447,0.6 L20.1000845,0.6 L20.1000845,5.15 C20.1000845,5.3432 20.2568845,5.5 20.4500845,5.5 L25.0000845,5.5 L25.0000845,29.3 L4.70008447,29.3 L4.70008447,0.6 Z M20.8000845,1.09233333 L24.5077511,4.8 L20.8000845,4.8 L20.8000845,1.09233333 Z M7.50008447,4.8 C7.30688447,4.8 7.15008447,4.9568 7.15008447,5.15 C7.15008447,5.3432 7.30688447,5.5 7.50008447,5.5 L17.3000845,5.5 C17.4932845,5.5 17.6500845,5.3432 17.6500845,5.15 C17.6500845,4.9568 17.4932845,4.8 17.3000845,4.8 L7.50008447,4.8 Z M7.50008447,9 C7.30688447,9 7.15008447,9.1568 7.15008447,9.35 C7.15008447,9.5432 7.30688447,9.7 7.50008447,9.7 L22.2000845,9.7 C22.3932845,9.7 22.5500845,9.5432 22.5500845,9.35 C22.5500845,9.1568 22.3932845,9 22.2000845,9 L7.50008447,9 Z M7.50008447,13.2 C7.30688447,13.2 7.15008447,13.3568 7.15008447,13.55 C7.15008447,13.7432 7.30688447,13.9 7.50008447,13.9 L22.2000845,13.9 C22.3932845,13.9 22.5500845,13.7432 22.5500845,13.55 C22.5500845,13.3568 22.3932845,13.2 22.2000845,13.2 L7.50008447,13.2 Z M7.50008447,17.4 C7.30688447,17.4 7.15008447,17.5568 7.15008447,17.75 C7.15008447,17.9432 7.30688447,18.1 7.50008447,18.1 L22.2000845,18.1 C22.3932845,18.1 22.5500845,17.9432 22.5500845,17.75 C22.5500845,17.5568 22.3932845,17.4 22.2000845,17.4 L7.50008447,17.4 Z M15.8342845,21.25 L15.8342845,21.25 C15.7176178,21.2700667 15.6191511,21.3484667 15.5720178,21.4576667 L13.8878178,25.5046 L12.6623511,25.8107333 C12.4728845,25.8583333 12.3580845,26.0496667 12.4075511,26.2377333 C12.4565511,26.4272 12.6497511,26.5401333 12.8378178,26.4892667 L14.2378178,26.1392667 C14.3470178,26.1117333 14.4361511,26.0352 14.4781511,25.9311333 L15.8781511,22.5622667 L16.9720178,25.5704 C17.0774845,25.849 17.4624845,25.8765333 17.6062178,25.6142667 L19.0174178,23.0765333 L20.1327511,25.5923333 C20.2022845,25.7472667 20.3735511,25.8308 20.5378178,25.7892667 L21.9378178,25.4392667 C22.1272845,25.3916667 22.2420845,25.2003333 22.1926178,25.0122667 C22.1436178,24.8228 21.9504178,24.7098667 21.7623511,24.7607333 L20.6470178,25.0342 L19.3674178,22.1576667 C19.2507511,21.8954 18.8858178,21.8772 18.7439511,22.125 L17.3658845,24.6076667 L16.2281511,21.4796 C16.1716845,21.3158 16.0041511,21.2192 15.8342845,21.25 L15.8342845,21.25 Z" id="Page-1-Copy-2"></path>
        </g>
    </g>
</svg>