<?xml version="1.0" encoding="UTF-8" standalone="no"?>
<svg width="20px" height="20px" viewBox="0 0 20 20" version="1.1" xmlns="http://www.w3.org/2000/svg" xmlns:xlink="http://www.w3.org/1999/xlink">
    <!-- Generator: Sketch 39.1 (31720) - http://www.bohemiancoding.com/sketch -->
    <title>acc_areas_maps_small</title>
    <desc>Created with Sketch.</desc>
    <defs></defs>
    <g id="Page-1" stroke="none" stroke-width="1" fill="none" fill-rule="evenodd">
        <g id="acc_areas_maps_small" fill="#FFFFFF">
            <g id="Page-1-Copy-2">
                <path d="M3.16346667,17.2946667 C4.952,18.9709333 7.3552,20 10,20 C10.8928,20 11.7562667,19.8813333 12.5792,19.6624 L6.68746667,13.7709333 L3.16346667,17.2946667 Z" id="Fill-1"></path>
                <path d="M19.6176,12.7354667 C19.8645333,11.8656 20,10.9490667 20,10 C20,9.1072 19.8813333,8.24373333 19.6624,7.4208 L16.9824,10.1 L19.6176,12.7354667 Z" id="Fill-2"></path>
                <path d="M6.48746667,6.79573333 L2.9584,10.3250667 C2.88026667,10.4032 2.75413333,10.4032 2.676,10.3250667 C2.59786667,10.2469333 2.59786667,10.1208 2.676,10.0426667 C2.676,10.0426667 2.67706667,10.0426667 2.67706667,10.0416 L6.20613333,6.51253333 L2.78026667,3.0864 C1.0584,4.8824 0,7.3168 0,10 C0,12.7344 1.09786667,15.2104 2.876,17.0157333 L9.7928,10.1 L6.48746667,6.79573333 Z M5.652,10.6405333 C5.652,10.2082667 6.00213333,9.8584 6.4344,9.8584 C6.86666667,9.8584 7.21653333,10.2093333 7.21653333,10.6405333 L6.4344,11.848 L5.652,10.6405333 Z" id="Fill-3"></path>
                <polygon id="Fill-4" points="6.76986667 6.51253333 9.79893333 3.4832 16.4157333 10.1 13.3864 13.1290667"></polygon>
                <path d="M12.4197333,0.2968 C11.6448,0.104266667 10.8344,0 10,0 C9.05093333,0 8.1344,0.135466667 7.26453333,0.3824 L9.8,2.9176 L12.4197333,0.2968 Z" id="Fill-5"></path>
                <path d="M9.5168,3.2 L6.83226667,0.515733333 C5.40426667,0.9928 4.11973333,1.7824 3.06053333,2.8032 L6.48746667,6.23013333 L9.5168,3.2 Z" id="Fill-6"></path>
                <path d="M6.97093333,13.4874667 L13.0186667,19.5354667 C14.4957333,19.0688 15.8218667,18.2666667 16.9146667,17.2218667 L10.0749333,10.3824 L6.97093333,13.4874667 Z" id="Fill-7"></path>
                <path d="M16.7,9.8176 L19.5354667,6.9824 C18.5405333,3.83546667 16.0312,1.36346667 12.8634667,0.418666667 L10.0824,3.2 L16.7,9.8176 Z" id="Fill-8"></path>
                <path d="M13.6709333,13.4125333 L17.1978667,16.9394667 C18.2197333,15.8802667 19.0093333,14.5957333 19.4853333,13.1677333 L16.7,10.3824 L13.6709333,13.4125333 Z" id="Fill-9"></path>
                <path d="M6.7968,10.5738667 C6.7968,11.0573333 6.072,11.0573333 6.072,10.5738667 C6.072,10.0906667 6.7968,10.0906667 6.7968,10.5738667" id="Fill-10"></path>
            </g>
        </g>
    </g>
</svg>