<?xml version="1.0" encoding="UTF-8" standalone="no"?>
<svg width="28px" height="98px" viewBox="0 0 28 98" version="1.1" xmlns="http://www.w3.org/2000/svg" xmlns:xlink="http://www.w3.org/1999/xlink">
    <!-- Generator: Sketch 3.8.3 (29802) - http://www.bohemiancoding.com/sketch -->
    <title>p_icon_alert_small</title>
    <desc>Created with Sketch.</desc>
    <defs></defs>
    <g id="Page-1" stroke="none" stroke-width="1" fill="none" fill-rule="evenodd">
        <g id="p_icon_alert_small" stroke-width="2">
            <path d="M12.4839276,20.7442218 L12.4839276,21.4961689 C12.4839276,22.3292728 13.1601106,23 14,23 C14.8399212,23 15.5160724,22.3292728 15.5160724,21.4961689 L15.5160724,20.7442218 L12.4839276,20.7442218 Z M14,6 C11.6377773,6 9.64132774,7.96304557 9.64132774,10.3235697 C9.64132774,15.5389792 7.19809402,15.9262894 7,18.7826906 L21,18.7826906 C20.8019378,15.9262894 18.3587358,15.5389792 18.3587358,10.3235697 C18.3587358,7.96301399 16.3622227,6 14,6 L14,6 Z" id="Fill-1" stroke="#FFFFFF"></path>
            <path d="M12.4839276,90.7442218 L12.4839276,91.4961689 C12.4839276,92.3292728 13.1601106,93 14,93 C14.8399212,93 15.5160724,92.3292728 15.5160724,91.4961689 L15.5160724,90.7442218 L12.4839276,90.7442218 Z M14,76 C11.6377773,76 9.64132774,77.9630456 9.64132774,80.3235697 C9.64132774,85.5389792 7.19809402,85.9262894 7,88.7826906 L21,88.7826906 C20.8019378,85.9262894 18.3587358,85.5389792 18.3587358,80.3235697 C18.3587358,77.963014 16.3622227,76 14,76 L14,76 Z" id="Fill-1" stroke="#534D64"></path>
        </g>
    </g>
</svg>