<?xml version="1.0" encoding="UTF-8" standalone="no"?>
<svg width="44px" height="148px" viewBox="0 0 44 148" version="1.1" xmlns="http://www.w3.org/2000/svg" xmlns:xlink="http://www.w3.org/1999/xlink">
    <!-- Generator: Sketch 3.8.3 (29802) - http://www.bohemiancoding.com/sketch -->
    <title>p_icon_alert</title>
    <desc>Created with Sketch.</desc>
    <defs>
        <path d="M2,22.421667 C2,28.1139012 4.28169563,33.2613481 7.9611683,36.9648262 L7.01755598,46 L14.5788993,41.390149 C16.8737235,42.3271021 19.3779202,42.8433339 22.0004786,42.8433339 C33.0458712,42.8433339 42,33.700222 42,22.421667 C42,11.1431119 33.0458712,2 22.0004786,2 C10.9545391,2 2,11.1431119 2,22.421667 Z" id="path-1"></path>
        <mask id="mask-2" maskContentUnits="userSpaceOnUse" maskUnits="objectBoundingBox" x="0" y="0" width="40" height="44" fill="white">
            <use xlink:href="#path-1"></use>
        </mask>
        <path d="M2,122.421667 C2,128.113901 4.28169563,133.261348 7.9611683,136.964826 L7.01755598,146 L14.5788993,141.390149 C16.8737235,142.327102 19.3779202,142.843334 22.0004786,142.843334 C33.0458712,142.843334 42,133.700222 42,122.421667 C42,111.143112 33.0458712,102 22.0004786,102 C10.9545391,102 2,111.143112 2,122.421667 Z" id="path-3"></path>
        <mask id="mask-4" maskContentUnits="userSpaceOnUse" maskUnits="objectBoundingBox" x="0" y="0" width="40" height="44" fill="white">
            <use xlink:href="#path-3"></use>
        </mask>
    </defs>
    <g id="Page-1" stroke="none" stroke-width="1" fill="none" fill-rule="evenodd">
        <g id="p_icon_alert" stroke-width="2">
            <use id="Page-1" stroke="#FFFFFF" mask="url(#mask-2)" xlink:href="#path-1"></use>
            <path d="M20.4839276,28.7442218 L20.4839276,29.4961689 C20.4839276,30.3292728 21.1601106,31 22,31 C22.8399212,31 23.5160724,30.3292728 23.5160724,29.4961689 L23.5160724,28.7442218 L20.4839276,28.7442218 Z M22,14 C19.6377773,14 17.6413277,15.9630456 17.6413277,18.3235697 C17.6413277,23.5389792 15.198094,23.9262894 15,26.7826906 L29,26.7826906 C28.8019378,23.9262894 26.3587358,23.5389792 26.3587358,18.3235697 C26.3587358,15.963014 24.3622227,14 22,14 L22,14 Z" id="Fill-1" stroke="#FFFFFF"></path>
            <use id="Page-1" stroke="#F08377" mask="url(#mask-4)" xlink:href="#path-3"></use>
            <path d="M20.4839276,128.744222 L20.4839276,129.496169 C20.4839276,130.329273 21.1601106,131 22,131 C22.8399212,131 23.5160724,130.329273 23.5160724,129.496169 L23.5160724,128.744222 L20.4839276,128.744222 Z M22,114 C19.6377773,114 17.6413277,115.963046 17.6413277,118.32357 C17.6413277,123.538979 15.198094,123.926289 15,126.782691 L29,126.782691 C28.8019378,123.926289 26.3587358,123.538979 26.3587358,118.32357 C26.3587358,115.963014 24.3622227,114 22,114 L22,114 Z" id="Fill-1" stroke="#F08377"></path>
        </g>
    </g>
</svg>