<?xml version="1.0" encoding="UTF-8" standalone="no"?>
<svg width="20px" height="20px" viewBox="0 0 20 20" version="1.1" xmlns="http://www.w3.org/2000/svg" xmlns:xlink="http://www.w3.org/1999/xlink">
    <!-- Generator: Sketch 39.1 (31720) - http://www.bohemiancoding.com/sketch -->
    <title>acc_target_list_small</title>
    <desc>Created with Sketch.</desc>
    <defs></defs>
    <g id="Page-1" stroke="none" stroke-width="1" fill="none" fill-rule="evenodd">
        <g id="acc_target_list_small" fill="#FFFFFF">
            <g id="Page-1">
                <path d="M9.98637681,0.217391304 C4.58434783,0.217391304 0.217391304,4.6115942 0.217391304,10.0136232 C0.217391304,15.4168116 4.58434783,19.7826087 9.98637681,19.7826087 C15.4168116,19.7826087 19.7826087,15.4168116 19.7826087,10.0136232 C19.7826087,4.6115942 15.4168116,0.217391304 9.98637681,0.217391304 L9.98637681,0.217391304 Z M9.98637681,16.5353623 C6.40405797,16.5353623 3.46463768,13.5971014 3.46463768,10.0147826 C3.46463768,6.40405797 6.40405797,3.49304348 9.98637681,3.49304348 C13.5971014,3.49304348 16.5081159,6.40405797 16.5081159,10.0147826 C16.5081159,13.5971014 13.5971014,16.5353623 9.98637681,16.5353623 L9.98637681,16.5353623 Z" id="Fill-1"></path>
                <path d="M9.98637681,6.9915942 C8.33449275,6.9915942 6.96318841,8.33565217 6.96318841,10.0147826 C6.96318841,11.6655072 8.33449275,13.0368116 9.98637681,13.0368116 C11.6655072,13.0368116 13.0084058,11.6655072 13.0084058,10.0147826 C13.0084058,8.33449275 11.6655072,6.9915942 9.98637681,6.9915942 L9.98637681,6.9915942 Z" id="Fill-2"></path>
            </g>
        </g>
    </g>
</svg>