<?xml version="1.0" encoding="UTF-8" standalone="no"?>
<svg width="32px" height="112px" viewBox="0 0 32 112" version="1.1" xmlns="http://www.w3.org/2000/svg" xmlns:xlink="http://www.w3.org/1999/xlink">
    <!-- Generator: Sketch 3.8.3 (29802) - http://www.bohemiancoding.com/sketch -->
    <title>sb_create_contact_vcard</title>
    <desc>Created with Sketch.</desc>
    <defs>
        <rect id="path-1" x="7" y="90" width="18" height="13"></rect>
        <mask id="mask-2" maskContentUnits="userSpaceOnUse" maskUnits="objectBoundingBox" x="0" y="0" width="18" height="13" fill="white">
            <use xlink:href="#path-1"></use>
        </mask>
        <rect id="path-3" x="7" y="50" width="18" height="13"></rect>
        <mask id="mask-4" maskContentUnits="userSpaceOnUse" maskUnits="objectBoundingBox" x="0" y="0" width="18" height="13" fill="white">
            <use xlink:href="#path-3"></use>
        </mask>
        <rect id="path-5" x="7" y="10" width="18" height="13"></rect>
        <mask id="mask-6" maskContentUnits="userSpaceOnUse" maskUnits="objectBoundingBox" x="0" y="0" width="18" height="13" fill="white">
            <use xlink:href="#path-5"></use>
        </mask>
    </defs>
    <g id="Page-1" stroke="none" stroke-width="1" fill="none" fill-rule="evenodd">
        <g id="sb_create_contact_vcard">
            <ellipse id="Oval-7" stroke="#F5F5F5" cx="16" cy="16" rx="15" ry="15"></ellipse>
            <ellipse id="Oval-7" stroke="#534D64" cx="16" cy="56" rx="15" ry="15"></ellipse>
            <ellipse id="Oval-7" stroke="#F08377" cx="16" cy="96" rx="15" ry="15"></ellipse>
            <polygon id="+" fill="#F08377" points="20.415 97.253 17.27 97.253 17.27 100.636 15.128 100.636 15.128 97.253 12 97.253 12 95.366 15.128 95.366 15.128 92 17.27 92 17.27 95.366 20.415 95.366"></polygon>
            <use id="Rectangle-2228" stroke="#F08377" mask="url(#mask-2)" stroke-width="2" xlink:href="#path-1"></use>
            <polygon id="+" fill="#534D64" points="20.415 57.253 17.27 57.253 17.27 60.636 15.128 60.636 15.128 57.253 12 57.253 12 55.366 15.128 55.366 15.128 52 17.27 52 17.27 55.366 20.415 55.366"></polygon>
            <use id="Rectangle-2228" stroke="#534D64" mask="url(#mask-4)" stroke-width="2" xlink:href="#path-3"></use>
            <polygon id="+" fill="#F5F5F5" points="20.415 17.253 17.27 17.253 17.27 20.636 15.128 20.636 15.128 17.253 12 17.253 12 15.366 15.128 15.366 15.128 12 17.27 12 17.27 15.366 20.415 15.366"></polygon>
            <use id="Rectangle-2228" stroke="#F5F5F5" mask="url(#mask-6)" stroke-width="2" xlink:href="#path-5"></use>
        </g>
    </g>
</svg>