<?xml version="1.0" encoding="UTF-8" standalone="no"?>
<svg width="32px" height="112px" viewBox="0 0 32 112" version="1.1" xmlns="http://www.w3.org/2000/svg" xmlns:xlink="http://www.w3.org/1999/xlink">
    <!-- Generator: Sketch 3.8.3 (29802) - http://www.bohemiancoding.com/sketch -->
    <title>sb_create_security_group</title>
    <desc>Created with Sketch.</desc>
    <defs></defs>
    <g id="Page-1" stroke="none" stroke-width="1" fill="none" fill-rule="evenodd">
        <g id="sb_create_security_group">
            <ellipse id="Oval-7" stroke="#F5F5F5" cx="16" cy="16" rx="15" ry="15"></ellipse>
            <ellipse id="Oval-7" stroke="#534D64" cx="16" cy="56" rx="15" ry="15"></ellipse>
            <ellipse id="Oval-7" stroke="#F08377" cx="16" cy="96" rx="15" ry="15"></ellipse>
            <path d="M16.60064,98.18304 L15.95056,98.18304 C15.86752,98.18304 15.78368,98.11616 15.78368,98.01632 L15.78368,96.48304 C15.78368,94.71616 14.41696,93.21632 12.65056,93.14992 C10.80064,93.08304 9.26688,94.56624 9.26688,96.41632 L9.26688,98.03312 C9.26688,98.11616 9.2,98.2 9.1,98.2 L8.45008,98.2 C8.2,98.2 8,98.4 8,98.64992 L8,104.54992 C8,104.8 8.2,105 8.45008,105 L16.5832,105 C16.83312,105 17.03312,104.8 17.03312,104.54992 L17.03312,98.63312 C17.05056,98.38304 16.85056,98.18304 16.60064,98.18304 L16.60064,98.18304 Z M10.28384,96.41632 C10.28384,95.13312 11.35056,94.09936 12.65056,94.16624 C13.86752,94.23312 14.80064,95.26624 14.80064,96.48304 L14.80064,98.03312 C14.80064,98.11616 14.73376,98.2 14.63376,98.2 L10.43376,98.2 C10.35056,98.2 10.26688,98.13312 10.26688,98.03312 L10.26688,96.41632 L10.28384,96.41632 Z" id="Page-1" fill="#F08377"></path>
            <polygon id="+" fill="#F08377" points="24.675 92.951 21.345 92.951 21.345 96.533 19.077 96.533 19.077 92.951 15.765 92.951 15.765 90.953 19.077 90.953 19.077 87.389 21.345 87.389 21.345 90.953 24.675 90.953"></polygon>
            <path d="M16.60064,58.18304 L15.95056,58.18304 C15.86752,58.18304 15.78368,58.11616 15.78368,58.01632 L15.78368,56.48304 C15.78368,54.71616 14.41696,53.21632 12.65056,53.14992 C10.80064,53.08304 9.26688,54.56624 9.26688,56.41632 L9.26688,58.03312 C9.26688,58.11616 9.2,58.2 9.1,58.2 L8.45008,58.2 C8.2,58.2 8,58.4 8,58.64992 L8,64.54992 C8,64.8 8.2,65 8.45008,65 L16.5832,65 C16.83312,65 17.03312,64.8 17.03312,64.54992 L17.03312,58.63312 C17.05056,58.38304 16.85056,58.18304 16.60064,58.18304 L16.60064,58.18304 Z M10.28384,56.41632 C10.28384,55.13312 11.35056,54.09936 12.65056,54.16624 C13.86752,54.23312 14.80064,55.26624 14.80064,56.48304 L14.80064,58.03312 C14.80064,58.11616 14.73376,58.2 14.63376,58.2 L10.43376,58.2 C10.35056,58.2 10.26688,58.13312 10.26688,58.03312 L10.26688,56.41632 L10.28384,56.41632 Z" id="Page-1" fill="#534D64"></path>
            <polygon id="+" fill="#534D64" points="24.675 52.951 21.345 52.951 21.345 56.533 19.077 56.533 19.077 52.951 15.765 52.951 15.765 50.953 19.077 50.953 19.077 47.389 21.345 47.389 21.345 50.953 24.675 50.953"></polygon>
            <path d="M16.60064,18.18304 L15.95056,18.18304 C15.86752,18.18304 15.78368,18.11616 15.78368,18.01632 L15.78368,16.48304 C15.78368,14.71616 14.41696,13.21632 12.65056,13.14992 C10.80064,13.08304 9.26688,14.56624 9.26688,16.41632 L9.26688,18.03312 C9.26688,18.11616 9.2,18.2 9.1,18.2 L8.45008,18.2 C8.2,18.2 8,18.4 8,18.64992 L8,24.54992 C8,24.8 8.2,25 8.45008,25 L16.5832,25 C16.83312,25 17.03312,24.8 17.03312,24.54992 L17.03312,18.63312 C17.05056,18.38304 16.85056,18.18304 16.60064,18.18304 L16.60064,18.18304 Z M10.28384,16.41632 C10.28384,15.13312 11.35056,14.09936 12.65056,14.16624 C13.86752,14.23312 14.80064,15.26624 14.80064,16.48304 L14.80064,18.03312 C14.80064,18.11616 14.73376,18.2 14.63376,18.2 L10.43376,18.2 C10.35056,18.2 10.26688,18.13312 10.26688,18.03312 L10.26688,16.41632 L10.28384,16.41632 Z" id="Page-1" fill="#F5F5F5"></path>
            <polygon id="+" fill="#F5F5F5" points="24.675 12.951 21.345 12.951 21.345 16.533 19.077 16.533 19.077 12.951 15.765 12.951 15.765 10.953 19.077 10.953 19.077 7.389 21.345 7.389 21.345 10.953 24.675 10.953"></polygon>
        </g>
    </g>
</svg>