<?xml version="1.0" encoding="UTF-8" standalone="no"?>
<svg width="32px" height="112px" viewBox="0 0 32 112" version="1.1" xmlns="http://www.w3.org/2000/svg" xmlns:xlink="http://www.w3.org/1999/xlink">
    <!-- Generator: Sketch 3.8.3 (29802) - http://www.bohemiancoding.com/sketch -->
    <title>sb_list_maps</title>
    <desc>Created with Sketch.</desc>
    <defs></defs>
    <g id="Page-1" stroke="none" stroke-width="1" fill="none" fill-rule="evenodd">
        <g id="sb_list_maps">
            <ellipse id="Oval-7" stroke="#F5F5F5" cx="16" cy="16" rx="15" ry="15"></ellipse>
            <ellipse id="Oval-7" stroke="#534D64" cx="16" cy="56" rx="15" ry="15"></ellipse>
            <ellipse id="Oval-7" stroke="#F08377" cx="16" cy="96" rx="15" ry="15"></ellipse>
            <path d="M11.3124,88.8328 L11.3124,91.6664 L8.5,91.6664 L8.5,88.8328 L11.3124,88.8328 Z M23.5,88.8328 L23.5,91.6664 L14.125,91.6664 L14.125,88.8328 L23.5,88.8328 Z M11.3124,94.5 L11.3124,97.3328 L8.5,97.3328 L8.5,94.5 L11.3124,94.5 Z M23.5,94.5 L23.5,97.3328 L14.125,97.3328 L14.125,94.5 L23.5,94.5 Z M11.3124,100.1664 L11.3124,103 L8.5,103 L8.5,100.1664 L11.3124,100.1664 Z M23.5,100.1664 L23.5,103 L14.125,103 L14.125,100.1664 L23.5,100.1664 Z" id="Page-1" fill="#F08377"></path>
            <path d="M11.3124,48.8328 L11.3124,51.6664 L8.5,51.6664 L8.5,48.8328 L11.3124,48.8328 Z M23.5,48.8328 L23.5,51.6664 L14.125,51.6664 L14.125,48.8328 L23.5,48.8328 Z M11.3124,54.5 L11.3124,57.3328 L8.5,57.3328 L8.5,54.5 L11.3124,54.5 Z M23.5,54.5 L23.5,57.3328 L14.125,57.3328 L14.125,54.5 L23.5,54.5 Z M11.3124,60.1664 L11.3124,63 L8.5,63 L8.5,60.1664 L11.3124,60.1664 Z M23.5,60.1664 L23.5,63 L14.125,63 L14.125,60.1664 L23.5,60.1664 Z" id="Page-1" fill="#534D64"></path>
            <path d="M11.3124,8.8328 L11.3124,11.6664 L8.5,11.6664 L8.5,8.8328 L11.3124,8.8328 Z M23.5,8.8328 L23.5,11.6664 L14.125,11.6664 L14.125,8.8328 L23.5,8.8328 Z M11.3124,14.5 L11.3124,17.3328 L8.5,17.3328 L8.5,14.5 L11.3124,14.5 Z M23.5,14.5 L23.5,17.3328 L14.125,17.3328 L14.125,14.5 L23.5,14.5 Z M11.3124,20.1664 L11.3124,23 L8.5,23 L8.5,20.1664 L11.3124,20.1664 Z M23.5,20.1664 L23.5,23 L14.125,23 L14.125,20.1664 L23.5,20.1664 Z" id="Page-1" fill="#F5F5F5"></path>
        </g>
    </g>
</svg>