<?xml version="1.0" encoding="UTF-8" standalone="no"?>
<svg width="32px" height="112px" viewBox="0 0 32 112" version="1.1" xmlns="http://www.w3.org/2000/svg" xmlns:xlink="http://www.w3.org/1999/xlink">
    <!-- Generator: Sketch 3.8.3 (29802) - http://www.bohemiancoding.com/sketch -->
    <title>sb_quick_radius_map</title>
    <desc>Created with Sketch.</desc>
    <defs></defs>
    <g id="Page-1" stroke="none" stroke-width="1" fill="none" fill-rule="evenodd">
        <g id="sb_quick_radius_map">
            <ellipse id="Oval-7" stroke="#F5F5F5" cx="16" cy="16" rx="15" ry="15"></ellipse>
            <ellipse id="Oval-7" stroke="#534D64" cx="16" cy="56" rx="15" ry="15"></ellipse>
            <ellipse id="Oval-7" stroke="#F08377" cx="16" cy="96" rx="15" ry="15"></ellipse>
            <g id="Group-34" transform="translate(4.000000, 84.000000)" fill="#F08377">
                <g id="Page-1" transform="translate(13.935029, 13.435029) rotate(45.000000) translate(-13.935029, -13.435029) translate(6.935029, 1.435029)">
                    <path d="M13.9583684,0.0475263158 C12.2124211,3.09289474 9.87257895,5.54915789 8.06510526,8.53410526 L13.2517368,8.53410526 C13.5177368,9.08378947 12.6976316,9.95326316 12.3089474,10.4207895 C8.84210526,14.5699474 4.16205263,19.2573684 0.755631579,23.625 C1.50094737,20.4388947 3.71,16.6784211 4.99947368,13.2502632 L0.049,13.2502632 C1.65642105,8.806 3.52431579,4.62110526 4.99947368,0.0475263158 L13.9583684,0.0475263158 L13.9583684,0.0475263158 Z" id="Fill-19"></path>
                </g>
                <polygon id="Path-3988" points="20.4150391 3.12011719 23.2958984 2 24.6777344 4.40332031 25.4609375 6.64453125 25.2001953 8.91601562 22.0996094 8.1328125 19.5 5.56640625"></polygon>
            </g>
            <g id="Group-34" transform="translate(4.000000, 44.000000)" fill="#534D64">
                <g id="Page-1" transform="translate(13.935029, 13.435029) rotate(45.000000) translate(-13.935029, -13.435029) translate(6.935029, 1.435029)">
                    <path d="M13.9583684,0.0475263158 C12.2124211,3.09289474 9.87257895,5.54915789 8.06510526,8.53410526 L13.2517368,8.53410526 C13.5177368,9.08378947 12.6976316,9.95326316 12.3089474,10.4207895 C8.84210526,14.5699474 4.16205263,19.2573684 0.755631579,23.625 C1.50094737,20.4388947 3.71,16.6784211 4.99947368,13.2502632 L0.049,13.2502632 C1.65642105,8.806 3.52431579,4.62110526 4.99947368,0.0475263158 L13.9583684,0.0475263158 L13.9583684,0.0475263158 Z" id="Fill-19"></path>
                </g>
                <polygon id="Path-3988" points="20.4150391 3.12011719 23.2958984 2 24.6777344 4.40332031 25.4609375 6.64453125 25.2001953 8.91601562 22.0996094 8.1328125 19.5 5.56640625"></polygon>
            </g>
            <g id="Group-34" transform="translate(4.000000, 4.000000)" fill="#F5F5F5">
                <g id="Page-1" transform="translate(13.935029, 13.435029) rotate(45.000000) translate(-13.935029, -13.435029) translate(6.935029, 1.435029)">
                    <path d="M13.9583684,0.0475263158 C12.2124211,3.09289474 9.87257895,5.54915789 8.06510526,8.53410526 L13.2517368,8.53410526 C13.5177368,9.08378947 12.6976316,9.95326316 12.3089474,10.4207895 C8.84210526,14.5699474 4.16205263,19.2573684 0.755631579,23.625 C1.50094737,20.4388947 3.71,16.6784211 4.99947368,13.2502632 L0.049,13.2502632 C1.65642105,8.806 3.52431579,4.62110526 4.99947368,0.0475263158 L13.9583684,0.0475263158 L13.9583684,0.0475263158 Z" id="Fill-19"></path>
                </g>
                <polygon id="Path-3988" points="20.4150391 3.12011719 23.2958984 2 24.6777344 4.40332031 25.4609375 6.64453125 25.2001953 8.91601562 22.0996094 8.1328125 19.5 5.56640625"></polygon>
            </g>
        </g>
    </g>
</svg>