<?xml version="1.0" encoding="UTF-8" standalone="no"?>
<svg width="32px" height="112px" viewBox="0 0 32 112" version="1.1" xmlns="http://www.w3.org/2000/svg" xmlns:xlink="http://www.w3.org/1999/xlink">
    <!-- Generator: Sketch 3.8.3 (29802) - http://www.bohemiancoding.com/sketch -->
    <title>sb_role_management</title>
    <desc>Created with Sketch.</desc>
    <defs></defs>
    <g id="Page-1" stroke="none" stroke-width="1" fill="none" fill-rule="evenodd">
        <g id="sb_role_management">
            <ellipse id="Oval-7" stroke="#F5F5F5" cx="16" cy="16" rx="15" ry="15"></ellipse>
            <ellipse id="Oval-7" stroke="#534D64" cx="16" cy="56" rx="15" ry="15"></ellipse>
            <ellipse id="Oval-7" stroke="#F08377" cx="16" cy="96" rx="15" ry="15"></ellipse>
            <path d="M26.0100002,98.7926358 L23.4300554,98.7926358 L23.4300554,93.2594003 C23.4300554,91.4596235 21.9707156,90 20.1709389,90 L12.8390614,90 C11.0392846,90 9.5810796,91.4596235 9.5810796,93.2594003 L9.5810796,98.7926358 L7,98.7926358 L7,100.319779 L26.0100002,100.319779 L26.0100002,98.7926358 Z" id="Page-1" fill="#F08377"></path>
            <path d="M26.0100002,58.7926358 L23.4300554,58.7926358 L23.4300554,53.2594003 C23.4300554,51.4596235 21.9707156,50 20.1709389,50 L12.8390614,50 C11.0392846,50 9.5810796,51.4596235 9.5810796,53.2594003 L9.5810796,58.7926358 L7,58.7926358 L7,60.3197793 L26.0100002,60.3197793 L26.0100002,58.7926358 Z" id="Page-1" fill="#534D64"></path>
            <path d="M26.0100002,18.7926358 L23.4300554,18.7926358 L23.4300554,13.2594003 C23.4300554,11.4596235 21.9707156,10 20.1709389,10 L12.8390614,10 C11.0392846,10 9.5810796,11.4596235 9.5810796,13.2594003 L9.5810796,18.7926358 L7,18.7926358 L7,20.3197793 L26.0100002,20.3197793 L26.0100002,18.7926358 Z" id="Page-1" fill="#F5F5F5"></path>
        </g>
    </g>
</svg>