<?xml version="1.0" encoding="UTF-8" standalone="no"?>
<svg width="32px" height="112px" viewBox="0 0 32 112" version="1.1" xmlns="http://www.w3.org/2000/svg" xmlns:xlink="http://www.w3.org/1999/xlink">
    <!-- Generator: Sketch 3.8.3 (29802) - http://www.bohemiancoding.com/sketch -->
    <title>sb_schedule_call</title>
    <desc>Created with Sketch.</desc>
    <defs></defs>
    <g id="Page-1" stroke="none" stroke-width="1" fill="none" fill-rule="evenodd">
        <g id="sb_schedule_call">
            <ellipse id="Oval-7" stroke="#F5F5F5" cx="16" cy="16" rx="15" ry="15"></ellipse>
            <ellipse id="Oval-7" stroke="#534D64" cx="16" cy="56" rx="15" ry="15"></ellipse>
            <ellipse id="Oval-7" stroke="#F08377" cx="16" cy="96" rx="15" ry="15"></ellipse>
            <path d="M24.5944432,99.996359 C24.5176288,99.9185371 24.4448439,99.8417227 24.3710517,99.7641526 L23.9459277,99.3302139 C22.2343506,97.6468441 21.562413,96.9582843 21.4913911,96.9101809 C21.4138211,96.8363886 21.3370067,96.7625964 21.2591848,96.6867893 C20.417248,95.894719 19.8316952,96.5263604 19.0693432,97.6793328 C18.9995806,97.7856138 18.9335957,97.8861022 18.8736553,97.9805462 C18.8716405,97.9833166 18.8696256,97.9863388 18.8676108,97.9903684 C18.8449443,98.0246201 18.8263073,98.0543385 18.8046482,98.0875827 C17.94483,99.4226431 18.0166074,99.4521097 17.7166533,99.3813396 C17.7038089,99.3793248 17.6929793,99.3755471 17.6803868,99.3715175 C16.7042136,99.0665263 16.816539,99.0075932 14.9216146,97.0794245 C12.9944532,95.1845001 12.9345128,95.2965736 12.6295216,94.3206523 C12.625492,94.3090671 12.6224698,94.2972302 12.6196994,94.2843858 C12.5486776,93.9841798 12.5783959,94.0552017 13.9132045,93.1963909 C13.9467006,93.1747317 13.978182,93.1550874 14.0106707,93.1334282 C14.0136929,93.1314134 14.0167151,93.1293986 14.0204929,93.1273838 C14.1149369,93.0664359 14.2144179,93.0014585 14.3217063,92.9316958 C15.4746786,92.169092 16.1063201,91.5827837 15.3142498,90.7416024 C15.2374353,90.6640324 15.1646505,90.587218 15.0908582,90.509648 C15.0427547,90.4386261 14.3531876,89.7666885 12.6708251,88.0551113 L12.235879,87.62898 C12.158309,87.5551878 12.0814946,87.4813955 12.0036727,87.4055885 C11.0672919,86.5241111 10.2004219,87.15676 9.30030762,88.5578053 C8.4100155,89.9439913 8.11686133,90.7869355 8.11484652,90.7937355 C7.71238915,92.0668406 8.47197077,93.6232778 8.79182112,94.1584604 C9.89744556,96.0206443 10.3283621,96.8008777 12.7828987,99.217133 C15.199154,101.67167 15.9793874,102.102586 17.8415712,103.208211 C18.3767539,103.528061 19.933191,104.287643 21.2052888,103.885185 C21.2120887,103.88317 22.0542774,103.590016 23.441219,102.699724 C24.8432717,101.79961 25.4759206,100.93274 24.5944432,99.996359 L24.5944432,99.996359 Z" id="Page-1" fill="#F08377"></path>
            <path d="M24.5944432,59.996359 C24.5176288,59.9185371 24.4448439,59.8417227 24.3710517,59.7641526 L23.9459277,59.3302139 C22.2343506,57.6468441 21.562413,56.9582843 21.4913911,56.9101809 C21.4138211,56.8363886 21.3370067,56.7625964 21.2591848,56.6867893 C20.417248,55.894719 19.8316952,56.5263604 19.0693432,57.6793328 C18.9995806,57.7856138 18.9335957,57.8861022 18.8736553,57.9805462 C18.8716405,57.9833166 18.8696256,57.9863388 18.8676108,57.9903684 C18.8449443,58.0246201 18.8263073,58.0543385 18.8046482,58.0875827 C17.94483,59.4226431 18.0166074,59.4521097 17.7166533,59.3813396 C17.7038089,59.3793248 17.6929793,59.3755471 17.6803868,59.3715175 C16.7042136,59.0665263 16.816539,59.0075932 14.9216146,57.0794245 C12.9944532,55.1845001 12.9345128,55.2965736 12.6295216,54.3206523 C12.625492,54.3090671 12.6224698,54.2972302 12.6196994,54.2843858 C12.5486776,53.9841798 12.5783959,54.0552017 13.9132045,53.1963909 C13.9467006,53.1747317 13.978182,53.1550874 14.0106707,53.1334282 C14.0136929,53.1314134 14.0167151,53.1293986 14.0204929,53.1273838 C14.1149369,53.0664359 14.2144179,53.0014585 14.3217063,52.9316958 C15.4746786,52.169092 16.1063201,51.5827837 15.3142498,50.7416024 C15.2374353,50.6640324 15.1646505,50.587218 15.0908582,50.509648 C15.0427547,50.4386261 14.3531876,49.7666885 12.6708251,48.0551113 L12.235879,47.62898 C12.158309,47.5551878 12.0814946,47.4813955 12.0036727,47.4055885 C11.0672919,46.5241111 10.2004219,47.15676 9.30030762,48.5578053 C8.4100155,49.9439913 8.11686133,50.7869355 8.11484652,50.7937355 C7.71238915,52.0668406 8.47197077,53.6232778 8.79182112,54.1584604 C9.89744556,56.0206443 10.3283621,56.8008777 12.7828987,59.217133 C15.199154,61.6716696 15.9793874,62.1025861 17.8415712,63.2082105 C18.3767539,63.5280609 19.933191,64.2876425 21.2052888,63.8851851 C21.2120887,63.8831703 22.0542774,63.5900162 23.441219,62.699724 C24.8432717,61.7996098 25.4759206,60.9327398 24.5944432,59.996359 L24.5944432,59.996359 Z" id="Page-1" fill="#534D64"></path>
            <path d="M24.5944432,19.996359 C24.5176288,19.9185371 24.4448439,19.8417227 24.3710517,19.7641526 L23.9459277,19.3302139 C22.2343506,17.6468441 21.562413,16.9582843 21.4913911,16.9101809 C21.4138211,16.8363886 21.3370067,16.7625964 21.2591848,16.6867893 C20.417248,15.894719 19.8316952,16.5263604 19.0693432,17.6793328 C18.9995806,17.7856138 18.9335957,17.8861022 18.8736553,17.9805462 C18.8716405,17.9833166 18.8696256,17.9863388 18.8676108,17.9903684 C18.8449443,18.0246201 18.8263073,18.0543385 18.8046482,18.0875827 C17.94483,19.4226431 18.0166074,19.4521097 17.7166533,19.3813396 C17.7038089,19.3793248 17.6929793,19.3755471 17.6803868,19.3715175 C16.7042136,19.0665263 16.816539,19.0075932 14.9216146,17.0794245 C12.9944532,15.1845001 12.9345128,15.2965736 12.6295216,14.3206523 C12.625492,14.3090671 12.6224698,14.2972302 12.6196994,14.2843858 C12.5486776,13.9841798 12.5783959,14.0552017 13.9132045,13.1963909 C13.9467006,13.1747317 13.978182,13.1550874 14.0106707,13.1334282 C14.0136929,13.1314134 14.0167151,13.1293986 14.0204929,13.1273838 C14.1149369,13.0664359 14.2144179,13.0014585 14.3217063,12.9316958 C15.4746786,12.169092 16.1063201,11.5827837 15.3142498,10.7416024 C15.2374353,10.6640324 15.1646505,10.587218 15.0908582,10.509648 C15.0427547,10.4386261 14.3531876,9.76668848 12.6708251,8.05511133 L12.235879,7.62898 C12.158309,7.55518775 12.0814946,7.48139551 12.0036727,7.40558845 C11.0672919,6.52411111 10.2004219,7.15675999 9.30030762,8.55780527 C8.4100155,9.94399135 8.11686133,10.7869355 8.11484652,10.7937355 C7.71238915,12.0668406 8.47197077,13.6232778 8.79182112,14.1584604 C9.89744556,16.0206443 10.3283621,16.8008777 12.7828987,19.217133 C15.199154,21.6716696 15.9793874,22.1025861 17.8415712,23.2082105 C18.3767539,23.5280609 19.933191,24.2876425 21.2052888,23.8851851 C21.2120887,23.8831703 22.0542774,23.5900162 23.441219,22.699724 C24.8432717,21.7996098 25.4759206,20.9327398 24.5944432,19.996359 L24.5944432,19.996359 Z" id="Page-1" fill="#F5F5F5"></path>
        </g>
    </g>
</svg>