<?xml version="1.0" encoding="UTF-8" standalone="no"?>
<svg width="32px" height="112px" viewBox="0 0 32 112" version="1.1" xmlns="http://www.w3.org/2000/svg" xmlns:xlink="http://www.w3.org/1999/xlink">
    <!-- Generator: Sketch 3.8.3 (29802) - http://www.bohemiancoding.com/sketch -->
    <title>sb_security_suite_settings</title>
    <desc>Created with Sketch.</desc>
    <defs></defs>
    <g id="Page-1" stroke="none" stroke-width="1" fill="none" fill-rule="evenodd">
        <g id="sb_security_suite_settings">
            <ellipse id="Oval-7" stroke="#F5F5F5" cx="16" cy="16" rx="15" ry="15"></ellipse>
            <ellipse id="Oval-7" stroke="#534D64" cx="16" cy="56" rx="15" ry="15"></ellipse>
            <ellipse id="Oval-7" stroke="#F08377" cx="16" cy="96" rx="15" ry="15"></ellipse>
            <g id="Page-1" transform="translate(8.000000, 87.000000)" fill="#F08377">
                <polygon id="Fill-1" points="9.70283019 0.0801886792 7.29716981 0.0801886792 7.29716981 3.68867925 6.09433962 3.68867925 6.09433962 6.09433962 7.29716981 6.09433962 7.29716981 16.9198113 9.70283019 16.9198113 9.70283019 6.09433962 10.9056604 6.09433962 10.9056604 3.68867925 9.70283019 3.68867925"></polygon>
                <polygon id="Fill-2" points="3.68867925 0.0801886792 1.28301887 0.0801886792 1.28301887 12.1084906 0.0801886792 12.1084906 0.0801886792 14.5141509 1.28301887 14.5141509 1.28301887 16.9198113 3.68867925 16.9198113 3.68867925 14.5141509 4.89150943 14.5141509 4.89150943 12.1084906 3.68867925 12.1084906"></polygon>
                <polygon id="Fill-3" points="15.7169811 8.5 15.7169811 0.0801886792 13.3113208 0.0801886792 13.3113208 8.5 12.1084906 8.5 12.1084906 10.9056604 13.3113208 10.9056604 13.3113208 16.9198113 15.7169811 16.9198113 15.7169811 10.9056604 16.9198113 10.9056604 16.9198113 8.5"></polygon>
            </g>
            <g id="Page-1" transform="translate(8.000000, 47.000000)" fill="#534D64">
                <polygon id="Fill-1" points="9.70283019 0.0801886792 7.29716981 0.0801886792 7.29716981 3.68867925 6.09433962 3.68867925 6.09433962 6.09433962 7.29716981 6.09433962 7.29716981 16.9198113 9.70283019 16.9198113 9.70283019 6.09433962 10.9056604 6.09433962 10.9056604 3.68867925 9.70283019 3.68867925"></polygon>
                <polygon id="Fill-2" points="3.68867925 0.0801886792 1.28301887 0.0801886792 1.28301887 12.1084906 0.0801886792 12.1084906 0.0801886792 14.5141509 1.28301887 14.5141509 1.28301887 16.9198113 3.68867925 16.9198113 3.68867925 14.5141509 4.89150943 14.5141509 4.89150943 12.1084906 3.68867925 12.1084906"></polygon>
                <polygon id="Fill-3" points="15.7169811 8.5 15.7169811 0.0801886792 13.3113208 0.0801886792 13.3113208 8.5 12.1084906 8.5 12.1084906 10.9056604 13.3113208 10.9056604 13.3113208 16.9198113 15.7169811 16.9198113 15.7169811 10.9056604 16.9198113 10.9056604 16.9198113 8.5"></polygon>
            </g>
            <g id="Page-1" transform="translate(8.000000, 7.000000)" fill="#F5F5F5">
                <polygon id="Fill-1" points="9.70283019 0.0801886792 7.29716981 0.0801886792 7.29716981 3.68867925 6.09433962 3.68867925 6.09433962 6.09433962 7.29716981 6.09433962 7.29716981 16.9198113 9.70283019 16.9198113 9.70283019 6.09433962 10.9056604 6.09433962 10.9056604 3.68867925 9.70283019 3.68867925"></polygon>
                <polygon id="Fill-2" points="3.68867925 0.0801886792 1.28301887 0.0801886792 1.28301887 12.1084906 0.0801886792 12.1084906 0.0801886792 14.5141509 1.28301887 14.5141509 1.28301887 16.9198113 3.68867925 16.9198113 3.68867925 14.5141509 4.89150943 14.5141509 4.89150943 12.1084906 3.68867925 12.1084906"></polygon>
                <polygon id="Fill-3" points="15.7169811 8.5 15.7169811 0.0801886792 13.3113208 0.0801886792 13.3113208 8.5 12.1084906 8.5 12.1084906 10.9056604 13.3113208 10.9056604 13.3113208 16.9198113 15.7169811 16.9198113 15.7169811 10.9056604 16.9198113 10.9056604 16.9198113 8.5"></polygon>
            </g>
        </g>
    </g>
</svg>