<?xml version="1.0" encoding="UTF-8" standalone="no"?>
<svg width="32px" height="112px" viewBox="0 0 32 112" version="1.1" xmlns="http://www.w3.org/2000/svg" xmlns:xlink="http://www.w3.org/1999/xlink">
    <!-- Generator: Sketch 3.8.3 (29802) - http://www.bohemiancoding.com/sketch -->
    <title>sb_security_groups</title>
    <desc>Created with Sketch.</desc>
    <defs></defs>
    <g id="Page-1" stroke="none" stroke-width="1" fill="none" fill-rule="evenodd">
        <g id="sb_security_groups">
            <ellipse id="Oval-7" stroke="#F5F5F5" cx="16" cy="16" rx="15" ry="15"></ellipse>
            <ellipse id="Oval-7" stroke="#534D64" cx="16" cy="56" rx="15" ry="15"></ellipse>
            <ellipse id="Oval-7" stroke="#F08377" cx="16" cy="96" rx="15" ry="15"></ellipse>
            <path d="M21.90096,93.77456 L20.92584,93.77456 C20.80128,93.77456 20.67552,93.67424 20.67552,93.52448 L20.67552,91.22456 C20.67552,88.57424 18.62544,86.32448 15.97584,86.22488 C13.20096,86.12456 10.90032,88.34936 10.90032,91.12448 L10.90032,93.54968 C10.90032,93.67424 10.8,93.8 10.65,93.8 L9.67512,93.8 C9.3,93.8 9,94.1 9,94.47488 L9,103.32488 C9,103.7 9.3,104 9.67512,104 L21.8748,104 C22.24968,104 22.54968,103.7 22.54968,103.32488 L22.54968,94.44968 C22.57584,94.07456 22.27584,93.77456 21.90096,93.77456 L21.90096,93.77456 Z M12.42576,91.12448 C12.42576,89.19968 14.02584,87.64904 15.97584,87.74936 C17.80128,87.84968 19.20096,89.39936 19.20096,91.22456 L19.20096,93.54968 C19.20096,93.67424 19.10064,93.8 18.95064,93.8 L12.65064,93.8 C12.52584,93.8 12.40032,93.69968 12.40032,93.54968 L12.40032,91.12448 L12.42576,91.12448 Z" id="Page-1" fill="#F08377"></path>
            <path d="M21.90096,53.77456 L20.92584,53.77456 C20.80128,53.77456 20.67552,53.67424 20.67552,53.52448 L20.67552,51.22456 C20.67552,48.57424 18.62544,46.32448 15.97584,46.22488 C13.20096,46.12456 10.90032,48.34936 10.90032,51.12448 L10.90032,53.54968 C10.90032,53.67424 10.8,53.8 10.65,53.8 L9.67512,53.8 C9.3,53.8 9,54.1 9,54.47488 L9,63.32488 C9,63.7 9.3,64 9.67512,64 L21.8748,64 C22.24968,64 22.54968,63.7 22.54968,63.32488 L22.54968,54.44968 C22.57584,54.07456 22.27584,53.77456 21.90096,53.77456 L21.90096,53.77456 Z M12.42576,51.12448 C12.42576,49.19968 14.02584,47.64904 15.97584,47.74936 C17.80128,47.84968 19.20096,49.39936 19.20096,51.22456 L19.20096,53.54968 C19.20096,53.67424 19.10064,53.8 18.95064,53.8 L12.65064,53.8 C12.52584,53.8 12.40032,53.69968 12.40032,53.54968 L12.40032,51.12448 L12.42576,51.12448 Z" id="Page-1" fill="#534D64"></path>
            <path d="M21.90096,13.77456 L20.92584,13.77456 C20.80128,13.77456 20.67552,13.67424 20.67552,13.52448 L20.67552,11.22456 C20.67552,8.57424 18.62544,6.32448 15.97584,6.22488 C13.20096,6.12456 10.90032,8.34936 10.90032,11.12448 L10.90032,13.54968 C10.90032,13.67424 10.8,13.8 10.65,13.8 L9.67512,13.8 C9.3,13.8 9,14.1 9,14.47488 L9,23.32488 C9,23.7 9.3,24 9.67512,24 L21.8748,24 C22.24968,24 22.54968,23.7 22.54968,23.32488 L22.54968,14.44968 C22.57584,14.07456 22.27584,13.77456 21.90096,13.77456 L21.90096,13.77456 Z M12.42576,11.12448 C12.42576,9.19968 14.02584,7.64904 15.97584,7.74936 C17.80128,7.84968 19.20096,9.39936 19.20096,11.22456 L19.20096,13.54968 C19.20096,13.67424 19.10064,13.8 18.95064,13.8 L12.65064,13.8 C12.52584,13.8 12.40032,13.69968 12.40032,13.54968 L12.40032,11.12448 L12.42576,11.12448 Z" id="Page-1" fill="#F5F5F5"></path>
        </g>
    </g>
</svg>