<?xml version="1.0" encoding="UTF-8" standalone="no"?>
<svg width="32px" height="112px" viewBox="0 0 32 112" version="1.1" xmlns="http://www.w3.org/2000/svg" xmlns:xlink="http://www.w3.org/1999/xlink">
    <!-- Generator: Sketch 3.8.3 (29802) - http://www.bohemiancoding.com/sketch -->
    <title>sb_setup_email</title>
    <desc>Created with Sketch.</desc>
    <defs></defs>
    <g id="Page-1" stroke="none" stroke-width="1" fill="none" fill-rule="evenodd">
        <g id="sb_setup_email">
            <ellipse id="Oval-7" stroke="#F5F5F5" cx="16" cy="16" rx="15" ry="15"></ellipse>
            <ellipse id="Oval-7" stroke="#534D64" cx="16" cy="56" rx="15" ry="15"></ellipse>
            <ellipse id="Oval-7" stroke="#F08377" cx="16" cy="96" rx="15" ry="15"></ellipse>
            <path d="M9.50503292,89 C8.77833594,89 8.1749987,89.5104313 8.03288122,90.1940958 L16.2754743,98.4366888 L24.518288,90.1940958 C24.3750671,89.511314 23.7726126,89 23.0459156,89 L9.5041502,89 M8,91.2248888 L8,100.480621 L12.6283072,95.8523134 L8,91.2242268 M24.5509485,91.2242268 L19.9899485,95.7850062 L24.5509485,100.346006 L24.5509485,91.2224614 M19.4581113,96.3152986 L16.5418342,99.2315757 C16.3953031,99.3781068 16.1565281,99.3781068 16.009997,99.2315757 L13.1610271,96.3826058 L8.06554176,101.47787 C8.25356053,102.094228 8.82489927,102.54 9.5041502,102.54 L23.0459156,102.54 C23.7640061,102.54 24.3596196,102.041706 24.512109,101.371062 L19.4572286,96.3161813" id="Page-1" fill="#F08377"></path>
            <path d="M9.50503292,49 C8.77833594,49 8.1749987,49.5104313 8.03288122,50.1940958 L16.2754743,58.4366888 L24.518288,50.1940958 C24.3750671,49.511314 23.7726126,49 23.0459156,49 L9.5041502,49 M8,51.2248888 L8,60.4806206 L12.6283072,55.8523134 L8,51.2242268 M24.5509485,51.2242268 L19.9899485,55.7850062 L24.5509485,60.3460062 L24.5509485,51.2224614 M19.4581113,56.3152986 L16.5418342,59.2315757 C16.3953031,59.3781068 16.1565281,59.3781068 16.009997,59.2315757 L13.1610271,56.3826058 L8.06554176,61.4778704 C8.25356053,62.0942277 8.82489927,62.54 9.5041502,62.54 L23.0459156,62.54 C23.7640061,62.54 24.3596196,62.0417061 24.512109,61.3710616 L19.4572286,56.3161813" id="Page-1" fill="#534D64"></path>
            <path d="M9.50503292,9 C8.77833594,9 8.1749987,9.51043125 8.03288122,10.1940958 L16.2754743,18.4366888 L24.518288,10.1940958 C24.3750671,9.51131397 23.7726126,9 23.0459156,9 L9.5041502,9 M8,11.2248888 L8,20.4806206 L12.6283072,15.8523134 L8,11.2242268 M24.5509485,11.2242268 L19.9899485,15.7850062 L24.5509485,20.3460062 L24.5509485,11.2224614 M19.4581113,16.3152986 L16.5418342,19.2315757 C16.3953031,19.3781068 16.1565281,19.3781068 16.009997,19.2315757 L13.1610271,16.3826058 L8.06554176,21.4778704 C8.25356053,22.0942277 8.82489927,22.54 9.5041502,22.54 L23.0459156,22.54 C23.7640061,22.54 24.3596196,22.0417061 24.512109,21.3710616 L19.4572286,16.3161813" id="Page-1" fill="#F5F5F5"></path>
        </g>
    </g>
</svg>