<?xml version="1.0" encoding="UTF-8" standalone="no"?>
<svg width="32px" height="112px" viewBox="0 0 32 112" version="1.1" xmlns="http://www.w3.org/2000/svg" xmlns:xlink="http://www.w3.org/1999/xlink">
    <!-- Generator: Sketch 3.8.3 (29802) - http://www.bohemiancoding.com/sketch -->
    <title>sb_view_diagnostics</title>
    <desc>Created with Sketch.</desc>
    <defs></defs>
    <g id="Page-1" stroke="none" stroke-width="1" fill="none" fill-rule="evenodd">
        <g id="sb_view_diagnostics">
            <ellipse id="Oval-7" stroke="#F5F5F5" cx="16" cy="16" rx="15" ry="15"></ellipse>
            <ellipse id="Oval-7" stroke="#534D64" cx="16" cy="56" rx="15" ry="15"></ellipse>
            <ellipse id="Oval-7" stroke="#F08377" cx="16" cy="96" rx="15" ry="15"></ellipse>
            <path d="M19.7156,90.0856 L19.6592,90.0856 L19.6592,89.1264 L20.2296,89.1264 C20.4048,89.1264 20.5452,88.984 20.5452,88.8108 L20.5452,86.1668 C20.5452,85.992 20.4032,85.8512 20.2296,85.8512 L11.2484,85.8512 C11.0732,85.8512 10.9328,85.9936 10.9328,86.1668 L10.9328,88.8108 C10.9328,88.9856 11.0732,89.1264 11.2484,89.1264 L11.8188,89.1264 L11.8188,90.0856 L11.7624,90.0856 C10.2388,90.0856 9,91.1936 9,92.556 L9,103.5296 C9,104.892 10.2388,106 11.7624,106 L19.7156,106 C21.2388,106 22.478,104.892 22.478,103.5296 L22.478,92.556 C22.478,91.1936 21.2388,90.0856 19.7156,90.0856 L19.7156,90.0856 Z M19.7156,104.7356 L11.7624,104.7356 C10.936,104.7356 10.2624,104.1936 10.2624,103.5296 L10.2624,92.556 C10.2624,91.8904 10.9344,91.3496 11.7624,91.3496 L12.45,91.3496 C12.7984,91.3496 13.0812,91.0668 13.0812,90.7184 L13.0812,89.1264 L18.3952,89.1264 L18.3952,90.7184 C18.3952,91.0668 18.678,91.3496 19.0264,91.3496 L19.714,91.3496 C20.5404,91.3496 21.214,91.8904 21.214,92.556 L21.214,94.356 L12.728,94.356 L12.728,102.884 L21.2156,102.884 L21.2156,103.5312 C21.2156,104.1952 20.542,104.7356 19.7156,104.7356 L19.7156,104.7356 Z M14.3188,99.12 C14.0216,99.12 13.7812,98.8796 13.7812,98.5828 C13.7812,98.2856 14.0216,98.0452 14.3188,98.0452 L16.7328,98.0452 L16.7328,95.6092 C16.7328,95.3012 16.9828,95.0496 17.292,95.0496 C17.6016,95.0496 17.8516,95.3 17.8516,95.6092 L17.8516,98.0452 L20.2656,98.0452 C20.5624,98.0452 20.8032,98.2856 20.8032,98.5828 C20.8032,98.8796 20.5624,99.12 20.2656,99.12 L17.8516,99.12 L17.8516,101.556 C17.8516,101.8656 17.6016,102.1156 17.292,102.1156 C16.9828,102.1156 16.7328,101.8656 16.7328,101.556 L16.7328,99.12 L14.3188,99.12 Z" id="Page-1" fill="#F08377"></path>
            <path d="M19.7156,50.0856 L19.6592,50.0856 L19.6592,49.1264 L20.2296,49.1264 C20.4048,49.1264 20.5452,48.984 20.5452,48.8108 L20.5452,46.1668 C20.5452,45.992 20.4032,45.8512 20.2296,45.8512 L11.2484,45.8512 C11.0732,45.8512 10.9328,45.9936 10.9328,46.1668 L10.9328,48.8108 C10.9328,48.9856 11.0732,49.1264 11.2484,49.1264 L11.8188,49.1264 L11.8188,50.0856 L11.7624,50.0856 C10.2388,50.0856 9,51.1936 9,52.556 L9,63.5296 C9,64.892 10.2388,66 11.7624,66 L19.7156,66 C21.2388,66 22.478,64.892 22.478,63.5296 L22.478,52.556 C22.478,51.1936 21.2388,50.0856 19.7156,50.0856 L19.7156,50.0856 Z M19.7156,64.7356 L11.7624,64.7356 C10.936,64.7356 10.2624,64.1936 10.2624,63.5296 L10.2624,52.556 C10.2624,51.8904 10.9344,51.3496 11.7624,51.3496 L12.45,51.3496 C12.7984,51.3496 13.0812,51.0668 13.0812,50.7184 L13.0812,49.1264 L18.3952,49.1264 L18.3952,50.7184 C18.3952,51.0668 18.678,51.3496 19.0264,51.3496 L19.714,51.3496 C20.5404,51.3496 21.214,51.8904 21.214,52.556 L21.214,54.356 L12.728,54.356 L12.728,62.884 L21.2156,62.884 L21.2156,63.5312 C21.2156,64.1952 20.542,64.7356 19.7156,64.7356 L19.7156,64.7356 Z M14.3188,59.12 C14.0216,59.12 13.7812,58.8796 13.7812,58.5828 C13.7812,58.2856 14.0216,58.0452 14.3188,58.0452 L16.7328,58.0452 L16.7328,55.6092 C16.7328,55.3012 16.9828,55.0496 17.292,55.0496 C17.6016,55.0496 17.8516,55.3 17.8516,55.6092 L17.8516,58.0452 L20.2656,58.0452 C20.5624,58.0452 20.8032,58.2856 20.8032,58.5828 C20.8032,58.8796 20.5624,59.12 20.2656,59.12 L17.8516,59.12 L17.8516,61.556 C17.8516,61.8656 17.6016,62.1156 17.292,62.1156 C16.9828,62.1156 16.7328,61.8656 16.7328,61.556 L16.7328,59.12 L14.3188,59.12 Z" id="Page-1" fill="#534D64"></path>
            <path d="M19.7156,10.0856 L19.6592,10.0856 L19.6592,9.1264 L20.2296,9.1264 C20.4048,9.1264 20.5452,8.984 20.5452,8.8108 L20.5452,6.1668 C20.5452,5.992 20.4032,5.8512 20.2296,5.8512 L11.2484,5.8512 C11.0732,5.8512 10.9328,5.9936 10.9328,6.1668 L10.9328,8.8108 C10.9328,8.9856 11.0732,9.1264 11.2484,9.1264 L11.8188,9.1264 L11.8188,10.0856 L11.7624,10.0856 C10.2388,10.0856 9,11.1936 9,12.556 L9,23.5296 C9,24.892 10.2388,26 11.7624,26 L19.7156,26 C21.2388,26 22.478,24.892 22.478,23.5296 L22.478,12.556 C22.478,11.1936 21.2388,10.0856 19.7156,10.0856 L19.7156,10.0856 Z M19.7156,24.7356 L11.7624,24.7356 C10.936,24.7356 10.2624,24.1936 10.2624,23.5296 L10.2624,12.556 C10.2624,11.8904 10.9344,11.3496 11.7624,11.3496 L12.45,11.3496 C12.7984,11.3496 13.0812,11.0668 13.0812,10.7184 L13.0812,9.1264 L18.3952,9.1264 L18.3952,10.7184 C18.3952,11.0668 18.678,11.3496 19.0264,11.3496 L19.714,11.3496 C20.5404,11.3496 21.214,11.8904 21.214,12.556 L21.214,14.356 L12.728,14.356 L12.728,22.884 L21.2156,22.884 L21.2156,23.5312 C21.2156,24.1952 20.542,24.7356 19.7156,24.7356 L19.7156,24.7356 Z M14.3188,19.12 C14.0216,19.12 13.7812,18.8796 13.7812,18.5828 C13.7812,18.2856 14.0216,18.0452 14.3188,18.0452 L16.7328,18.0452 L16.7328,15.6092 C16.7328,15.3012 16.9828,15.0496 17.292,15.0496 C17.6016,15.0496 17.8516,15.3 17.8516,15.6092 L17.8516,18.0452 L20.2656,18.0452 C20.5624,18.0452 20.8032,18.2856 20.8032,18.5828 C20.8032,18.8796 20.5624,19.12 20.2656,19.12 L17.8516,19.12 L17.8516,21.556 C17.8516,21.8656 17.6016,22.1156 17.292,22.1156 C16.9828,22.1156 16.7328,21.8656 16.7328,21.556 L16.7328,19.12 L14.3188,19.12 Z" id="Page-1" fill="#F5F5F5"></path>
        </g>
    </g>
</svg>