<?xml version="1.0" encoding="UTF-8" standalone="no"?>
<svg width="32px" height="112px" viewBox="0 0 32 112" version="1.1" xmlns="http://www.w3.org/2000/svg" xmlns:xlink="http://www.w3.org/1999/xlink">
    <!-- Generator: Sketch 3.8.3 (29802) - http://www.bohemiancoding.com/sketch -->
    <title>sb_view_create_email_templates</title>
    <desc>Created with Sketch.</desc>
    <defs></defs>
    <g id="Page-1" stroke="none" stroke-width="1" fill="none" fill-rule="evenodd">
        <g id="sb_view_create_email_templates">
            <ellipse id="Oval-7" stroke="#F5F5F5" cx="16" cy="16" rx="15" ry="15"></ellipse>
            <ellipse id="Oval-7" stroke="#534D64" cx="16" cy="56" rx="15" ry="15"></ellipse>
            <ellipse id="Oval-7" stroke="#F08377" cx="16" cy="96" rx="15" ry="15"></ellipse>
            <path d="M15.9613333,88 L13.5,102.805333 L13.4613333,103 L16.0405333,103 L18.5021333,88.1946667 L18.5405333,88 L15.9613333,88 Z M12.2501333,90.2666667 L11.5864,90.6968 L6.5864,93.8218667 L6,94.1728 L6,96.8301333 L6.5864,97.1813333 L11.5864,100.306133 L12.2501333,100.736533 L12.2501333,97.7677333 L8.6176,95.5010667 L12.2501333,93.2344 L12.2501333,90.2656 L12.2501333,90.2666667 Z M19.7498667,90.2666667 L19.7498667,93.2354667 L23.3824,95.5021333 L19.7498667,97.7688 L19.7498667,100.7376 L20.4136,100.3072 L25.4136,97.1824 L26,96.8312 L26,94.1738667 L25.4136,93.8229333 L20.4136,90.6978667 L19.7498667,90.2677333 L19.7498667,90.2666667 Z" id="Page-1" fill="#F08377"></path>
            <path d="M15.9613333,48 L13.5,62.8053333 L13.4613333,63 L16.0405333,63 L18.5021333,48.1946667 L18.5405333,48 L15.9613333,48 Z M12.2501333,50.2666667 L11.5864,50.6968 L6.5864,53.8218667 L6,54.1728 L6,56.8301333 L6.5864,57.1813333 L11.5864,60.3061333 L12.2501333,60.7365333 L12.2501333,57.7677333 L8.6176,55.5010667 L12.2501333,53.2344 L12.2501333,50.2656 L12.2501333,50.2666667 Z M19.7498667,50.2666667 L19.7498667,53.2354667 L23.3824,55.5021333 L19.7498667,57.7688 L19.7498667,60.7376 L20.4136,60.3072 L25.4136,57.1824 L26,56.8312 L26,54.1738667 L25.4136,53.8229333 L20.4136,50.6978667 L19.7498667,50.2677333 L19.7498667,50.2666667 Z" id="Page-1" fill="#534D64"></path>
            <path d="M15.9613333,8 L13.5,22.8053333 L13.4613333,23 L16.0405333,23 L18.5021333,8.19466667 L18.5405333,8 L15.9613333,8 Z M12.2501333,10.2666667 L11.5864,10.6968 L6.5864,13.8218667 L6,14.1728 L6,16.8301333 L6.5864,17.1813333 L11.5864,20.3061333 L12.2501333,20.7365333 L12.2501333,17.7677333 L8.6176,15.5010667 L12.2501333,13.2344 L12.2501333,10.2656 L12.2501333,10.2666667 Z M19.7498667,10.2666667 L19.7498667,13.2354667 L23.3824,15.5021333 L19.7498667,17.7688 L19.7498667,20.7376 L20.4136,20.3072 L25.4136,17.1824 L26,16.8312 L26,14.1738667 L25.4136,13.8229333 L20.4136,10.6978667 L19.7498667,10.2677333 L19.7498667,10.2666667 Z" id="Page-1" fill="#F5F5F5"></path>
        </g>
    </g>
</svg>