<?xml version="1.0" encoding="UTF-8" standalone="no"?>
<svg width="32px" height="112px" viewBox="0 0 32 112" version="1.1" xmlns="http://www.w3.org/2000/svg" xmlns:xlink="http://www.w3.org/1999/xlink">
    <!-- Generator: Sketch 3.8.3 (29802) - http://www.bohemiancoding.com/sketch -->
    <title>sb_view</title>
    <desc>Created with Sketch.</desc>
    <defs></defs>
    <g id="Page-1" stroke="none" stroke-width="1" fill="none" fill-rule="evenodd">
        <g id="sb_view">
            <ellipse id="Oval-7" stroke="#F5F5F5" cx="16" cy="16" rx="15" ry="15"></ellipse>
            <ellipse id="Oval-7" stroke="#534D64" cx="16" cy="56" rx="15" ry="15"></ellipse>
            <ellipse id="Oval-7" stroke="#F08377" cx="16" cy="96" rx="15" ry="15"></ellipse>
            <g id="Group-32" transform="translate(5.000000, 89.000000)">
                <path d="M10.7008045,13 C4.79086906,13 0,6.68564492 0,6.68564492 C0,6.68564492 4.79086906,0.371289837 10.7008045,0.371289837 C16.6107399,0.371289837 21.4016089,6.68564492 21.4016089,6.68564492 C21.4016089,6.68564492 16.6107399,13 10.7008045,13 Z" id="Page-1" stroke="#F08377" stroke-linecap="round"></path>
                <circle id="Oval-7" fill="#F08377" cx="10.5" cy="6.5" r="4.5"></circle>
            </g>
            <g id="Group-32" transform="translate(5.000000, 49.000000)">
                <path d="M10.7008045,13 C4.79086906,13 0,6.68564492 0,6.68564492 C0,6.68564492 4.79086906,0.371289837 10.7008045,0.371289837 C16.6107399,0.371289837 21.4016089,6.68564492 21.4016089,6.68564492 C21.4016089,6.68564492 16.6107399,13 10.7008045,13 Z" id="Page-1" stroke="#534D64" stroke-linecap="round"></path>
                <circle id="Oval-7" fill="#534D64" cx="10.5" cy="6.5" r="4.5"></circle>
            </g>
            <g id="Group-32" transform="translate(5.000000, 8.000000)">
                <path d="M21.4016089,7.68564492 C21.4016089,7.68564492 16.6107399,14 10.7008045,14 C4.79086906,14 0,7.68564492 0,7.68564492 C0,7.68564492 4.79086906,1.37128984 10.7008045,1.37128984 C16.6107399,1.37128984 21.4016089,7.68564492 21.4016089,7.68564492 L21.4016089,7.68564492 Z" id="Page-1" stroke="#F5F5F5" stroke-linecap="round"></path>
                <circle id="Oval-7" fill="#F5F5F5" cx="10.5" cy="7.5" r="4.5"></circle>
            </g>
        </g>
    </g>
</svg>