<?xml version="1.0" encoding="UTF-8" standalone="no"?>
<svg width="32px" height="112px" viewBox="0 0 32 112" version="1.1" xmlns="http://www.w3.org/2000/svg" xmlns:xlink="http://www.w3.org/1999/xlink">
    <!-- Generator: Sketch 3.8.3 (29802) - http://www.bohemiancoding.com/sketch -->
    <title>sb_view_email_templates</title>
    <desc>Created with Sketch.</desc>
    <defs></defs>
    <g id="Page-1" stroke="none" stroke-width="1" fill="none" fill-rule="evenodd">
        <g id="sb_view_email_templates">
            <ellipse id="Oval-7" stroke="#F5F5F5" cx="16" cy="16" rx="15" ry="15"></ellipse>
            <ellipse id="Oval-7" stroke="#534D64" cx="16" cy="56" rx="15" ry="15"></ellipse>
            <ellipse id="Oval-7" stroke="#F08377" cx="16" cy="96" rx="15" ry="15"></ellipse>
            <g id="Group-2" transform="translate(5.000000, 88.000000)" stroke="#F08377" stroke-linecap="round">
                <path d="M21.4016089,7.78359419 C21.4016089,7.78359419 16.6107399,15 10.7008045,15 C4.79086906,15 0,7.78359419 0,7.78359419 C0,7.78359419 4.79086906,0.567188385 10.7008045,0.567188385 C16.6107399,0.567188385 21.4016089,7.78359419 21.4016089,7.78359419 L21.4016089,7.78359419 Z" id="Page-1"></path>
            </g>
            <path d="M16.108,94.224 C16.0519997,94.216 15.9950003,94.21 15.937,94.206 C15.8789997,94.202 15.8200003,94.2 15.76,94.2 C15.5319989,94.2 15.318001,94.2509995 15.118,94.353 C14.917999,94.4550005 14.7430008,94.5929991 14.593,94.767 C14.4429992,94.9410009 14.3250004,95.1419989 14.239,95.37 C14.1529996,95.5980011 14.11,95.8379987 14.11,96.09 C14.11,96.3380012 14.1599995,96.5269993 14.26,96.657 C14.3600005,96.7870006 14.505999,96.852 14.698,96.852 C14.7940005,96.852 14.8899995,96.8370001 14.986,96.807 C15.0820005,96.7769998 15.1739996,96.7250004 15.262,96.651 C15.3500004,96.5769996 15.4289997,96.4790006 15.499,96.357 C15.5690003,96.2349994 15.6279998,96.0800009 15.676,95.892 L16.108,94.224 Z M16.948,95.718 C16.8919997,95.9540012 16.863,96.1489992 16.861,96.303 C16.859,96.4570008 16.8799998,96.5779996 16.924,96.666 C16.9680002,96.7540004 17.0309996,96.8149998 17.113,96.849 C17.1950004,96.8830002 17.2899995,96.9 17.398,96.9 C17.5540008,96.9 17.7019993,96.8480005 17.842,96.744 C17.9820007,96.6399995 18.1039995,96.4950009 18.208,96.309 C18.3120005,96.1229991 18.3939997,95.9030013 18.454,95.649 C18.5140003,95.3949987 18.544,95.1180015 18.544,94.818 C18.544,94.3099975 18.4660008,93.861002 18.31,93.471 C18.1539992,93.0809981 17.9350014,92.7560013 17.653,92.496 C17.3709986,92.2359987 17.032002,92.0390007 16.636,91.905 C16.239998,91.7709993 15.8040024,91.704 15.328,91.704 C14.9799983,91.704 14.6490016,91.7479996 14.335,91.836 C14.0209984,91.9240004 13.7300013,92.0489992 13.462,92.211 C13.1939987,92.3730008 12.9520011,92.5679989 12.736,92.796 C12.5199989,93.0240011 12.3360008,93.2779986 12.184,93.558 C12.0319992,93.8380014 11.9150004,94.1389984 11.833,94.461 C11.7509996,94.7830016 11.71,95.1199982 11.71,95.472 C11.71,96.1200032 11.809999,96.6899975 12.01,97.182 C12.210001,97.6740025 12.4849983,98.0839984 12.835,98.412 C13.1850017,98.7400016 13.5979976,98.9869992 14.074,99.153 C14.5500024,99.3190008 15.0659972,99.402 15.622,99.402 C15.9340016,99.402 16.2229987,99.3850002 16.489,99.351 C16.7550013,99.3169998 16.9989989,99.2720003 17.221,99.216 C17.4430011,99.1599997 17.6419991,99.0960004 17.818,99.024 C17.9940009,98.9519996 18.1479993,98.8780004 18.28,98.802 C18.3960006,98.7379997 18.4969996,98.7189999 18.583,98.745 C18.6690004,98.7710001 18.7319998,98.8359995 18.772,98.94 L19,99.522 C18.5879979,99.7940014 18.1030028,100.015999 17.545,100.188 C16.9869972,100.360001 16.3460036,100.446 15.622,100.446 C14.8859963,100.446 14.2060031,100.331001 13.582,100.101 C12.9579969,99.8709989 12.4190023,99.5410021 11.965,99.111 C11.5109977,98.6809978 11.1560013,98.1590031 10.9,97.545 C10.6439987,96.9309969 10.516,96.2400038 10.516,95.472 C10.516,95.0479979 10.5719994,94.634002 10.684,94.23 C10.7960006,93.825998 10.953999,93.4460018 11.158,93.09 C11.362001,92.7339982 11.6089985,92.4070015 11.899,92.109 C12.1890014,91.8109985 12.5119982,91.5550011 12.868,91.341 C13.2240018,91.1269989 13.6089979,90.9600006 14.023,90.84 C14.4370021,90.7199994 14.8719977,90.66 15.328,90.66 C15.7080019,90.66 16.0809982,90.7029996 16.447,90.789 C16.8130018,90.8750004 17.1589984,91.0009992 17.485,91.167 C17.8110016,91.3330008 18.1109986,91.5369988 18.385,91.779 C18.6590014,92.0210012 18.894999,92.2959985 19.093,92.604 C19.291001,92.9120015 19.4449995,93.2509982 19.555,93.621 C19.6650006,93.9910019 19.72,94.3899979 19.72,94.818 C19.72,95.2460021 19.6560006,95.6469981 19.528,96.021 C19.3999994,96.3950019 19.2220011,96.7219986 18.994,97.002 C18.7659989,97.2820014 18.4950016,97.5019992 18.181,97.662 C17.8669984,97.8220008 17.5240019,97.902 17.152,97.902 C16.8879987,97.902 16.6480011,97.8420006 16.432,97.722 C16.2159989,97.6019994 16.0600005,97.4040014 15.964,97.128 C15.7279988,97.4040014 15.4790013,97.6009994 15.217,97.719 C14.9549987,97.8370006 14.6720015,97.896 14.368,97.896 C14.1119987,97.896 13.8890009,97.8520004 13.699,97.764 C13.508999,97.6759996 13.3500006,97.5530008 13.222,97.395 C13.0939994,97.2369992 12.9980003,97.0500011 12.934,96.834 C12.8699997,96.6179989 12.838,96.3840013 12.838,96.132 C12.838,95.9039989 12.8669997,95.6730012 12.925,95.439 C12.9830003,95.2049988 13.0699994,94.9790011 13.186,94.761 C13.3020006,94.5429989 13.4479991,94.338001 13.624,94.146 C13.8000009,93.953999 14.0059988,93.7870007 14.242,93.645 C14.4780012,93.5029993 14.7449985,93.3910004 15.043,93.309 C15.3410015,93.2269996 15.6719982,93.186 16.036,93.186 C16.2000008,93.186 16.3499993,93.1919999 16.486,93.204 C16.6220007,93.2160001 16.7499994,93.2339999 16.87,93.258 C16.9900006,93.2820001 17.1029995,93.3119998 17.209,93.348 C17.3150005,93.3840002 17.4219995,93.4239998 17.53,93.468 L16.948,95.718 Z" id="@" fill="#F08377"></path>
            <g id="Group-2" transform="translate(5.000000, 48.000000)" stroke="#534D64" stroke-linecap="round">
                <path d="M21.4016089,7.78359419 C21.4016089,7.78359419 16.6107399,15 10.7008045,15 C4.79086906,15 0,7.78359419 0,7.78359419 C0,7.78359419 4.79086906,0.567188385 10.7008045,0.567188385 C16.6107399,0.567188385 21.4016089,7.78359419 21.4016089,7.78359419 L21.4016089,7.78359419 Z" id="Page-1"></path>
            </g>
            <path d="M16.108,54.224 C16.0519997,54.216 15.9950003,54.21 15.937,54.206 C15.8789997,54.202 15.8200003,54.2 15.76,54.2 C15.5319989,54.2 15.318001,54.2509995 15.118,54.353 C14.917999,54.4550005 14.7430008,54.5929991 14.593,54.767 C14.4429992,54.9410009 14.3250004,55.1419989 14.239,55.37 C14.1529996,55.5980011 14.11,55.8379987 14.11,56.09 C14.11,56.3380012 14.1599995,56.5269993 14.26,56.657 C14.3600005,56.7870006 14.505999,56.852 14.698,56.852 C14.7940005,56.852 14.8899995,56.8370002 14.986,56.807 C15.0820005,56.7769998 15.1739996,56.7250004 15.262,56.651 C15.3500004,56.5769996 15.4289997,56.4790006 15.499,56.357 C15.5690003,56.2349994 15.6279998,56.0800009 15.676,55.892 L16.108,54.224 Z M16.948,55.718 C16.8919997,55.9540012 16.863,56.1489992 16.861,56.303 C16.859,56.4570008 16.8799998,56.5779996 16.924,56.666 C16.9680002,56.7540004 17.0309996,56.8149998 17.113,56.849 C17.1950004,56.8830002 17.2899995,56.9 17.398,56.9 C17.5540008,56.9 17.7019993,56.8480005 17.842,56.744 C17.9820007,56.6399995 18.1039995,56.4950009 18.208,56.309 C18.3120005,56.1229991 18.3939997,55.9030013 18.454,55.649 C18.5140003,55.3949987 18.544,55.1180015 18.544,54.818 C18.544,54.3099975 18.4660008,53.861002 18.31,53.471 C18.1539992,53.080998 17.9350014,52.7560013 17.653,52.496 C17.3709986,52.2359987 17.032002,52.0390007 16.636,51.905 C16.239998,51.7709993 15.8040024,51.704 15.328,51.704 C14.9799983,51.704 14.6490016,51.7479996 14.335,51.836 C14.0209984,51.9240004 13.7300013,52.0489992 13.462,52.211 C13.1939987,52.3730008 12.9520011,52.5679989 12.736,52.796 C12.5199989,53.0240011 12.3360008,53.2779986 12.184,53.558 C12.0319992,53.8380014 11.9150004,54.1389984 11.833,54.461 C11.7509996,54.7830016 11.71,55.1199982 11.71,55.472 C11.71,56.1200032 11.809999,56.6899975 12.01,57.182 C12.210001,57.6740025 12.4849983,58.0839984 12.835,58.412 C13.1850017,58.7400016 13.5979976,58.9869992 14.074,59.153 C14.5500024,59.3190008 15.0659972,59.402 15.622,59.402 C15.9340016,59.402 16.2229987,59.3850002 16.489,59.351 C16.7550013,59.3169998 16.9989989,59.2720003 17.221,59.216 C17.4430011,59.1599997 17.6419991,59.0960004 17.818,59.024 C17.9940009,58.9519996 18.1479993,58.8780004 18.28,58.802 C18.3960006,58.7379997 18.4969996,58.7189999 18.583,58.745 C18.6690004,58.7710001 18.7319998,58.8359995 18.772,58.94 L19,59.522 C18.5879979,59.7940014 18.1030028,60.0159991 17.545,60.188 C16.9869972,60.3600009 16.3460036,60.446 15.622,60.446 C14.8859963,60.446 14.2060031,60.3310011 13.582,60.101 C12.9579969,59.8709988 12.4190023,59.5410021 11.965,59.111 C11.5109977,58.6809978 11.1560013,58.1590031 10.9,57.545 C10.6439987,56.9309969 10.516,56.2400038 10.516,55.472 C10.516,55.0479979 10.5719994,54.634002 10.684,54.23 C10.7960006,53.825998 10.953999,53.4460018 11.158,53.09 C11.362001,52.7339982 11.6089985,52.4070015 11.899,52.109 C12.1890014,51.8109985 12.5119982,51.5550011 12.868,51.341 C13.2240018,51.1269989 13.6089979,50.9600006 14.023,50.84 C14.4370021,50.7199994 14.8719977,50.66 15.328,50.66 C15.7080019,50.66 16.0809982,50.7029996 16.447,50.789 C16.8130018,50.8750004 17.1589984,51.0009992 17.485,51.167 C17.8110016,51.3330008 18.1109986,51.5369988 18.385,51.779 C18.6590014,52.0210012 18.894999,52.2959985 19.093,52.604 C19.291001,52.9120015 19.4449995,53.2509982 19.555,53.621 C19.6650006,53.9910019 19.72,54.3899979 19.72,54.818 C19.72,55.2460021 19.6560006,55.6469981 19.528,56.021 C19.3999994,56.3950019 19.2220011,56.7219986 18.994,57.002 C18.7659989,57.2820014 18.4950016,57.5019992 18.181,57.662 C17.8669984,57.8220008 17.5240019,57.902 17.152,57.902 C16.8879987,57.902 16.6480011,57.8420006 16.432,57.722 C16.2159989,57.6019994 16.0600005,57.4040014 15.964,57.128 C15.7279988,57.4040014 15.4790013,57.6009994 15.217,57.719 C14.9549987,57.8370006 14.6720015,57.896 14.368,57.896 C14.1119987,57.896 13.8890009,57.8520004 13.699,57.764 C13.508999,57.6759996 13.3500006,57.5530008 13.222,57.395 C13.0939994,57.2369992 12.9980003,57.0500011 12.934,56.834 C12.8699997,56.6179989 12.838,56.3840013 12.838,56.132 C12.838,55.9039989 12.8669997,55.6730012 12.925,55.439 C12.9830003,55.2049988 13.0699994,54.9790011 13.186,54.761 C13.3020006,54.5429989 13.4479991,54.338001 13.624,54.146 C13.8000009,53.953999 14.0059988,53.7870007 14.242,53.645 C14.4780012,53.5029993 14.7449985,53.3910004 15.043,53.309 C15.3410015,53.2269996 15.6719982,53.186 16.036,53.186 C16.2000008,53.186 16.3499993,53.1919999 16.486,53.204 C16.6220007,53.2160001 16.7499994,53.2339999 16.87,53.258 C16.9900006,53.2820001 17.1029995,53.3119998 17.209,53.348 C17.3150005,53.3840002 17.4219995,53.4239998 17.53,53.468 L16.948,55.718 Z" id="@" fill="#534D64"></path>
            <g id="Group-2" transform="translate(5.000000, 8.000000)" stroke="#F5F5F5" stroke-linecap="round">
                <path d="M21.4016089,7.78359419 C21.4016089,7.78359419 16.6107399,15 10.7008045,15 C4.79086906,15 0,7.78359419 0,7.78359419 C0,7.78359419 4.79086906,0.567188385 10.7008045,0.567188385 C16.6107399,0.567188385 21.4016089,7.78359419 21.4016089,7.78359419 L21.4016089,7.78359419 Z" id="Page-1"></path>
            </g>
            <path d="M16.108,14.224 C16.0519997,14.216 15.9950003,14.21 15.937,14.206 C15.8789997,14.202 15.8200003,14.2 15.76,14.2 C15.5319989,14.2 15.318001,14.2509995 15.118,14.353 C14.917999,14.4550005 14.7430008,14.5929991 14.593,14.767 C14.4429992,14.9410009 14.3250004,15.1419989 14.239,15.37 C14.1529996,15.5980011 14.11,15.8379987 14.11,16.09 C14.11,16.3380012 14.1599995,16.5269994 14.26,16.657 C14.3600005,16.7870006 14.505999,16.852 14.698,16.852 C14.7940005,16.852 14.8899995,16.8370002 14.986,16.807 C15.0820005,16.7769998 15.1739996,16.7250004 15.262,16.651 C15.3500004,16.5769996 15.4289997,16.4790006 15.499,16.357 C15.5690003,16.2349994 15.6279998,16.0800009 15.676,15.892 L16.108,14.224 Z M16.948,15.718 C16.8919997,15.9540012 16.863,16.1489992 16.861,16.303 C16.859,16.4570008 16.8799998,16.5779996 16.924,16.666 C16.9680002,16.7540004 17.0309996,16.8149998 17.113,16.849 C17.1950004,16.8830002 17.2899995,16.9 17.398,16.9 C17.5540008,16.9 17.7019993,16.8480005 17.842,16.744 C17.9820007,16.6399995 18.1039995,16.4950009 18.208,16.309 C18.3120005,16.1229991 18.3939997,15.9030013 18.454,15.649 C18.5140003,15.3949987 18.544,15.1180015 18.544,14.818 C18.544,14.3099975 18.4660008,13.861002 18.31,13.471 C18.1539992,13.080998 17.9350014,12.7560013 17.653,12.496 C17.3709986,12.2359987 17.032002,12.0390007 16.636,11.905 C16.239998,11.7709993 15.8040024,11.704 15.328,11.704 C14.9799983,11.704 14.6490016,11.7479996 14.335,11.836 C14.0209984,11.9240004 13.7300013,12.0489992 13.462,12.211 C13.1939987,12.3730008 12.9520011,12.5679989 12.736,12.796 C12.5199989,13.0240011 12.3360008,13.2779986 12.184,13.558 C12.0319992,13.8380014 11.9150004,14.1389984 11.833,14.461 C11.7509996,14.7830016 11.71,15.1199982 11.71,15.472 C11.71,16.1200032 11.809999,16.6899975 12.01,17.182 C12.210001,17.6740025 12.4849983,18.0839984 12.835,18.412 C13.1850017,18.7400016 13.5979976,18.9869992 14.074,19.153 C14.5500024,19.3190008 15.0659972,19.402 15.622,19.402 C15.9340016,19.402 16.2229987,19.3850002 16.489,19.351 C16.7550013,19.3169998 16.9989989,19.2720003 17.221,19.216 C17.4430011,19.1599997 17.6419991,19.0960004 17.818,19.024 C17.9940009,18.9519996 18.1479993,18.8780004 18.28,18.802 C18.3960006,18.7379997 18.4969996,18.7189999 18.583,18.745 C18.6690004,18.7710001 18.7319998,18.8359995 18.772,18.94 L19,19.522 C18.5879979,19.7940014 18.1030028,20.0159991 17.545,20.188 C16.9869972,20.3600009 16.3460036,20.446 15.622,20.446 C14.8859963,20.446 14.2060031,20.3310011 13.582,20.101 C12.9579969,19.8709988 12.4190023,19.5410022 11.965,19.111 C11.5109977,18.6809979 11.1560013,18.1590031 10.9,17.545 C10.6439987,16.9309969 10.516,16.2400038 10.516,15.472 C10.516,15.0479979 10.5719994,14.634002 10.684,14.23 C10.7960006,13.825998 10.953999,13.4460018 11.158,13.09 C11.362001,12.7339982 11.6089985,12.4070015 11.899,12.109 C12.1890014,11.8109985 12.5119982,11.5550011 12.868,11.341 C13.2240018,11.1269989 13.6089979,10.9600006 14.023,10.84 C14.4370021,10.7199994 14.8719977,10.66 15.328,10.66 C15.7080019,10.66 16.0809982,10.7029996 16.447,10.789 C16.8130018,10.8750004 17.1589984,11.0009992 17.485,11.167 C17.8110016,11.3330008 18.1109986,11.5369988 18.385,11.779 C18.6590014,12.0210012 18.894999,12.2959985 19.093,12.604 C19.291001,12.9120015 19.4449995,13.2509981 19.555,13.621 C19.6650006,13.9910018 19.72,14.3899979 19.72,14.818 C19.72,15.2460021 19.6560006,15.6469981 19.528,16.021 C19.3999994,16.3950019 19.2220011,16.7219986 18.994,17.002 C18.7659989,17.2820014 18.4950016,17.5019992 18.181,17.662 C17.8669984,17.8220008 17.5240019,17.902 17.152,17.902 C16.8879987,17.902 16.6480011,17.8420006 16.432,17.722 C16.2159989,17.6019994 16.0600005,17.4040014 15.964,17.128 C15.7279988,17.4040014 15.4790013,17.6009994 15.217,17.719 C14.9549987,17.8370006 14.6720015,17.896 14.368,17.896 C14.1119987,17.896 13.8890009,17.8520004 13.699,17.764 C13.508999,17.6759996 13.3500006,17.5530008 13.222,17.395 C13.0939994,17.2369992 12.9980003,17.0500011 12.934,16.834 C12.8699997,16.6179989 12.838,16.3840013 12.838,16.132 C12.838,15.9039989 12.8669997,15.6730012 12.925,15.439 C12.9830003,15.2049988 13.0699994,14.9790011 13.186,14.761 C13.3020006,14.5429989 13.4479991,14.338001 13.624,14.146 C13.8000009,13.953999 14.0059988,13.7870007 14.242,13.645 C14.4780012,13.5029993 14.7449985,13.3910004 15.043,13.309 C15.3410015,13.2269996 15.6719982,13.186 16.036,13.186 C16.2000008,13.186 16.3499993,13.1919999 16.486,13.204 C16.6220007,13.2160001 16.7499994,13.2339999 16.87,13.258 C16.9900006,13.2820001 17.1029995,13.3119998 17.209,13.348 C17.3150005,13.3840002 17.4219995,13.4239998 17.53,13.468 L16.948,15.718 Z" id="@" fill="#F5F5F5"></path>
        </g>
    </g>
</svg>