<?xml version="1.0" encoding="UTF-8" standalone="no"?>
<svg width="32px" height="112px" viewBox="0 0 32 112" version="1.1" xmlns="http://www.w3.org/2000/svg" xmlns:xlink="http://www.w3.org/1999/xlink">
    <!-- Generator: Sketch 3.8.3 (29802) - http://www.bohemiancoding.com/sketch -->
    <title>sb_view_project_tasks</title>
    <desc>Created with Sketch.</desc>
    <defs></defs>
    <g id="Page-1" stroke="none" stroke-width="1" fill="none" fill-rule="evenodd">
        <g id="sb_view_project_tasks">
            <ellipse id="Oval-7" stroke="#F5F5F5" cx="16" cy="16" rx="15" ry="15"></ellipse>
            <path d="M24.9980002,10.8133333 L23.0396002,8.8552 C22.7689335,8.58533333 22.3324002,8.58533333 22.0614669,8.85626667 L12.5137335,18.4018667 L9.1388002,15.028 C8.86786686,14.7570667 8.43133353,14.7570667 8.16066686,15.0269333 L6.20226686,16.9853333 C5.9324002,17.2562667 5.9324002,17.6936 6.20333353,17.9645333 L11.7761335,23.5362667 C11.9761335,23.7362667 12.2356002,24 12.5012002,24 C12.7657335,24 13.0532002,23.7362667 13.2542669,23.5362667 L24.9990669,11.7925333 C25.2678669,11.5218667 25.2678669,11.0842667 24.9980002,10.8133333 L24.9980002,10.8133333 Z" id="Page-1" fill="#F5F5F5"></path>
            <ellipse id="Oval-7" stroke="#534D64" cx="16" cy="56" rx="15" ry="15"></ellipse>
            <path d="M24.9980002,50.8133333 L23.0396002,48.8552 C22.7689335,48.5853333 22.3324002,48.5853333 22.0614669,48.8562667 L12.5137335,58.4018667 L9.1388002,55.028 C8.86786686,54.7570667 8.43133353,54.7570667 8.16066686,55.0269333 L6.20226686,56.9853333 C5.9324002,57.2562667 5.9324002,57.6936 6.20333353,57.9645333 L11.7761335,63.5362667 C11.9761335,63.7362667 12.2356002,64 12.5012002,64 C12.7657335,64 13.0532002,63.7362667 13.2542669,63.5362667 L24.9990669,51.7925333 C25.2678669,51.5218667 25.2678669,51.0842667 24.9980002,50.8133333 L24.9980002,50.8133333 Z" id="Page-1" fill="#534D64"></path>
            <ellipse id="Oval-7" stroke="#F08377" cx="16" cy="96" rx="15" ry="15"></ellipse>
            <path d="M24.9980002,90.8133333 L23.0396002,88.8552 C22.7689335,88.5853333 22.3324002,88.5853333 22.0614669,88.8562667 L12.5137335,98.4018667 L9.1388002,95.028 C8.86786686,94.7570667 8.43133353,94.7570667 8.16066686,95.0269333 L6.20226686,96.9853333 C5.9324002,97.2562667 5.9324002,97.6936 6.20333353,97.9645333 L11.7761335,103.536267 C11.9761335,103.736267 12.2356002,104 12.5012002,104 C12.7657335,104 13.0532002,103.736267 13.2542669,103.536267 L24.9990669,91.7925333 C25.2678669,91.5218667 25.2678669,91.0842667 24.9980002,90.8133333 L24.9980002,90.8133333 Z" id="Page-1" fill="#F08377"></path>
        </g>
    </g>
</svg>