<?xml version="1.0" encoding="UTF-8" standalone="no"?>
<svg width="28px" height="28px" viewBox="0 0 28 28" version="1.1" xmlns="http://www.w3.org/2000/svg" xmlns:xlink="http://www.w3.org/1999/xlink">
    <!-- Generator: Sketch 3.8.3 (29802) - http://www.bohemiancoding.com/sketch -->
    <title>admin_module_builder</title>
    <desc>Created with Sketch.</desc>
    <defs></defs>
    <g id="Page-1" stroke="none" stroke-width="1" fill="none" fill-rule="evenodd">
        <g id="admin_module_builder">
            <circle id="Oval-7" stroke="#534D64" cx="14" cy="14" r="13"></circle>
            <path d="M20.4903046,13.5424 C20.4836912,13.5266133 20.4770779,13.51168 20.4679046,13.4967467 C20.4521179,13.47008 20.4312113,13.4474667 20.4079579,13.42592 C20.3987846,13.4176 20.3945179,13.4050133 20.3836379,13.3975467 C20.3787313,13.3941333 20.3721179,13.3941333 20.3678513,13.3909333 C20.3620912,13.3866667 20.3586779,13.3809067 20.3520646,13.37664 L18.8553179,12.5216 C19.0545712,12.3291733 19.1861979,12.0682667 19.1861979,11.77408 C19.1861979,11.3757867 18.9645446,11.0176 18.6078512,10.8384 L16.1653979,9.61664 L16.4487046,8.90837333 L16.6402779,8.81258667 C16.7394779,8.87253333 16.8544646,8.90496 16.9737179,8.90496 C17.0345179,8.90496 17.0961713,8.89664 17.1578246,8.88 L19.7269979,8.14506667 C20.1937712,8.01088 20.5195312,7.57824 20.5195312,7.09333333 C20.5195312,6.49088 20.0286512,6 19.4261979,6 L19.1196379,6 C18.8711046,6 18.6287579,6.08490667 18.4361179,6.23914667 L16.5671046,7.73418667 C16.4120112,7.85834667 16.3362779,8.03669333 16.3294512,8.22165333 L16.0369713,8.36757333 C15.9637979,8.40426667 15.9061979,8.46592 15.8761179,8.54250667 L15.5661446,9.31754667 L14.6345179,8.85248 C13.9228379,8.49664 13.0112646,8.68906667 12.5037446,9.29749333 L9.66363792,12.70592 L4.76699792,14.0117333 C4.74865125,14.01664 4.73457125,14.0283733 4.71707792,14.0366933 C4.70705125,14.0416 4.69531792,14.0392533 4.68529125,14.0450133 C4.67953125,14.0484267 4.67697125,14.0558933 4.67121125,14.0590933 C4.62961125,14.0874667 4.59291792,14.1207467 4.56710458,14.1642667 C4.56454458,14.1691733 4.56283792,14.1732267 4.56027792,14.1783467 C4.53873125,14.2199467 4.52699792,14.2658133 4.52443792,14.3133867 C4.52443792,14.32 4.51953125,14.32576 4.51953125,14.3332267 L4.51953125,19.0001067 C4.51953125,19.1191467 4.58374458,19.23008 4.68785125,19.2891733 L9.35451792,21.95584 C9.40529125,21.9850667 9.46289125,22 9.51963792,22 C9.55206458,22 9.58619792,21.9950933 9.61862458,21.9850667 L20.2852913,18.6517333 C20.4245979,18.6084267 20.5195312,18.4791467 20.5195312,18.3332267 L20.5195312,13.6667733 C20.5195312,13.65504 20.5129179,13.6458667 20.5120646,13.6349867 C20.5086512,13.60256 20.5020379,13.57248 20.4903046,13.5424 L20.4903046,13.5424 Z M18.8536113,6.75989333 C18.9278512,6.69994667 19.0227846,6.66666667 19.1196379,6.66666667 L19.4270512,6.66666667 C19.6619312,6.66666667 19.8537179,6.85824 19.8537179,7.09333333 C19.8537179,7.28256 19.7261446,7.45173333 19.5445979,7.50336 L17.1520646,8.18752 C17.1512113,8.18581333 17.1512113,8.18581333 17.1512113,8.18410667 C17.1437446,8.16917333 17.1303046,8.15914667 17.1211313,8.14592 L18.8536113,6.75989333 Z M13.0170246,9.72416 C13.2245979,9.47584 13.5279579,9.33333333 13.8511579,9.33333333 C14.0186246,9.33333333 14.1860912,9.37322667 14.3386246,9.44746667 L15.3178246,9.93664 L15.2504112,10.10496 L12.0137179,12.0475733 C11.8562779,12.1425067 11.8052912,12.3466667 11.8995846,12.50496 C11.9629446,12.6090667 12.0728112,12.6666667 12.1863046,12.6666667 C12.2445446,12.6666667 12.3044912,12.6517333 12.3578246,12.61824 L15.6911579,10.61824 C15.7536646,10.5809067 15.8020913,10.52416 15.8296112,10.4567467 L15.9179312,10.2365867 L18.3119579,11.4333867 C18.4412379,11.49824 18.5220912,11.6283733 18.5220912,11.7757867 C18.5220912,11.9509333 18.4036913,12.10176 18.2336646,12.1442133 L18.0719579,12.18496 C18.0711046,12.18496 18.0704646,12.1858133 18.0696112,12.1858133 L9.09702458,14.4283733 L13.0170246,9.72416 Z M7.90449125,15.1776 C7.96529125,15.2757333 8.07366458,15.3333333 8.18630458,15.3333333 C8.21275792,15.3333333 8.24027792,15.32992 8.26779792,15.3224533 L9.38779792,15.04256 L10.3486512,15.6192 C10.4019846,15.6516267 10.4612912,15.66656 10.5195312,15.66656 C10.6319579,15.66656 10.7428912,15.6091733 10.8053979,15.5050667 C10.9003312,15.34656 10.8495579,15.1424 10.6912646,15.0474667 L10.3012912,14.8132267 L11.5827846,14.4932267 L12.3477979,14.95168 C12.4019846,14.98496 12.4612912,15.0001067 12.5195312,15.0001067 C12.6319579,15.0001067 12.7428912,14.9425067 12.8053979,14.8384 C12.9003312,14.6801067 12.8495579,14.4757333 12.6912646,14.3808 L12.4971312,14.26496 L13.7786246,13.9441067 L14.3469446,14.2858667 C14.4019846,14.3182933 14.4612912,14.3332267 14.5195312,14.3332267 C14.6319579,14.3332267 14.7428912,14.27584 14.8053979,14.1717333 C14.8994779,14.01408 14.8495579,13.8107733 14.6936112,13.71584 L15.9753179,13.3949867 L16.3477979,13.6183467 C16.4019846,13.6516267 16.4612912,13.6667733 16.5195312,13.6667733 C16.6319579,13.6667733 16.7428912,13.6091733 16.8053979,13.5050667 C16.8661979,13.4033067 16.8612912,13.2849067 16.8120112,13.1867733 L18.1069446,12.8625067 L19.3562246,13.5767467 L9.55867792,16.6382933 L5.72294458,14.44672 L8.92529125,13.5925333 L7.93030458,14.7867733 C7.83793125,14.8983467 7.82790458,15.0549333 7.90449125,15.1776 L7.90449125,15.1776 Z M9.18619792,21.0916267 L5.18619792,18.8066133 L5.18619792,14.9083733 L9.18619792,17.1933867 L9.18619792,21.0916267 Z M19.8528646,18.08832 L9.85286458,21.2132267 L9.85286458,17.2450133 L19.8528646,14.1198933 L19.8528646,18.08832 Z" id="Page-1" fill="#5C566C"></path>
        </g>
    </g>
</svg>