<?xml version="1.0" encoding="UTF-8" standalone="no"?>
<svg
   xmlns:dc="http://purl.org/dc/elements/1.1/"
   xmlns:cc="http://creativecommons.org/ns#"
   xmlns:rdf="http://www.w3.org/1999/02/22-rdf-syntax-ns#"
   xmlns:svg="http://www.w3.org/2000/svg"
   xmlns="http://www.w3.org/2000/svg"
   xmlns:sodipodi="http://sodipodi.sourceforge.net/DTD/sodipodi-0.dtd"
   xmlns:inkscape="http://www.inkscape.org/namespaces/inkscape"
   width="30px"
   height="30px"
   viewBox="0 0 30 30"
   version="1.1"
   id="svg2"
   inkscape:version="0.48.4 r9939"
   sodipodi:docname="AOBH_BusinessHours.svg">
  <metadata
     id="metadata18">
    <rdf:RDF>
      <cc:Work
         rdf:about="">
        <dc:format>image/svg+xml</dc:format>
        <dc:type
           rdf:resource="http://purl.org/dc/dcmitype/StillImage" />
      </cc:Work>
    </rdf:RDF>
  </metadata>
  <sodipodi:namedview
     pagecolor="#ffffff"
     bordercolor="#666666"
     borderopacity="1"
     objecttolerance="10"
     gridtolerance="10"
     guidetolerance="10"
     inkscape:pageopacity="0"
     inkscape:pageshadow="2"
     inkscape:window-width="1855"
     inkscape:window-height="1056"
     id="namedview16"
     showgrid="false"
     inkscape:zoom="31.466667"
     inkscape:cx="7.4395635"
     inkscape:cy="13.291206"
     inkscape:window-x="65"
     inkscape:window-y="24"
     inkscape:window-maximized="1"
     inkscape:current-layer="svg2" />
  <!-- Generator: Sketch 39.1 (31720) - http://www.bohemiancoding.com/sketch -->
  <title
     id="title4">business_hours</title>
  <desc
     id="desc6">Created with Sketch.</desc>
  <defs
     id="defs8" />
  <g
     id="Page-1"
     style="fill:#534d64;fill-opacity:1;fill-rule:evenodd;stroke:none"
     transform="matrix(0.69051874,0,0,0.69051874,4.6422188,4.5812604)">
    <g
       id="business_hours"
       style="fill:#534d64;fill-opacity:1">
      <g
         id="g12"
         transform="translate(2,2)"
         style="fill:#534d64;fill-opacity:1">
        <path
           d="m 25.630485,12.784515 0,-0.0059 C 25.616697,5.8259697 19.955394,0.17254545 13,0.17254545 6.0446061,0.17254545 0.38330303,5.8259697 0.36951515,12.778606 l 0,0.0059 0,0.0032 0,0.01536 c 0,6.964849 5.66563635,12.630485 12.63048485,12.630485 6.964848,0 12.630485,-5.665636 12.630485,-12.630485 l 0,-0.01536 0,-0.0032 0,0 z m -11.670061,10.68403 0,-1.691181 c 0,-0.530637 -0.429394,-0.960031 -0.960424,-0.960031 -0.53103,0 -0.960424,0.429394 -0.960424,0.960031 l 0,1.691181 C 6.8939394,23.008424 2.7851515,18.895303 2.3329091,13.744939 l 1.6726667,0 c 0.5310303,0 0.9600303,-0.429393 0.9600303,-0.960424 0,-0.53103 -0.429,-0.96003 -0.9600303,-0.96003 l -1.6710909,0 C 2.8020909,6.6922424 6.903,2.5960606 12.038394,2.1375152 l 0,1.6541515 c 0,0.5310303 0.429,0.9600303 0.96003,0.9600303 0.531031,0 0.960425,-0.429 0.960425,-0.9600303 l 0,-1.6541515 c 5.134999,0.4585454 9.235909,4.5547272 9.703515,9.6869698 l -1.671091,0 c -0.530637,0 -0.960031,0.429 -0.960031,0.96003 0,0.531031 0.429394,0.960424 0.960031,0.960424 l 1.672666,0 c -0.449091,5.148788 -4.556303,9.263485 -9.703515,9.723606 l 0,0 z"
           id="Fill-1"
           style="fill:#534d64;fill-opacity:1"
           inkscape:connector-curvature="0" />
        <path
           d="M 18.704242,6.2289697 12.947606,12.266091 9.0743939,8.125 C 8.7111818,7.7373636 8.1033333,7.7172727 7.7172727,8.0804849 7.3292424,8.443697 7.3095454,9.0499697 7.6727576,9.4376061 l 4.5685154,4.8828789 c 0.18003,0.192242 0.432545,0.302939 0.697273,0.304515 l 0.0043,0 c 0.263151,0 0.514091,-0.107546 0.695697,-0.29703 l 6.458636,-6.7737882 c 0.36597,-0.383303 0.350606,-0.9911515 -0.0323,-1.3575151 -0.386455,-0.3659697 -0.994303,-0.3506061 -1.360667,0.032303 l 0,0 z"
           id="Fill-2"
           style="fill:#534d64;fill-opacity:1"
           inkscape:connector-curvature="0" />
      </g>
    </g>
  </g>
  <path
     sodipodi:type="arc"
     style="fill:none;stroke:#534d64;stroke-opacity:1"
     id="path2988"
     sodipodi:cx="14.745763"
     sodipodi:cy="15.254237"
     sodipodi:rx="12.41605"
     sodipodi:ry="12.41605"
     d="m 27.161813,15.254237 a 12.41605,12.41605 0 1 1 -24.8321001,0 12.41605,12.41605 0 1 1 24.8321001,0 z"
     transform="matrix(0.9725384,0,0,0.9725384,0.65917953,-0.05778915)" />
</svg>
