<?xml version="1.0" encoding="UTF-8" standalone="no"?>
<svg width="28px" height="28px" viewBox="0 0 28 28" version="1.1" xmlns="http://www.w3.org/2000/svg" xmlns:xlink="http://www.w3.org/1999/xlink">
    <!-- Generator: Sketch 3.8.3 (29802) - http://www.bohemiancoding.com/sketch -->
    <title>admin_aop_settings</title>
    <desc>Created with Sketch.</desc>
    <defs></defs>
    <g id="Page-1" stroke="none" stroke-width="1" fill="none" fill-rule="evenodd">
        <g id="admin_aop_settings">
            <circle id="Oval-7" stroke="#534D64" cx="14" cy="14" r="13"></circle>
            <path d="M8.37275,14.4935 L7.76525,12.698 C7.72024978,12.5839994 7.67225026,12.4497508 7.62125,12.29525 C7.57024975,12.1407492 7.51925026,11.9735009 7.46825,11.7935 C7.42324978,11.9765009 7.37525026,12.1459992 7.32425,12.302 C7.27324975,12.4580008 7.22525023,12.5929994 7.18025,12.707 L6.57725,14.4935 L8.37275,14.4935 Z M10.78925,17 L9.61025,17 C9.47824934,17 9.37175041,16.9692503 9.29075,16.90775 C9.2097496,16.8462497 9.14825021,16.7675005 9.10625,16.6715 L8.71925,15.5285 L6.22625,15.5285 L5.83925,16.6715 C5.80624984,16.7555004 5.74700043,16.8312497 5.6615,16.89875 C5.57599957,16.9662503 5.47025063,17 5.34425,17 L4.15625,17 L6.69425,10.4435 L8.25125,10.4435 L10.78925,17 Z M17.74175,13.7195 C17.74175,14.1935024 17.6600008,14.634498 17.4965,15.0425 C17.3329992,15.450502 17.1027515,15.8052485 16.80575,16.10675 C16.5087485,16.4082515 16.1510021,16.6444991 15.7325,16.8155 C15.3139979,16.9865009 14.8497526,17.072 14.33975,17.072 C13.8297475,17.072 13.3647521,16.9865009 12.94475,16.8155 C12.5247479,16.6444991 12.1655015,16.4082515 11.867,16.10675 C11.5684985,15.8052485 11.3375008,15.450502 11.174,15.0425 C11.0104992,14.634498 10.92875,14.1935024 10.92875,13.7195 C10.92875,13.2454976 11.0104992,12.804502 11.174,12.3965 C11.3375008,11.988498 11.5684985,11.6345015 11.867,11.3345 C12.1655015,11.0344985 12.5247479,10.7990009 12.94475,10.628 C13.3647521,10.4569991 13.8297475,10.3715 14.33975,10.3715 C14.8497526,10.3715 15.3139979,10.4577491 15.7325,10.63025 C16.1510021,10.8027509 16.5087485,11.0389985 16.80575,11.339 C17.1027515,11.6390015 17.3329992,11.992998 17.4965,12.401 C17.6600008,12.809002 17.74175,13.2484976 17.74175,13.7195 L17.74175,13.7195 Z M16.18475,13.7195 C16.18475,13.3954984 16.1427504,13.1037513 16.05875,12.84425 C15.9747496,12.5847487 15.8540008,12.3650009 15.6965,12.185 C15.5389992,12.0049991 15.3462511,11.8670005 15.11825,11.771 C14.8902489,11.6749995 14.6307515,11.627 14.33975,11.627 C14.0457485,11.627 13.7840011,11.6749995 13.5545,11.771 C13.3249989,11.8670005 13.1315008,12.0049991 12.974,12.185 C12.8164992,12.3650009 12.6957504,12.5847487 12.61175,12.84425 C12.5277496,13.1037513 12.48575,13.3954984 12.48575,13.7195 C12.48575,14.0465016 12.5277496,14.3397487 12.61175,14.59925 C12.6957504,14.8587513 12.8164992,15.0784991 12.974,15.2585 C13.1315008,15.4385009 13.3249989,15.5757495 13.5545,15.67025 C13.7840011,15.7647505 14.0457485,15.812 14.33975,15.812 C14.6307515,15.812 14.8902489,15.7647505 15.11825,15.67025 C15.3462511,15.5757495 15.5389992,15.4385009 15.6965,15.2585 C15.8540008,15.0784991 15.9747496,14.8587513 16.05875,14.59925 C16.1427504,14.3397487 16.18475,14.0465016 16.18475,13.7195 L16.18475,13.7195 Z M20.95025,13.661 C21.346252,13.661 21.6312491,13.5665009 21.80525,13.3775 C21.9792509,13.1884991 22.06625,12.9245017 22.06625,12.5855 C22.06625,12.4354992 22.0437502,12.2990006 21.99875,12.176 C21.9537498,12.0529994 21.8855005,11.9472504 21.794,11.85875 C21.7024995,11.7702496 21.5870007,11.7020002 21.4475,11.654 C21.3079993,11.6059998 21.142251,11.582 20.95025,11.582 L20.15825,11.582 L20.15825,13.661 L20.95025,13.661 Z M20.95025,10.4435 C21.4122523,10.4435 21.8089983,10.4982495 22.1405,10.60775 C22.4720017,10.7172505 22.7449989,10.867999 22.9595,11.06 C23.1740011,11.252001 23.3322495,11.4784987 23.43425,11.7395 C23.5362505,12.0005013 23.58725,12.2824985 23.58725,12.5855 C23.58725,12.9125016 23.5347505,13.2124986 23.42975,13.4855 C23.3247495,13.7585014 23.1642511,13.992499 22.94825,14.1875 C22.7322489,14.382501 22.4585017,14.5347495 22.127,14.64425 C21.7954983,14.7537505 21.4032523,14.8085 20.95025,14.8085 L20.15825,14.8085 L20.15825,17 L18.63725,17 L18.63725,10.4435 L20.95025,10.4435 Z" id="AOP" fill="#5C566C"></path>
        </g>
    </g>
</svg>