<?xml version="1.0" encoding="UTF-8" standalone="no"?>
<svg width="30px" height="30px" viewBox="0 0 30 30" version="1.1" xmlns="http://www.w3.org/2000/svg" xmlns:xlink="http://www.w3.org/1999/xlink">
    <!-- Generator: Sketch 3.8.3 (29802) - http://www.bohemiancoding.com/sketch -->
    <title>acc_reports</title>
    <desc>Created with Sketch.</desc>
    <defs></defs>
    <g id="Page-1" stroke="none" stroke-width="1" fill="none" fill-rule="evenodd">
        <g id="acc_reports" fill="#778591">
            <path d="M7.21648,1 L5,3.21685333 L5,26.7831467 L7.21648,29 L23.78352,29 L26,26.7831467 L26,3.21685333 L23.78352,1 L7.21648,1 Z M22.8341333,25.30176 L8.16586667,25.30176 L8.16586667,24.4266667 L22.8341333,24.4266667 L22.8341333,25.30176 Z M22.8341333,23.5078933 L8.16586667,23.5078933 L8.16586667,22.6328 L22.8341333,22.6328 L22.8341333,23.5078933 Z M22.8341333,21.71552 L8.16586667,21.71552 L8.16586667,20.8408 L22.8341333,20.8408 L22.8341333,21.71552 Z M22.8341333,19.9220267 L8.16586667,19.9220267 L8.16586667,19.0469333 L22.8341333,19.0469333 L22.8341333,19.9220267 Z M22.8341333,18.12816 L8.16586667,18.12816 L8.16586667,17.2530667 L22.8341333,17.2530667 L22.8341333,18.12816 Z M22.8341333,16.3342933 L8.16586667,16.3342933 L8.16586667,15.4592 L22.8341333,15.4592 L22.8341333,16.3342933 Z M22.8341333,14.5408 L8.16586667,14.5408 L8.16586667,13.6657067 L22.8341333,13.6657067 L22.8341333,14.5408 Z M22.8341333,12.7469333 L8.16586667,12.7469333 L8.16586667,11.87184 L22.8341333,11.87184 L22.8341333,12.7469333 Z M22.8341333,10.9530667 L8.16586667,10.9530667 L8.16586667,10.0779733 L22.8341333,10.0779733 L22.8341333,10.9530667 Z M22.8341333,9.1592 L8.16586667,9.1592 L8.16586667,8.28448 L22.8341333,8.28448 L22.8341333,9.1592 Z M22.8341333,7.3672 L8.16586667,7.3672 L8.16586667,6.49210667 L22.8341333,6.49210667 L22.8341333,7.3672 Z M22.8341333,5.57333333 L8.16586667,5.57333333 L8.16586667,4.69824 L22.8341333,4.69824 L22.8341333,5.57333333 Z" id="Page-1-Copy-2"></path>
        </g>
    </g>
</svg>