<?xml version="1.0" encoding="UTF-8" standalone="no"?>
<svg width="30px" height="30px" viewBox="0 0 30 30" version="1.1" xmlns="http://www.w3.org/2000/svg" xmlns:xlink="http://www.w3.org/1999/xlink">
    <!-- Generator: Sketch 3.8.3 (29802) - http://www.bohemiancoding.com/sketch -->
    <title>acc_areas_maps</title>
    <desc>Created with Sketch.</desc>
    <defs></defs>
    <g id="Page-1" stroke="none" stroke-width="1" fill="none" fill-rule="evenodd">
        <g id="acc_areas_maps" fill="#778591">
            <g id="Page-1-Copy-2">
                <path d="M4.7452,25.942 C7.428,28.4564 11.0328,30 15,30 C16.3392,30 17.6344,29.822 18.8688,29.4936 L10.0312,20.6564 L4.7452,25.942 Z" id="Fill-1"></path>
                <path d="M29.4264,19.1032 C29.7968,17.7984 30,16.4236 30,15 C30,13.6608 29.822,12.3656 29.4936,11.1312 L25.4736,15.15 L29.4264,19.1032 Z" id="Fill-2"></path>
                <path d="M9.7312,10.1936 L4.4376,15.4876 C4.3204,15.6048 4.1312,15.6048 4.014,15.4876 C3.8968,15.3704 3.8968,15.1812 4.014,15.064 C4.014,15.064 4.0156,15.064 4.0156,15.0624 L9.3092,9.7688 L4.1704,4.6296 C1.5876,7.3236 0,10.9752 0,15 C0,19.1016 1.6468,22.8156 4.314,25.5236 L14.6892,15.15 L9.7312,10.1936 Z M8.478,15.9608 C8.478,15.3124 9.0032,14.7876 9.6516,14.7876 C10.3,14.7876 10.8248,15.314 10.8248,15.9608 L9.6516,17.772 L8.478,15.9608 Z" id="Fill-3"></path>
                <polygon id="Fill-4" points="10.1548 9.7688 14.6984 5.2248 24.6236 15.15 20.0796 19.6936"></polygon>
                <path d="M18.6296,0.4452 C17.4672,0.1564 16.2516,0 15,0 C13.5764,0 12.2016,0.2032 10.8968,0.5736 L14.7,4.3764 L18.6296,0.4452 Z" id="Fill-5"></path>
                <path d="M14.2752,4.8 L10.2484,0.7736 C8.1064,1.4892 6.1796,2.6736 4.5908,4.2048 L9.7312,9.3452 L14.2752,4.8 Z" id="Fill-6"></path>
                <path d="M10.4564,20.2312 L19.528,29.3032 C21.7436,28.6032 23.7328,27.4 25.372,25.8328 L15.1124,15.5736 L10.4564,20.2312 Z" id="Fill-7"></path>
                <path d="M25.05,14.7264 L29.3032,10.4736 C27.8108,5.7532 24.0468,2.0452 19.2952,0.628 L15.1236,4.8 L25.05,14.7264 Z" id="Fill-8"></path>
                <path d="M20.5064,20.1188 L25.7968,25.4092 C27.3296,23.8204 28.514,21.8936 29.228,19.7516 L25.05,15.5736 L20.5064,20.1188 Z" id="Fill-9"></path>
                <path d="M10.1952,15.8608 C10.1952,16.586 9.108,16.586 9.108,15.8608 C9.108,15.136 10.1952,15.136 10.1952,15.8608" id="Fill-10"></path>
            </g>
        </g>
    </g>
</svg>