<?xml version="1.0" encoding="UTF-8" standalone="no"?>
<svg width="30px" height="30px" viewBox="0 0 30 30" version="1.1" xmlns="http://www.w3.org/2000/svg" xmlns:xlink="http://www.w3.org/1999/xlink">
    <!-- Generator: Sketch 3.8.3 (29802) - http://www.bohemiancoding.com/sketch -->
    <title>acc_campaigns</title>
    <desc>Created with Sketch.</desc>
    <defs></defs>
    <g id="Page-1" stroke="none" stroke-width="1" fill="none" fill-rule="evenodd">
        <g id="acc_campaigns" fill="#778591">
            <path d="M17.1268986,21.8492932 C17.1268986,21.948437 17.1268986,22.0736787 16.8991991,22.0766705 L10.2496548,22.0766705 C10.1509712,22.0766705 10.0266041,22.0766705 10.0197459,21.8492932 L10.0197459,18.9060454 L17.1266225,20.4486212 L17.1266225,21.8492932 L17.1268986,21.8492932 Z M26.7758906,7.13194989 C26.6344932,7.01821519 26.4490012,6.9746729 26.2692626,7.01439489 L5.1519838,11.6037809 L5.1519838,11.4004761 C5.1519838,11.0681554 4.88290527,10.7990768 4.54998619,10.7990768 L3.60034061,10.7990768 C3.26719138,10.7990768 3,11.0681554 3,11.4004761 L3,18.0492379 C3,18.3818808 3.26746755,18.6531227 3.60034061,18.6531227 L4.54998619,18.6531227 C4.88290527,18.6531227 5.1519838,18.3818808 5.1519838,18.0492379 L5.1519838,17.8459331 L8.57659026,18.590663 L8.57659026,21.8495693 C8.57659026,22.5208388 9.02241554,23.5203785 10.2496548,23.5203785 L16.8991991,23.5203785 C17.5726779,23.5203785 18.5721716,23.0767626 18.5721716,21.8495693 L18.5721716,20.7634513 L26.2692626,22.4378046 C26.3125288,22.4454913 26.3572218,22.4506924 26.3988309,22.4506924 C26.5339225,22.4506924 26.6657001,22.4041123 26.7758906,22.317534 C26.9169658,22.2037993 27,22.0292619 27,21.8495693 L27,7.60046687 C27,7.41796664 26.9166897,7.24729556 26.7758906,7.13194989 L26.7758906,7.13194989 Z" id="Fill-1"></path>
        </g>
    </g>
</svg>