<?xml version="1.0" encoding="UTF-8" standalone="no"?>
<svg width="28px" height="28px" viewBox="0 0 28 28" version="1.1" xmlns="http://www.w3.org/2000/svg" xmlns:xlink="http://www.w3.org/1999/xlink">
    <!-- Generator: Sketch 3.8.3 (29802) - http://www.bohemiancoding.com/sketch -->
    <title>admin_currencies</title>
    <desc>Created with Sketch.</desc>
    <defs></defs>
    <g id="Page-1" stroke="none" stroke-width="1" fill="none" fill-rule="evenodd">
        <g id="admin_currencies">
            <circle id="Oval-7" stroke="#534D64" cx="14" cy="14" r="13"></circle>
            <path d="M11.6095312,5.62 C9.95809125,5.62 8.45953125,5.9546 7.35689125,6.50592 C6.25453125,7.05724 5.51953125,7.8446 5.51953125,8.77 C5.51953125,8.84112 5.52401125,8.91 5.53269125,8.98 L5.51953125,16.37592 L5.51953125,18.85 C5.51953125,19.7754 6.25453125,20.56276 7.35689125,21.11408 C8.45953125,21.6654 9.95809125,22 11.6095312,22 C13.2139312,22 14.6710512,21.68276 15.7636112,21.16 C16.4263713,21.43132 17.1504512,21.58 17.9095313,21.58 C21.0388112,21.58 23.5795312,19.03928 23.5795312,15.91 C23.5795312,12.78072 21.0388112,10.24 17.9095313,10.24 C17.8384113,10.24 17.7695312,10.24448 17.6995312,10.24644 L17.6995312,8.98 L17.6863713,8.98 C17.6950512,8.91 17.6995312,8.84112 17.6995312,8.77 C17.6995312,7.8446 16.9645313,7.05724 15.8621712,6.50592 C14.7595313,5.9546 13.2609713,5.62 11.6095312,5.62 L11.6095312,5.62 Z M11.6095312,6.04 C13.2052512,6.04 14.6458512,6.36704 15.6717713,6.88 C16.6976913,7.39296 17.2795312,8.07112 17.2795312,8.77 C17.2795312,9.46888 16.6976913,10.14704 15.6717713,10.66 C14.6458512,11.17296 13.2052512,11.5 11.6095312,11.5 C10.0138112,11.5 8.57321125,11.17296 7.54729125,10.66 C6.52137125,10.14704 5.93953125,9.46888 5.93953125,8.77 C5.93953125,8.07112 6.52137125,7.39296 7.54729125,6.88 C8.57321125,6.36704 10.0138112,6.04 11.6095312,6.04 L11.6095312,6.04 Z M17.2795313,9.93144 L17.2795313,10.27276 C17.1580113,10.28592 17.0378913,10.3044 16.9186113,10.3254 C17.0541313,10.1994 17.1767713,10.06836 17.2795313,9.93144 L17.2795313,9.93144 Z M5.94597125,9.93816 C6.26881125,10.36264 6.75657125,10.73336 7.35689125,11.03408 C8.45953125,11.5854 9.95809125,11.92 11.6095313,11.92 C12.5349313,11.92 13.4099313,11.81388 14.1950513,11.6246 C13.4720913,12.25152 12.9078913,13.05736 12.5741313,13.97408 C12.2602513,14.00152 11.9399313,14.02 11.6095313,14.02 C10.0138113,14.02 8.57321125,13.69296 7.54729125,13.18 C6.58605125,12.69868 6.01401125,12.07316 5.94597125,11.42132 C5.94513125,11.4104 5.94709125,11.39948 5.94597125,11.38856 L5.94597125,9.93816 Z M17.9095313,10.66 C20.8111713,10.66 23.1595313,13.00836 23.1595313,15.91 C23.1595313,18.81164 20.8111713,21.16 17.9095313,21.16 C15.0078913,21.16 12.6595313,18.81164 12.6595313,15.91 C12.6595313,13.00836 15.0078913,10.66 17.9095313,10.66 L17.9095313,10.66 Z M5.94597125,12.45816 C6.26881125,12.88264 6.75657125,13.25336 7.35689125,13.55408 C8.45953125,14.1054 9.95809125,14.44 11.6095313,14.44 C11.8940113,14.44 12.1695313,14.42572 12.4430913,14.40724 C12.3117713,14.88632 12.2395313,15.3906 12.2395313,15.91 C12.2395313,16.11664 12.2504513,16.31908 12.2722913,16.5204 C12.0547313,16.53244 11.8349313,16.54 11.6095313,16.54 C10.0138113,16.54 8.57321125,16.21296 7.54729125,15.7 C6.58605125,15.21868 6.01401125,14.59316 5.94597125,13.94132 C5.94401125,13.91948 5.94709125,13.89736 5.94597125,13.87552 L5.94597125,12.45816 Z M5.93953125,14.97816 C6.26209125,15.4046 6.75433125,15.77336 7.35689125,16.07408 C8.45953125,16.6254 9.95809125,16.96 11.6095312,16.96 C11.8556513,16.96 12.0939313,16.94908 12.3313713,16.93368 C12.4660513,17.6656 12.7393312,18.3502 13.1254513,18.955 C12.6421713,19.02164 12.1367713,19.06 11.6095312,19.06 C10.0138113,19.06 8.57321125,18.73296 7.54729125,18.22 C6.53789125,17.7146 5.95689125,17.0496 5.93953125,16.36276 L5.93953125,16.33 L5.93953125,14.97816 Z M5.93953125,17.49144 C6.26209125,17.91928 6.75321125,18.29224 7.35689125,18.59408 C8.45953125,19.1454 9.95809125,19.48 11.6095312,19.48 C12.2339312,19.48 12.8280912,19.42652 13.3945312,19.33552 C13.8909712,19.9896 14.5220912,20.5356 15.2517712,20.92368 C14.2684112,21.32856 13.0008513,21.58 11.6095312,21.58 C10.0149313,21.58 8.57321125,21.25296 7.54729125,20.74 C6.52137125,20.22704 5.93953125,19.54888 5.93953125,18.85 L5.93953125,17.49144 Z" id="Page-1" fill="#5C566C"></path>
        </g>
    </g>
</svg>