<?xml version="1.0" encoding="UTF-8" standalone="no"?>
<svg width="15px" height="15px" viewBox="0 0 15 15" version="1.1" xmlns="http://www.w3.org/2000/svg" xmlns:xlink="http://www.w3.org/1999/xlink">
    <!-- Generator: Sketch 39 (31667) - http://www.bohemiancoding.com/sketch -->
    <title>edit_inline</title>
    <desc>Created with Sketch.</desc>
    <defs>
        <polygon id="path-1" points="5.34326672 5.12050568 5.34326672 0.000852272727 0.0408938088 0.000852272727 0.0408938088 5.12050568 5.34326672 5.12050568"></polygon>
        <polygon id="path-3" points="4.94601097 5 0 5 0 0.0103011364 4.94601097 0.0103011364"></polygon>
    </defs>
    <g id="Page-1" stroke="none" stroke-width="1" fill="none" fill-rule="evenodd">
        <g id="edit_inline">
            <g>
                <g id="Group-3" transform="translate(9.267241, 0.055966)">
                    <mask id="mask-2" fill="white">
                        <use xlink:href="#path-1"></use>
                    </mask>
                    <g id="Clip-2"></g>
                    <path d="M1.81705891,0.0997670455 C1.52971826,0.205448864 1.00732667,0.6018125 0.667752482,0.971755682 L0.0408938088,1.65880114 L1.68647505,3.40283523 C2.60067437,4.35414205 3.48875692,5.12050568 3.67163049,5.12050568 C4.14178853,5.12050568 5.34327234,3.58789205 5.34327234,2.98005114 C5.34327234,2.37226705 3.46264015,0.205448864 2.78349177,0.0469261364 C2.52232406,-0.0323352273 2.07822662,-0.00591477273 1.81705891,0.0997670455" id="Fill-1" fill="#BBC2C8" mask="url(#mask-2)"></path>
                </g>
                <path d="M2.59518143,8.4795 L4.34522975,10.2498977 L6.09533425,12.0202955 L8.65511481,9.61569318 C10.0917057,8.2945 11.371596,6.97330682 11.5021799,6.68268182 C11.7634599,6.23342045 11.5544696,5.94273864 10.1439954,4.48938636 C9.22973994,3.56455682 8.42000771,2.79819318 8.34165739,2.79819318 C8.26330708,2.79819318 6.93112709,4.06660227 5.3900691,5.65211364 L2.59518143,8.4795 Z" id="Fill-4" fill="#BBC2C8"></path>
                <g id="Group-8" transform="translate(0.000000, 9.658239)">
                    <mask id="mask-4" fill="white">
                        <use xlink:href="#path-3"></use>
                    </mask>
                    <g id="Clip-7"></g>
                    <path d="M0.583948537,2.52058523 C-0.382484326,5.48007386 -0.460890805,5.4008125 2.80415491,4.29098295 L4.94601097,3.57757386 L3.16984587,1.78075568 L1.39368077,0.0103011364 L0.583948537,2.52058523 Z" id="Fill-6" fill="#BBC2C8" mask="url(#mask-4)"></path>
                </g>
            </g>
        </g>
    </g>
</svg>