<?xml version="1.0" encoding="UTF-8" standalone="no"?>
<svg width="28px" height="28px" viewBox="0 0 28 28" version="1.1" xmlns="http://www.w3.org/2000/svg" xmlns:xlink="http://www.w3.org/1999/xlink">
    <!-- Generator: Sketch 3.8.3 (29802) - http://www.bohemiancoding.com/sketch -->
    <title>admin_geocode_addresses</title>
    <desc>Created with Sketch.</desc>
    <defs></defs>
    <g id="Page-1" stroke="none" stroke-width="1" fill="none" fill-rule="evenodd">
        <g id="admin_geocode_addresses">
            <circle id="Oval-7" stroke="#534D64" cx="14" cy="14" r="13"></circle>
            <path d="M14,6 C9.58912,6 6,9.58912 6,14 C6,18.41088 9.58912,22 14,22 C18.41088,22 22,18.41088 22,14 C22,9.58912 18.41088,6 14,6 L14,6 Z M14.6449067,20.6784 L14.6449067,18.51584 L13.3550933,18.51584 L13.3550933,20.6775467 C10.1691733,20.37248 7.62752,17.8308267 7.3216,14.6449067 L9.48330667,14.6449067 L9.48330667,13.3550933 L7.3216,13.3550933 C7.62752,10.1691733 10.16832,7.62752 13.35424,7.32245333 L13.35424,9.48416 L14.6442667,9.48416 L14.6442667,7.3216 C17.8299733,7.62666667 20.3716267,10.16832 20.6766933,13.35424 L18.51584,13.35424 L18.51584,14.6442667 L20.6775467,14.6442667 C20.37248,17.8308267 17.8308267,20.37248 14.6449067,20.6784 L14.6449067,20.6784 Z" id="Page-1" fill="#534D64"></path>
        </g>
    </g>
</svg>