<?xml version="1.0" encoding="UTF-8" standalone="no"?>
<svg width="170px" height="99px" viewBox="0 0 170 99" version="1.1" xmlns="http://www.w3.org/2000/svg" xmlns:xlink="http://www.w3.org/1999/xlink">
    <!-- Generator: Sketch 3.8.3 (29802) - http://www.bohemiancoding.com/sketch -->
    <title>p_login_logo</title>
    <desc>Created with Sketch.</desc>
    <defs></defs>
    <g id="Page-1" stroke="none" stroke-width="1" fill="none" fill-rule="evenodd">
        <g id="p_login_logo">
            <path d="M94.5757016,0 L3.0011061,0 C1.33642578,0 0,1.34605644 0,3.0065012 L0,36.9934988 C0,38.6576906 1.34364097,40 3.0011061,40 L92.7824676,40 C88.5436175,34.8263502 86,28.2102219 86,21 C86,12.8236398 89.270955,5.41125204 94.5757016,-4.4408921e-16 Z" id="Combined-Shape" fill="#EB6657"></path>
            <path d="M20.517,17.719 C20.4609997,17.8170005 20.4015003,17.8881664 20.3385,17.9325 C20.2754997,17.9768336 20.1973338,17.999 20.104,17.999 C20.0059995,17.999 19.8998339,17.9628337 19.7855,17.8905 C19.6711661,17.8181663 19.5346675,17.7376671 19.376,17.649 C19.2173325,17.5603329 19.0318344,17.4798337 18.8195,17.4075 C18.6071656,17.3351663 18.3563348,17.299 18.067,17.299 C17.8056654,17.299 17.577001,17.3304997 17.381,17.3935 C17.184999,17.4565003 17.0205007,17.5439994 16.8875,17.656 C16.7544993,17.7680006 16.6553337,17.9021659 16.59,18.0585 C16.5246663,18.2148341 16.492,18.3863324 16.492,18.573 C16.492,18.8110012 16.5584993,19.0093325 16.6915,19.168 C16.8245007,19.3266675 17.0006656,19.4619994 17.22,19.574 C17.4393344,19.6860006 17.6889986,19.7863329 17.969,19.875 C18.2490014,19.9636671 18.5359985,20.0581662 18.83,20.1585 C19.1240015,20.2588338 19.4109986,20.3754993 19.691,20.5085 C19.9710014,20.6415007 20.2206656,20.809499 20.44,21.0125 C20.6593344,21.215501 20.8354993,21.4639985 20.9685,21.758 C21.1015007,22.0520015 21.168,22.4089979 21.168,22.829 C21.168,23.2863356 21.0898341,23.714498 20.9335,24.1135 C20.7771659,24.512502 20.5485015,24.8601652 20.2475,25.1565 C19.9464985,25.4528348 19.5790022,25.6861658 19.145,25.8565 C18.7109978,26.0268342 18.2140028,26.112 17.654,26.112 C17.3319984,26.112 17.0146682,26.0805003 16.702,26.0175 C16.3893318,25.9544997 16.0895014,25.8646673 15.8025,25.748 C15.5154986,25.6313327 15.2460013,25.4913342 14.994,25.328 C14.7419987,25.1646658 14.518001,24.9826677 14.322,24.782 L14.875,23.879 C14.9216669,23.8136663 14.982333,23.7588336 15.057,23.7145 C15.131667,23.6701664 15.2109996,23.648 15.295,23.648 C15.4116673,23.648 15.537666,23.6958329 15.673,23.7915 C15.808334,23.8871671 15.9693324,23.9933328 16.156,24.11 C16.3426676,24.2266672 16.5608321,24.3328329 16.8105,24.4285 C17.0601679,24.5241671 17.3599983,24.572 17.71,24.572 C18.2466693,24.572 18.6619985,24.4448346 18.956,24.1905 C19.2500015,23.9361654 19.397,23.5710024 19.397,23.095 C19.397,22.8289987 19.3305007,22.6120008 19.1975,22.444 C19.0644993,22.2759992 18.8883344,22.1348339 18.669,22.0205 C18.4496656,21.9061661 18.2000014,21.8093337 17.92,21.73 C17.6399986,21.6506663 17.3553348,21.5643338 17.066,21.471 C16.7766652,21.3776662 16.4920014,21.2656673 16.212,21.135 C15.9319986,21.0043327 15.6823344,20.834001 15.463,20.624 C15.2436656,20.4139989 15.0675007,20.1515016 14.9345,19.8365 C14.8014993,19.5214984 14.735,19.1330023 14.735,18.671 C14.735,18.3023315 14.8084993,17.9430018 14.9555,17.593 C15.1025007,17.2429982 15.3159986,16.932668 15.596,16.662 C15.8760014,16.391332 16.2213313,16.1743341 16.632,16.011 C17.0426687,15.8476659 17.5139973,15.766 18.046,15.766 C18.6433363,15.766 19.1939975,15.8593324 19.698,16.046 C20.2020025,16.2326676 20.6313316,16.4939983 20.986,16.83 L20.517,17.719 Z M30.88,24.481 C31.2440018,24.481 31.5694986,24.4203339 31.8565,24.299 C32.1435014,24.1776661 32.384999,24.0073344 32.581,23.788 C32.777001,23.5686656 32.9274995,23.3026682 33.0325,22.99 C33.1375005,22.6773318 33.19,22.3273353 33.19,21.94 L33.19,15.878 L35.073,15.878 L35.073,21.94 C35.073,22.542003 34.9761676,23.0984974 34.7825,23.6095 C34.5888324,24.1205026 34.3111685,24.5614981 33.9495,24.9325 C33.5878315,25.3035019 33.1480026,25.5928323 32.63,25.8005 C32.1119974,26.0081677 31.5286699,26.112 30.88,26.112 C30.2266634,26.112 29.6410026,26.0081677 29.123,25.8005 C28.6049974,25.5928323 28.1651685,25.3035019 27.8035,24.9325 C27.4418315,24.5614981 27.1641676,24.1205026 26.9705,23.6095 C26.7768324,23.0984974 26.68,22.542003 26.68,21.94 L26.68,15.878 L28.563,15.878 L28.563,21.933 C28.563,22.3203353 28.6154995,22.6703318 28.7205,22.983 C28.8255005,23.2956682 28.9771657,23.5628322 29.1755,23.7845 C29.3738343,24.0061678 29.6164986,24.1776661 29.9035,24.299 C30.1905014,24.4203339 30.5159982,24.481 30.88,24.481 L30.88,24.481 Z M43.091,26 L41.201,26 L41.201,15.878 L43.091,15.878 L43.091,26 Z M56.422,17.425 L53.37,17.425 L53.37,26 L51.487,26 L51.487,17.425 L48.435,17.425 L48.435,15.878 L56.422,15.878 L56.422,17.425 Z M63.642,17.376 L63.642,20.183 L67.184,20.183 L67.184,21.632 L63.642,21.632 L63.642,24.495 L68.136,24.495 L68.136,26 L61.752,26 L61.752,15.878 L68.136,15.878 L68.136,17.376 L63.642,17.376 Z" id="SUITE" fill="#F5F5F5"></path>
            <path d="M115.968,25.968 C116.096001,25.968 116.223999,25.9919998 116.352,26.04 C116.480001,26.0880002 116.602666,26.1706661 116.72,26.288 L118.864,28.544 C117.925329,29.7706728 116.74934,30.6959969 115.336,31.32 C113.92266,31.9440031 112.250676,32.256 110.32,32.256 C108.549324,32.256 106.962674,31.9546697 105.56,31.352 C104.157326,30.7493303 102.968005,29.9173386 101.992,28.856 C101.015995,27.7946614 100.266669,26.5360073 99.744,25.08 C99.2213307,23.6239927 98.96,22.0426752 98.96,20.336 C98.96,18.5973246 99.2426638,17.0000073 99.808,15.544 C100.373336,14.0879927 101.167995,12.8320053 102.192,11.776 C103.216005,10.7199947 104.44266,9.8986696 105.872,9.312 C107.30134,8.7253304 108.874658,8.432 110.592,8.432 C111.466671,8.432 112.290663,8.50933256 113.064,8.664 C113.837337,8.81866744 114.559997,9.03199864 115.232,9.304 C115.904003,9.57600136 116.522664,9.90399808 117.088,10.288 C117.653336,10.6720019 118.154664,11.0879978 118.592,11.536 L116.768,13.984 C116.650666,14.1333341 116.512001,14.2693327 116.352,14.392 C116.191999,14.5146673 115.968001,14.576 115.68,14.576 C115.487999,14.576 115.306668,14.5333338 115.136,14.448 C114.965332,14.3626662 114.784001,14.2586673 114.592,14.136 C114.399999,14.0133327 114.189334,13.8800007 113.96,13.736 C113.730666,13.5919993 113.458668,13.4586673 113.144,13.336 C112.829332,13.2133327 112.461335,13.1093338 112.04,13.024 C111.618665,12.9386662 111.125336,12.896 110.56,12.896 C109.663996,12.896 108.845337,13.0613317 108.104,13.392 C107.362663,13.7226683 106.722669,14.2053302 106.184,14.84 C105.645331,15.4746698 105.229335,16.2533287 104.936,17.176 C104.642665,18.0986713 104.496,19.1519941 104.496,20.336 C104.496,21.5306726 104.658665,22.5919954 104.984,23.52 C105.309335,24.4480046 105.751997,25.2293302 106.312,25.864 C106.872003,26.4986698 107.52533,26.9813317 108.272,27.312 C109.01867,27.6426683 109.818662,27.808 110.672,27.808 C111.162669,27.808 111.610665,27.7840002 112.016,27.736 C112.421335,27.6879998 112.799998,27.6080006 113.152,27.496 C113.504002,27.3839994 113.834665,27.2346676 114.144,27.048 C114.453335,26.8613324 114.767998,26.6240014 115.088,26.336 C115.216001,26.2293328 115.354666,26.1413337 115.504,26.072 C115.653334,26.0026663 115.807999,25.968 115.968,25.968 L115.968,25.968 Z M128.816,19.648 C129.552004,19.648 130.178664,19.5546676 130.696,19.368 C131.213336,19.1813324 131.637332,18.9226683 131.968,18.592 C132.298668,18.2613317 132.538666,17.8746689 132.688,17.432 C132.837334,16.9893311 132.912,16.5120026 132.912,16 C132.912,14.9759949 132.57867,14.1760029 131.912,13.6 C131.24533,13.0239971 130.21334,12.736 128.816,12.736 L126.64,12.736 L126.64,19.648 L128.816,19.648 Z M140.304,32 L135.408,32 C134.501329,32 133.850669,31.6586701 133.456,30.976 L129.584,24.208 C129.402666,23.9199986 129.200001,23.709334 128.976,23.576 C128.751999,23.442666 128.432002,23.376 128.016,23.376 L126.64,23.376 L126.64,32 L121.232,32 L121.232,8.688 L128.816,8.688 C130.501342,8.688 131.938661,8.8613316 133.128,9.208 C134.317339,9.5546684 135.287996,10.0373302 136.04,10.656 C136.792004,11.2746698 137.338665,12.0053291 137.68,12.848 C138.021335,13.6906709 138.192,14.607995 138.192,15.6 C138.192,16.3573371 138.090668,17.0719966 137.888,17.744 C137.685332,18.4160034 137.386669,19.0373305 136.992,19.608 C136.597331,20.1786695 136.109336,20.6879978 135.528,21.136 C134.946664,21.5840022 134.277337,21.9519986 133.52,22.24 C133.872002,22.4213342 134.202665,22.6479986 134.512,22.92 C134.821335,23.1920014 135.098665,23.5146648 135.344,23.888 L140.304,32 Z M168.48,8.688 L168.48,32 L163.712,32 L163.712,18.592 C163.712,18.2826651 163.72,17.9466685 163.736,17.584 C163.752,17.2213315 163.781333,16.8533352 163.824,16.48 L157.632,28.464 C157.439999,28.8373352 157.181335,29.119999 156.856,29.312 C156.530665,29.504001 156.160002,29.6 155.744,29.6 L155.008,29.6 C154.591998,29.6 154.221335,29.504001 153.896,29.312 C153.570665,29.119999 153.312001,28.8373352 153.12,28.464 L146.928,16.448 C146.96,16.8320019 146.986667,17.2079982 147.008,17.576 C147.029333,17.9440018 147.04,18.2826651 147.04,18.592 L147.04,32 L142.272,32 L142.272,8.688 L146.4,8.688 C146.634668,8.688 146.839999,8.69333328 147.016,8.704 C147.192001,8.71466672 147.349333,8.7466664 147.488,8.8 C147.626667,8.8533336 147.751999,8.93599944 147.864,9.048 C147.976001,9.16000056 148.085333,9.31733232 148.192,9.52 L154.192,21.344 C154.405334,21.7493354 154.610666,22.1706645 154.808,22.608 C155.005334,23.0453355 155.194666,23.493331 155.376,23.952 C155.557334,23.4826643 155.746666,23.0240022 155.944,22.576 C156.141334,22.1279978 156.351999,21.7013354 156.576,21.296 L162.56,9.52 C162.666667,9.31733232 162.775999,9.16000056 162.888,9.048 C163.000001,8.93599944 163.125333,8.8533336 163.264,8.8 C163.402667,8.7466664 163.559999,8.71466672 163.736,8.704 C163.912001,8.69333328 164.117332,8.688 164.352,8.688 L168.48,8.688 Z" id="CRM" fill="#F5F5F5"></path>
            <path d="M68.7428659,70 L3.0024998,70 C1.3412836,70 0,71.3440166 0,73.0019451 L0,96.0722737 C0,97.7302192 1.34426495,99.0742187 3.0024998,99.0742187 L67.439444,99.0742187 C64.3584126,95.3137231 62.5095703,90.5047541 62.5095703,85.2639648 C62.5095703,79.3209327 64.8870818,73.9331981 68.7428659,70 Z" id="Combined-Shape" fill="#EB6657"></path>
            <path d="M14.9128937,82.8791521 C14.8721895,82.9503842 14.8289421,83.0021116 14.78315,83.0343357 C14.7373578,83.0665598 14.6805425,83.0826716 14.6127023,83.0826716 C14.5414702,83.0826716 14.4643031,83.0563839 14.3811989,83.0038078 C14.2980947,82.9512316 14.1988799,82.8927203 14.0835516,82.8282722 C13.9682233,82.763824 13.8333929,82.7053127 13.6790565,82.6527366 C13.5247201,82.6001604 13.3424023,82.5738728 13.1320978,82.5738728 C12.9421452,82.5738728 12.7759393,82.5967685 12.6334749,82.6425606 C12.4910105,82.6883527 12.371444,82.7519519 12.2747717,82.8333602 C12.1780995,82.9147684 12.1060204,83.0122872 12.0585322,83.1259195 C12.0110441,83.2395518 11.9873004,83.3642063 11.9873004,83.4998866 C11.9873004,83.6728791 12.0356358,83.8170373 12.1323081,83.9323656 C12.2289803,84.0476939 12.3570267,84.1460607 12.5164512,84.2274689 C12.6758756,84.3088772 12.8573454,84.3818043 13.0608659,84.4462524 C13.2643865,84.5107006 13.4729919,84.5793878 13.6866885,84.652316 C13.9003851,84.7252442 14.1089905,84.8100431 14.312511,84.9067154 C14.5160316,85.0033876 14.6975014,85.1254981 14.8569258,85.2730505 C15.0163502,85.4206029 15.1443966,85.6012247 15.2410689,85.8149213 C15.3377412,86.0286179 15.3860766,86.2881027 15.3860766,86.5933835 C15.3860766,86.9258004 15.3292613,87.2370126 15.215629,87.5270293 C15.1019966,87.8170461 14.9357907,88.069747 14.7170061,88.2851396 C14.4982215,88.5005322 14.2311048,88.6701301 13.9156479,88.7939384 C13.6001911,88.9177468 13.2389475,88.97965 12.8319064,88.97965 C12.5978578,88.97965 12.3672047,88.9567543 12.13994,88.9109622 C11.9126754,88.86517 11.6947421,88.7998748 11.4861335,88.7150746 C11.277525,88.6302744 11.0816394,88.5285156 10.8984709,88.4097953 C10.7153024,88.291075 10.5524884,88.1587886 10.410024,88.0129322 L10.8119751,87.3565817 C10.8458952,87.3090936 10.8899906,87.2692381 10.9442628,87.237014 C10.9985349,87.2047899 11.0561982,87.1886781 11.1172544,87.1886781 C11.2020546,87.1886781 11.2936375,87.2234457 11.3920058,87.2929819 C11.490374,87.3625181 11.6073966,87.4396851 11.743077,87.5244854 C11.8787573,87.6092856 12.0373314,87.6864526 12.2188039,87.7559888 C12.4002763,87.825525 12.6182097,87.8602926 12.8726104,87.8602926 C13.2626914,87.8602926 13.5645757,87.7678617 13.7782723,87.5829972 C13.9919688,87.3981327 14.0988155,87.132712 14.0988155,86.7867271 C14.0988155,86.5933825 14.0504801,86.4356565 13.9538079,86.3135441 C13.8571356,86.1914318 13.7290892,86.0888251 13.5696647,86.0057208 C13.4102403,85.9226166 13.2287705,85.8522335 13.02525,85.7945693 C12.8217295,85.7369052 12.61482,85.674154 12.4045154,85.6063138 C12.1942109,85.5384736 11.9873014,85.4570666 11.7837809,85.3620903 C11.5802603,85.2671141 11.3987905,85.1433076 11.2393661,84.9906672 C11.0799417,84.8380268 10.9518953,84.6472291 10.855223,84.4182685 C10.7585507,84.1893079 10.7102153,83.9069274 10.7102153,83.5711185 C10.7102153,83.3031497 10.7636387,83.0419689 10.870487,82.7875683 C10.9773353,82.5331676 11.1325173,82.3076024 11.3360379,82.1108658 C11.5395584,81.9141293 11.7905634,81.7564032 12.0890602,81.6376829 C12.387557,81.5189626 12.7301447,81.4596033 13.1168338,81.4596033 C13.551011,81.4596033 13.951262,81.5274425 14.317599,81.6631229 C14.683936,81.7988032 14.9959962,81.9887529 15.2537889,82.2329775 L14.9128937,82.8791521 Z M22.4452969,87.7941487 C22.7098736,87.7941487 22.9464627,87.7500533 23.1550712,87.661861 C23.3636798,87.5736688 23.5392136,87.4498623 23.681678,87.2904379 C23.8241424,87.1310135 23.9335331,86.9376718 24.0098533,86.7104072 C24.0861735,86.4831426 24.124333,86.2287457 24.124333,85.947209 L24.124333,81.5410111 L25.4930019,81.5410111 L25.4930019,85.947209 C25.4930019,86.3847782 25.4226187,86.7892692 25.2818503,87.1606942 C25.141082,87.5321192 24.9392604,87.8526592 24.6763797,88.122324 C24.413499,88.3919887 24.093807,88.6022901 23.7172939,88.7532345 C23.3407809,88.9041789 22.9167861,88.97965 22.4452969,88.97965 C21.9704156,88.97965 21.5447248,88.9041789 21.1682118,88.7532345 C20.7916988,88.6022901 20.4720067,88.3919887 20.209126,88.122324 C19.9462453,87.8526592 19.7444238,87.5321192 19.6036554,87.1606942 C19.462887,86.7892692 19.3925039,86.3847782 19.3925039,85.947209 L19.3925039,81.5410111 L20.7611728,81.5410111 L20.7611728,85.942121 C20.7611728,86.2236578 20.7993323,86.4780546 20.8756525,86.7053192 C20.9519727,86.9325839 21.0622113,87.1267735 21.2063717,87.2878939 C21.3505321,87.4490143 21.5269139,87.5736688 21.7355225,87.661861 C21.9441311,87.7500533 22.1807202,87.7941487 22.4452969,87.7941487 L22.4452969,87.7941487 Z M31.320929,88.8982422 L29.9471722,88.8982422 L29.9471722,81.5410111 L31.320929,81.5410111 L31.320929,88.8982422 Z M41.0106393,82.6654565 L38.7922764,82.6654565 L38.7922764,88.8982422 L37.4236075,88.8982422 L37.4236075,82.6654565 L35.2052446,82.6654565 L35.2052446,81.5410111 L41.0106393,81.5410111 L41.0106393,82.6654565 Z M46.2585357,82.6298406 L46.2585357,84.6701239 L48.8330578,84.6701239 L48.8330578,85.7233375 L46.2585357,85.7233375 L46.2585357,87.8043247 L49.5250242,87.8043247 L49.5250242,88.8982422 L44.8847789,88.8982422 L44.8847789,81.5410111 L49.5250242,81.5410111 L49.5250242,82.6298406 L46.2585357,82.6298406 Z" id="SUITE" fill="#F5F5F5"></path>
            <path d="M84.291975,88.8749828 C84.385013,88.8749828 84.4780495,88.8924272 84.5710875,88.9273164 C84.6641255,88.9622056 84.7532855,89.0222918 84.8385703,89.1075766 L86.3969484,90.7473625 C85.71467,91.6389763 84.8598965,92.3115532 83.8326023,92.7651133 C82.8053081,93.2186734 81.590018,93.44545 80.1866953,93.44545 C78.8996701,93.44545 77.7464043,93.2264264 76.7268633,92.7883727 C75.7073222,92.3503189 74.8428575,91.7455812 74.133443,90.9741414 C73.4240285,90.2027016 72.8793769,89.287842 72.4994719,88.2295352 C72.1195669,87.1712283 71.9296172,86.021839 71.9296172,84.7813328 C71.9296172,83.5175671 72.1350729,82.3565483 72.5459906,81.2982414 C72.9569083,80.2399346 73.5345103,79.3270132 74.2788141,78.55945 C75.0231178,77.7918868 75.9147182,77.1949021 76.9536422,76.7684781 C77.9925661,76.3420541 79.1361406,76.1288453 80.3844,76.1288453 C81.0201594,76.1288453 81.6190823,76.1850549 82.1811867,76.2974758 C82.7432911,76.4098967 83.2685601,76.5649576 83.7570094,76.7626633 C84.2454587,76.960369 84.6951354,77.1987752 85.1060531,77.4778891 C85.5169708,77.757003 85.881364,78.0593718 86.1992437,78.3850047 L84.8734594,80.1643469 C84.7881746,80.2728912 84.687385,80.3717425 84.5710875,80.4609039 C84.45479,80.5500653 84.291976,80.5946453 84.0826406,80.5946453 C83.9430837,80.5946453 83.8112819,80.5636331 83.6872312,80.5016078 C83.5631806,80.4395825 83.4313788,80.3639903 83.2918219,80.2748289 C83.1522649,80.1856675 82.9991422,80.0887544 82.8324492,79.9840867 C82.6657562,79.879419 82.4680535,79.7825059 82.2393352,79.6933445 C82.0106168,79.6041831 81.7431367,79.5285909 81.4368867,79.4665656 C81.1306368,79.4045403 80.7720583,79.3735281 80.3611406,79.3735281 C79.7098749,79.3735281 79.1148285,79.4937004 78.5759836,79.7340484 C78.0371387,79.9743965 77.5719559,80.3252219 77.1804211,80.7865352 C76.7888863,81.2478484 76.4865175,81.8138209 76.2733055,82.4844695 C76.0600935,83.1551182 75.9534891,83.9207316 75.9534891,84.7813328 C75.9534891,85.6496872 76.071723,86.4211154 76.3081945,87.0956406 C76.544666,87.7701659 76.8664175,88.3380766 77.2734586,88.7993898 C77.6804997,89.2607031 78.1553738,89.6115285 78.6980953,89.8518766 C79.2408168,90.0922246 79.8222953,90.2123969 80.4425484,90.2123969 C80.799194,90.2123969 81.124822,90.1949525 81.4194422,90.1600633 C81.7140624,90.125174 81.9892956,90.0670262 82.24515,89.985618 C82.5010044,89.9042097 82.7413489,89.7956671 82.9661906,89.6599867 C83.1910324,89.5243064 83.4197473,89.351801 83.6523422,89.1424656 C83.7453802,89.064934 83.8461698,89.0009713 83.9547141,88.9505758 C84.0632584,88.9001802 84.1756775,88.8749828 84.291975,88.8749828 L84.291975,88.8749828 Z M93.6306141,84.2812562 C94.1655824,84.2812562 94.6210739,84.2134171 94.9971023,84.0777367 C95.3731308,83.9420564 95.6813144,83.754045 95.9216625,83.5136969 C96.1620106,83.2733488 96.3364541,82.9923008 96.4449984,82.6705445 C96.5535427,82.3487882 96.6078141,82.0018394 96.6078141,81.6296875 C96.6078141,80.8853838 96.3655313,80.3039052 95.8809586,79.8852344 C95.3963859,79.4665635 94.6462785,79.2572312 93.6306141,79.2572312 L92.0489766,79.2572312 L92.0489766,84.2812562 L93.6306141,84.2812562 Z M101.98073,93.259375 L98.4220453,93.259375 C97.7630264,93.259375 97.2900905,93.0112775 97.0032234,92.515075 L94.1888391,87.5957172 C94.0570353,87.3863818 93.9097274,87.2332591 93.7469109,87.1363445 C93.5840945,87.03943 93.3515031,86.9909734 93.0491297,86.9909734 L92.0489766,86.9909734 L92.0489766,93.259375 L88.1181422,93.259375 L88.1181422,76.3149203 L93.6306141,76.3149203 C94.8556139,76.3149203 95.9003371,76.4409073 96.7648148,76.6928852 C97.6292926,76.944863 98.3348199,77.2956884 98.881418,77.7453719 C99.428016,78.1950554 99.8253597,78.7261391 100.073461,79.3386391 C100.321562,79.951139 100.445611,80.6179011 100.445611,81.3389453 C100.445611,81.8894199 100.371957,82.4088741 100.224647,82.8973234 C100.077337,83.3857728 99.8602514,83.8373878 99.5733844,84.252182 C99.2865173,84.6669763 98.9318154,85.0371843 98.509268,85.3628172 C98.0867205,85.6884501 97.6002168,85.9559302 97.0497422,86.1652656 C97.3055966,86.2970694 97.5459411,86.4618217 97.7707828,86.6595273 C97.9956246,86.857233 98.1972038,87.0917627 98.3755266,87.3631234 L101.98073,93.259375 Z M122.460609,76.3149203 L122.460609,93.259375 L118.994962,93.259375 L118.994962,83.5136969 C118.994962,83.2888551 119.000777,83.0446341 119.012407,82.7810266 C119.024037,82.517419 119.045358,82.2499389 119.07637,81.9785781 L114.575681,90.6892141 C114.436124,90.9605748 114.248113,91.1660306 114.011641,91.3055875 C113.77517,91.4451444 113.505752,91.5149219 113.203378,91.5149219 L112.668412,91.5149219 C112.366039,91.5149219 112.096621,91.4451444 111.860149,91.3055875 C111.623678,91.1660306 111.435666,90.9605748 111.296109,90.6892141 L106.79542,81.9553187 C106.81868,82.2344326 106.838062,82.5077276 106.853569,82.7752117 C106.869075,83.0426959 106.876828,83.2888551 106.876828,83.5136969 L106.876828,93.259375 L103.411181,93.259375 L103.411181,76.3149203 L106.411641,76.3149203 C106.58221,76.3149203 106.731456,76.3187968 106.859384,76.32655 C106.987311,76.3343032 107.101668,76.3575623 107.202459,76.3963281 C107.303251,76.4350939 107.394349,76.4951801 107.475757,76.5765883 C107.557165,76.6579965 107.636634,76.772354 107.714166,76.9196641 L112.075298,85.5140031 C112.230362,85.8086233 112.379608,86.1148687 112.523041,86.4327484 C112.666475,86.7506282 112.804092,87.0762561 112.935895,87.4096422 C113.067699,87.068503 113.205316,86.7351219 113.348749,86.4094891 C113.492183,86.0838562 113.645305,85.7737343 113.808122,85.4791141 L118.157625,76.9196641 C118.235157,76.772354 118.314625,76.6579965 118.396034,76.5765883 C118.477442,76.4951801 118.56854,76.4350939 118.669331,76.3963281 C118.770122,76.3575623 118.88448,76.3343032 119.012407,76.32655 C119.140334,76.3187968 119.28958,76.3149203 119.46015,76.3149203 L122.460609,76.3149203 Z" id="CRM" fill="#F5F5F5"></path>
        </g>
    </g>
</svg>