<?xml version="1.0" encoding="UTF-8" standalone="no"?>
<svg width="30px" height="30px" viewBox="0 0 30 30" version="1.1" xmlns="http://www.w3.org/2000/svg" xmlns:xlink="http://www.w3.org/1999/xlink">
    <!-- Generator: Sketch 39.1 (31720) - http://www.bohemiancoding.com/sketch -->
    <title>my_pipeline_sales_stage_dark</title>
    <desc>Created with Sketch.</desc>
    <defs></defs>
    <g id="Page-1" stroke="none" stroke-width="1" fill="none" fill-rule="evenodd">
        <g id="my_pipeline_sales_stage_dark" fill="#778591">
            <path d="M9.34076147,3.03062208 C6.40767188,3.23036787 3.59592318,5.22259879 2.09689635,8.15867524 C1.5775573,9.17793881 1.25385711,10.1871218 1.07725943,11.3232459 C0.982426845,11.9605657 0.972346217,13.2310983 1.06120509,13.8056941 C1.4200008,16.1346927 2.55015129,17.9633934 4.28737964,19.0367937 C4.54835591,19.2003239 16.4912874,25.7094232 17.1345809,26.0387237 C17.595303,26.273565 18.0198094,26.4400821 18.4734377,26.5550759 C19.123825,26.7186061 19.4038424,26.7507148 20.1710903,26.7507148 C20.9409516,26.7507148 21.3464169,26.7010584 22.0289128,26.5244607 C25.1703354,25.7049429 27.8189273,22.9294098 28.6940752,19.5329846 C28.9360103,18.6022066 29.0237491,17.8088238 28.9946273,16.8578845 C28.9550515,15.6198339 28.7131164,14.6076641 28.2068448,13.5592787 C27.5404032,12.1883132 26.5808767,11.1817438 25.2636746,10.4731129 C25.0844634,10.3782803 12.6483278,3.63172624 12.4777038,3.56004176 C11.9747924,3.34424164 11.439399,3.18817857 10.893925,3.09334599 C10.7247945,3.06422417 9.77982886,2.98843278 9.73465271,3.00150026 C9.73017243,3.00150026 9.54946782,3.01456774 9.34076147,3.03062208 L9.34076147,3.03062208 Z M22.982839,11.419572 C25.056835,11.7697805 26.7410467,13.3752139 27.313029,15.5470294 C27.4866399,16.2060038 27.521362,16.5241036 27.521362,17.3626626 C27.521362,18.1956212 27.4892534,18.4901996 27.3085488,19.2178717 C27.0371185,20.324874 26.4569223,21.494227 25.7173029,22.4089507 C24.4968001,23.9240318 22.8502974,24.8910255 21.0925344,25.1228799 C20.5866362,25.1915776 19.7596513,25.1680561 19.306023,25.0732235 C16.0044304,24.3967013 14.159302,21.0174506 15.0635717,17.3014321 C15.2035805,16.7268363 15.3932456,16.2205647 15.6833437,15.6358882 C16.489794,14.0099202 17.7076833,12.7685094 19.2462859,12.0072353 C20.4540946,11.4109847 21.7313476,11.211239 22.982839,11.419572 L22.982839,11.419572 Z" id="Page-1"></path>
        </g>
    </g>
</svg>