<?xml version="1.0" encoding="UTF-8" standalone="no"?>
<svg width="28px" height="28px" viewBox="0 0 28 28" version="1.1" xmlns="http://www.w3.org/2000/svg" xmlns:xlink="http://www.w3.org/1999/xlink">
    <!-- Generator: Sketch 3.8.3 (29802) - http://www.bohemiancoding.com/sketch -->
    <title>admin_geocoded_counts</title>
    <desc>Created with Sketch.</desc>
    <defs></defs>
    <g id="Page-1" stroke="none" stroke-width="1" fill="none" fill-rule="evenodd">
        <g id="admin_geocoded_counts">
            <circle id="Oval-7" stroke="#534D64" cx="14" cy="14" r="13"></circle>
            <path d="M13.9730732,22.674824 L14.0279149,22.674824 C15.549647,20.4448442 20.0676597,16.3900211 19.9992311,12.0264049 C19.9992311,8.71639059 17.3310122,6.0308793 14.0279149,6.00098814 L14.0279149,6 L13.9730732,6 L13.9730732,6.00197628 C10.6689878,6.03186744 8.00076888,8.71639059 8.00076888,12.0264049 C7.93234034,16.3900211 12.450353,20.4448442 13.9730732,22.674824 L13.9730732,22.674824 Z M10.6843039,11.1183063 L12.8631476,10.8018552 L13.8369573,8.82730905 C13.9266308,8.64499764 14.0723811,8.64499764 14.1630427,8.82730905 L15.1375935,10.8018552 L17.3156961,11.1183063 C17.5172762,11.1472094 17.5617424,11.2860427 17.4159921,11.4280875 L15.8401595,12.9651357 L16.2116992,15.1345921 C16.2465311,15.3351841 16.1277075,15.421152 15.9483605,15.3265379 L14,14.301592 L12.0516395,15.3265379 C11.8713043,15.421152 11.7534689,15.3351841 11.7883008,15.1345921 L12.1608287,12.9651357 L10.5840079,11.4280875 C10.4382576,11.2860427 10.4837119,11.1462212 10.6843039,11.1183063 L10.6843039,11.1183063 Z" id="Page-1" fill="#534D64"></path>
        </g>
    </g>
</svg>