<?xml version="1.0" encoding="UTF-8" standalone="no"?>
<svg width="28px" height="98px" viewBox="0 0 28 98" version="1.1" xmlns="http://www.w3.org/2000/svg" xmlns:xlink="http://www.w3.org/1999/xlink">
    <!-- Generator: Sketch 3.8.3 (29802) - http://www.bohemiancoding.com/sketch -->
    <title>p_user_icon_small</title>
    <desc>Created with Sketch.</desc>
    <defs></defs>
    <g id="Page-1" stroke="none" stroke-width="1" fill="none" fill-rule="evenodd">
        <g id="p_user_icon_small">
            <path d="M13.4995,5.0337 C11.1455,5.0337 9.2295,6.9497 9.2295,9.3037 C9.2295,11.6587 11.1455,13.5737 13.4995,13.5737 C15.8535,13.5737 17.7695,11.6587 17.7695,9.3037 C17.7695,6.9497 15.8535,5.0337 13.4995,5.0337 M13.4995,14.9907 C10.3635,14.9907 7.8125,12.4397 7.8125,9.3037 C7.8125,6.1677 10.3635,3.6167 13.4995,3.6167 C16.6355,3.6167 19.1865,6.1677 19.1865,9.3037 C19.1865,12.4397 16.6355,14.9907 13.4995,14.9907" id="Fill-3" fill="#FFFFFF"></path>
            <path d="M5.0981,21.7954 L21.9001,21.7954 C20.8071,18.1194 17.4031,15.5334 13.4991,15.5334 C9.5961,15.5334 6.1911,18.1194 5.0981,21.7954 L5.0981,21.7954 Z M23.6591,23.2124 L3.3391,23.2124 L3.5011,22.3704 C4.4201,17.5874 8.6251,14.1164 13.4991,14.1164 C18.3731,14.1164 22.5771,17.5874 23.4971,22.3704 L23.6591,23.2124 Z" id="Fill-5" fill="#FFFFFF"></path>
            <path d="M13.4995,75.0337 C11.1455,75.0337 9.2295,76.9497 9.2295,79.3037 C9.2295,81.6587 11.1455,83.5737 13.4995,83.5737 C15.8535,83.5737 17.7695,81.6587 17.7695,79.3037 C17.7695,76.9497 15.8535,75.0337 13.4995,75.0337 M13.4995,84.9907 C10.3635,84.9907 7.8125,82.4397 7.8125,79.3037 C7.8125,76.1677 10.3635,73.6167 13.4995,73.6167 C16.6355,73.6167 19.1865,76.1677 19.1865,79.3037 C19.1865,82.4397 16.6355,84.9907 13.4995,84.9907" id="Fill-3" fill="#534D64"></path>
            <path d="M5.0981,91.7954 L21.9001,91.7954 C20.8071,88.1194 17.4031,85.5334 13.4991,85.5334 C9.5961,85.5334 6.1911,88.1194 5.0981,91.7954 L5.0981,91.7954 Z M23.6591,93.2124 L3.3391,93.2124 L3.5011,92.3704 C4.4201,87.5874 8.6251,84.1164 13.4991,84.1164 C18.3731,84.1164 22.5771,87.5874 23.4971,92.3704 L23.6591,93.2124 Z" id="Fill-5" fill="#534D64"></path>
        </g>
    </g>
</svg>