<?xml version="1.0" encoding="UTF-8" standalone="no"?>
<svg width="30px" height="30px" viewBox="0 0 30 30" version="1.1" xmlns="http://www.w3.org/2000/svg" xmlns:xlink="http://www.w3.org/1999/xlink">
    <!-- Generator: Sketch 3.8.3 (29802) - http://www.bohemiancoding.com/sketch -->
    <title>acc_email_marketing</title>
    <desc>Created with Sketch.</desc>
    <defs></defs>
    <g id="Page-1" stroke="none" stroke-width="1" fill="none" fill-rule="evenodd">
        <g id="acc_email_marketing" fill="#778591">
            <g id="Page-1-Copy-2" transform="translate(1.000000, 1.000000)">
                <path d="M15.4393377,14.8615985 C15.4393377,16.7334904 12.630662,16.7334904 12.630662,14.8615985 C12.630662,12.9892876 15.4393377,12.9892876 15.4393377,14.8615985" id="Fill-1"></path>
                <path d="M26.8441367,9.44785915 L21.0575272,9.44785915 L19.787255,10.7177124 L19.5844807,10.9188109 L18.7432186,11.760073 L23.8984626,11.760073 L14.0349998,19.5585055 L4.17153712,11.760073 L9.32342945,11.760073 L8.48384319,10.9204867 L8.28274469,10.7177124 L7.01247246,9.44785915 L1.22418715,9.44785915 C0.602457605,9.44785915 0.0963597004,9.93049556 0.0963597004,10.5212224 L0.0963597004,27.5169788 C0.0980355213,28.1110573 0.602457605,28.5936937 1.22418715,28.5936937 L26.8441367,28.5936937 C27.4662852,28.5936937 27.9719642,28.1110573 27.9719642,27.5186546 L27.9719642,10.5228982 C27.9719642,9.93049556 27.4662852,9.44785915 26.8441367,9.44785915 L26.8441367,9.44785915 Z M2.59375176,13.0073027 L9.96149825,18.8316182 L2.59375176,25.0015717 L2.59375176,13.0073027 Z M4.11916772,26.2810609 L11.5309045,20.0754962 L14.033324,22.0542217 L16.4733192,20.124514 L23.9361685,26.2810609 L4.11916772,26.2810609 Z M25.4762479,25.0112076 L18.0477529,18.8806359 L25.4762479,13.0073027 L25.4762479,25.0112076 Z" id="Fill-2"></path>
                <path d="M9.85047512,10.9204867 L9.8487993,10.9204867 L11.4182055,12.489893 C12.8615063,11.0465923 15.203466,11.0465923 16.6484425,12.489893 L18.2195246,10.9188109 L18.2178488,10.9188109 C15.9089865,8.61162453 12.1610132,8.61162453 9.85047512,10.9204867 L9.85047512,10.9204867 Z" id="Fill-3"></path>
                <path d="M3.5757828,4.6478892 L5.14351323,6.21561963 C10.0549253,1.30588342 18.0167503,1.30755924 22.9248106,6.21561963 L24.4942169,4.6478892 C18.7172434,-1.13076014 9.3510805,-1.13076014 3.5757828,4.6478892 L3.5757828,4.6478892 Z" id="Fill-4"></path>
                <path d="M6.7145953,7.78335006 L8.28274469,9.35275632 C11.4592632,6.17623784 16.6107365,6.17623784 19.787255,9.35275632 L21.3570802,7.78335006 C17.3129055,3.74127011 10.7570942,3.74127011 6.7145953,7.78335006 L6.7145953,7.78335006 Z" id="Fill-5"></path>
            </g>
        </g>
    </g>
</svg>