<?xml version="1.0" encoding="UTF-8" standalone="no"?>
<svg width="28px" height="28px" viewBox="0 0 28 28" version="1.1" xmlns="http://www.w3.org/2000/svg" xmlns:xlink="http://www.w3.org/1999/xlink">
    <!-- Generator: Sketch 3.8.3 (29802) - http://www.bohemiancoding.com/sketch -->
    <title>admin_display_modules_and_subpanels</title>
    <desc>Created with Sketch.</desc>
    <defs></defs>
    <g id="Page-1" stroke="none" stroke-width="1" fill="none" fill-rule="evenodd">
        <g id="admin_display_modules_and_subpanels">
            <circle id="Oval-7" stroke="#534D64" cx="14" cy="14" r="13"></circle>
            <path d="M19.2805713,7 L8.76953125,7 C7.52729125,7 6.51953125,8.00776 6.51953125,9.25 L6.51953125,16.75552 C6.51953125,17.99776 7.52729125,19.00552 8.76953125,19.00552 L13.2695313,19.00552 L13.2695313,20.5 L10.2805712,20.5 L10.2805712,21.99424 L17.7863313,21.99424 L17.7863313,20.5 L14.7805713,20.5 L14.7805713,19.00552 L19.2805713,19.00552 C20.5228112,19.00552 21.5305713,17.99776 21.5305713,16.75552 L21.5305713,9.25 C21.5305713,8.00776 20.5228112,7 19.2805713,7 L19.2805713,7 Z M20.0195312,16.75552 C20.0195312,17.17 19.6772912,17.51104 19.2637712,17.51104 L8.76953125,17.51104 C8.35505125,17.51104 8.01377125,17.16904 8.01377125,16.75552 L8.01377125,9.25 C8.01377125,8.83552 8.35601125,8.49424 8.76953125,8.49424 L19.2637712,8.49424 C19.6782512,8.49424 20.0195312,8.83648 20.0195312,9.25 L20.0195312,16.75552 Z" id="Page-1" fill="#5C566C"></path>
        </g>
    </g>
</svg>