<?xml version="1.0" encoding="UTF-8" standalone="no"?>
<svg width="28px" height="28px" viewBox="0 0 28 28" version="1.1" xmlns="http://www.w3.org/2000/svg" xmlns:xlink="http://www.w3.org/1999/xlink">
    <!-- Generator: Sketch 3.8.3 (29802) - http://www.bohemiancoding.com/sketch -->
    <title>admin_donate</title>
    <desc>Created with Sketch.</desc>
    <defs></defs>
    <g id="Page-1" stroke="none" stroke-width="1" fill="none" fill-rule="evenodd">
        <g id="admin_donate">
            <circle id="Oval-7" stroke="#534D64" cx="14" cy="14" r="13"></circle>
            <g id="Page-1" transform="translate(6.000000, 6.000000)" fill="#534D64">
                <path d="M14.5442133,15.06176 L1.45578667,15.06176 C1.28,15.06176 1.13578667,14.9175467 1.13578667,14.74176 L1.13578667,7.47754667 L14.88,7.47754667 L14.88,14.74176 C14.8642133,14.9175467 14.72,15.06176 14.5442133,15.06176 L14.5442133,15.06176 Z" id="Fill-1"></path>
                <path d="M12.88,4.16490667 C13.4715733,3.65333333 13.7442133,3.12490667 13.8557867,2.67669333 C14.0957867,1.73248 13.7275733,0.93248 13.4242133,0.628266667 C13.0724267,0.276693333 12.2724267,-0.02752 11.3442133,0.148266667 C10.4,0.324906667 9.08842667,1.04490667 7.92,3.38176 C6.76842667,1.04490667 5.45578667,0.324906667 4.51157333,0.133333333 C3.58336,-0.0424533333 2.78336,0.26176 2.43157333,0.613333333 C2.12757333,0.917546667 1.76,1.71754667 2,2.66176 C2.11157333,3.10997333 2.38421333,3.65333333 2.97578667,4.14997333 L0.431573333,4.14997333 C0.24,4.14997333 0.08,4.30997333 0.08,4.50176 L0.08,6.93333333 L15.92,6.93333333 L15.92,4.51754667 C15.92,4.32576 15.76,4.16576 15.5684267,4.16576 L12.88,4.16576 L12.88,4.16490667 Z M11.4557867,0.757546667 C12.2242133,0.613333333 12.8,0.90176 12.9757867,1.06176 C13.1357867,1.22176 13.4242133,1.79754667 13.2475733,2.50176 C13.1191467,2.98176 12.7515733,3.62176 11.74336,4.14997333 L8.27157333,4.14997333 C9.37578667,1.65333333 10.6084267,0.933333333 11.4557867,0.757546667 L11.4557867,0.757546667 Z M2.60842667,2.51754667 C2.43242667,1.81333333 2.72,1.23754667 2.88,1.07754667 C3.04,0.917546667 3.63157333,0.62912 4.4,0.773333333 C5.24842667,0.933333333 6.49578667,1.66912 7.6,4.16490667 L4.11157333,4.16490667 C3.10421333,3.62176 2.73578667,2.99754667 2.60842667,2.51754667 L2.60842667,2.51754667 Z" id="Fill-2"></path>
            </g>
        </g>
    </g>
</svg>