<?xml version="1.0" encoding="UTF-8" standalone="no"?>
<svg width="28px" height="28px" viewBox="0 0 28 28" version="1.1" xmlns="http://www.w3.org/2000/svg" xmlns:xlink="http://www.w3.org/1999/xlink">
    <!-- Generator: Sketch 3.8.3 (29802) - http://www.bohemiancoding.com/sketch -->
    <title>admin_oauth_keys</title>
    <desc>Created with Sketch.</desc>
    <defs></defs>
    <g id="Page-1" stroke="none" stroke-width="1" fill="none" fill-rule="evenodd">
        <g id="admin_oauth_keys">
            <circle id="Oval-7" stroke="#534D64" cx="14" cy="14" r="13"></circle>
            <path d="M5.99764614,7.48992179 L5.99764614,7.48992179 C5.97268449,7.51744198 5.95689677,7.55157554 5.95177643,7.58826912 L5.5210278,10.9591719 C5.50609347,11.0756527 5.60508672,11.174 5.72178781,11.1599199 L8.02039393,10.8657313 L7.72618771,13.1642002 C7.71104004,13.2806809 7.81024663,13.3790283 7.92694772,13.3649482 L10.2261939,13.0716129 L9.93220102,15.3698684 C9.9253739,15.4249088 9.94372178,15.4799492 9.98297772,15.5192028 L10.9029322,16.4391023 C10.4954385,18.2375145 11.0371278,20.1191272 12.3398277,21.4249494 C14.4398073,23.5250169 17.845047,23.5250169 19.9443865,21.4249494 C20.9528803,20.4167292 21.5195312,19.04904 21.5195312,17.6224703 C21.5195312,16.1965407 20.9528803,14.8290648 19.9443865,13.8208446 C18.6384864,12.5165158 16.7550545,11.9725121 14.9550416,12.3808349 L9.62711407,7.05237217 C9.58785813,7.01311857 9.53281447,6.99413177 9.47798416,7.00159849 L6.10602668,7.4323214 C6.06442392,7.43829478 6.02516797,7.45813491 5.99679275,7.48906845 M16.0817298,17.5625232 L16.0817298,17.5625232 C16.641767,17.0025194 17.5493473,17.0025194 18.1093846,17.5625232 C18.3784158,17.8315384 18.5292525,18.1957008 18.5292525,18.5767168 C18.5292525,18.956666 18.3784158,19.3216818 18.1093846,19.5900569 C17.84014,19.8590721 17.4759558,20.0098998 17.0951305,20.0098998 C16.7151586,20.0098998 16.350121,19.8590721 16.0817298,19.5900569 C15.5216926,19.0300532 15.5216926,18.122527 16.0817298,17.5625232" id="Page-1" fill="#5C566C"></path>
        </g>
    </g>
</svg>