<?xml version="1.0" encoding="UTF-8" standalone="no"?>
<svg width="28px" height="28px" viewBox="0 0 28 28" version="1.1" xmlns="http://www.w3.org/2000/svg" xmlns:xlink="http://www.w3.org/1999/xlink">
    <!-- Generator: Sketch 3.8.3 (29802) - http://www.bohemiancoding.com/sketch -->
    <title>admin_email_queue</title>
    <desc>Created with Sketch.</desc>
    <defs></defs>
    <g id="Page-1" stroke="none" stroke-width="1" fill="none" fill-rule="evenodd">
        <g id="admin_email_queue">
            <circle id="Oval-7" stroke="#534D64" cx="14" cy="14" r="13"></circle>
            <path d="M18.9763349,17.9171793 C20.4296626,16.9459293 21.389916,15.2900509 21.389916,13.4138853 C21.389916,10.4291893 18.9610815,8 15.9763855,8 C12.9916894,8 10.5625002,10.4291893 10.5625002,13.4138853 C10.5625002,14.2758786 10.7661151,15.090338 11.1251016,15.8139867 C11.463159,15.8803212 12.3389867,16.0481083 13.7231422,16.28223 C15.266926,16.5440205 16.286774,16.333311 17.1345781,15.5780914 C17.6652538,15.1055914 17.979899,14.4557265 18.0199835,13.747686 C18.0618416,13.0396454 17.8248822,12.3564359 17.3523821,11.8271792 C16.5929058,10.9751183 15.2835983,10.8988514 14.4297638,11.6569089 C13.7479733,12.2638515 13.6621287,13.3237839 14.2399834,13.9736488 C14.693328,14.4823313 15.5272976,14.5405069 16.0260476,14.0970948 C16.2105071,13.9335644 16.3197639,13.7146961 16.3311152,13.4816387 C16.3406929,13.2918583 16.2839362,13.1130745 16.1743247,12.9924664 C16.0760645,12.8846285 15.9196287,12.8250339 15.7585814,12.8264528 C15.6216557,12.8303549 15.4442909,12.8846285 15.3293584,12.998142 C15.3013348,13.024392 15.266926,13.0410643 15.2279057,13.0410643 C15.14348,13.0410643 15.0757267,12.9647974 15.0757267,12.872213 C15.0757267,12.8151015 15.0991388,12.7735981 15.1282267,12.7335136 C15.3013348,12.4965542 15.5453888,12.3592738 15.7876693,12.3386994 C16.116149,12.3110305 16.3821963,12.4050339 16.5929058,12.6363177 C16.8021963,12.8665373 16.9114531,13.1726691 16.8922977,13.5107265 C16.8713686,13.8931252 16.6968416,14.2492738 16.3988686,14.5139022 C15.664578,15.1680239 14.4840375,15.0892739 13.8203381,14.3450509 C13.0399327,13.4678042 13.1481253,12.0449832 14.0558787,11.23549 C15.1392233,10.2713345 16.8064531,10.3681757 17.7691896,11.4518751 C18.3403045,12.0932265 18.628345,12.9204562 18.5786828,13.7781927 C18.528666,14.6373482 18.1476862,15.4244935 17.5059801,15.9952536 C16.7841051,16.6383786 15.940203,16.9473482 14.8607604,16.9473482 C14.4811996,16.9473482 14.071132,16.908328 13.6277199,16.8338347 C12.0991894,16.5745273 10.4667232,16.2836489 10.2478549,16.2531421 C9.14783798,16.106284 8.23334472,15.3592232 8.20425688,14.2606252 L8.48271972,9.45652031 C8.48271972,9.14755071 8.2319258,8.89533786 7.92153727,8.89533786 C7.61114875,8.89533786 7.36035483,9.14613179 7.36035483,9.45652031 C7.36035483,9.45652031 7.52388524,12.3745272 7.54304064,12.7430914 C7.57922308,13.4429731 6.93467914,14.0041556 6.22521966,14.0041556 C5.49802369,14.0041556 4.85064192,13.4124664 4.9077534,12.6863346 C4.93932435,12.2844258 4.97266895,11.8686825 5.00601354,11.479544 L5.1223649,9.4909291 C5.1223649,9.18195949 4.87157097,8.92974665 4.56118245,8.92974665 C4.25079393,8.92974665 4,9.18054057 4,9.4909291 L4.2731419,14.1981927 C4.2731419,17.5000172 6.15746628,20.1842571 9.45255083,20.1814193 C12.7767232,20.1771625 22.1994093,20.1814193 22.1994093,20.1814193 C22.4707776,20.1814193 22.6900005,19.9611321 22.6900005,19.690828 C22.6900005,19.4194598 22.458362,19.2835983 22.2008282,19.2016557 C22.0759634,19.1629902 20.7333113,18.5212841 18.9763349,17.9171793 Z" id="Page-1" fill="#5C566C"></path>
        </g>
    </g>
</svg>