<?xml version="1.0" encoding="UTF-8" standalone="no"?>
<svg width="30px" height="30px" viewBox="0 0 30 30" version="1.1" xmlns="http://www.w3.org/2000/svg" xmlns:xlink="http://www.w3.org/1999/xlink">
    <!-- Generator: Sketch 3.8.3 (29802) - http://www.bohemiancoding.com/sketch -->
    <title>acc_bugs</title>
    <desc>Created with Sketch.</desc>
    <defs>
        <polygon id="path-1" points="11.9917253 24.9221364 23.9834286 24.9221364 23.9834286 0 11.9917253 0 2.19780217e-05 0 2.19780217e-05 24.9221364 11.9917253 24.9221364"></polygon>
    </defs>
    <g id="Page-1" stroke="none" stroke-width="1" fill="none" fill-rule="evenodd">
        <g id="acc_bugs">
            <g id="Page-1" transform="translate(3.000000, 2.000000)">
                <mask id="mask-2" fill="white">
                    <use xlink:href="#path-1"></use>
                </mask>
                <g id="Clip-2"></g>
                <path d="M20.0705275,10.3828341 C20.0170769,9.77843884 19.9059121,9.22495844 19.7369011,8.71914395 L20.1555824,8.26219237 C21.9784396,6.28147038 22.8942637,5.28685579 22.8942637,2.12282201 L22.8942637,1.59054545 C22.8942637,1.29681224 22.648989,1.06036364 22.3491648,1.06036364 C22.0482418,1.06036364 21.8040659,1.29681224 21.8040659,1.59054545 L21.8040659,2.12175327 C21.8040659,4.88180235 21.1346154,5.60918855 19.3443736,7.55387254 L19.2528132,7.6535221 C19.0881978,7.37043357 18.9071868,7.10111044 18.6913626,6.85829212 C18.0873626,6.17545111 17.2958022,5.66647315 16.3113187,5.32079905 C16.2175604,4.66655759 15.958044,4.03672622 15.5568132,3.48640929 C16.7190549,3.00291015 18.5332527,2.06027919 18.5332527,0.87692466 L18.5332527,0.530181818 C18.5332527,0.236491358 18.2879341,0 17.9881099,0 C17.6871868,0 17.443011,0.236491358 17.443011,0.530181818 L17.443011,0.87692466 C17.443011,1.34135744 16.078,2.14932682 14.7576923,2.65509856 C14.0141319,2.0454023 13.0798022,1.64462383 12.0516703,1.64462383 C11.0061319,1.64462383 10.0586593,2.05707296 9.30969231,2.68480961 C7.94472527,2.15783402 6.54041758,1.3243858 6.54041758,0.875855918 L6.54041758,0.530181818 C6.54041758,0.236491358 6.29624176,0 5.99531868,0 C5.6943956,0 5.45017582,0.236491358 5.45017582,0.530181818 L5.45017582,0.87692466 C5.45017582,2.06027919 7.31778022,3.024114 8.51707692,3.52035255 C8.12784615,4.06429978 7.88037363,4.6866927 7.78881319,5.33033223 C6.81083516,5.67493759 6.01386813,6.17861459 5.41092308,6.85829212 C5.15145055,7.15305133 4.93558242,7.48491727 4.74696703,7.83802982 L4.53545055,7.60474469 C2.58498901,5.46076158 2.17945055,5.01646391 2.17945055,2.12175327 L2.17945055,1.59054545 C2.17945055,1.29681224 1.93518681,1.06036364 1.63426374,1.06036364 C1.33334066,1.06036364 1.08916484,1.29681224 1.08916484,1.59054545 L1.08916484,2.12175327 C1.08916484,5.41942262 1.75202198,6.14680881 3.72103297,8.30776356 L4.07971429,8.70221507 C4.14731868,8.77642855 4.23237363,8.81883626 4.32178022,8.8485473 C4.18327473,9.29917192 4.09391209,9.792247 4.04265934,10.3192226 C1.25272527,11.1568603 2.19780217e-05,13.0951746 2.19780217e-05,16.5963752 L2.19780217e-05,17.4955725 C2.19780217e-05,17.789263 0.244197802,18.0257543 0.545120879,18.0257543 C0.846043956,18.0257543 1.09021978,17.789263 1.09021978,17.4955725 L1.09021978,16.5963752 C1.09021978,13.7303069 1.95048352,12.2119229 3.9936044,11.4633329 C4.00230769,12.1090672 4.06336264,12.8014841 4.17896703,13.5457992 C4.19202198,13.637027 4.21057143,13.7260747 4.22582418,13.8172598 C4.17131868,13.8692007 4.12551648,13.9275113 4.09606593,14.0017675 L3.89984615,14.477871 C2.36692308,18.2133828 1.95479121,19.2185993 3.35905495,23.4196981 C3.43426374,23.6423386 3.64802198,23.7854646 3.87804396,23.7854646 C3.93364835,23.7854646 3.99140659,23.7770001 4.04591209,23.7610972 C4.33268132,23.6699121 4.48859341,23.369852 4.39589011,23.0930904 C3.21189011,19.551534 3.38740659,18.6311756 4.59325275,15.654813 C5.89175824,20.991515 8.89105495,24.9221364 11.8903077,24.9221364 C11.9546593,24.9221364 12.0200659,24.9221364 12.0211648,24.9158095 C12.0865714,24.9221364 12.1498242,24.9221364 12.2152308,24.9221364 C15.1981319,24.9221364 18.1821758,21.0349487 19.4915824,15.7481356 C20.6625275,18.649216 20.8238901,19.5886407 19.6507473,23.0930904 C19.5580879,23.3719467 19.7150989,23.6699121 19.9996703,23.7610972 C20.0552308,23.7801636 20.113033,23.7854646 20.1686374,23.7854646 C20.3975604,23.7854646 20.6101758,23.6423386 20.6875824,23.4196981 C22.0929451,19.2207368 21.6797143,18.2166317 20.148989,14.4841979 L19.9505714,14.0017675 C19.930967,13.9540588 19.8982637,13.9158834 19.8677582,13.8777079 C19.8873626,13.7674136 19.9091648,13.6592996 19.9255165,13.5479367 C20.0388791,12.822688 20.0955824,12.1504061 20.1086813,11.519506 C22.0656923,12.282973 22.8932088,13.7928925 22.8932088,16.5942805 L22.8932088,17.4934778 C22.8932088,17.7871682 23.1373846,18.0236168 23.4383077,18.0236168 C23.7392308,18.0236168 23.9834505,17.7871682 23.9834505,17.4934778 L23.9834505,16.5942805 C23.9845495,13.1630183 22.7645495,11.2427872 20.0705275,10.3828341" id="Fill-1" fill="#778591" mask="url(#mask-2)"></path>
            </g>
        </g>
    </g>
</svg>