<?xml version="1.0" encoding="UTF-8" standalone="no"?>
<svg width="30px" height="30px" viewBox="0 0 30 30" version="1.1" xmlns="http://www.w3.org/2000/svg" xmlns:xlink="http://www.w3.org/1999/xlink">
    <!-- Generator: Sketch 3.8.3 (29802) - http://www.bohemiancoding.com/sketch -->
    <title>acc_events</title>
    <desc>Created with Sketch.</desc>
    <defs></defs>
    <g id="Page-1" stroke="none" stroke-width="1" fill="none" fill-rule="evenodd">
        <g id="acc_events" fill="#778591">
            <g id="Page-1" transform="translate(15.000000, 15.166667) rotate(90.000000) translate(-15.000000, -15.166667) translate(5.000000, 1.000000)">
                <path d="M2.04,1.76951111 L5.39660377,1.75893333 C6.32943396,3.38526667 8.0690566,4.42717778 10,4.42717778 C11.7528302,4.42717778 13.3490566,3.56811111 14.3264151,2.193 C14.5358491,1.89757778 14.6018868,1.77102222 14.6018868,1.77102222 L17.9615094,1.77102222 L17.96,26.5638222 L14.6018868,26.5728889 C13.670566,24.9480667 11.929434,23.9061556 10,23.9061556 C8.28415094,23.9061556 6.72037736,24.7282 5.73849057,26.0519333 C5.50113208,26.3722889 5.40075472,26.5623111 5.40075472,26.5623111 L2.03849057,26.5623111 C2.04,26.5623111 2.04,1.76951111 2.04,1.76951111 L2.04,1.76951111 Z M5.94641509,28.3333333 C6.29735849,28.3333333 6.6154717,28.1251778 6.7554717,27.8021778 C7.31584906,26.5226444 8.58037736,25.6771778 10,25.6771778 C11.4196226,25.6771778 12.6841509,26.5226444 13.2445283,27.8021778 C13.3845283,28.1251778 13.7026415,28.3333333 14.0535849,28.3333333 L17.9615094,28.3333333 C18.9388679,28.3333333 19.7286792,27.5407556 19.7286792,26.5638222 L19.7286792,1.76951111 C19.7286792,0.792577778 18.9373585,0 17.9615094,0 L14.0535849,0 C13.7026415,0 13.3845283,0.208155556 13.2445283,0.531155556 C12.6841509,1.81068889 11.4196226,2.65615556 10,2.65615556 C8.58037736,2.65615556 7.31584906,1.81068889 6.7554717,0.531155556 C6.6154717,0.208155556 6.29735849,0 5.94641509,0 L2.03849057,0 C1.06113208,0 0.271320755,0.792577778 0.271320755,1.76951111 L0.271320755,26.5638222 C0.271320755,27.5407556 1.06264151,28.3333333 2.03849057,28.3333333 L5.94641509,28.3333333 Z" id="Fill-1"></path>
                <path d="M6.02301887,10.625 L13.9769811,10.625 C14.4679245,10.625 14.8645283,11.0220444 14.8645283,11.5105111 L14.8645283,16.8228222 C14.8645283,17.3128 14.469434,17.7083333 13.9769811,17.7083333 L6.02301887,17.7083333 C5.53207547,17.7083333 5.1354717,17.3112889 5.1354717,16.8228222 L5.1354717,11.5105111 C5.1354717,11.0205333 5.53056604,10.625 6.02301887,10.625 L6.02301887,10.625 Z M3.36679245,16.8228222 C3.36679245,18.2897333 4.55622642,19.4789778 6.02301887,19.4789778 L13.9769811,19.4789778 C15.4467925,19.4789778 16.6332075,18.2912444 16.6332075,16.8228222 L16.6332075,11.5105111 C16.6332075,10.0436 15.4437736,8.85435556 13.9769811,8.85435556 L6.02301887,8.85435556 C4.55320755,8.85435556 3.36679245,10.0420889 3.36679245,11.5105111 L3.36679245,16.8228222 Z" id="Fill-2"></path>
            </g>
        </g>
    </g>
</svg>