<?xml version="1.0" encoding="UTF-8" standalone="no"?>
<svg width="30px" height="30px" viewBox="0 0 30 30" version="1.1" xmlns="http://www.w3.org/2000/svg" xmlns:xlink="http://www.w3.org/1999/xlink">
    <!-- Generator: Sketch 39.1 (31720) - http://www.bohemiancoding.com/sketch -->
    <title>spots_dark</title>
    <desc>Created with Sketch.</desc>
    <defs></defs>
    <g id="Page-1" stroke="none" stroke-width="1" fill="none" fill-rule="evenodd">
        <g id="spots_dark" fill="#778591">
            <g id="Page-1" transform="translate(2.000000, 3.000000)">
                <path d="M11.64592,17.9209333 C11.64592,21.04232 9.11490667,23.5719467 5.99352,23.5719467 C2.87213333,23.5719467 0.342506667,21.04232 0.342506667,17.9209333 C0.342506667,14.7995467 2.87213333,12.26888 5.99352,12.26888 C9.11490667,12.26888 11.64592,14.7995467 11.64592,17.9209333" id="Fill-1"></path>
                <path d="M25.6762133,17.9209333 C25.6762133,21.04232 23.1469333,23.5719467 20.0255467,23.5719467 C16.90416,23.5719467 14.3731467,21.04232 14.3731467,17.9209333 C14.3731467,14.7995467 16.90416,12.26888 20.0255467,12.26888 C23.1469333,12.26888 25.6762133,14.7995467 25.6762133,17.9209333" id="Fill-2"></path>
                <path d="M18.6524,5.6524 C18.6524,8.77378667 16.1213867,11.3030667 13,11.3030667 C9.87861333,11.3030667 7.3476,8.77378667 7.3476,5.6524 C7.3476,2.53101333 9.87861333,0 13,0 C16.1213867,0 18.6524,2.53101333 18.6524,5.6524" id="Fill-3"></path>
            </g>
        </g>
    </g>
</svg>