<?xml version="1.0" encoding="UTF-8" standalone="no"?>
<svg width="30px" height="30px" viewBox="0 0 30 30" version="1.1" xmlns="http://www.w3.org/2000/svg" xmlns:xlink="http://www.w3.org/1999/xlink">
    <!-- Generator: Sketch 39.1 (31720) - http://www.bohemiancoding.com/sketch -->
    <title>outcome_month_dark</title>
    <desc>Created with Sketch.</desc>
    <defs></defs>
    <g id="Page-1" stroke="none" stroke-width="1" fill="none" fill-rule="evenodd">
        <g id="outcome_month_dark" fill="#778591">
            <g id="Page-1" transform="translate(2.000000, 2.000000)">
                <path d="M25.3136,25.8197333 L0.6864,25.8197333 C0.397973333,25.8197333 0.181306667,25.6030667 0.181306667,25.31464 L0.181306667,0.6864 C0.181306667,0.397973333 0.397973333,0.181306667 0.6864,0.181306667 C0.974826667,0.181306667 1.19184,0.397973333 1.19184,0.6864 L1.19184,24.5197333 C1.19184,24.66464 1.3,24.7731467 1.44490667,24.7731467 L25.27824,24.7731467 C25.5666667,24.7731467 25.7833333,24.9898133 25.7833333,25.27824 C25.8197333,25.6030667 25.6030667,25.8197333 25.3136,25.8197333 L25.3136,25.8197333 Z" id="Fill-1"></path>
                <path d="M6.5364,22.8585067 L3.50306667,22.8585067 C3.2864,22.8585067 3.14149333,22.67824 3.14149333,22.4969333 L3.14149333,17.2969333 C3.14149333,17.0802667 3.32176,16.93536 3.50306667,16.93536 L6.5364,16.93536 C6.75306667,16.93536 6.89797333,17.11528 6.89797333,17.2969333 L6.89797333,22.4601867 C6.89693333,22.67824 6.75306667,22.8585067 6.5364,22.8585067 L6.5364,22.8585067 Z" id="Fill-2"></path>
                <path d="M12.6748267,22.8585067 L9.64149333,22.8585067 C9.42517333,22.8585067 9.28026667,22.67824 9.28026667,22.4969333 L9.28026667,3.14149333 C9.28026667,2.92517333 9.46018667,2.78026667 9.64149333,2.78026667 L12.6748267,2.78026667 C12.89184,2.78026667 13.0364,2.96018667 13.0364,3.14149333 L13.0364,22.4969333 C13.0364,22.67824 12.8550933,22.8585067 12.6748267,22.8585067 L12.6748267,22.8585067 Z" id="Fill-3"></path>
                <path d="M18.8136,22.8585067 L15.7802667,22.8585067 C15.5636,22.8585067 15.4186933,22.67824 15.4186933,22.4969333 L15.4186933,13.3615733 C15.4186933,13.1449067 15.5986133,13 15.7802667,13 L18.8136,13 C19.0302667,13 19.1748267,13.1802667 19.1748267,13.3615733 L19.1748267,22.4979733 C19.1748267,22.67824 18.9949067,22.8585067 18.8136,22.8585067 L18.8136,22.8585067 Z" id="Fill-4"></path>
                <path d="M24.9166667,22.8585067 L21.8833333,22.8585067 C21.6666667,22.8585067 21.52176,22.67824 21.52176,22.4969333 L21.52176,6.96869333 C21.52176,6.75202667 21.7020267,6.60712 21.8833333,6.60712 L24.9166667,6.60712 C25.1333333,6.60712 25.27824,6.78704 25.27824,6.96869333 L25.27824,22.4969333 C25.3136,22.67824 25.1333333,22.8585067 24.9166667,22.8585067 L24.9166667,22.8585067 Z" id="Fill-5"></path>
            </g>
        </g>
    </g>
</svg>