<?xml version="1.0" encoding="UTF-8" standalone="no"?>
<svg width="30px" height="30px" viewBox="0 0 30 30" version="1.1" xmlns="http://www.w3.org/2000/svg" xmlns:xlink="http://www.w3.org/1999/xlink">
    <!-- Generator: Sketch 39.1 (31720) - http://www.bohemiancoding.com/sketch -->
    <title>acc_calendar</title>
    <desc>Created with Sketch.</desc>
    <defs></defs>
    <g id="Page-1" stroke="none" stroke-width="1" fill="none" fill-rule="evenodd">
        <g id="acc_calendar" fill="#778591">
            <path d="M21.0610286,1.28 L19.2389939,1.28 L19.2389939,4.51503269 L10.7610061,4.51503269 L10.7610061,1.28 L8.93897137,1.28 L8.93897137,4.51503269 L2,4.51503269 L2,27.4989624 L28,27.4989624 L28,4.51503269 L21.0610286,4.51503269 L21.0610286,1.28 Z M3.82203472,25.679021 L3.82203472,12.8360207 L26.1779653,12.8360207 L26.1779653,25.679021 L3.82203472,25.679021 Z M26.1779653,6.33497407 L26.1779653,10.9830047 L3.82203472,10.9830047 L3.82203472,6.33497407 L8.94064603,6.33497407 L8.94064603,8.53297092 L10.7626808,8.53297092 L10.7626808,6.33497407 L19.2096873,6.33497407 L19.2096873,8.53297092 L21.0313033,8.53297092 L21.0313033,6.33497407 L26.1779653,6.33497407 Z" id="Page-1"></path>
        </g>
    </g>
</svg>