<?xml version="1.0" encoding="UTF-8" standalone="no"?>
<svg width="42px" height="142px" viewBox="0 0 42 142" version="1.1" xmlns="http://www.w3.org/2000/svg" xmlns:xlink="http://www.w3.org/1999/xlink">
    <!-- Generator: Sketch 3.8.3 (29802) - http://www.bohemiancoding.com/sketch -->
    <title>p_user_icon</title>
    <desc>Created with Sketch.</desc>
    <defs></defs>
    <g id="Page-1" stroke="none" stroke-width="1" fill="none" fill-rule="evenodd">
        <g id="p_user_icon">
            <g id="Page-1" transform="translate(1.000000, 100.000000)" fill="#F08377">
                <path d="M20.5,1 C9.748,1 1,9.748 1,20.5 C1,31.252 9.748,40 20.5,40 C31.252,40 39.999,31.252 39.999,20.5 C39.999,9.748 31.252,1 20.5,1 M20.5,41 C9.196,41 0,31.804 0,20.5 C0,9.196 9.196,0 20.5,0 C31.803,0 40.999,9.196 40.999,20.5 C40.999,31.804 31.803,41 20.5,41" id="Fill-1"></path>
                <path d="M20.4995,10.0337 C18.1455,10.0337 16.2295,11.9497 16.2295,14.3037 C16.2295,16.6587 18.1455,18.5737 20.4995,18.5737 C22.8535,18.5737 24.7695,16.6587 24.7695,14.3037 C24.7695,11.9497 22.8535,10.0337 20.4995,10.0337 M20.4995,19.9907 C17.3635,19.9907 14.8125,17.4397 14.8125,14.3037 C14.8125,11.1677 17.3635,8.6167 20.4995,8.6167 C23.6355,8.6167 26.1865,11.1677 26.1865,14.3037 C26.1865,17.4397 23.6355,19.9907 20.4995,19.9907" id="Fill-3"></path>
                <path d="M12.0981,26.7954 L28.9001,26.7954 C27.8071,23.1194 24.4031,20.5334 20.4991,20.5334 C16.5961,20.5334 13.1911,23.1194 12.0981,26.7954 L12.0981,26.7954 Z M30.6591,28.2124 L10.3391,28.2124 L10.5011,27.3704 C11.4201,22.5874 15.6251,19.1164 20.4991,19.1164 C25.3731,19.1164 29.5771,22.5874 30.4971,27.3704 L30.6591,28.2124 Z" id="Fill-5"></path>
            </g>
            <g id="Page-1" transform="translate(1.000000, 1.000000)" fill="#FFFFFF">
                <path d="M20.5,1 C9.748,1 1,9.748 1,20.5 C1,31.252 9.748,40 20.5,40 C31.252,40 39.999,31.252 39.999,20.5 C39.999,9.748 31.252,1 20.5,1 M20.5,41 C9.196,41 0,31.804 0,20.5 C0,9.196 9.196,0 20.5,0 C31.803,0 40.999,9.196 40.999,20.5 C40.999,31.804 31.803,41 20.5,41" id="Fill-1"></path>
                <path d="M20.4995,10.0337 C18.1455,10.0337 16.2295,11.9497 16.2295,14.3037 C16.2295,16.6587 18.1455,18.5737 20.4995,18.5737 C22.8535,18.5737 24.7695,16.6587 24.7695,14.3037 C24.7695,11.9497 22.8535,10.0337 20.4995,10.0337 M20.4995,19.9907 C17.3635,19.9907 14.8125,17.4397 14.8125,14.3037 C14.8125,11.1677 17.3635,8.6167 20.4995,8.6167 C23.6355,8.6167 26.1865,11.1677 26.1865,14.3037 C26.1865,17.4397 23.6355,19.9907 20.4995,19.9907" id="Fill-3"></path>
                <path d="M12.0981,26.7954 L28.9001,26.7954 C27.8071,23.1194 24.4031,20.5334 20.4991,20.5334 C16.5961,20.5334 13.1911,23.1194 12.0981,26.7954 L12.0981,26.7954 Z M30.6591,28.2124 L10.3391,28.2124 L10.5011,27.3704 C11.4201,22.5874 15.6251,19.1164 20.4991,19.1164 C25.3731,19.1164 29.5771,22.5874 30.4971,27.3704 L30.6591,28.2124 Z" id="Fill-5"></path>
            </g>
        </g>
    </g>
</svg>