<?xml version="1.0" encoding="UTF-8" standalone="no"?>
<svg width="28px" height="28px" viewBox="0 0 28 28" version="1.1" xmlns="http://www.w3.org/2000/svg" xmlns:xlink="http://www.w3.org/1999/xlink">
    <!-- Generator: Sketch 3.8.3 (29802) - http://www.bohemiancoding.com/sketch -->
    <title>admin_password_management</title>
    <desc>Created with Sketch.</desc>
    <defs></defs>
    <g id="Page-1" stroke="none" stroke-width="1" fill="none" fill-rule="evenodd">
        <g id="admin_password_management">
            <circle id="Oval-7" stroke="#534D64" cx="14" cy="14" r="13"></circle>
            <g id="Page-1" transform="translate(6.000000, 12.000000)" fill="#5C566C">
                <polygon id="Fill-1" points="1.99488 0.0626666667 3.08384 0.0626666667 2.90752 1.98166667 4.6624 1.23166667 5.01376 2.31133333 3.1888 2.75 4.4336 4.194 3.50368 4.85166667 2.52128 3.22533333 1.55616 4.85166667 0.67872 4.194 1.9424 2.76833333 0.09984 2.293 0.4688 1.23166667 2.1888 1.98166667"></polygon>
                <polygon id="Fill-2" points="7.32864 0.0626666667 8.4176 0.0626666667 8.24256 1.98166667 9.99616 1.23166667 10.34752 2.31133333 8.52256 2.75 9.76864 4.194 8.83872 4.85166667 7.85504 3.22533333 6.8912 4.85166667 6.01376 4.194 7.27616 2.76833333 5.43488 2.293 5.80256 1.23166667 7.52256 1.98166667"></polygon>
                <polygon id="Fill-3" points="12.66368 0.0626666667 13.75264 0.0626666667 13.57632 1.98166667 15.3312 1.23166667 15.68256 2.31133333 13.8576 2.75 15.1024 4.194 14.17376 4.85166667 13.19008 3.22533333 12.22496 4.85166667 11.34752 4.194 12.6112 2.76833333 10.76864 2.293 11.1376 1.23166667 12.8576 1.98166667"></polygon>
            </g>
        </g>
    </g>
</svg>