<?xml version="1.0" encoding="UTF-8" standalone="no"?>
<!-- Created with Inkscape (http://www.inkscape.org/) -->

<svg
   xmlns:dc="http://purl.org/dc/elements/1.1/"
   xmlns:cc="http://creativecommons.org/ns#"
   xmlns:rdf="http://www.w3.org/1999/02/22-rdf-syntax-ns#"
   xmlns:svg="http://www.w3.org/2000/svg"
   xmlns="http://www.w3.org/2000/svg"
   xmlns:xlink="http://www.w3.org/1999/xlink"
   version="1.1"
   width="30"
   height="30"
   viewBox="0 0 30 30"
   id="svg2">
  <title
     id="title4">acc_history</title>
  <desc
     id="desc6">Created with Sketch.</desc>
  <metadata
     id="metadata24">
    <rdf:RDF>
      <cc:Work
         rdf:about="">
        <dc:format>image/svg+xml</dc:format>
        <dc:type
           rdf:resource="http://purl.org/dc/dcmitype/StillImage" />
        <dc:title>acc_history</dc:title>
      </cc:Work>
    </rdf:RDF>
  </metadata>
  <defs
     id="defs8">
    <polygon
       points="25.968547,22.826557 0,22.826557 0,0.0057132113 25.968547,0.0057132113 25.968547,0.0057132113 "
       id="path-1" />
  </defs>
  <g
     transform="matrix(-0.53741378,0,0,0.53741378,23.593014,6.4086502)"
     id="Page-1"
     style="fill:#534d64;fill-opacity:1;fill-rule:evenodd;stroke:none">
    <g
       id="acc_history"
       style="fill:#534d64;fill-opacity:1">
      <g
         transform="translate(2,4)"
         id="g13"
         style="fill:#534d64;fill-opacity:1">
        <g
           transform="translate(0,0.038117)"
           id="Group-3"
           style="fill:#534d64;fill-opacity:1">
          <mask
             id="mask-2">
            <use
               id="use17"
               x="0"
               y="0"
               width="30"
               height="30"
               xlink:href="#path-1" />
          </mask>
          <g
             id="Clip-2"
             style="fill:#534d64;fill-opacity:1" />
          <path
             d="m 14.607319,0.00571321 c -6.3298656,0 -11.3612583,5.13470479 -11.3612583,11.41043079 l -3.246073787249,0 L 4.057601,16.306329 l 4.0575705,-4.890185 -3.2460302,0 c 0,-5.379225 4.3009933,-9.7803692 9.7381777,-9.7803692 5.437185,0 9.738222,4.4011442 9.738222,9.7803692 0,5.379181 -4.301037,9.780413 -9.738222,9.780413 l 0,1.630018 c 6.329866,0 11.361258,-5.134705 11.361258,-11.410431 0,-6.275726 -5.031392,-11.41043079 -11.361258,-11.41043079"
             mask="url(#mask-2)"
             id="Fill-1"
             style="fill:#534d64;fill-opacity:1" />
        </g>
      </g>
    </g>
  </g>
  <g
     transform="translate(1,1)"
     id="Page-1-8"
     style="fill:none;stroke:none">
    <g
       id="admin_address_cache">
      <circle
         cx="14"
         cy="14"
         r="13"
         id="Oval-7"
         style="stroke:#534d64" />
    </g>
  </g>
</svg>
