<svg width="28" height="28" xmlns="http://www.w3.org/2000/svg">
    <circle stroke="#534d64" cx="14.064" cy="13.995" r="13" style="fill:none;fill-rule:evenodd;stroke-width:1"/>
    <path style="fill:#534d64;fill-opacity:1;fill-rule:evenodd;stroke-width:.0625"
          d="M13.73 22.044a8.255 8.255 0 0 1-4.187-1.997l-.312-.282.586-.592.586-.592.565.429c1.33 1.01 2.664 1.43 4.286 1.352.904-.043 1.607-.214 2.37-.576 2.348-1.112 3.738-3.43 3.617-6.03-.158-3.431-2.903-6.063-6.323-6.063-2.605 0-5 1.599-5.903 3.94-.213.552-.347 1.05-.296 1.1.02.02.448-.025.951-.1.503-.076.923-.128.933-.117.025.028-2.68 3.818-2.732 3.827-.048.008-2.737-3.792-2.706-3.824.021-.021 1.241.14 1.605.211.16.032.168.019.274-.455.131-.594.42-1.43.658-1.899.57-1.132 1.602-2.306 2.627-2.992 1.012-.677 1.775-1.004 2.938-1.262.854-.19 2.369-.204 3.18-.03 1.68.363 2.94 1.04 4.134 2.225 1.19 1.181 1.898 2.482 2.253 4.143.192.899.192 2.255 0 3.154-.692 3.24-3.132 5.684-6.353 6.362-.662.14-2.103.175-2.75.068z"/>
</svg>