<?xml version="1.0" encoding="UTF-8" standalone="no"?>
<svg width="28px" height="28px" viewBox="0 0 28 28" version="1.1" xmlns="http://www.w3.org/2000/svg" xmlns:xlink="http://www.w3.org/1999/xlink">
    <!-- Generator: Sketch 3.8.3 (29802) - http://www.bohemiancoding.com/sketch -->
    <title>admin_scheduler</title>
    <desc>Created with Sketch.</desc>
    <defs></defs>
    <g id="Page-1" stroke="none" stroke-width="1" fill="none" fill-rule="evenodd">
        <g id="admin_scheduler">
            <circle id="Oval-7" stroke="#534D64" cx="14" cy="14" r="13"></circle>
            <g id="Page-1" transform="translate(6.519531, 7.000000)" fill="#5C566C">
                <path d="M3.37304348,0.163043478 C1.6023913,0.163043478 0.163043478,1.6023913 0.163043478,3.37304348 L0.163043478,11.6269565 C0.163043478,13.3976087 1.6023913,14.8369565 3.37304348,14.8369565 L11.6269565,14.8369565 C13.3976087,14.8369565 14.8369565,13.3976087 14.8369565,11.6269565 L14.8369565,3.37304348 C14.8369565,1.6023913 13.3976087,0.163043478 11.6269565,0.163043478 L3.37304348,0.163043478 Z M3.37304348,1.08021739 L11.6269565,1.08021739 C12.905,1.08021739 13.9197826,2.095 13.9197826,3.37304348 L13.9197826,11.6269565 C13.9197826,12.905 12.905,13.9197826 11.6269565,13.9197826 L3.37304348,13.9197826 C2.095,13.9197826 1.08021739,12.905 1.08021739,11.6269565 L1.08021739,3.37304348 C1.08021739,2.095 2.095,1.08021739 3.37304348,1.08021739 L3.37304348,1.08021739 Z" id="Fill-1"></path>
                <polygon id="Fill-2" points="7.04152174 2.45586957 7.04152174 8.18782609 10.8932609 11.0767391 11.4436957 10.3430435 7.95847826 7.72934783 7.95847826 2.45586957"></polygon>
            </g>
        </g>
    </g>
</svg>