<?xml version="1.0" encoding="UTF-8" standalone="no"?>
<svg width="28px" height="28px" viewBox="0 0 28 28" version="1.1" xmlns="http://www.w3.org/2000/svg" xmlns:xlink="http://www.w3.org/1999/xlink">
    <!-- Generator: Sketch 3.8.3 (29802) - http://www.bohemiancoding.com/sketch -->
    <title>admin_security_suite_group_management</title>
    <desc>Created with Sketch.</desc>
    <defs></defs>
    <g id="Page-1" stroke="none" stroke-width="1" fill="none" fill-rule="evenodd">
        <g id="admin_security_suite_group_management">
            <circle id="Oval-7" stroke="#534D64" cx="14" cy="14" r="13"></circle>
            <g id="Page-1" transform="translate(5.000000, 5.000000)" fill="#534D64">
                <path d="M5.8257551,6.80179592 C7.70289796,6.80179592 9.22665306,5.27767347 9.22665306,3.40089796 C9.22665306,1.52265306 7.70289796,0 5.8257551,0 C3.94897959,0 2.42522449,1.5237551 2.42522449,3.40089796 C2.42522449,5.27914286 3.94897959,6.80179592 5.8257551,6.80179592 L5.8257551,6.80179592 Z" id="Fill-1"></path>
                <path d="M13.0650612,8.9155102 C11.9946122,8.9155102 11.0090204,9.35742857 10.2210612,10.0976327 C9.20387755,8.49489796 7.614,7.46044898 5.8257551,7.46044898 C2.75510204,7.46044898 0.264122449,10.5068571 0.264122449,14.2618776 C0.264122449,15.5145306 1.09359184,16.5291429 2.11812245,16.5291429 L9.5337551,16.5291429 C9.60832653,16.5291429 9.68142857,16.5221633 9.75342857,16.5118776 C9.81918367,16.5232653 9.88530612,16.5306122 9.95289796,16.5306122 L16.1790612,16.5306122 C17.0401224,16.5306122 17.7358776,15.6798367 17.7358776,14.6262857 C17.7358776,11.4737143 15.6438367,8.9155102 13.0650612,8.9155102 L13.0650612,8.9155102 Z" id="Fill-2"></path>
                <path d="M13.0650612,8.36302041 C14.6406122,8.36302041 15.9208163,7.08428571 15.9208163,5.50726531 C15.9208163,3.9302449 14.6420816,2.65187755 13.0650612,2.65187755 C11.4895102,2.65187755 10.2096735,3.9302449 10.2096735,5.50726531 C10.2096735,7.08428571 11.4895102,8.36302041 13.0650612,8.36302041 L13.0650612,8.36302041 Z" id="Fill-3"></path>
            </g>
        </g>
    </g>
</svg>