<?xml version="1.0" encoding="UTF-8" standalone="no"?>
<svg width="30px" height="30px" viewBox="0 0 30 30" version="1.1" xmlns="http://www.w3.org/2000/svg" xmlns:xlink="http://www.w3.org/1999/xlink">
    <!-- Generator: Sketch 3.8.3 (29802) - http://www.bohemiancoding.com/sketch -->
    <title>acc_targets</title>
    <desc>Created with Sketch.</desc>
    <defs></defs>
    <g id="Page-1" stroke="none" stroke-width="1" fill="none" fill-rule="evenodd">
        <g id="acc_targets" fill="#778591">
            <g id="Page-1-Copy-2">
                <path d="M16.208,5.4172 L18.5,5.4172 C18.9172,5.4172 19.292,5.7092 19.3752,6.1248 C19.458,6.6672 19.042,7.0828 18.542,7.0828 L16.1672,7.0828 C15.9592,7.0828 15.792,7.25 15.792,7.458 L15.792,13.75 C15.792,13.958 15.9592,14.1248 16.1672,14.1248 L22.4592,14.1248 C22.6672,14.1248 22.8344,13.958 22.8344,13.75 L22.8344,11.458 C22.8344,11.0408 23.1264,10.6656 23.542,10.5828 C24.0844,10.5 24.5,10.9156 24.5,11.4156 L24.5,13.7908 C24.5,13.9984 24.6672,14.1656 24.8752,14.1656 L29.292,14.1656 C29.5,14.1656 29.7092,13.958 29.6672,13.7484 C29.1248,6.5828 23.4172,0.8752 16.25,0.25 C16.042,0.25 15.8328,0.4172 15.8328,0.6248 L15.8328,5.042 C15.8328,5.25 16,5.4172 16.208,5.4172 L16.208,5.4172 Z" id="Fill-1"></path>
                <path d="M5.4172,13.792 L5.4172,11.5 C5.4172,11.0828 5.7092,10.708 6.1248,10.6248 C6.6672,10.542 7.0828,10.958 7.0828,11.458 L7.0828,13.8328 C7.0828,14.0408 7.25,14.208 7.458,14.208 L13.75,14.208 C13.958,14.208 14.1248,14.0408 14.1248,13.8328 L14.1248,7.458 C14.1248,7.25 13.958,7.0828 13.75,7.0828 L11.458,7.0828 C11.0408,7.0828 10.6656,6.7908 10.5828,6.3752 C10.5,5.8328 10.9156,5.4172 11.4156,5.4172 L13.7908,5.4172 C13.9984,5.4172 14.1656,5.25 14.1656,5.042 L14.1656,0.6248 C14.1656,0.4172 13.958,0.208 13.7484,0.25 C6.5828,0.8752 0.8752,6.5828 0.25,13.75 C0.25,13.958 0.4172,14.1672 0.6248,14.1672 L5.042,14.1672 C5.25,14.1672 5.4172,14 5.4172,13.792 L5.4172,13.792 Z" id="Fill-2"></path>
                <path d="M24.5828,16.208 L24.5828,18.5 C24.5828,18.9172 24.2908,19.292 23.8752,19.3752 C23.3328,19.458 22.9172,19.042 22.9172,18.542 L22.9172,16.1672 C22.9172,15.9592 22.75,15.792 22.542,15.792 L16.208,15.792 C16,15.792 15.8328,15.9592 15.8328,16.1672 L15.8328,22.4592 C15.8328,22.6672 16,22.8344 16.208,22.8344 L18.5,22.8344 C18.9172,22.8344 19.292,23.1264 19.3752,23.542 C19.458,24.0844 19.042,24.5 18.542,24.5 L16.1672,24.5 C15.9592,24.5 15.792,24.6672 15.792,24.8752 L15.792,29.292 C15.792,29.5 16,29.7092 16.2092,29.6672 C23.3764,29.0844 29.1264,23.3344 29.7092,16.1672 C29.7092,15.9592 29.542,15.75 29.3344,15.75 L24.958,15.75 C24.75,15.8328 24.5828,16 24.5828,16.208 L24.5828,16.208 Z" id="Fill-3"></path>
                <path d="M13.792,24.5828 L11.5,24.5828 C11.0828,24.5828 10.708,24.2908 10.6248,23.8752 C10.542,23.3328 10.958,22.9172 11.458,22.9172 L13.8328,22.9172 C14.0408,22.9172 14.208,22.75 14.208,22.542 L14.208,16.208 C14.208,16 14.0408,15.8328 13.8328,15.8328 L7.458,15.8328 C7.25,15.8328 7.0828,16 7.0828,16.208 L7.0828,18.5 C7.0828,18.9172 6.7908,19.292 6.3752,19.3752 C5.8328,19.458 5.4172,19.042 5.4172,18.542 L5.4172,16.1672 C5.4172,15.9592 5.25,15.792 5.042,15.792 L0.6248,15.792 C0.4172,15.792 0.208,16 0.25,16.2092 C0.8328,23.3764 6.5828,29.1264 13.75,29.7092 C13.958,29.7092 14.1672,29.542 14.1672,29.3344 L14.1672,24.958 C14.1672,24.75 14,24.5828 13.792,24.5828 L13.792,24.5828 Z" id="Fill-4"></path>
            </g>
        </g>
    </g>
</svg>