<?xml version="1.0" encoding="UTF-8" standalone="no"?>
<svg width="30px" height="30px" viewBox="0 0 30 30" version="1.1" xmlns="http://www.w3.org/2000/svg" xmlns:xlink="http://www.w3.org/1999/xlink">
    <!-- Generator: Sketch 3.8.3 (29802) - http://www.bohemiancoding.com/sketch -->
    <title>acc_quotes</title>
    <desc>Created with Sketch.</desc>
    <defs></defs>
    <g id="Page-1" stroke="none" stroke-width="1" fill="none" fill-rule="evenodd">
        <g id="acc_quotes" fill="#FFFFFF">
            <path d="M7.21642906,15.6992532 C7.21642906,15.3371785 7.33183863,15.0226309 7.56266124,14.7556008 C7.79348384,14.4885707 8.13971256,14.3550577 8.60135777,14.3550577 L9.7418873,14.3550577 L9.7418873,11.4222675 C9.7418873,10.5623401 9.87313741,9.74542138 10.1356415,8.97148676 C10.3981457,8.19755214 10.7986848,7.51640937 11.3372709,6.92803802 C11.875857,6.33966667 12.5502109,5.87123958 13.360353,5.5227427 C14.1704951,5.17424582 15.1277157,5 16.2320434,5 C16.9652447,5 17.628284,5.09278024 18.2211813,5.27834352 C18.8140785,5.46390679 19.3436048,5.72188113 19.809776,6.05227427 C20.2759471,6.38266741 20.6855379,6.77189185 21.0385608,7.21995927 C21.3915836,7.66802668 21.6993424,8.15003136 21.9618466,8.66598778 L20.2782077,9.72505092 C19.8980293,9.92419199 19.5291713,10.0124464 19.1716225,9.9898167 C18.8140738,9.96718703 18.4859485,9.79746707 18.1872369,9.48065173 C17.843266,9.12762892 17.5309813,8.86512872 17.2503734,8.69314325 C16.9697655,8.52115777 16.6303256,8.43516633 16.2320434,8.43516633 C15.4988422,8.43516633 14.9534754,8.69087773 14.5959267,9.20230821 C14.2383779,9.7137387 14.0596062,10.4491919 14.0596062,11.4086897 L14.0596062,14.3550577 L19.2191446,14.3550577 L19.2191446,15.9572301 C19.2191446,16.0930081 19.1897265,16.2219953 19.1308893,16.3441955 C19.0720522,16.4663957 18.9905866,16.5772794 18.8864902,16.67685 C18.7823937,16.7764205 18.6601953,16.8556232 18.5198914,16.9144603 C18.3795874,16.9732974 18.2234451,17.0027155 18.0514596,17.0027155 L14.0596062,17.0027155 L14.0596062,19.1208418 C14.0596062,19.6639538 13.9577743,20.1550103 13.7541073,20.5940258 C13.5504403,21.0330413 13.2766254,21.4426322 12.9326544,21.8228106 C13.3399885,21.7322919 13.7473164,21.662141 14.1546504,21.6123557 C14.5619844,21.5625705 14.9738382,21.5376782 15.390224,21.5376782 L22.2062458,21.5376782 L22.2062458,23.2620502 C22.2062458,23.4611913 22.16325,23.6648553 22.0772573,23.8730482 C21.9912646,24.0812411 21.8713291,24.2690646 21.7174474,24.4365241 C21.5635656,24.6039836 21.3757422,24.7397596 21.1539715,24.8438561 C20.9322007,24.9479525 20.6855411,25 20.4139851,25 L7.46082824,25 L7.46082824,22.4745418 C7.75953985,22.4202305 8.04693232,22.3342391 8.32301426,22.2165648 C8.5990962,22.0988906 8.84123001,21.949537 9.04942295,21.7684997 C9.25761589,21.5874623 9.42507291,21.3702208 9.55179905,21.1167685 C9.67852519,20.8633162 9.7418873,20.569135 9.7418873,20.2342159 L9.7418873,17.0027155 L7.21642906,17.0027155 L7.21642906,15.6992532 Z" id="£"></path>
        </g>
    </g>
</svg>