<?xml version="1.0" encoding="UTF-8" standalone="no"?>
<svg width="28px" height="28px" viewBox="0 0 28 28" version="1.1" xmlns="http://www.w3.org/2000/svg" xmlns:xlink="http://www.w3.org/1999/xlink">
    <!-- Generator: Sketch 3.8.3 (29802) - http://www.bohemiancoding.com/sketch -->
    <title>admin_system_settings</title>
    <desc>Created with Sketch.</desc>
    <defs></defs>
    <g id="Page-1" stroke="none" stroke-width="1" fill="none" fill-rule="evenodd">
        <g id="admin_system_settings">
            <circle id="Oval-7" stroke="#534D64" cx="14" cy="14" r="13"></circle>
            <path d="M14.2192301,6.93493333 C13.7366701,6.93493333 13.2549634,6.9808 12.7792301,7.08 C12.6008834,7.1184 12.4592301,7.25322667 12.4142167,7.42986667 L12.1590701,8.38496 C11.5408301,8.61322667 10.9541634,8.94581333 10.4242434,9.38506667 L9.46424339,9.12992 C9.28995006,9.08405333 9.10413673,9.13994667 8.98424339,9.27498667 C8.65912339,9.63829333 8.37581673,10.0308267 8.13411006,10.4500267 C7.89155006,10.8692267 7.69571006,11.31488 7.54424339,11.77504 C7.48920339,11.9457067 7.53336339,12.1323733 7.65923006,12.2599467 L8.35917673,12.9650133 C8.24739006,13.6282667 8.24739006,14.3015467 8.35917673,14.9650133 L7.65923006,15.6698667 C7.53165673,15.7982933 7.48664339,15.9883733 7.54424339,16.1598933 C7.69656339,16.6232533 7.89752339,17.0657067 8.13923006,17.4849067 C8.37987006,17.9024 8.65997673,18.29664 8.98424339,18.6599467 C9.10413673,18.7949867 9.28995006,18.85088 9.46424339,18.8050133 L10.4242434,18.5498667 C10.9541634,18.98912 11.5408301,19.3217067 12.1590701,19.5499733 L12.4142167,20.5050667 C12.4607234,20.6791467 12.6023767,20.81248 12.7792301,20.8500267 C13.2549634,20.9492267 13.7366701,21 14.2192301,21 C14.7024301,21 15.1916034,20.9498667 15.6690434,20.8500267 C15.8458967,20.81248 15.9875501,20.6791467 16.0340567,20.5050667 L16.2892034,19.5499733 C16.9074434,19.32 17.4906967,18.9842133 18.0191234,18.54496 L18.9791234,18.8050133 C19.1549101,18.8523733 19.3432834,18.7966933 19.4640301,18.6599467 C19.7882967,18.29664 20.0684034,17.9024 20.3090434,17.4849067 C20.5507501,17.0657067 20.7517101,16.6232533 20.9040301,16.1598933 C20.9616301,15.9883733 20.9166167,15.7982933 20.7890434,15.6698667 L20.0841901,14.9598933 C20.1949101,14.3000533 20.1949101,13.6299733 20.0841901,12.96992 L20.7890434,12.2599467 C20.9149101,12.1323733 20.9590701,11.9457067 20.9040301,11.77504 C20.7525634,11.31488 20.5567234,10.8692267 20.3141634,10.4500267 C20.0724567,10.0308267 19.7891501,9.63829333 19.4640301,9.27498667 C19.3432834,9.13824 19.1549101,9.08256 18.9791234,9.12992 L18.0191234,9.38997333 C17.4906967,8.95072 16.9074434,8.61493333 16.2892034,8.38496 L16.0340567,7.42986667 C15.9875501,7.25578667 15.8458967,7.12245333 15.6690434,7.08490667 C15.1916034,6.98506667 14.7024301,6.93493333 14.2192301,6.93493333 L14.2192301,6.93493333 Z M14.2192301,7.89493333 C14.5441367,7.89493333 14.8690434,7.93909333 15.1890434,7.98986667 L15.4241367,8.85002667 C15.4648834,9.00832 15.5841367,9.13418667 15.7392301,9.18496 C16.4099501,9.39744 17.0508034,9.76330667 17.6041901,10.2699733 C17.7266434,10.3800533 17.8958167,10.4190933 18.0541101,10.3749333 L18.9140567,10.1400533 C19.1199234,10.39328 19.3208834,10.6475733 19.4840834,10.9300267 C19.6449367,11.2090667 19.7641901,11.5124267 19.8791767,11.8149333 L19.2440834,12.4549333 C19.1290967,12.56992 19.0800301,12.7358933 19.1141634,12.89504 C19.2666967,13.5984 19.2666967,14.3365333 19.1141634,15.0398933 C19.0800301,15.19904 19.1290967,15.3650133 19.2440834,15.48 L19.8791767,16.12 C19.7633367,16.42336 19.6417367,16.7233067 19.4791767,17.0049067 C19.3166167,17.2858667 19.1175767,17.5390933 18.9140567,17.7899733 L18.0541101,17.55488 C17.8949634,17.5115733 17.7249367,17.5533867 17.6041901,17.66496 C17.0508034,18.1716267 16.4099501,18.5374933 15.7392301,18.7499733 C15.5849901,18.7998933 15.4665901,18.9240533 15.4241367,19.08 L15.1890434,19.9399467 C14.8690434,19.99072 14.5441367,20.04 14.2192301,20.04 C13.8966701,20.04 13.5775234,19.99072 13.2592301,19.9399467 L13.0241367,19.08 C12.9833901,18.9217067 12.8641367,18.79584 12.7090434,18.7450667 C12.0357634,18.5317333 11.3917101,18.17504 10.8391767,17.6698667 C10.7190701,17.56 10.5516034,17.51904 10.3941634,17.56 L9.53421673,17.7899733 C9.33069673,17.5390933 9.13165673,17.2858667 8.96909673,17.0049067 C8.80653673,16.7233067 8.68493673,16.42336 8.56909673,16.12 L9.19907006,15.4849067 C9.31576339,15.3690667 9.36504339,15.2007467 9.32920339,15.0398933 C9.17496339,14.3333333 9.17496339,13.5966933 9.32920339,12.88992 C9.36333673,12.7307733 9.31405673,12.5650133 9.19907006,12.4500267 L8.56909673,11.8149333 C8.68408339,11.5124267 8.80333673,11.2090667 8.96419006,10.9300267 C9.12739006,10.6475733 9.32835006,10.39328 9.53421673,10.1400533 L10.3941634,10.3700267 C10.5507501,10.41248 10.7182167,10.3732267 10.8391767,10.2650667 C11.3917101,9.75989333 12.0357634,9.39744 12.7090434,9.18496 C12.8641367,9.13418667 12.9833901,9.00832 13.0241367,8.85002667 L13.2592301,7.98986667 C13.5775234,7.93909333 13.8966701,7.89493333 14.2192301,7.89493333 L14.2192301,7.89493333 Z M14.2192301,10.5549867 C13.3458434,10.5549867 12.4733101,10.8907733 11.8092034,11.55488 C10.4799234,12.88416 10.4799234,15.0507733 11.8092034,16.3800533 C13.1382701,17.70912 15.3100034,17.70912 16.6390701,16.3800533 C17.9683501,15.0507733 17.9683501,12.88416 16.6390701,11.55488 C15.9741101,10.88992 15.0924034,10.5549867 14.2192301,10.5549867 L14.2192301,10.5549867 Z M14.2192301,11.5149867 C14.8474967,11.5149867 15.4783234,11.7492267 15.9591767,12.2298667 C16.9217367,13.1924267 16.9217367,14.7373867 15.9591767,15.6999467 C14.9966167,16.6625067 13.4516567,16.6625067 12.4890967,15.6999467 C11.5265367,14.7373867 11.5265367,13.1924267 12.4890967,12.2298667 C12.9716567,11.74752 13.5907501,11.5149867 14.2192301,11.5149867 L14.2192301,11.5149867 Z" id="Page-1" fill="#5C566C"></path>
        </g>
    </g>
</svg>