<?xml version="1.0" encoding="UTF-8" standalone="no"?>
<svg width="30px" height="30px" viewBox="0 0 30 30" version="1.1" xmlns="http://www.w3.org/2000/svg" xmlns:xlink="http://www.w3.org/1999/xlink">
    <!-- Generator: Sketch 3.8.3 (29802) - http://www.bohemiancoding.com/sketch -->
    <title>acc_markers_maps</title>
    <desc>Created with Sketch.</desc>
    <defs></defs>
    <g id="Page-1" stroke="none" stroke-width="1" fill="none" fill-rule="evenodd">
        <g id="acc_markers_maps" fill="#778591">
            <g id="Page-1-Copy-2" transform="translate(6.000000, 0.000000)">
                <path d="M16.642623,15.4052459 C17.995082,13.8009836 18.8114754,11.7304918 18.8114754,9.46721311 C18.8114754,4.37459016 14.6827869,0.245901639 9.59016393,0.245901639 C4.49754098,0.245901639 0.368852459,4.37459016 0.368852459,9.46721311 C0.368852459,11.7304918 1.1852459,13.8009836 2.53770492,15.4052459 L9.59016393,24.2213115 L16.642623,15.4052459 Z M9.59016393,6.57786885 C11.1865574,6.57786885 12.4795082,7.87081967 12.4795082,9.46721311 C12.4795082,11.0636066 11.1865574,12.3565574 9.59016393,12.3565574 C7.99377049,12.3565574 6.70081967,11.0636066 6.70081967,9.46721311 C6.70081967,7.87081967 7.99377049,6.57786885 9.59016393,6.57786885 L9.59016393,6.57786885 Z" id="Fill-1"></path>
                <path d="M15.1229508,27.9098361 C15.1229508,28.9278689 12.6467213,29.7540984 9.59016393,29.7540984 C6.53360656,29.7540984 4.05737705,28.9278689 4.05737705,27.9098361 C4.05737705,26.8918033 6.53360656,26.0655738 9.59016393,26.0655738 C12.6467213,26.0655738 15.1229508,26.8918033 15.1229508,27.9098361" id="Fill-2"></path>
            </g>
        </g>
    </g>
</svg>