<?xml version="1.0" encoding="utf-8"?>
<svg width="20px" height="20px" version="1.1" id="Layer_1" xmlns="http://www.w3.org/2000/svg" xmlns:xlink="http://www.w3.org/1999/xlink" x="0px"
     y="0px"
     viewBox="0 0 14.7 15" style="enable-background:new 0 0 14.7 15;" xml:space="preserve">
    <title>Calendar Icon</title>
  <g id="Group-13-Copy-2" transform="translate(1.263158, 0.973684)">
			<path id="Fill-1" class="st0" d="M0.5,14h11.1c1,0,1.8-0.8,1.8-1.8V2.3c0-1-0.8-1.8-1.8-1.8h0v0.9c0,0.6-0.5,1.1-1.1,1.1h-0.1
				C9.7,2.5,9.2,2,9.2,1.4V0.5l-6.3,0v0.9c0,0.6-0.5,1.1-1.1,1.1l-0.1,0C1,2.5,0.5,2,0.5,1.4V0.5h0c-1,0-1.8,0.8-1.8,1.8v9.9
				C-1.3,13.2-0.5,14,0.5,14L0.5,14z M-0.2,4.5h12.6v7.7c0,0.4-0.3,0.8-0.8,0.8H0.5c-0.4,0-0.8-0.3-0.8-0.8L-0.2,4.5z"/>
    <polygon id="Fill-2" class="st0" points="1,7.2 3.1,7.2 3.1,5.5 1,5.5 			"/>
    <polygon id="Fill-3" class="st0" points="3.7,7.2 5.8,7.2 5.8,5.5 3.7,5.5 			"/>
    <polygon id="Fill-4" class="st0" points="6.3,7.2 8.5,7.2 8.5,5.5 6.3,5.5 			"/>
    <polygon id="Fill-5" class="st0" points="9,7.2 11.2,7.2 11.2,5.5 9,5.5 			"/>
    <polygon id="Fill-6" class="st0" points="1,9.5 3.1,9.5 3.1,7.7 1,7.7 			"/>
    <polygon id="Fill-7" class="st0" points="3.7,9.5 5.8,9.5 5.8,7.7 3.7,7.7 			"/>
    <polygon id="Fill-8" class="st0" points="6.3,9.5 8.5,9.5 8.5,7.7 6.3,7.7 			"/>
    <polygon id="Fill-9" class="st0" points="9,9.5 11.2,9.5 11.2,7.7 9,7.7 			"/>
    <polygon id="Fill-10" class="st0" points="1,11.7 3.1,11.7 3.1,10 1,10 			"/>
    <polygon id="Fill-11" class="st0" points="3.7,11.7 5.8,11.7 5.8,10 3.7,10 			"/>
    <polygon id="Fill-12" class="st0" points="6.3,11.7 8.5,11.7 8.5,10 6.3,10 			"/>
    <polygon id="Fill-13" class="st0" points="9,11.7 11.2,11.7 11.2,10 9,10 			"/>
    <path id="Fill-14" class="st0" d="M1.8,2c0.4,0,0.6-0.3,0.6-0.6v-1.7C2.4-0.7,2.2-1,1.8-1H1.7C1.3-1,1-0.7,1-0.3v1.7
				C1,1.7,1.3,2,1.7,2L1.8,2z"/>
    <path id="Fill-15" class="st0" d="M10.5,2c0.4,0,0.6-0.3,0.6-0.6v-1.7c0-0.4-0.3-0.6-0.6-0.6h-0.1C10-1,9.7-0.7,9.7-0.3v1.7
				C9.7,1.7,10,2,10.3,2L10.5,2z"/>
		</g>
</svg>
