<?xml version="1.0" ?><svg height="16px" version="1.1" viewBox="0 0 16 16" width="16px" xmlns="http://www.w3.org/2000/svg" xmlns:sketch="http://www.bohemiancoding.com/sketch/ns" xmlns:xlink="http://www.w3.org/1999/xlink"><title/><defs/><g fill="none" fill-rule="evenodd" id="Icons with numbers" stroke="none" stroke-width="1"><g fill="#778591" id="Group" transform="translate(-48.000000, -432.000000)"><path d="M54.8796844,443.0591 L54.8796844,445 L57.2307692,445 L57.2307692,443.0591 Z M56,448 C51.5817218,448 48,444.418278 48,440 C48,435.581722 51.5817218,432 56,432 C60.4182782,432 64,435.581722 64,440 C64,444.418278 60.4182782,448 56,448 Z M53.5700197,435.51041 C52.5864514,436.043208 52.0631167,436.947609 52,438.22364 L54.2800789,438.22364 C54.2800789,437.852024 54.4076253,437.493845 54.6627219,437.149093 C54.9178185,436.804341 55.3504243,436.631968 55.9605523,436.631968 C56.5811997,436.631968 57.0085458,436.771881 57.2426036,437.051713 C57.4766613,437.331544 57.5936884,437.641592 57.5936884,437.981867 C57.5936884,438.277369 57.4884955,438.548241 57.2781065,438.794493 L56.8205128,439.190732 L56.2445759,439.573539 C55.6765258,439.949633 55.3241295,440.282067 55.1873767,440.570853 C55.0506239,440.859639 54.9664696,441.382356 54.9349112,442.139019 L57.0650888,442.139019 C57.0703485,441.780835 57.1045362,441.516679 57.1676529,441.346541 C57.2675876,441.077903 57.4700839,440.842849 57.7751479,440.64137 L58.3353057,440.271995 C58.9033559,439.895901 59.28731,439.586972 59.4871795,439.345198 C59.8290615,438.946718 60,438.456461 60,437.874412 C60,436.925225 59.6068415,436.208867 58.8205128,435.725319 C58.0341841,435.241771 57.0466858,435 55.8579882,435 C54.9533157,435 54.1906671,435.170135 53.5700197,435.51041 Z M53.5700197,435.51041" id="Oval 318"/></g></g></svg>
