<?xml version="1.0" encoding="UTF-8" standalone="no"?>
<!-- Created with Inkscape (http://www.inkscape.org/) -->

<svg
   xmlns:dc="http://purl.org/dc/elements/1.1/"
   xmlns:cc="http://creativecommons.org/ns#"
   xmlns:rdf="http://www.w3.org/1999/02/22-rdf-syntax-ns#"
   xmlns:svg="http://www.w3.org/2000/svg"
   xmlns="http://www.w3.org/2000/svg"
   xmlns:sodipodi="http://sodipodi.sourceforge.net/DTD/sodipodi-0.dtd"
   xmlns:inkscape="http://www.inkscape.org/namespaces/inkscape"
   width="148"
   height="40"
   id="svg3786"
   version="1.1"
   inkscape:version="0.48.4 r9939"
   sodipodi:docname="radio.svg"
   inkscape:export-filename="/var/www/html/sdk/instances/suitecrm-development-mysql/themes/SuiteP/images/forms/radio.png"
   inkscape:export-xdpi="44.01841"
   inkscape:export-ydpi="44.01841">
  <defs
     id="defs3788" />
  <sodipodi:namedview
     id="base"
     pagecolor="#ffffff"
     bordercolor="#666666"
     borderopacity="1.0"
     inkscape:pageopacity="0.0"
     inkscape:pageshadow="2"
     inkscape:zoom="5.598901"
     inkscape:cx="58.033409"
     inkscape:cy="-25.41478"
     inkscape:current-layer="layer1"
     showgrid="true"
     inkscape:grid-bbox="true"
     inkscape:document-units="px"
     inkscape:window-width="1855"
     inkscape:window-height="1056"
     inkscape:window-x="65"
     inkscape:window-y="24"
     inkscape:window-maximized="1" />
  <metadata
     id="metadata3791">
    <rdf:RDF>
      <cc:Work
         rdf:about="">
        <dc:format>image/svg+xml</dc:format>
        <dc:type
           rdf:resource="http://purl.org/dc/dcmitype/StillImage" />
        <dc:title></dc:title>
      </cc:Work>
    </rdf:RDF>
  </metadata>
  <g
     id="layer1"
     inkscape:label="Layer 1"
     inkscape:groupmode="layer"
     transform="translate(0,8)">
    <path
       sodipodi:type="arc"
       style="fill:#ffffff;fill-opacity:1;stroke:#a1b1be;stroke-width:0.66486138;stroke-miterlimit:4;stroke-opacity:1;stroke-dasharray:none;stroke-dashoffset:0"
       id="path3794"
       sodipodi:cx="17.682041"
       sodipodi:cy="19.497547"
       sodipodi:rx="10.537783"
       sodipodi:ry="10.537783"
       d="m 28.219824,19.497547 a 10.537783,10.537783 0 1 1 -21.0755655,0 10.537783,10.537783 0 1 1 21.0755655,0 z"
       transform="matrix(1.4719122,0,0,1.4719122,-6.0264125,-16.698677)" />
    <path
       transform="matrix(1.4719122,0,0,1.4719122,29.973588,-16.698677)"
       d="m 28.219824,19.497547 a 10.537783,10.537783 0 1 1 -21.0755655,0 10.537783,10.537783 0 1 1 21.0755655,0 z"
       sodipodi:ry="10.537783"
       sodipodi:rx="10.537783"
       sodipodi:cy="19.497547"
       sodipodi:cx="17.682041"
       id="path4358"
       style="fill:#ffffff;fill-opacity:1;stroke:#a1b1be;stroke-width:0.66486138;stroke-miterlimit:4;stroke-opacity:1;stroke-dasharray:none;stroke-dashoffset:0"
       sodipodi:type="arc" />
    <path
       transform="matrix(0.75917299,0,0,0.75917299,42.676272,-2.8020112)"
       d="m 28.219824,19.497547 c 0,5.819857 -4.717926,10.537783 -10.537783,10.537783 -5.819856,0 -10.5377825,-4.717926 -10.5377825,-10.537783 0,-5.819857 4.7179265,-10.5377825 10.5377825,-10.5377825 5.819857,0 10.537783,4.7179255 10.537783,10.5377825 z"
       sodipodi:ry="10.537783"
       sodipodi:rx="10.537783"
       sodipodi:cy="19.497547"
       sodipodi:cx="17.682041"
       id="path3796"
       style="fill:#f08377;fill-opacity:1;stroke:none"
       sodipodi:type="arc" />
    <path
       sodipodi:type="arc"
       style="fill:#f6f6f6;fill-opacity:1;stroke:#a1b1be;stroke-width:0.66486138;stroke-miterlimit:4;stroke-opacity:1;stroke-dasharray:none;stroke-dashoffset:0"
       id="path4360"
       sodipodi:cx="17.682041"
       sodipodi:cy="19.497547"
       sodipodi:rx="10.537783"
       sodipodi:ry="10.537783"
       d="m 28.219824,19.497547 a 10.537783,10.537783 0 1 1 -21.0755655,0 10.537783,10.537783 0 1 1 21.0755655,0 z"
       transform="matrix(1.4714078,0,0,1.5045829,65.982507,-17.685268)" />
    <path
       transform="matrix(1.4719122,0,0,1.4719123,101.97359,-16.69868)"
       d="m 28.219824,19.497547 a 10.537783,10.537783 0 1 1 -21.0755655,0 10.537783,10.537783 0 1 1 21.0755655,0 z"
       sodipodi:ry="10.537783"
       sodipodi:rx="10.537783"
       sodipodi:cy="19.497547"
       sodipodi:cx="17.682041"
       id="path4362"
       style="fill:#f6f6f6;fill-opacity:1;stroke:#a1b1be;stroke-width:0.66486138;stroke-miterlimit:4;stroke-opacity:1;stroke-dasharray:none;stroke-dashoffset:0"
       sodipodi:type="arc" />
    <path
       sodipodi:type="arc"
       style="fill:#f08377;fill-opacity:0.33333334;stroke:none"
       id="path4377"
       sodipodi:cx="17.682041"
       sodipodi:cy="19.497547"
       sodipodi:rx="10.537783"
       sodipodi:ry="10.537783"
       d="m 28.219824,19.497547 c 0,5.819857 -4.717926,10.537783 -10.537783,10.537783 -5.819856,0 -10.5377825,-4.717926 -10.5377825,-10.537783 0,-5.819857 4.7179265,-10.5377825 10.5377825,-10.5377825 5.819857,0 10.537783,4.7179255 10.537783,10.5377825 z"
       transform="matrix(0.75917299,0,0,0.75917299,114.57627,-2.8020112)" />
  </g>
</svg>
