<?xml version="1.0" encoding="UTF-8" standalone="no"?>
<svg width="30px" height="30px" viewBox="0 0 30 30" version="1.1" xmlns="http://www.w3.org/2000/svg" xmlns:xlink="http://www.w3.org/1999/xlink">
    <!-- Generator: Sketch 3.8.3 (29802) - http://www.bohemiancoding.com/sketch -->
    <title>acc_kb</title>
    <desc>Created with Sketch.</desc>
    <defs></defs>
    <g id="Page-1" stroke="none" stroke-width="1" fill="none" fill-rule="evenodd">
        <g id="acc_kb" fill="#FFFFFF">
            <path d="M25.297947,6.02798239 C24.6915619,4.46372162 23.5111323,3.50627147 21.7243175,2.74031135 C20.1285673,2.03860677 18.532817,1.94243623 17.0000457,2.67690687 C14.2242914,1.49690276 10.2349157,1.7828612 8.19192989,4.14457157 C6.69277573,4.04840102 5.2566005,4.5603177 4.07446872,5.45308677 C2.8944646,6.37862191 2.51063348,7.62373264 2.31914345,9.02671626 C-0.0744819222,10.3033165 -0.48980252,14.4837566 0.500839234,16.6863174 C1.8089289,19.655264 5.8949006,20.4531391 8.73576158,19.3361139 C8.79874052,19.9110095 8.99150715,20.4531391 9.34214667,20.9318642 C10.0123618,21.8259098 11.0974719,22.2399538 12.1830076,22.3680394 C13.1404578,22.4956994 14.257483,22.623785 15.0868476,22.0803788 C16.0442977,22.2714433 17.0017479,22.3995289 17.9277085,22.2399538 C17.959198,22.3029328 17.991113,22.3680394 18.0557941,22.4310183 C18.3434547,22.7186789 18.7255837,22.9412329 19.1413298,23.1008079 C19.8758004,24.6335792 19.3323943,26.3557129 18.7587753,27.9514631 C18.5992002,28.4616777 19.0149464,28.4616777 19.5251609,28.5263587 C19.621757,28.5263587 19.6847359,28.5582738 19.7162254,28.5582738 C21.3753801,28.6859338 21.5030402,28.6212527 22.2379363,27.0586941 C22.9728325,25.4629438 23.6426221,23.8357041 24.5034762,22.3029328 C26.8341226,21.4420787 28.3332767,19.2080284 28.1107228,16.5901469 C28.8120018,15.6641862 29.0681729,14.4837566 29.1962585,13.2705608 C29.5434937,10.1139541 28.2039146,7.24160365 25.297947,6.02798239 L25.297947,6.02798239 Z M12.3093911,20.102074 L15.3413165,12.7935379 L9.75619067,13.7824775 L13.2668412,5.58074679 L19.1081382,4.68670112 L14.576633,10.1752309 L20.0655883,9.44076026 L12.3093911,20.102074 Z" id="Fill-19-Copy"></path>
        </g>
    </g>
</svg>