<?xml version="1.0" encoding="UTF-8" standalone="no"?>
<svg width="30px" height="30px" viewBox="0 0 30 30" version="1.1" xmlns="http://www.w3.org/2000/svg" xmlns:xlink="http://www.w3.org/1999/xlink">
    <!-- Generator: Sketch 3.8.3 (29802) - http://www.bohemiancoding.com/sketch -->
    <title>acc_tracker_url</title>
    <desc>Created with Sketch.</desc>
    <defs></defs>
    <g id="Page-1" stroke="none" stroke-width="1" fill="none" fill-rule="evenodd">
        <g id="acc_tracker_url" fill="#FFFFFF">
            <path d="M26.5603083,3.45841221 C25.9740526,2.84772926 25.0165871,2.84772926 24.4303315,3.45841221 L21.3777701,6.64083041 C20.1265367,5.77347395 18.6912984,5.34379582 17.24998,5.34379582 C15.3312088,5.34379582 13.387477,6.10681617 11.9474386,7.63285687 L7.44715859,12.3206485 C4.88101016,14.9913864 4.56484173,19.1201632 6.49225313,22.150244 L3.43969173,25.3339956 C2.85343609,25.9446785 2.85343609,26.9330382 3.43969173,27.5437212 C3.73217952,27.8483959 4.11586976,28.0007333 4.49988,28.0007333 C4.88357023,28.0007333 5.26726046,27.8483959 5.55974826,27.5423878 L8.61230966,24.3599696 C9.86354303,25.2273261 11.3074215,25.6570042 12.74874,25.6570042 C14.6425505,25.6570042 16.5862823,24.8939838 18.0512814,23.3679431 L22.5426011,18.6801515 C25.1103496,16.0094136 25.426518,11.8806368 23.4991066,8.850556 L26.5603083,5.66813781 C27.1465639,5.05745485 27.1465639,4.0677618 26.5603083,3.45841221 L26.5603083,3.45841221 Z M21.7412998,13.1566708 C21.7412998,14.4080375 21.2728073,15.5864023 20.4238246,16.4704259 L15.9325049,21.1582175 C15.0800021,22.0435745 13.9273314,22.5319208 12.7513,22.5319208 C12.0712819,22.5319208 11.4210246,22.3585829 10.8235686,22.0619083 L13.0373877,19.7298461 C13.6236433,19.1188298 13.6236433,18.1308035 13.0373877,17.5201205 C12.4760927,16.9094376 11.5272674,16.9094376 10.9410118,17.5201205 L8.70223206,19.8521827 C8.4148644,19.2321662 8.25102003,18.5551481 8.25102003,17.8441292 C8.25102003,16.5927625 8.71983253,15.4143977 9.56977519,14.5303741 L14.0450945,9.84258246 C14.8950372,8.95722552 16.049948,8.46887916 17.25126,8.46887916 C17.9312782,8.46887916 18.5789754,8.64221712 19.1764314,8.93889169 L16.8938105,11.3192885 C16.3075549,11.9299715 16.3075549,12.9183311 16.8938105,13.5290141 C17.1862983,13.8336889 17.5699885,13.9873597 17.9536788,13.9873597 C18.3351289,13.9873597 18.7188192,13.8350223 19.011307,13.5290141 L21.2913678,11.1486173 C21.5777754,11.7673005 21.7412998,12.4456519 21.7412998,13.1566708 L21.7412998,13.1566708 Z" id="Page-1"></path>
        </g>
    </g>
</svg>