<?xml version="1.0" encoding="UTF-8" standalone="no"?>
<svg width="20px" height="20px" viewBox="0 0 20 20" version="1.1" xmlns="http://www.w3.org/2000/svg" xmlns:xlink="http://www.w3.org/1999/xlink">
    <!-- Generator: Sketch 39.1 (31720) - http://www.bohemiancoding.com/sketch -->
    <title>acc_activities_small</title>
    <desc>Created with Sketch.</desc>
    <defs></defs>
    <g id="Page-1" stroke="none" stroke-width="1" fill="none" fill-rule="evenodd">
        <g id="acc_activities_small" fill="#FFFFFF">
            <g id="Page-1" transform="translate(0.000000, 5.000000)">
                <path d="M19.5964739,0.396471042 C19.0856157,-0.132138996 18.26375,-0.132138996 17.7528918,0.396471042 L12.5775187,5.77465637 L9.24572761,2.3270888 L7.40210821,0.419444015 L5.55852612,2.3270888 L0.383152985,7.68233977 C-0.127705224,8.21094981 -0.127705224,9.06133591 0.383152985,9.58998456 C0.894011194,10.1185946 1.71587687,10.1185946 2.22673507,9.58998456 L7.40210821,4.2347722 L10.7338993,7.68233977 L12.5775187,9.58998456 L14.4211007,7.68233977 L19.5964739,2.30411583 C20.1073321,1.77550579 20.1073321,0.925081081 19.5964739,0.396471042" id="Fill-1"></path>
                <path d="M16.3979403,7.82021622 C16.3979403,8.79762934 17.1637239,9.58998456 18.1082761,9.58998456 C19.0528284,9.58998456 19.8186119,8.79762934 19.8186119,7.82021622 C19.8186119,6.84280309 19.0528284,6.05048649 18.1082761,6.05048649 C17.1637239,6.05048649 16.3979403,6.84280309 16.3979403,7.82021622 Z" id="Fill-3"></path>
            </g>
        </g>
    </g>
</svg>