<?xml version="1.0" encoding="UTF-8" standalone="no"?>
<svg width="20px" height="20px" viewBox="0 0 20 20" version="1.1" xmlns="http://www.w3.org/2000/svg" xmlns:xlink="http://www.w3.org/1999/xlink">
    <!-- Generator: Sketch 39.1 (31720) - http://www.bohemiancoding.com/sketch -->
    <title>acc_case_updates_small</title>
    <desc>Created with Sketch.</desc>
    <defs></defs>
    <g id="Page-1" stroke="none" stroke-width="1" fill="none" fill-rule="evenodd">
        <g id="acc_case_updates_small" fill="#FFFFFF">
            <path d="M17.2,17 L15.85,17 L15.85,4.85 L17.2,4.85 C17.57776,4.85 17.88448,5.15552 17.88448,5.53424 L17.88448,16.33424 C17.88448,16.69328 17.57776,17 17.2,17 L17.2,17 Z M3.7,17 L3.7,4.85 L5.71576,4.85 L7.06576,2.492 L11.78128,2.492 L13.13128,4.85 L15.14704,4.85 L15.14704,17 L3.7,17 Z M11.13448,3.5 L7.75,3.5 L7.06576,4.85 L11.78128,4.85 L11.13448,3.5 Z M1,16.33328 L1,5.53328 C1,5.15552 1.30576,4.84904 1.68448,4.84904 L3.03448,4.84904 L3.03448,16.99904 L1.68448,16.99904 C1.30672,17 1,16.69328 1,16.33328 L1,16.33328 Z" id="Page-1-Copy-2"></path>
        </g>
    </g>
</svg>