<?xml version="1.0" encoding="UTF-8" standalone="no"?>
<svg width="20px" height="20px" viewBox="0 0 20 20" version="1.1" xmlns="http://www.w3.org/2000/svg" xmlns:xlink="http://www.w3.org/1999/xlink">
    <!-- Generator: Sketch 39.1 (31720) - http://www.bohemiancoding.com/sketch -->
    <title>acc_reports_small</title>
    <desc>Created with Sketch.</desc>
    <defs></defs>
    <g id="Page-1" stroke="none" stroke-width="1" fill="none" fill-rule="evenodd">
        <g id="acc_reports_small" fill="#FFFFFF">
            <path d="M3.5832,0 L2,1.58346667 L2,18.4165333 L3.5832,20 L15.4168,20 L17,18.4165333 L17,1.58346667 L15.4168,0 L3.5832,0 Z M14.7386667,17.3584 L4.26133333,17.3584 L4.26133333,16.7333333 L14.7386667,16.7333333 L14.7386667,17.3584 Z M14.7386667,16.0770667 L4.26133333,16.0770667 L4.26133333,15.452 L14.7386667,15.452 L14.7386667,16.0770667 Z M14.7386667,14.7968 L4.26133333,14.7968 L4.26133333,14.172 L14.7386667,14.172 L14.7386667,14.7968 Z M14.7386667,13.5157333 L4.26133333,13.5157333 L4.26133333,12.8906667 L14.7386667,12.8906667 L14.7386667,13.5157333 Z M14.7386667,12.2344 L4.26133333,12.2344 L4.26133333,11.6093333 L14.7386667,11.6093333 L14.7386667,12.2344 Z M14.7386667,10.9530667 L4.26133333,10.9530667 L4.26133333,10.328 L14.7386667,10.328 L14.7386667,10.9530667 Z M14.7386667,9.672 L4.26133333,9.672 L4.26133333,9.04693333 L14.7386667,9.04693333 L14.7386667,9.672 Z M14.7386667,8.39066667 L4.26133333,8.39066667 L4.26133333,7.7656 L14.7386667,7.7656 L14.7386667,8.39066667 Z M14.7386667,7.10933333 L4.26133333,7.10933333 L4.26133333,6.48426667 L14.7386667,6.48426667 L14.7386667,7.10933333 Z M14.7386667,5.828 L4.26133333,5.828 L4.26133333,5.2032 L14.7386667,5.2032 L14.7386667,5.828 Z M14.7386667,4.548 L4.26133333,4.548 L4.26133333,3.92293333 L14.7386667,3.92293333 L14.7386667,4.548 Z M14.7386667,3.26666667 L4.26133333,3.26666667 L4.26133333,2.6416 L14.7386667,2.6416 L14.7386667,3.26666667 Z" id="Page-1-Copy-2"></path>
        </g>
    </g>
</svg>