<?xml version="1.0" encoding="UTF-8" standalone="no"?>
<svg width="30px" height="30px" viewBox="0 0 30 30" version="1.1" xmlns="http://www.w3.org/2000/svg" xmlns:xlink="http://www.w3.org/1999/xlink">
    <!-- Generator: Sketch 3.8.3 (29802) - http://www.bohemiancoding.com/sketch -->
    <title>acc_email_marketing</title>
    <desc>Created with Sketch.</desc>
    <defs></defs>
    <g id="Page-1" stroke="none" stroke-width="1" fill="none" fill-rule="evenodd">
        <g id="acc_email_marketing" fill="#FFFFFF">
            <path d="M16.3638307,3.15294899 C22.2788613,3.15294899 26.0624777,7.20406092 26.0624777,12.9053393 C26.0624777,17.8627603 22.6526222,20.3137848 19.7199429,20.3137848 C18.1483557,20.3137848 16.8426355,19.5678917 16.5230252,18.2874146 L16.4705032,18.2874146 C15.777132,19.3545467 14.3378676,20.0479179 13.2723641,20.0479179 C11.0867994,20.0479179 9.64916362,18.3940871 9.64916362,15.9430626 C9.64916362,12.5332071 12.1001881,9.28254599 15.1379113,9.28254599 C15.9900699,9.28254599 16.6822196,9.65467828 17.1097239,10.6135093 L17.1622459,10.6135093 L17.5885287,9.49548383 L20.3607921,9.49548383 L19.080315,15.5709303 C18.7607047,16.9023007 19.1344656,17.54315 20.1999691,17.54315 C21.8000565,17.54315 23.2376923,15.7317533 23.2376923,13.0120118 C23.2376923,9.38921848 21.3721451,5.87106188 15.9900699,5.87106188 C11.5130823,5.87106188 7.03609464,9.70882882 7.03609464,15.6250808 C7.03609464,20.9004836 10.7671891,23.2448356 14.7641505,23.2448356 C16.0425918,23.2448356 17.6410507,22.8185527 18.7065542,22.2855974 L19.6674209,24.7366219 C18.0148115,25.5891876 16.3100874,25.9629485 14.3920182,25.9629485 C9.00831436,25.9629485 4,22.7644022 4,15.7317533 C4,8.16289194 9.59501308,3.15294899 16.3638307,3.15294899 L16.3638307,3.15294899 Z M14.2853457,17.2219111 C14.7641505,17.2219111 15.1904333,16.9564513 15.777132,16.1580362 L16.3638307,12.799074 C16.176136,12.4269417 15.777132,12.1594462 15.2966987,12.1594462 C13.9115848,12.1594462 13.0590191,14.239967 13.0590191,15.6776028 C13.0590191,16.6637126 13.485302,17.2219111 14.2853457,17.2219111 L14.2853457,17.2219111 Z" id="Page-1"></path>
        </g>
    </g>
</svg>