<?xml version="1.0" encoding="UTF-8" standalone="no"?>
<svg width="30px" height="30px" viewBox="0 0 30 30" version="1.1" xmlns="http://www.w3.org/2000/svg" xmlns:xlink="http://www.w3.org/1999/xlink">
    <!-- Generator: Sketch 3.8.3 (29802) - http://www.bohemiancoding.com/sketch -->
    <title>acc_other</title>
    <desc>Created with Sketch.</desc>
    <defs></defs>
    <g id="Page-1" stroke="none" stroke-width="1" fill="none" fill-rule="evenodd">
        <g id="acc_other" fill="#FFFFFF">
            <path d="M15.1613067,3.59861333 C11.7813067,3.59861333 9,6.37992 9,9.75992 C9,10.7742667 9.85834667,11.6315733 10.8983467,11.6315733 C11.9643467,11.6315733 12.79704,10.77288 12.79704,9.75992 C12.79704,8.45992 13.8626933,7.39426667 15.1626933,7.39426667 C16.43704,7.39426667 17.47704,8.45992 17.47704,9.75992 C17.47704,10.95592 16.95704,11.5542667 15.9953867,12.64592 C14.7997333,13.8672267 13.21408,15.5572267 13.21408,18.7815733 C13.21408,19.87288 14.0727733,20.70592 15.1384267,20.70592 C16.1784267,20.70592 17.0097333,19.8742667 17.0097333,18.7815733 C17.0097333,17.03992 17.7384267,16.25992 18.7253867,15.21992 C19.84408,13.9986133 21.2213867,12.51592 21.2213867,9.73426667 C21.2713067,6.37992 18.5413067,3.59861333 15.1613067,3.59861333 L15.1613067,3.59861333 Z M15.1613067,22.42296 C13.88696,22.42296 12.84696,23.4113067 12.84696,24.7113067 C12.84696,25.9856533 13.88696,27 15.1613067,27 C16.38296,27 17.45,25.9856533 17.45,24.7113067 C17.45,23.4373067 16.41,22.42296 15.1613067,22.42296 L15.1613067,22.42296 Z" id="Page-1"></path>
        </g>
    </g>
</svg>