<?xml version="1.0" encoding="UTF-8" standalone="no"?>
<svg width="20px" height="20px" viewBox="0 0 20 20" version="1.1" xmlns="http://www.w3.org/2000/svg" xmlns:xlink="http://www.w3.org/1999/xlink">
    <!-- Generator: Sketch 39.1 (31720) - http://www.bohemiancoding.com/sketch -->
    <title>acc_project_tasks_small</title>
    <desc>Created with Sketch.</desc>
    <defs></defs>
    <g id="Page-1" stroke="none" stroke-width="1" fill="none" fill-rule="evenodd">
        <g id="acc_project_tasks_small" fill="#FFFFFF">
            <path d="M18.4613333,12.8469333 L17.6928,12.8469333 L17.6928,8.12293333 C19.0176,7.78026667 20,6.5864 20,5.15413333 C20,3.4552 18.6218667,2.07706667 16.9229333,2.07706667 C15.4906667,2.07706667 14.2978667,3.06026667 13.9541333,4.38426667 L11.5386667,4.38426667 L11.5386667,2.84586667 C11.5386667,2.42186667 11.1928,2.07706667 10.7698667,2.07706667 L7.6928,2.07706667 C7.2688,2.07706667 6.924,2.42293333 6.924,2.84586667 L6.924,4.38426667 L4.61573333,4.38426667 L4.61573333,1.3072 C4.61573333,0.8832 4.26986667,0.5384 3.84693333,0.5384 L0.7688,0.5384 C0.3448,0.5384 0,0.884266667 0,1.3072 L0,9 C0,9.424 0.345866667,9.7688 0.7688,9.7688 L3.84586667,9.7688 C4.26986667,9.7688 4.61466667,9.42293333 4.61466667,9 L4.61466667,5.92293333 L6.92186667,5.92293333 L6.92186667,7.46133333 C6.92186667,7.88533333 7.26773333,8.23013333 7.69066667,8.23013333 L10.7677333,8.23013333 C11.1917333,8.23013333 11.5365333,7.88426667 11.5365333,7.46133333 L11.5365333,5.92293333 L13.9530667,5.92293333 C14.2322667,7.00106667 15.0749333,7.8416 16.152,8.12186667 L16.152,12.8458667 L15.3834667,12.8458667 C14.9594667,12.8458667 14.6146667,13.1914667 14.6146667,13.6144 L14.6146667,15.1530667 L11.4290667,15.1530667 C11.0864,13.828 9.8928,12.8458667 8.46053333,12.8458667 C6.76133333,12.8458667 5.38346667,14.224 5.38346667,15.9229333 C5.38346667,17.6218667 6.76133333,19 8.46053333,19 C9.8928,19 11.0853333,18.0165333 11.428,16.6925333 L14.6157333,16.6925333 L14.6157333,18.2312 C14.6157333,18.6552 14.9613333,19 15.3842667,19 L18.4613333,19 C18.8853333,19 19.2301333,18.6541333 19.2301333,18.2312 L19.2301333,13.6154667 C19.2312,13.1925333 18.8853333,12.8469333 18.4613333,12.8469333 L18.4613333,12.8469333 Z" id="Page-1-Copy-2"></path>
        </g>
    </g>
</svg>