<?xml version="1.0" encoding="UTF-8" standalone="no"?>
<svg width="20px" height="20px" viewBox="0 0 20 20" version="1.1" xmlns="http://www.w3.org/2000/svg" xmlns:xlink="http://www.w3.org/1999/xlink">
    <!-- Generator: Sketch 39.1 (31720) - http://www.bohemiancoding.com/sketch -->
    <title>acc_targets_small</title>
    <desc>Created with Sketch.</desc>
    <defs></defs>
    <g id="Page-1" stroke="none" stroke-width="1" fill="none" fill-rule="evenodd">
        <g id="acc_targets_small" fill="#FFFFFF">
            <g id="Page-1-Copy-2">
                <path d="M10.8053333,3.61146667 L12.3333333,3.61146667 C12.6114667,3.61146667 12.8613333,3.80613333 12.9168,4.0832 C12.972,4.4448 12.6946667,4.72186667 12.3613333,4.72186667 L10.7781333,4.72186667 C10.6394667,4.72186667 10.528,4.83333333 10.528,4.972 L10.528,9.16666667 C10.528,9.30533333 10.6394667,9.41653333 10.7781333,9.41653333 L14.9728,9.41653333 C15.1114667,9.41653333 15.2229333,9.30533333 15.2229333,9.16666667 L15.2229333,7.63866667 C15.2229333,7.36053333 15.4176,7.1104 15.6946667,7.0552 C16.0562667,7 16.3333333,7.27706667 16.3333333,7.6104 L16.3333333,9.19386667 C16.3333333,9.33226667 16.4448,9.44373333 16.5834667,9.44373333 L19.528,9.44373333 C19.6666667,9.44373333 19.8061333,9.30533333 19.7781333,9.1656 C19.4165333,4.38853333 15.6114667,0.583466667 10.8333333,0.166666667 C10.6946667,0.166666667 10.5552,0.278133333 10.5552,0.416533333 L10.5552,3.36133333 C10.5552,3.5 10.6666667,3.61146667 10.8053333,3.61146667 L10.8053333,3.61146667 Z" id="Fill-1"></path>
                <path d="M3.61146667,9.19466667 L3.61146667,7.66666667 C3.61146667,7.38853333 3.80613333,7.13866667 4.0832,7.0832 C4.4448,7.028 4.72186667,7.30533333 4.72186667,7.63866667 L4.72186667,9.22186667 C4.72186667,9.36053333 4.83333333,9.472 4.972,9.472 L9.16666667,9.472 C9.30533333,9.472 9.41653333,9.36053333 9.41653333,9.22186667 L9.41653333,4.972 C9.41653333,4.83333333 9.30533333,4.72186667 9.16666667,4.72186667 L7.63866667,4.72186667 C7.36053333,4.72186667 7.1104,4.5272 7.0552,4.25013333 C7,3.88853333 7.27706667,3.61146667 7.6104,3.61146667 L9.19386667,3.61146667 C9.33226667,3.61146667 9.44373333,3.5 9.44373333,3.36133333 L9.44373333,0.416533333 C9.44373333,0.278133333 9.30533333,0.138666667 9.1656,0.166666667 C4.38853333,0.583466667 0.583466667,4.38853333 0.166666667,9.16666667 C0.166666667,9.30533333 0.278133333,9.4448 0.416533333,9.4448 L3.36133333,9.4448 C3.5,9.4448 3.61146667,9.33333333 3.61146667,9.19466667 L3.61146667,9.19466667 Z" id="Fill-2"></path>
                <path d="M16.3885333,10.8053333 L16.3885333,12.3333333 C16.3885333,12.6114667 16.1938667,12.8613333 15.9168,12.9168 C15.5552,12.972 15.2781333,12.6946667 15.2781333,12.3613333 L15.2781333,10.7781333 C15.2781333,10.6394667 15.1666667,10.528 15.028,10.528 L10.8053333,10.528 C10.6666667,10.528 10.5552,10.6394667 10.5552,10.7781333 L10.5552,14.9728 C10.5552,15.1114667 10.6666667,15.2229333 10.8053333,15.2229333 L12.3333333,15.2229333 C12.6114667,15.2229333 12.8613333,15.4176 12.9168,15.6946667 C12.972,16.0562667 12.6946667,16.3333333 12.3613333,16.3333333 L10.7781333,16.3333333 C10.6394667,16.3333333 10.528,16.4448 10.528,16.5834667 L10.528,19.528 C10.528,19.6666667 10.6666667,19.8061333 10.8061333,19.7781333 C15.5842667,19.3896 19.4176,15.5562667 19.8061333,10.7781333 C19.8061333,10.6394667 19.6946667,10.5 19.5562667,10.5 L16.6386667,10.5 C16.5,10.5552 16.3885333,10.6666667 16.3885333,10.8053333 L16.3885333,10.8053333 Z" id="Fill-3"></path>
                <path d="M9.19466667,16.3885333 L7.66666667,16.3885333 C7.38853333,16.3885333 7.13866667,16.1938667 7.0832,15.9168 C7.028,15.5552 7.30533333,15.2781333 7.63866667,15.2781333 L9.22186667,15.2781333 C9.36053333,15.2781333 9.472,15.1666667 9.472,15.028 L9.472,10.8053333 C9.472,10.6666667 9.36053333,10.5552 9.22186667,10.5552 L4.972,10.5552 C4.83333333,10.5552 4.72186667,10.6666667 4.72186667,10.8053333 L4.72186667,12.3333333 C4.72186667,12.6114667 4.5272,12.8613333 4.25013333,12.9168 C3.88853333,12.972 3.61146667,12.6946667 3.61146667,12.3613333 L3.61146667,10.7781333 C3.61146667,10.6394667 3.5,10.528 3.36133333,10.528 L0.416533333,10.528 C0.278133333,10.528 0.138666667,10.6666667 0.166666667,10.8061333 C0.5552,15.5842667 4.38853333,19.4176 9.16666667,19.8061333 C9.30533333,19.8061333 9.4448,19.6946667 9.4448,19.5562667 L9.4448,16.6386667 C9.4448,16.5 9.33333333,16.3885333 9.19466667,16.3885333 L9.19466667,16.3885333 Z" id="Fill-4"></path>
            </g>
        </g>
    </g>
</svg>