<?xml version="1.0" encoding="UTF-8" standalone="no"?>
<svg width="20px" height="20px" viewBox="0 0 20 20" version="1.1" xmlns="http://www.w3.org/2000/svg" xmlns:xlink="http://www.w3.org/1999/xlink">
    <!-- Generator: Sketch 39.1 (31720) - http://www.bohemiancoding.com/sketch -->
    <title>acc_default_module_small</title>
    <desc>Created with Sketch.</desc>
    <defs></defs>
    <g id="Page-1" stroke="none" stroke-width="1" fill="none" fill-rule="evenodd">
        <g id="acc_default_module_small" fill="#FFFFFF">
            <g id="Group" transform="translate(1.000000, 0.000000)">
                <path d="M16.8440577,5.18201492 C16.8440577,5.17800407 16.8430769,5.17299051 16.8430769,5.16897966 C16.8290192,4.97846441 16.728,4.80599797 16.5645385,4.70940339 L8.83346154,0.147398644 C8.65692308,0.0444535593 8.43984615,0.0444535593 8.26494231,0.147398644 L0.535173077,4.70940339 C0.371711538,4.80599797 0.270692308,4.97846441 0.256634615,5.16897966 C0.256634615,5.17299051 0.255326923,5.17666712 0.255326923,5.18201492 C0.255326923,5.19237627 0.251730769,5.20273763 0.251730769,5.21343322 L0.251730769,14.3394481 C0.251730769,14.5470095 0.360269231,14.7391959 0.536480769,14.843478 L8.26625,19.4064854 C8.27278846,19.4104963 8.28030769,19.4118332 8.28684615,19.4158441 C8.31725,19.4328902 8.34928846,19.4459254 8.38394231,19.4562868 C8.39538462,19.4602976 8.40551923,19.4639742 8.41696154,19.4666481 C8.46044231,19.4770095 8.50523077,19.4850312 8.551,19.4850312 C8.59709615,19.4850312 8.64188462,19.4770095 8.68503846,19.4666481 C8.69680769,19.4639742 8.70694231,19.4602976 8.71838462,19.4562868 C8.75173077,19.4459254 8.78475,19.4315532 8.81548077,19.4158441 C8.82169231,19.4118332 8.82953846,19.4104963 8.83575,19.4064854 L16.5658462,14.843478 C16.7420577,14.7405329 16.8505962,14.5483464 16.8505962,14.3394481 L16.8505962,5.21343322 C16.8479808,5.20273763 16.8440577,5.19237627 16.8440577,5.18201492 L16.8440577,5.18201492 Z M8.54969231,1.32257695 L15.1711923,5.23148203 L8.54969231,9.13938441 L1.92721154,5.23014508 L8.54969231,1.32257695 Z M1.38811538,6.25525085 L7.55257692,9.8940922 C7.52805769,9.89643186 7.50517308,9.90445356 7.48359615,9.91882576 L6.84119231,10.2985193 C6.75030769,10.3523315 6.71990385,10.4709858 6.77221154,10.5635695 C6.80653846,10.6264061 6.87061538,10.6604983 6.93698077,10.6604983 C6.96869231,10.6604983 7.00203846,10.6524766 7.03146154,10.6340936 L7.67386538,10.2544 C7.75788462,10.2045986 7.78730769,10.1003166 7.75036538,10.0114095 L7.9815,10.1484468 L7.9815,17.8974041 L1.38811538,14.0038739 L1.38811538,6.25525085 Z M9.11821154,17.8947302 L9.11821154,10.1457729 L9.34934615,10.0087356 C9.31207692,10.0976427 9.3415,10.2032617 9.42584615,10.2530631 L10.06825,10.6327566 C10.0976731,10.6511397 10.1306923,10.6591614 10.1627308,10.6591614 C10.2277885,10.6591614 10.2915385,10.6237322 10.3275,10.5625668 C10.3798077,10.4696488 10.3490769,10.3509946 10.2585192,10.2975166 L9.61611538,9.91748881 C9.59453846,9.90445356 9.57001923,9.89643186 9.54713462,9.89275525 L15.7115962,6.2539139 L15.7115962,14.0028712 L9.11821154,17.8947302 Z" id="Fill-1"></path>
                <path d="M14.1165385,12.574341 L13.4741346,12.1943132 C13.3835769,12.1394983 13.2671923,12.1722536 13.2148846,12.2648373 C13.1625769,12.3577553 13.1929808,12.4764095 13.2838654,12.5298875 L13.9262692,12.9099153 C13.9556923,12.9282983 13.9887115,12.9359858 14.02075,12.9359858 C14.0858077,12.9359858 14.1495577,12.9008908 14.1855192,12.8393912 C14.2391346,12.7468075 14.2070962,12.627819 14.1165385,12.574341 L14.1165385,12.574341 Z" id="Fill-2"></path>
                <path d="M15.4036346,13.3343966 L14.7612308,12.9543688 C14.6706731,12.9008908 14.5546154,12.9319749 14.5019808,13.0248929 C14.4496731,13.1174766 14.4804038,13.2364651 14.5709615,13.2899431 L15.2133654,13.6696366 C15.2427885,13.6880197 15.2761346,13.6960414 15.3078462,13.6960414 C15.3729038,13.6960414 15.4369808,13.6606122 15.4726154,13.5994468 C15.5249231,13.5051919 15.4945192,13.3878746 15.4036346,13.3343966 L15.4036346,13.3343966 Z" id="Fill-3"></path>
                <path d="M12.8304231,11.8159566 L12.1880192,11.4359288 C12.0974615,11.3824508 11.9810769,11.4135349 11.9287692,11.5064529 C11.8764615,11.5990366 11.9071923,11.7180251 11.99775,11.7715031 L12.6401538,12.1511966 C12.6695769,12.1695797 12.7025962,12.1776014 12.7346346,12.1776014 C12.7996923,12.1776014 12.8637692,12.1421722 12.8994038,12.0810068 C12.9530192,11.9880888 12.9209808,11.8694346 12.8304231,11.8159566 L12.8304231,11.8159566 Z" id="Fill-4"></path>
                <path d="M11.5443077,11.057238 L10.9022308,10.6772102 C10.8113462,10.6223953 10.6952885,10.6551505 10.6429808,10.7477342 C10.5906731,10.8406522 10.6210769,10.9593064 10.7119615,11.0127844 L11.3540385,11.3928122 C11.3834615,11.4111953 11.4168077,11.4188827 11.4488462,11.4188827 C11.5139038,11.4188827 11.5776538,11.3837878 11.6132885,11.3222881 C11.6672308,11.2283675 11.6351923,11.109379 11.5443077,11.057238 L11.5443077,11.057238 Z" id="Fill-5"></path>
                <path d="M2.33946154,12.9543688 L1.69705769,13.3330597 C1.6065,13.3865376 1.57576923,13.5051919 1.62807692,13.5981098 C1.66273077,13.6606122 1.72648077,13.6947044 1.79284615,13.6947044 C1.82488462,13.6947044 1.85823077,13.6866827 1.88732692,13.6686339 L2.52973077,13.2899431 C2.62061538,13.2364651 2.65101923,13.1174766 2.59871154,13.0248929 C2.54509615,12.9319749 2.42903846,12.9008908 2.33946154,12.9543688 L2.33946154,12.9543688 Z" id="Fill-6"></path>
                <path d="M6.19748077,10.6772102 L5.55376923,11.057238 C5.46321154,11.1107159 5.43248077,11.2297044 5.48478846,11.3222881 C5.51944231,11.3847905 5.58319231,11.4188827 5.64955769,11.4188827 C5.68159615,11.4188827 5.71461538,11.4111953 5.74403846,11.3928122 L6.38775,11.0127844 C6.47830769,10.9593064 6.50903846,10.8406522 6.45673077,10.7477342 C6.40311538,10.6551505 6.28803846,10.6223953 6.19748077,10.6772102 L6.19748077,10.6772102 Z" id="Fill-7"></path>
                <path d="M3.62557692,12.1956502 L2.98317308,12.574341 C2.89261538,12.627819 2.86188462,12.7468075 2.91419231,12.8393912 C2.94884615,12.9022278 3.01259615,12.9359858 3.07896154,12.9359858 C3.111,12.9359858 3.14401923,12.9282983 3.17344231,12.9099153 L3.81584615,12.5312244 C3.90640385,12.4777464 3.93713462,12.3590922 3.88482692,12.2661742 C3.83121154,12.1735905 3.71482692,12.1408353 3.62557692,12.1956502 L3.62557692,12.1956502 Z" id="Fill-8"></path>
                <path d="M4.91136538,11.4359288 L4.26928846,11.8159566 C4.17840385,11.8694346 4.148,11.9880888 4.20030769,12.0810068 C4.23463462,12.1435092 4.29838462,12.1776014 4.36507692,12.1776014 C4.39678846,12.1776014 4.43013462,12.1695797 4.45955769,12.1511966 L5.10163462,11.7715031 C5.19251923,11.7180251 5.22325,11.5990366 5.17061538,11.5064529 C5.117,11.4135349 5.00094231,11.3824508 4.91136538,11.4359288 L4.91136538,11.4359288 Z" id="Fill-9"></path>
            </g>
        </g>
    </g>
</svg>