<?xml version="1.0" encoding="UTF-8" standalone="no"?>
<svg width="20px" height="20px" viewBox="0 0 20 20" version="1.1" xmlns="http://www.w3.org/2000/svg" xmlns:xlink="http://www.w3.org/1999/xlink">
    <!-- Generator: Sketch 39.1 (31720) - http://www.bohemiancoding.com/sketch -->
    <title>acc_users_small</title>
    <desc>Created with Sketch.</desc>
    <defs></defs>
    <g id="Page-1" stroke="none" stroke-width="1" fill="none" fill-rule="evenodd">
        <g id="acc_users_small" fill="#FFFFFF">
            <g id="Page-1" transform="translate(0.000000, 3.000000)">
                <path d="M13.8748571,8.10355392 C12.5357143,8.10355392 11.4642857,8.45588235 10.6605714,8.89615196 C11.9108571,9.95313725 12.4462857,11.1865686 12.5357143,11.2745098 L12.6251429,11.450674 L12.6251429,13.3884804 L19.768,13.3884804 L19.768,11.6268382 C19.6785714,11.6268382 18.25,8.10355392 13.8748571,8.10355392 L13.8748571,8.10355392 Z" id="Fill-1"></path>
                <path d="M17,3.25889706 C17,4.96134804 15.6005714,6.34191176 13.8748571,6.34191176 C12.1494286,6.34191176 10.75,4.96134804 10.75,3.25889706 C10.75,1.55672794 12.1494286,0.176164216 13.8748571,0.176164216 C15.6005714,0.176164216 17,1.55672794 17,3.25889706" id="Fill-2"></path>
                <path d="M2.71428571,3.25889706 C2.71428571,1.58547794 4.14285714,0.176164216 5.83942857,0.176164216 C7.53571429,0.176164216 8.96428571,1.58547794 8.96428571,3.25889706 C8.96428571,4.93259804 7.53571429,6.34191176 5.83942857,6.34191176 C4.14285714,6.34191176 2.71428571,4.93259804 2.71428571,3.25889706 L2.71428571,3.25889706 Z M5.83942857,8.10355392 C1.46428571,8.10355392 0.0357142857,11.6268382 0.0357142857,11.6268382 L0.0357142857,13.3884804 L11.6428571,13.3884804 L11.6428571,11.6268382 C11.6428571,11.6268382 10.2142857,8.10355392 5.83942857,8.10355392 L5.83942857,8.10355392 Z" id="Fill-3"></path>
            </g>
        </g>
    </g>
</svg>