<?xml version="1.0" encoding="UTF-8" standalone="no"?>
<svg width="30px" height="30px" viewBox="0 0 30 30" version="1.1" xmlns="http://www.w3.org/2000/svg" xmlns:xlink="http://www.w3.org/1999/xlink">
    <!-- Generator: Sketch 3.8.3 (29802) - http://www.bohemiancoding.com/sketch -->
    <title>acc_direct_reports</title>
    <desc>Created with Sketch.</desc>
    <defs></defs>
    <g id="Page-1" stroke="none" stroke-width="1" fill="none" fill-rule="evenodd">
        <g id="acc_direct_reports" fill="#778591">
            <path d="M26.8236143,14.4032891 C26.7581883,14.2685257 26.6845841,14.1351846 26.5736443,14.0242449 C26.5665328,14.0171334 26.5583545,14.0157111 26.5526653,14.0103774 L22.8553843,10.3127409 C22.3205978,9.77795432 21.4469471,9.77795432 20.9135829,10.3127409 C20.3787963,10.8475274 20.3787963,11.7211781 20.9135829,12.2545423 L22.4567834,13.7977429 L16.1911758,13.7977429 L16.1911758,7.53213525 L17.7482439,9.08920328 C18.2826748,9.62398984 19.1566811,9.62398984 19.6900453,9.08920328 C20.2244763,8.55441673 20.2244763,7.68076609 19.6900453,7.14740184 L15.9895642,3.44727627 C15.9842305,3.44016474 15.9813859,3.43198649 15.9756967,3.42629727 C15.8384443,3.2886893 15.6770127,3.1887724 15.5063361,3.12370196 C15.3491715,3.04867539 15.1799172,2.99853915 14.9950176,2.99853915 C14.7770494,2.99853915 14.5839716,3.07214341 14.4090281,3.17348262 C14.2728424,3.23890863 14.1395014,3.31393521 14.0271393,3.42629727 C14.0200278,3.4334088 14.0186055,3.44158705 14.0132718,3.44727627 L10.2964342,7.16269162 C9.76164762,7.69747817 9.76164762,8.57112881 10.2964342,9.10449306 C10.8308651,9.63927961 11.7045158,9.63927961 12.23788,9.10449306 L13.799215,7.54315812 L13.799215,13.7963206 L7.51831759,13.7963206 L9.09352,12.2214737 C9.62830656,11.6866872 9.62830656,10.8130365 9.09352,10.2796723 C8.55873345,9.74488573 7.68508281,9.74488573 7.15171856,10.2796723 L3.42101344,14.0103774 C3.41390191,14.0157111 3.40572366,14.0185557 3.40003444,14.0242449 C3.13193002,14.2923493 2.99858895,14.6465032 3.00001126,14.9992347 C2.99858895,15.3519663 3.13193002,15.7061201 3.40003444,15.9742246 C3.40714597,15.9813361 3.41532422,15.9827584 3.42101344,15.988092 L7.14318474,19.7106189 C7.67797129,20.2454055 8.55162193,20.2454055 9.08498618,19.7106189 C9.61977273,19.1758324 9.61977273,18.3021817 9.08498618,17.7688175 L7.50587243,16.1897037 L13.799215,16.1897037 L13.799215,22.4830463 L12.2311241,20.9149554 C11.6963375,20.3801688 10.8226869,20.3801688 10.2893226,20.9149554 C9.7545361,21.4497419 9.7545361,22.3233926 10.2893226,22.8567568 L14.0118495,26.5789281 C14.0171832,26.5860397 14.0200278,26.5942179 14.025717,26.5999071 C14.2938214,26.8680116 14.646553,27.0013526 15.0007068,26.9999303 C15.3534384,27.0013526 15.7075923,26.8680116 15.9756967,26.5999071 C15.9828082,26.5927956 15.9842305,26.5846173 15.9895642,26.5789281 L19.6872007,22.8816472 C20.2219873,22.3468606 20.2219873,21.47321 19.6872007,20.9398457 C19.1524141,20.4050592 18.2787635,20.4050592 17.7453993,20.9398457 L16.1911758,22.4940691 L16.1911758,16.1897037 L22.4678063,16.1897037 L20.9107383,17.7467718 C20.3759517,18.2812027 20.3759517,19.1552089 20.9107383,19.6885732 C21.4455248,20.2230042 22.3191755,20.2230042 22.8525397,19.6885732 L26.5526653,15.988092 C26.5597768,15.9827584 26.5679551,15.9799138 26.5736443,15.9742246 C26.7112523,15.8366166 26.8111692,15.6755406 26.8762396,15.504864 C26.9512662,15.3476994 26.9999801,15.1784451 26.9999801,14.9935455 C27.0014024,14.774155 26.9263758,14.5796549 26.8236143,14.4032891 L26.8236143,14.4032891 Z" id="Page-1"></path>
        </g>
    </g>
</svg>