<?xml version="1.0" encoding="UTF-8" standalone="no"?>
<svg width="30px" height="30px" viewBox="0 0 30 30" version="1.1" xmlns="http://www.w3.org/2000/svg" xmlns:xlink="http://www.w3.org/1999/xlink">
    <!-- Generator: Sketch 3.8.3 (29802) - http://www.bohemiancoding.com/sketch -->
    <title>acc_opportunities</title>
    <desc>Created with Sketch.</desc>
    <defs>
        <polygon id="path-1" points="0.0203396648 1.57726131 5.39499888 1.57726131 5.39499888 0.0124077889 0.0203396648 0.0124077889 0.0203396648 1.57726131"></polygon>
        <polygon id="path-3" points="15.9628156 19.5922449 15.9628156 0.0315758951 2.23463687e-05 0.0315758951 2.23463687e-05 19.5922449"></polygon>
    </defs>
    <g id="Page-1" stroke="none" stroke-width="1" fill="none" fill-rule="evenodd">
        <g id="acc_opportunities">
            <g id="Page-1" transform="translate(7.000000, 2.000000)">
                <g id="Group-3" transform="translate(5.273743, 24.547443)">
                    <mask id="mask-2" fill="white">
                        <use xlink:href="#path-1"></use>
                    </mask>
                    <g id="Clip-2"></g>
                    <path d="M0.0203396648,0.0124077889 C0.539401117,0.944525408 1.54798212,1.57727007 2.70766927,1.57727007 C3.86735642,1.57727007 4.87571397,0.944525408 5.39499888,0.0124077889 L0.0203396648,0.0124077889 Z" id="Fill-1" fill="#FFFFFF" mask="url(#mask-2)"></path>
                </g>
                <g id="Group-6" transform="translate(0.000000, 0.012268)">
                    <mask id="mask-4" fill="white">
                        <use xlink:href="#path-3"></use>
                    </mask>
                    <g id="Clip-5"></g>
                    <path d="M10.9079106,19.5922449 C11.4400223,19.5922449 11.9721341,19.0706095 11.9721341,18.5489741 C11.9721341,14.1152488 15.962838,13.5130417 15.962838,7.85584348 C15.962838,3.53449801 12.3892961,0.0315758951 7.98143017,0.0315758951 C3.57329609,0.0315758951 2.23463687e-05,3.53449801 2.23463687e-05,7.85584348 C2.23463687e-05,13.5130417 3.99072626,14.1152488 3.99072626,18.5489741 C3.99072626,19.0706095 4.52283799,19.5922449 5.05490503,19.5922449 L10.9079106,19.5922449 Z" id="Fill-4" fill="#FFFFFF" mask="url(#mask-4)"></path>
                </g>
                <path d="M11.4400313,21.0389527 C11.4400313,21.3975606 11.140724,21.690975 10.774914,21.690975 L5.18791955,21.690975 C4.8221095,21.690975 4.52284693,21.3975606 4.52284693,21.0389527 C4.52284693,20.6803011 4.8221095,20.3869304 5.18791955,20.3869304 L10.774914,20.3869304 C11.140724,20.3869304 11.4400313,20.6803011 11.4400313,21.0389527" id="Fill-7" fill="#FFFFFF"></path>
                <path d="M11.4400313,23.125411 C11.4400313,23.4840627 11.140724,23.7774333 10.774914,23.7774333 L5.18791955,23.7774333 C4.8221095,23.7774333 4.52284693,23.4840627 4.52284693,23.125411 C4.52284693,22.7668031 4.8221095,22.4733887 5.18791955,22.4733887 L10.774914,22.4733887 C11.140724,22.4733887 11.4400313,22.7668031 11.4400313,23.125411" id="Fill-9" fill="#FFFFFF"></path>
            </g>
        </g>
    </g>
</svg>