<?xml version="1.0" encoding="UTF-8" standalone="no"?>
<svg width="30px" height="30px" viewBox="0 0 30 30" version="1.1" xmlns="http://www.w3.org/2000/svg" xmlns:xlink="http://www.w3.org/1999/xlink">
    <!-- Generator: Sketch 3.8.3 (29802) - http://www.bohemiancoding.com/sketch -->
    <title>acc_users</title>
    <desc>Created with Sketch.</desc>
    <defs></defs>
    <g id="Page-1" stroke="none" stroke-width="1" fill="none" fill-rule="evenodd">
        <g id="acc_users" fill="#FFFFFF">
            <g id="Page-1" transform="translate(2.000000, 7.000000)">
                <path d="M18.0373143,10.5346201 C16.2964286,10.5346201 14.9035714,10.9926471 13.8587429,11.5649975 C15.4841143,12.9390784 16.1801714,14.5425392 16.2964286,14.6568627 L16.4126857,14.8858762 L16.4126857,17.4050245 L25.6984,17.4050245 L25.6984,15.1148897 C25.5821429,15.1148897 23.725,10.5346201 18.0373143,10.5346201 L18.0373143,10.5346201 Z" id="Fill-1"></path>
                <path d="M22.1,4.23656618 C22.1,6.44975245 20.2807429,8.24448529 18.0373143,8.24448529 C15.7942571,8.24448529 13.975,6.44975245 13.975,4.23656618 C13.975,2.02374632 15.7942571,0.22901348 18.0373143,0.22901348 C20.2807429,0.22901348 22.1,2.02374632 22.1,4.23656618" id="Fill-2"></path>
                <path d="M3.52857143,4.23656618 C3.52857143,2.06112132 5.38571429,0.22901348 7.59125714,0.22901348 C9.79642857,0.22901348 11.6535714,2.06112132 11.6535714,4.23656618 C11.6535714,6.41237745 9.79642857,8.24448529 7.59125714,8.24448529 C5.38571429,8.24448529 3.52857143,6.41237745 3.52857143,4.23656618 L3.52857143,4.23656618 Z M7.59125714,10.5346201 C1.90357143,10.5346201 0.0464285714,15.1148897 0.0464285714,15.1148897 L0.0464285714,17.4050245 L15.1357143,17.4050245 L15.1357143,15.1148897 C15.1357143,15.1148897 13.2785714,10.5346201 7.59125714,10.5346201 L7.59125714,10.5346201 Z" id="Fill-3"></path>
            </g>
        </g>
    </g>
</svg>