<?xml version="1.0" encoding="UTF-8" standalone="no"?>
<!-- Created with Inkscape (http://www.inkscape.org/) -->

<svg
   xmlns:dc="http://purl.org/dc/elements/1.1/"
   xmlns:cc="http://creativecommons.org/ns#"
   xmlns:rdf="http://www.w3.org/1999/02/22-rdf-syntax-ns#"
   xmlns:svg="http://www.w3.org/2000/svg"
   xmlns="http://www.w3.org/2000/svg"
   xmlns:sodipodi="http://sodipodi.sourceforge.net/DTD/sodipodi-0.dtd"
   xmlns:inkscape="http://www.inkscape.org/namespaces/inkscape"
   width="24"
   height="24"
   viewBox="0 0 24 24"
   id="svg4211"
   version="1.1"
   inkscape:version="0.91 r13725"
   sodipodi:docname="attachment.svg">
  <defs
     id="defs4213" />
  <sodipodi:namedview
     id="base"
     pagecolor="#ffffff"
     bordercolor="#666666"
     borderopacity="1.0"
     inkscape:pageopacity="0.0"
     inkscape:pageshadow="2"
     inkscape:zoom="4"
     inkscape:cx="-5.9141685"
     inkscape:cy="1.1829933"
     inkscape:document-units="px"
     inkscape:current-layer="layer1"
     showgrid="false"
     units="px"
     inkscape:window-width="956"
     inkscape:window-height="1015"
     inkscape:window-x="0"
     inkscape:window-y="0"
     inkscape:window-maximized="0" />
  <metadata
     id="metadata4216">
    <rdf:RDF>
      <cc:Work
         rdf:about="">
        <dc:format>image/svg+xml</dc:format>
        <dc:type
           rdf:resource="http://purl.org/dc/dcmitype/StillImage" />
        <dc:title></dc:title>
      </cc:Work>
    </rdf:RDF>
  </metadata>
  <g
     inkscape:label="Layer 1"
     inkscape:groupmode="layer"
     id="layer1"
     transform="translate(0,-1028.3622)">
    <path
       style="color:#000000;font-style:normal;font-variant:normal;font-weight:normal;font-stretch:normal;font-size:medium;line-height:normal;font-family:sans-serif;text-indent:0;text-align:start;text-decoration:none;text-decoration-line:none;text-decoration-style:solid;text-decoration-color:#000000;letter-spacing:normal;word-spacing:normal;text-transform:none;direction:ltr;block-progression:tb;writing-mode:lr-tb;baseline-shift:baseline;text-anchor:start;white-space:normal;clip-rule:nonzero;display:inline;overflow:visible;visibility:visible;opacity:1;isolation:auto;mix-blend-mode:normal;color-interpolation:sRGB;color-interpolation-filters:linearRGB;solid-color:#000000;solid-opacity:1;fill:#8499ab;fill-opacity:1;fill-rule:evenodd;stroke:none;stroke-width:1.39999998;stroke-linecap:butt;stroke-linejoin:miter;stroke-miterlimit:4;stroke-dasharray:none;stroke-dashoffset:0;stroke-opacity:1;color-rendering:auto;image-rendering:auto;shape-rendering:auto;text-rendering:auto;enable-background:accumulate"
       d="m 11.837891,1032.9062 c -2.5549714,0.036 -5.0557293,2.1546 -4.978516,5.8126 l 0.09375,4.4062 1.3984375,-0.029 -0.091797,-4.4062 c -0.064305,-3.0465 1.7583744,-4.3572 3.5976564,-4.3829 1.839282,-0.026 3.726128,1.24 3.791016,4.3243 l 0.09375,4.4218 c 0.05105,2.4266 -1.18807,3.3502 -2.322266,3.3653 -1.134196,0.015 -2.386719,-0.8731 -2.386719,-3.2832 l 0,-0.01 -0.09375,-3.5352 c -0.01761,-0.6675 0.147674,-1.0882 0.330078,-1.3222 0.182404,-0.234 0.373238,-0.3049 0.572266,-0.3008 0.398055,0.01 1.021652,0.393 1.060547,1.7461 L 13,1043.123 l 1.400391,-0.041 -0.09766,-3.4082 c -0.05295,-1.8421 -1.152755,-3.0813 -2.433593,-3.1074 -0.64042,-0.013 -1.277337,0.2956 -1.703125,0.8418 -0.425789,0.5462 -0.6491278,1.3042 -0.6250004,2.2188 l 0.091797,3.5078 c 0,2.9516 1.8585285,4.7095 3.8066405,4.6836 1.948113,-0.026 3.76355,-1.8321 3.701172,-4.7969 l -0.0918,-4.4199 c -0.07762,-3.6896 -2.655966,-5.731 -5.210937,-5.6954 z"
       id="path3400"
       inkscape:connector-curvature="0" />
  </g>
</svg>
