<?xml version="1.0" encoding="UTF-8" standalone="no"?>
<svg width="28px" height="28px" viewBox="0 0 28 28" version="1.1" xmlns="http://www.w3.org/2000/svg" xmlns:xlink="http://www.w3.org/1999/xlink">
    <!-- Generator: Sketch 3.8.3 (29802) - http://www.bohemiancoding.com/sketch -->
    <title>admin_diagnostic_tool</title>
    <desc>Created with Sketch.</desc>
    <defs></defs>
    <g id="Page-1" stroke="none" stroke-width="1" fill="none" fill-rule="evenodd">
        <g id="admin_diagnostic_tool">
            <circle id="Oval-7" stroke="#534D64" cx="14" cy="14" r="13"></circle>
            <path d="M6.51953125,18.29088 L6.51953125,9.21418667 C6.51953125,7.45333333 7.61286458,6.65333333 9.06865125,6.66506667 L18.3053446,6.66506667 C20.0395313,6.66506667 20.8544646,7.8 20.8544646,9.05418667 L20.8544646,18.61088 C20.8544646,20.2533333 19.9061979,21 18.3053446,21 L9.06865125,21 C7.47953125,21 6.51953125,19.9866667 6.51953125,18.29088 L6.51953125,18.29088 Z M9.46374458,7.85909333 C8.27697125,7.85909333 7.71462458,8.25333333 7.71462458,9.44842667 L7.71462458,15.0266667 L8.90865125,15.0266667 L10.1028913,12.6375467 L12.9786246,15.9000533 L14.8811313,9.05418667 L17.3995312,15.56 L17.9595313,15.0266667 L19.6604379,15.0266667 L19.6604379,9.60842667 C19.6604379,8.41418667 19.2653446,7.85909333 18.0711046,7.85909333 L9.46374458,7.85909333 Z M17.1595313,17.2999467 L15.0594779,12.6200533 L13.4396379,18.1601067 L10.2637446,14.5466667 L9.62374458,16.2209067 L7.71377125,16.2209067 L7.71377125,18.0557867 C7.71377125,19.2500267 8.26779792,19.8049067 9.46289125,19.8049067 L17.8511579,19.8049067 C19.1044913,19.8049067 19.6595846,19.2500267 19.6595846,18.0557867 L19.6595846,16.2209067 L18.2195846,16.2 L17.1595313,17.2999467 Z" id="Page-1" fill="#5C566C"></path>
        </g>
    </g>
</svg>