<?xml version="1.0" encoding="UTF-8"?>
<svg width="24px" height="24px" viewBox="0 0 24 24" version="1.1" xmlns="http://www.w3.org/2000/svg"
     xmlns:xlink="http://www.w3.org/1999/xlink">
  <title>Paginate Last Icon</title>
  <g id="Page-1" stroke="none" stroke-width="1" fill="none" fill-rule="evenodd">
    <g id="icon_last">
      <rect id="Rectangle-2" stroke="#F5F5F5" x="0.5" y="0.5" width="23" height="23" rx="2"></rect>
      <path d="M11.943,10.932 L11.943,11.632 L6.392,14.53 L6.392,13.298 C6.392,13.2046662 6.4153331,13.1183337 6.462,13.039 C6.5086669,12.9596663 6.58566613,12.8943336 6.693,12.843 L9.234,11.534 C9.45333443,11.4266661 9.69366536,11.342667 9.955,11.282 C9.69366536,11.221333 9.45333443,11.1373339 9.234,11.03 L6.693,9.728 C6.58566613,9.67199972 6.5086669,9.60550039 6.462,9.5285 C6.4153331,9.45149962 6.392,9.3663338 6.392,9.273 L6.392,8.041 L11.943,10.932 Z M18.063,10.932 L18.063,11.632 L12.512,14.53 L12.512,13.298 C12.512,13.2046662 12.5353331,13.1183337 12.582,13.039 C12.6286669,12.9596663 12.7056661,12.8943336 12.813,12.843 L15.354,11.534 C15.5733344,11.4266661 15.8136654,11.342667 16.075,11.282 C15.8136654,11.221333 15.5733344,11.1373339 15.354,11.03 L12.813,9.728 C12.7056661,9.67199972 12.6286669,9.60550039 12.582,9.5285 C12.5353331,9.45149962 12.512,9.3663338 12.512,9.273 L12.512,8.041 L18.063,10.932 Z"
            id="&gt;&gt;" fill="#FFFFFF"></path>
    </g>
  </g>
</svg>