<?xml version="1.0" encoding="UTF-8" standalone="no"?>
<svg width="30px" height="30px" viewBox="0 0 30 30" version="1.1" xmlns="http://www.w3.org/2000/svg" xmlns:xlink="http://www.w3.org/1999/xlink">
    <!-- Generator: Sketch 3.8.3 (29802) - http://www.bohemiancoding.com/sketch -->
    <title>acc_process_autit</title>
    <desc>Created with Sketch.</desc>
    <defs></defs>
    <g id="Page-1" stroke="none" stroke-width="1" fill="none" fill-rule="evenodd">
        <g id="acc_process_autit" fill="#778591">
            <path d="M11.8330667,2.36490667 L9.01493333,1.81493333 L9.31658667,2.69472 C4.43125333,4.79306667 1,9.64810667 1,15.2916267 C1,17.128 1.36992,18.8798933 2.02826667,20.4816 C1.57984,20.8715733 1.29482667,21.4450133 1.29482667,22.0833067 C1.29482667,23.2549333 2.248,24.2081067 3.41962667,24.2081067 C4.59125333,24.2081067 5.54485333,23.2549333 5.54485333,22.0833067 C5.54485333,20.91168 4.59125333,19.95808 3.41962667,19.95808 C3.23317333,19.95808 3.05312,19.98496 2.87989333,20.02976 C2.28981333,18.5633067 1.96,16.96672 1.96,15.28992 C1.96,10.0666667 5.1216,5.57002667 9.62805333,3.6048 L9.94634667,4.52981333 L11.8330667,2.36490667 Z M4.58485333,22.0850133 C4.58485333,22.72672 4.06304,23.2498133 3.41962667,23.2498133 C2.77792,23.2498133 2.25482667,22.72672 2.25482667,22.0850133 C2.25482667,21.4433067 2.77664,20.9197867 3.41962667,20.9197867 C4.06133333,20.9197867 4.58485333,21.4416 4.58485333,22.0850133 L4.58485333,22.0850133 Z M28.26144,17.2730667 C28.3565867,16.6266667 28.4133333,15.9649067 28.4133333,15.2916267 C28.4133333,8.44832 23.3697067,2.76469333 16.8045867,1.75136 C16.6514133,0.728213333 15.76992,-0.05856 14.70624,-0.05856 C13.5346133,-0.05856 12.58144,0.89504 12.58144,2.06666667 C12.58144,3.23829333 13.5346133,4.19146667 14.70624,4.19146667 C15.6530133,4.19146667 16.4581333,3.56810667 16.7316267,2.71008 C22.8013867,3.68330667 27.4533333,8.95306667 27.4533333,15.2933333 C27.4533333,15.8932267 27.4046933,16.4816 27.3232,17.0580267 L26.41312,16.8481067 L27.2549333,19.5949867 L29.2116267,17.4932267 L28.26144,17.2730667 Z M14.70624,3.22976 C14.06496,3.22976 13.54144,2.70666667 13.54144,2.06496 C13.54144,1.42325333 14.0632533,0.899733333 14.70624,0.899733333 C15.3479467,0.899733333 15.8714667,1.42325333 15.8714667,2.06496 C15.8714667,2.70666667 15.3496533,3.22976 14.70624,3.22976 L14.70624,3.22976 Z M25.99328,19.9597867 C24.8216533,19.9597867 23.8680533,20.9133867 23.8680533,22.0850133 C23.8680533,22.6384 24.0830933,23.14144 24.4312533,23.5198933 C22.0914133,26.2817067 18.60128,28.04 14.7079467,28.04 C11.8846933,28.04 9.27477333,27.11328 7.15978667,25.5533867 L7.78826667,24.8382933 L4.97141333,24.2746667 L5.89301333,26.9946667 L6.52490667,26.27488 C8.80970667,27.9832533 11.6414933,29 14.7079467,29 C18.93152,29 22.7079467,27.0765867 25.2248533,24.06304 C25.4629333,24.15648 25.7232,24.2098133 25.9949867,24.2098133 C27.1666133,24.2098133 28.1197867,23.25664 28.1197867,22.0850133 C28.1197867,20.9133867 27.1649067,19.9597867 25.99328,19.9597867 L25.99328,19.9597867 Z M25.99328,23.2498133 C25.3515733,23.2498133 24.8280533,22.72672 24.8280533,22.0850133 C24.8280533,21.4433067 25.3515733,20.9197867 25.99328,20.9197867 C26.6349867,20.9197867 27.15808,21.4433067 27.15808,22.0850133 C27.15808,22.72672 26.6349867,23.2498133 25.99328,23.2498133 L25.99328,23.2498133 Z" id="Page-1-Copy-2"></path>
        </g>
    </g>
</svg>