<?xml version="1.0" encoding="UTF-8" standalone="no"?>
<svg width="28px" height="28px" viewBox="0 0 28 28" version="1.1" xmlns="http://www.w3.org/2000/svg" xmlns:xlink="http://www.w3.org/1999/xlink">
    <!-- Generator: Sketch 3.8.3 (29802) - http://www.bohemiancoding.com/sketch -->
    <title>admin_inbound_email</title>
    <desc>Created with Sketch.</desc>
    <defs></defs>
    <g id="Page-1" stroke="none" stroke-width="1" fill="none" fill-rule="evenodd">
        <g id="admin_inbound_email">
            <circle id="Oval-7" stroke="#534D64" cx="14" cy="14" r="13"></circle>
            <path d="M16.8156533,10.7156533 L13.8,13.7313067 L10.7843467,10.7156533 C10.55,10.4813067 9.62786667,11.4051733 9.86082667,11.6391733 L13.3451733,15.12352 C13.6443467,15.4226933 13.9556533,15.4226933 14.2548267,15.12352 L17.7391733,11.6391733 C17.97352,11.4051733 17.05,10.4826933 16.8156533,10.7156533 L16.8156533,10.7156533 Z M20.95,6.4 L6.65,6.4 C6,6.4 6,6.38648 6,7.05 L6,20.7 C6,22 6,22 7.3,22 L20.3,22 C21.6,22 21.6,22 21.6,20.7 L21.6,7.05 C21.6,6.38648 21.6,6.4 20.95,6.4 L20.95,6.4 Z M20.3,7.7 L20.3,18.1 L16.8291733,18.1 C16.5043467,18.1 16.3486933,18.37352 16.28352,18.50352 C15.5943467,19.54352 14.6722133,19.8822133 13.8,19.8822133 C12.9156533,19.8822133 12.0056533,19.5313867 11.31648,18.50352 C11.2121333,18.3086933 11.0956533,18.1 10.78296,18.1 L7.29861333,18.1 L7.29861333,7.7 L20.3,7.7 Z" id="Page-1" fill="#534D64"></path>
        </g>
    </g>
</svg>