<?xml version="1.0" encoding="UTF-8" standalone="no"?>
<svg width="30px" height="30px" viewBox="0 0 30 30" version="1.1" xmlns="http://www.w3.org/2000/svg" xmlns:xlink="http://www.w3.org/1999/xlink">
    <!-- Generator: Sketch 39.1 (31720) - http://www.bohemiancoding.com/sketch -->
    <title>jotpad_dark</title>
    <desc>Created with Sketch.</desc>
    <defs></defs>
    <g id="Page-1" stroke="none" stroke-width="1" fill="none" fill-rule="evenodd">
        <g id="jotpad_dark" fill="#778591">
            <path d="M12.6363636,14 L7.90909091,14 L7.90909091,15.1818182 L12.6363636,15.1818182 L12.6363636,14 Z M7.90909091,19.9090909 L18.5454545,19.9090909 L18.5454545,18.7272727 L7.90909091,18.7272727 L7.90909091,19.9090909 Z M23.8636364,4.54545455 L15.5909091,12.2272727 L17.3636364,14 L15,14 L15,11.6363636 L23.2727273,3.95454545 L22.6818182,2.77272727 L20.7905152,4.54545455 L3.18181818,4.54545455 L2,5.72727273 L2,27 L3.18181818,28.1818182 L23.2727273,28.1818182 L24.4545455,27 L24.4545455,8.20948485 L26.2272727,6.31818182 L24.4545455,4.54545455 L23.8636364,4.54545455 Z M23.2727273,26.4090909 L22.6818182,27 L3.77272727,27 L3.18181818,26.4090909 L3.18181818,6.31818182 L3.77272727,5.72727273 L19.5212424,5.72727273 L13.8181818,11.0454545 L13.8181818,15.1818182 L17.9545455,15.1818182 L23.2727273,9.47875758 L23.2727273,26.4090909 Z M25.6363636,1 L24.4545455,1 L23.2727273,2.18181818 L26.8181818,5.72727273 L28,4.54545455 L28,3.36363636 L25.6363636,1 Z M7.90909091,17.5454545 L18.5454545,17.5454545 L18.5454545,16.3636364 L7.90909091,16.3636364 L7.90909091,17.5454545 Z" id="Page-1"></path>
        </g>
    </g>
</svg>