<?xml version="1.0" encoding="UTF-8" standalone="no"?>
<svg width="30px" height="30px" viewBox="0 0 30 30" version="1.1" xmlns="http://www.w3.org/2000/svg" xmlns:xlink="http://www.w3.org/1999/xlink">
    <!-- Generator: Sketch 3.8.3 (29802) - http://www.bohemiancoding.com/sketch -->
    <title>acc_workflow</title>
    <desc>Created with Sketch.</desc>
    <defs></defs>
    <g id="Page-1" stroke="none" stroke-width="1" fill="none" fill-rule="evenodd">
        <g id="acc_workflow" fill="#778591">
            <path d="M26.9413688,21.2323618 L26.9413688,13.4739538 L19.1824158,13.4739538 C18.5612201,11.7324261 16.9155963,10.481316 14.9680931,10.481316 C13.0205899,10.481316 11.3749661,11.7346057 10.7537703,13.4739538 L5.98800011,13.4739538 L5.98800011,8.70818361 C7.72898294,8.08644295 8.98063789,6.44081912 8.98063789,4.49331594 C8.98063789,2.01997601 6.96883551,0 4.48732195,0 C2.00526348,0 0,2.01180238 0,4.49331594 C0,6.44081912 1.25383458,8.08644295 2.99263778,8.70818361 L2.99263778,16.4665916 L10.7515907,16.4665916 C11.3727864,18.2075744 13.0184103,19.4592294 14.9659135,19.4592294 C16.9134166,19.4592294 18.5590405,18.2053948 19.1802362,16.4665916 L23.9465513,16.4665916 L23.9465513,21.2323618 C22.2050236,21.8541025 20.9533687,23.4991814 20.9533687,25.4466846 C20.9533687,27.9200245 22.965171,29.9400005 25.4466846,29.9400005 C27.9287431,29.9400005 29.9405454,27.9287431 29.9405454,25.4466846 C29.9340065,23.4910078 28.680172,21.845384 26.9413688,21.2323618 L26.9413688,21.2323618 Z M4.49549558,2.99263778 C5.31721768,2.99263778 5.99617374,3.66342021 5.99617374,4.49331594 C5.99617374,5.32375658 5.32593621,5.9939941 4.49549558,5.9939941 C3.67377348,5.9939941 2.99481742,5.32375658 2.99481742,4.49331594 C2.99481742,3.66342021 3.66559985,2.99263778 4.49549558,2.99263778 L4.49549558,2.99263778 Z M14.9680931,16.4665916 C14.146371,16.4665916 13.4674149,15.7958092 13.4674149,14.9659135 C13.4674149,14.1441914 14.1381974,13.4652353 14.9680931,13.4652353 C15.7898152,13.4652353 16.4687712,14.1360177 16.4687712,14.9659135 C16.4687712,15.7876356 15.7898152,16.4665916 14.9680931,16.4665916 L14.9680931,16.4665916 Z M25.4488642,26.9391891 C24.627687,26.9391891 23.9481861,26.2684067 23.9481861,25.438511 C23.9481861,24.6080703 24.6189685,23.9378328 25.4488642,23.9378328 C26.2705863,23.9378328 26.9495424,24.6080703 26.9495424,25.438511 C26.9495424,26.2684067 26.2705863,26.9391891 25.4488642,26.9391891 L25.4488642,26.9391891 Z" id="Page-1-Copy-2"></path>
        </g>
    </g>
</svg>