<?xml version="1.0" encoding="UTF-8" standalone="no"?>
<svg width="28px" height="28px" viewBox="0 0 28 28" version="1.1" xmlns="http://www.w3.org/2000/svg" xmlns:xlink="http://www.w3.org/1999/xlink">
    <!-- Generator: Sketch 3.8.3 (29802) - http://www.bohemiancoding.com/sketch -->
    <title>admin_import_wizard</title>
    <desc>Created with Sketch.</desc>
    <defs></defs>
    <g id="Page-1" stroke="none" stroke-width="1" fill="none" fill-rule="evenodd">
        <g id="admin_import_wizard">
            <circle id="Oval-7" stroke="#534D64" cx="14" cy="14" r="13"></circle>
            <g id="Page-1" transform="translate(5.519531, 6.000000)" fill="#5C566C">
                <polygon id="Fill-1" points="5.64701538 9.10670769 5.64701538 10.0797538 9.98646154 10.0797538 9.98646154 5.73932308 9.0144 5.73932308 9.0144 8.40763077 0.781784615 0.175015385 0.0942769231 0.862523077 8.33747692 9.10670769"></polygon>
                <path d="M9.41243077,3.10006154 C8.85390769,3.10006154 8.30006154,3.1712 7.7664,3.31052308 L8.01255385,4.25181538 C8.46547692,4.13366154 8.93661538,4.07310769 9.41243077,4.07310769 C12.4566154,4.07310769 14.9326769,6.54892308 14.9326769,9.59335385 C14.9326769,12.6365538 12.4558769,15.1133538 9.41243077,15.1133538 C6.36923077,15.1133538 3.89218462,12.6375385 3.89218462,9.59335385 C3.89218462,9.10473846 3.95569231,8.62104615 4.08172308,8.15581538 L3.1424,7.90276923 C2.99421538,8.45095385 2.92012308,9.02030769 2.92012308,9.59433846 C2.92012308,13.1741538 5.83261538,16.0866462 9.41243077,16.0866462 C12.9932308,16.0866462 15.9057231,13.1741538 15.9057231,9.59433846 C15.9057231,6.01255385 12.9932308,3.10006154 9.41243077,3.10006154 L9.41243077,3.10006154 Z" id="Fill-2"></path>
            </g>
        </g>
    </g>
</svg>