<?xml version="1.0" encoding="UTF-8" standalone="no"?>
<svg width="36px" height="95px" viewBox="0 0 36 95" version="1.1" xmlns="http://www.w3.org/2000/svg" xmlns:xlink="http://www.w3.org/1999/xlink">
    <!-- Generator: Sketch 3.8.3 (29802) - http://www.bohemiancoding.com/sketch -->
    <title>login_bg</title>
    <desc>Created with Sketch.</desc>
    <defs></defs>
    <g id="Page-1" stroke="none" stroke-width="1" fill="none" fill-rule="evenodd">
        <g id="login_bg">
            <ellipse id="Oval-5" stroke="#C4C3C7" cx="18" cy="17" rx="15" ry="15"></ellipse>
            <g id="Group" transform="translate(9.000000, 7.000000)" fill="#C4C3C7">
                <path d="M8.99957143,1.74317143 C6.98185714,1.74317143 5.33957143,3.38545714 5.33957143,5.40317143 C5.33957143,7.42174286 6.98185714,9.06317143 8.99957143,9.06317143 C11.0172857,9.06317143 12.6595714,7.42174286 12.6595714,5.40317143 C12.6595714,3.38545714 11.0172857,1.74317143 8.99957143,1.74317143 M8.99957143,10.2777429 C6.31157143,10.2777429 4.125,8.09117143 4.125,5.40317143 C4.125,2.71517143 6.31157143,0.5286 8.99957143,0.5286 C11.6875714,0.5286 13.8741429,2.71517143 13.8741429,5.40317143 C13.8741429,8.09117143 11.6875714,10.2777429 8.99957143,10.2777429" id="Fill-3"></path>
                <path d="M1.79837143,16.1103429 L16.2000857,16.1103429 C15.2632286,12.9594857 12.3455143,10.7429143 8.99922857,10.7429143 C5.6538,10.7429143 2.73522857,12.9594857 1.79837143,16.1103429 L1.79837143,16.1103429 Z M17.7078,17.3249143 L0.290657143,17.3249143 L0.429514286,16.6032 C1.21722857,12.5034857 4.82151429,9.52834286 8.99922857,9.52834286 C13.1769429,9.52834286 16.7803714,12.5034857 17.5689429,16.6032 L17.7078,17.3249143 Z" id="Fill-5"></path>
            </g>
            <ellipse id="Oval-5" stroke="#C4C3C7" cx="18" cy="77" rx="15" ry="15"></ellipse>
            <path d="M12.436,77.173 C12.3279995,77.2390003 12.2185006,77.2944998 12.1075,77.3395 C11.9964994,77.3845002 11.8840006,77.4189999 11.77,77.443 C11.9920011,77.4790002 12.2139989,77.5659993 12.436,77.704 L13.813,78.523 L13.237,79.504 L11.86,78.685 C11.7519995,78.6189997 11.6500005,78.5515003 11.554,78.4825 C11.4579995,78.4134997 11.3740004,78.3370004 11.302,78.253 C11.3740004,78.4630011 11.41,78.6909988 11.41,78.937 L11.41,80.557 L10.231,80.557 L10.231,78.955 C10.231,78.8349994 10.2384999,78.7165006 10.2535,78.5995 C10.2685001,78.4824994 10.2939998,78.3730005 10.33,78.271 C10.1919993,78.4270008 10.0120011,78.5649994 9.79,78.685 L8.422,79.486 L7.837,78.505 L9.214,77.704 C9.32800057,77.6379997 9.44049945,77.5825002 9.5515,77.5375 C9.66250056,77.4924998 9.77499943,77.4610001 9.889,77.443 C9.77499943,77.4249999 9.66100057,77.3920002 9.547,77.344 C9.43299943,77.2959998 9.32200054,77.2390003 9.214,77.173 L7.837,76.354 L8.413,75.382 L9.79,76.201 C10.0120011,76.3210006 10.1949993,76.4619992 10.339,76.624 C10.2669996,76.419999 10.231,76.1950012 10.231,75.949 L10.231,74.32 L11.41,74.32 L11.41,75.931 C11.41,76.0510006 11.4025001,76.1694994 11.3875,76.2865 C11.3724999,76.4035006 11.3470002,76.5129995 11.311,76.615 C11.3830004,76.5309996 11.4654995,76.4560003 11.5585,76.39 C11.6515005,76.3239997 11.7519995,76.2610003 11.86,76.201 L13.228,75.4 L13.813,76.372 L12.436,77.173 Z M20.086,77.173 C19.9779995,77.2390003 19.8685006,77.2944998 19.7575,77.3395 C19.6464994,77.3845002 19.5340006,77.4189999 19.42,77.443 C19.6420011,77.4790002 19.8639989,77.5659993 20.086,77.704 L21.463,78.523 L20.887,79.504 L19.51,78.685 C19.4019995,78.6189997 19.3000005,78.5515003 19.204,78.4825 C19.1079995,78.4134997 19.0240004,78.3370004 18.952,78.253 C19.0240004,78.4630011 19.06,78.6909988 19.06,78.937 L19.06,80.557 L17.881,80.557 L17.881,78.955 C17.881,78.8349994 17.8884999,78.7165006 17.9035,78.5995 C17.9185001,78.4824994 17.9439998,78.3730005 17.98,78.271 C17.8419993,78.4270008 17.6620011,78.5649994 17.44,78.685 L16.072,79.486 L15.487,78.505 L16.864,77.704 C16.9780006,77.6379997 17.0904994,77.5825002 17.2015,77.5375 C17.3125006,77.4924998 17.4249994,77.4610001 17.539,77.443 C17.4249994,77.4249999 17.3110006,77.3920002 17.197,77.344 C17.0829994,77.2959998 16.9720005,77.2390003 16.864,77.173 L15.487,76.354 L16.063,75.382 L17.44,76.201 C17.6620011,76.3210006 17.8449993,76.4619992 17.989,76.624 C17.9169996,76.419999 17.881,76.1950012 17.881,75.949 L17.881,74.32 L19.06,74.32 L19.06,75.931 C19.06,76.0510006 19.0525001,76.1694994 19.0375,76.2865 C19.0224999,76.4035006 18.9970002,76.5129995 18.961,76.615 C19.0330004,76.5309996 19.1154995,76.4560003 19.2085,76.39 C19.3015005,76.3239997 19.4019995,76.2610003 19.51,76.201 L20.878,75.4 L21.463,76.372 L20.086,77.173 Z M27.736,77.173 C27.6279995,77.2390003 27.5185006,77.2944998 27.4075,77.3395 C27.2964994,77.3845002 27.1840006,77.4189999 27.07,77.443 C27.2920011,77.4790002 27.5139989,77.5659993 27.736,77.704 L29.113,78.523 L28.537,79.504 L27.16,78.685 C27.0519995,78.6189997 26.9500005,78.5515003 26.854,78.4825 C26.7579995,78.4134997 26.6740004,78.3370004 26.602,78.253 C26.6740004,78.4630011 26.71,78.6909988 26.71,78.937 L26.71,80.557 L25.531,80.557 L25.531,78.955 C25.531,78.8349994 25.5384999,78.7165006 25.5535,78.5995 C25.5685001,78.4824994 25.5939998,78.3730005 25.63,78.271 C25.4919993,78.4270008 25.3120011,78.5649994 25.09,78.685 L23.722,79.486 L23.137,78.505 L24.514,77.704 C24.6280006,77.6379997 24.7404994,77.5825002 24.8515,77.5375 C24.9625006,77.4924998 25.0749994,77.4610001 25.189,77.443 C25.0749994,77.4249999 24.9610006,77.3920002 24.847,77.344 C24.7329994,77.2959998 24.6220005,77.2390003 24.514,77.173 L23.137,76.354 L23.713,75.382 L25.09,76.201 C25.3120011,76.3210006 25.4949993,76.4619992 25.639,76.624 C25.5669996,76.419999 25.531,76.1950012 25.531,75.949 L25.531,74.32 L26.71,74.32 L26.71,75.931 C26.71,76.0510006 26.7025001,76.1694994 26.6875,76.2865 C26.6724999,76.4035006 26.6470002,76.5129995 26.611,76.615 C26.6830004,76.5309996 26.7654995,76.4560003 26.8585,76.39 C26.9515005,76.3239997 27.0519995,76.2610003 27.16,76.201 L28.528,75.4 L29.113,76.372 L27.736,77.173 Z" id="***" fill="#C4C3C7"></path>
        </g>
    </g>
</svg>