<?xml version="1.0" encoding="UTF-8" standalone="no"?>
<svg width="28px" height="28px" viewBox="0 0 28 28" version="1.1" xmlns="http://www.w3.org/2000/svg" xmlns:xlink="http://www.w3.org/1999/xlink">
    <!-- Generator: Sketch 3.8.3 (29802) - http://www.bohemiancoding.com/sketch -->
    <title>admin_aos_settings</title>
    <desc>Created with Sketch.</desc>
    <defs></defs>
    <g id="Page-1" stroke="none" stroke-width="1" fill="none" fill-rule="evenodd">
        <g id="admin_aos_settings">
            <circle id="Oval-7" stroke="#534D64" cx="14" cy="14" r="13"></circle>
            <path d="M8.74175,15.4935 L8.13425,13.698 C8.08924978,13.5839994 8.04125026,13.4497508 7.99025,13.29525 C7.93924975,13.1407492 7.88825026,12.9735009 7.83725,12.7935 C7.79224978,12.9765009 7.74425026,13.1459992 7.69325,13.302 C7.64224975,13.4580008 7.59425023,13.5929994 7.54925,13.707 L6.94625,15.4935 L8.74175,15.4935 Z M11.15825,18 L9.97925,18 C9.84724934,18 9.74075041,17.9692503 9.65975,17.90775 C9.5787496,17.8462497 9.51725021,17.7675005 9.47525,17.6715 L9.08825,16.5285 L6.59525,16.5285 L6.20825,17.6715 C6.17524984,17.7555004 6.11600043,17.8312497 6.0305,17.89875 C5.94499957,17.9662503 5.83925063,18 5.71325,18 L4.52525,18 L7.06325,11.4435 L8.62025,11.4435 L11.15825,18 Z M18.11075,14.7195 C18.11075,15.1935024 18.0290008,15.634498 17.8655,16.0425 C17.7019992,16.450502 17.4717515,16.8052485 17.17475,17.10675 C16.8777485,17.4082515 16.5200021,17.6444991 16.1015,17.8155 C15.6829979,17.9865009 15.2187526,18.072 14.70875,18.072 C14.1987475,18.072 13.7337521,17.9865009 13.31375,17.8155 C12.8937479,17.6444991 12.5345015,17.4082515 12.236,17.10675 C11.9374985,16.8052485 11.7065008,16.450502 11.543,16.0425 C11.3794992,15.634498 11.29775,15.1935024 11.29775,14.7195 C11.29775,14.2454976 11.3794992,13.804502 11.543,13.3965 C11.7065008,12.988498 11.9374985,12.6345015 12.236,12.3345 C12.5345015,12.0344985 12.8937479,11.7990009 13.31375,11.628 C13.7337521,11.4569991 14.1987475,11.3715 14.70875,11.3715 C15.2187526,11.3715 15.6829979,11.4577491 16.1015,11.63025 C16.5200021,11.8027509 16.8777485,12.0389985 17.17475,12.339 C17.4717515,12.6390015 17.7019992,12.992998 17.8655,13.401 C18.0290008,13.809002 18.11075,14.2484976 18.11075,14.7195 L18.11075,14.7195 Z M16.55375,14.7195 C16.55375,14.3954984 16.5117504,14.1037513 16.42775,13.84425 C16.3437496,13.5847487 16.2230008,13.3650009 16.0655,13.185 C15.9079992,13.0049991 15.7152511,12.8670005 15.48725,12.771 C15.2592489,12.6749995 14.9997515,12.627 14.70875,12.627 C14.4147485,12.627 14.1530011,12.6749995 13.9235,12.771 C13.6939989,12.8670005 13.5005008,13.0049991 13.343,13.185 C13.1854992,13.3650009 13.0647504,13.5847487 12.98075,13.84425 C12.8967496,14.1037513 12.85475,14.3954984 12.85475,14.7195 C12.85475,15.0465016 12.8967496,15.3397487 12.98075,15.59925 C13.0647504,15.8587513 13.1854992,16.0784991 13.343,16.2585 C13.5005008,16.4385009 13.6939989,16.5757495 13.9235,16.67025 C14.1530011,16.7647505 14.4147485,16.812 14.70875,16.812 C14.9997515,16.812 15.2592489,16.7647505 15.48725,16.67025 C15.7152511,16.5757495 15.9079992,16.4385009 16.0655,16.2585 C16.2230008,16.0784991 16.3437496,15.8587513 16.42775,15.59925 C16.5117504,15.3397487 16.55375,15.0465016 16.55375,14.7195 L16.55375,14.7195 Z M22.62875,12.7755 C22.5837498,12.8475004 22.5365002,12.9014998 22.487,12.9375 C22.4374998,12.9735002 22.3737504,12.9915 22.29575,12.9915 C22.2267497,12.9915 22.1525004,12.9697502 22.073,12.92625 C21.9934996,12.8827498 21.9035005,12.8340003 21.803,12.78 C21.7024995,12.7259997 21.5877506,12.6772502 21.45875,12.63375 C21.3297494,12.5902498 21.1827508,12.5685 21.01775,12.5685 C20.7327486,12.5685 20.5205007,12.6292494 20.381,12.75075 C20.2414993,12.8722506 20.17175,13.036499 20.17175,13.2435 C20.17175,13.3755007 20.2137496,13.4849996 20.29775,13.572 C20.3817504,13.6590004 20.4919993,13.7339997 20.6285,13.797 C20.7650007,13.8600003 20.9209991,13.9177497 21.0965,13.97025 C21.2720009,14.0227503 21.4512491,14.0812497 21.63425,14.14575 C21.8172509,14.2102503 21.9964991,14.2859996 22.172,14.373 C22.3475009,14.4600004 22.5034993,14.5709993 22.64,14.706 C22.7765007,14.8410007 22.8867496,15.005249 22.97075,15.19875 C23.0547504,15.392251 23.09675,15.6254986 23.09675,15.8985 C23.09675,16.2015015 23.0442505,16.4849987 22.93925,16.749 C22.8342495,17.0130013 22.682001,17.243249 22.4825,17.43975 C22.282999,17.636251 22.0370015,17.7907494 21.7445,17.90325 C21.4519985,18.0157506 21.1197519,18.072 20.74775,18.072 C20.543749,18.072 20.3360011,18.0510002 20.1245,18.009 C19.9129989,17.9669998 19.708251,17.9077504 19.51025,17.83125 C19.312249,17.7547496 19.1262509,17.6640005 18.95225,17.559 C18.7782491,17.4539995 18.6267506,17.3370006 18.49775,17.208 L18.94775,16.497 C18.9837502,16.4459997 19.0309997,16.4032502 19.0895,16.36875 C19.1480003,16.3342498 19.2117497,16.317 19.28075,16.317 C19.3707504,16.317 19.4614995,16.3454997 19.553,16.4025 C19.6445005,16.4595003 19.7479994,16.5224997 19.8635,16.5915 C19.9790006,16.6605003 20.1117492,16.7234997 20.26175,16.7805 C20.4117507,16.8375003 20.588749,16.866 20.79275,16.866 C21.0687514,16.866 21.2832492,16.8052506 21.43625,16.68375 C21.5892508,16.5622494 21.66575,16.3695013 21.66575,16.1055 C21.66575,15.9524992 21.6237504,15.8280005 21.53975,15.732 C21.4557496,15.6359995 21.3455007,15.5565003 21.209,15.4935 C21.0724993,15.4304997 20.9172509,15.3750002 20.74325,15.327 C20.5692491,15.2789998 20.3907509,15.2257503 20.20775,15.16725 C20.0247491,15.1087497 19.8462509,15.0367504 19.67225,14.95125 C19.4982491,14.8657496 19.3430007,14.7532507 19.2065,14.61375 C19.0699993,14.4742493 18.9597504,14.300251 18.87575,14.09175 C18.7917496,13.883249 18.74975,13.6260015 18.74975,13.32 C18.74975,13.0739988 18.7992495,12.8340012 18.89825,12.6 C18.9972505,12.3659988 19.142749,12.1575009 19.33475,11.9745 C19.526751,11.7914991 19.7622486,11.6452505 20.04125,11.53575 C20.3202514,11.4262495 20.6397482,11.3715 20.99975,11.3715 C21.200751,11.3715 21.396499,11.3872498 21.587,11.41875 C21.777501,11.4502502 21.9582491,11.4967497 22.12925,11.55825 C22.3002509,11.6197503 22.4599993,11.6932496 22.6085,11.77875 C22.7570007,11.8642504 22.8897494,11.9609995 23.00675,12.069 L22.62875,12.7755 Z" id="AOS" fill="#5C566C"></path>
        </g>
    </g>
</svg>