<?xml version="1.0" encoding="utf-8"?>
<svg version="1.1" id="Layer_1" xmlns="http://www.w3.org/2000/svg" xmlns:xlink="http://www.w3.org/1999/xlink" x="0px"
     y="0px"
     viewBox="0 0 11.1 11.1" style="enable-background:new 0 0 11.1 11.1;" xml:space="preserve">
    <title>Pencil Icon</title>
  <g id="Group" transform="translate(0.937500, 0.531250)">
			<g id="Group-3" transform="translate(7.487194, 0.827696)">
				<g id="Clip-2">
				</g>
        <defs>
					<filter id="Adobe_OpacityMaskFilter" filterUnits="userSpaceOnUse" x="-1.3" y="-1.4" width="4"
                  height="3.9">
						<feColorMatrix type="matrix" values="1 0 0 0 0  0 1 0 0 0  0 0 1 0 0  0 0 0 1 0"/>
					</filter>
				</defs>
        <mask maskUnits="userSpaceOnUse" x="-1.3" y="-1.4" width="4" height="3.9" id="mask-2_1_">
					<g class="st0">
						<polygon id="path-1_1_" class="st1"
                     points="2.7,2.5 2.7,-1.4 -1.3,-1.4 -1.3,2.5 						"/>
					</g>
				</mask>
        <path id="Fill-1" class="st2" d="M0-1.3c-0.2,0.1-0.6,0.4-0.9,0.7l-0.5,0.5l1.3,1.3c0.7,0.7,1.4,1.3,1.5,1.3
					c0.4,0,1.3-1.2,1.3-1.6c0-0.5-1.4-2.1-1.9-2.2C0.5-1.4,0.2-1.4,0-1.3"/>
			</g>
    <path id="Fill-4" class="st1" d="M1,5.9l1.3,1.3l1.3,1.3l1.9-1.8c1.1-1,2.1-2,2.2-2.2c0.2-0.3,0-0.6-1-1.7
				C6.1,2.1,5.5,1.6,5.4,1.6c-0.1,0-1.1,1-2.2,2.2L1,5.9z"/>
    <g id="Group-8" transform="translate(0.417303, 8.217068)">
				<g id="Clip-7">
				</g>
      <defs>
					<filter id="Adobe_OpacityMaskFilter_1_" filterUnits="userSpaceOnUse" x="-1.4" y="-1.4" width="3.8"
                  height="3.8">
						<feColorMatrix type="matrix" values="1 0 0 0 0  0 1 0 0 0  0 0 1 0 0  0 0 0 1 0"/>
					</filter>
				</defs>
      <mask maskUnits="userSpaceOnUse" x="-1.4" y="-1.4" width="3.8" height="3.8" id="mask-4_1_">
					<g class="st3">
						<polygon id="path-3_1_" class="st1"
                     points="2.4,2.4 -1.4,2.4 -1.4,-1.4 2.4,-1.4 						"/>
					</g>
				</mask>
      <path id="Fill-6" class="st4"
            d="M-0.9,0.5c-0.7,2.2-0.8,2.2,1.7,1.3l1.6-0.5L1.1-0.1l-1.4-1.3L-0.9,0.5z"/>
			</g>
		</g>
</svg>
