<?xml version="1.0" encoding="UTF-8" standalone="no"?>
<svg width="28px" height="28px" viewBox="0 0 28 28" version="1.1" xmlns="http://www.w3.org/2000/svg" xmlns:xlink="http://www.w3.org/1999/xlink">
    <!-- Generator: Sketch 3.8.3 (29802) - http://www.bohemiancoding.com/sketch -->
    <title>admin_repair</title>
    <desc>Created with Sketch.</desc>
    <defs></defs>
    <g id="Page-1" stroke="none" stroke-width="1" fill="none" fill-rule="evenodd">
        <g id="admin_repair">
            <circle id="Oval-7" stroke="#534D64" cx="14" cy="14" r="13"></circle>
            <path d="M8.12921272,16.815384 L13.2259594,12.346264 C12.8959327,10.9711173 13.3300661,9.45794396 14.4617994,8.44866396 C15.7484127,7.31863729 17.5574794,7.19618396 18.9833994,7.97954396 L17.0700127,9.64951729 L18.7933194,11.6328773 L20.7049994,9.94626396 C21.3151327,11.4594373 20.9326261,13.2337306 19.6451594,14.3646106 C18.5142794,15.372824 16.9667594,15.5995973 15.6451594,15.077144 L10.5458527,19.546264 C9.78169272,20.2078106 8.63331939,20.1378373 7.97347939,19.389464 C7.31257272,18.641944 7.38083939,17.477144 8.12921272,16.815384 L8.12921272,16.815384 Z M9.13849272,17.4063173 C8.82595939,17.667864 8.80846605,18.120344 9.06830605,18.4328773 C9.33006605,18.7279173 9.79833272,18.7637573 10.0959327,18.4853573 C10.3909727,18.2244506 10.4259594,17.7719706 10.1633461,17.4596506 C9.88665272,17.1637573 9.43417272,17.129624 9.13849272,17.4063173 L9.13849272,17.4063173 Z" id="Page-1" fill="#5C566C"></path>
        </g>
    </g>
</svg>