<?xml version="1.0" encoding="utf-8"?>
<svg width="17px" height="17px" version="1.1" id="Layer_1" xmlns="http://www.w3.org/2000/svg" xmlns:xlink="http://www.w3.org/1999/xlink" x="0px"
     y="0px"
     viewBox="0 0 14.4 15" style="enable-background:new 0 0 14.4 15;" xml:space="preserve">
  <g>
	<g>
		<path d="M12.6,2.3L10.9,3c-0.5-0.4-1.1-0.7-1.7-1L9.1,0.2C8.5,0.1,7.9,0,7.2,0
			C6.6,0,6,0.1,5.4,0.2L5.2,2C4.6,2.2,4,2.6,3.5,3L1.8,2.3C1,3.1,0.3,4.2,0,5.4l1.5,1.1c-0.1,0.3-0.1,0.6-0.1,1c0,0.3,0,0.6,0.1,1
			L0,9.5c0.3,1.2,1,2.3,1.8,3.2L3.5,12c0.5,0.4,1.1,0.7,1.7,1l0.2,1.8C5.9,14.9,6.6,15,7.2,15c0.6,0,1.2-0.1,1.8-0.2L9.2,13
			c0.6-0.2,1.2-0.6,1.7-1l1.7,0.7c0.8-0.9,1.5-2,1.8-3.2L13,8.5C13,8.2,13,7.9,13,7.5c0-0.3,0-0.6-0.1-1l1.5-1.1
			C14.1,4.2,13.5,3.1,12.6,2.3L12.6,2.3z M7.2,10.8c-1.8,0-3.3-1.5-3.3-3.3s1.5-3.3,3.3-3.3s3.3,1.5,3.3,3.3S9.1,10.8,7.2,10.8z"/>
	</g>
</g>
</svg>
