<?xml version="1.0" encoding="UTF-8"?>
<svg width="24px" height="24px" viewBox="0 0 24 24" version="1.1" xmlns="http://www.w3.org/2000/svg"
     xmlns:xlink="http://www.w3.org/1999/xlink">
  <title>Paginate First Icon</title>
  <g id="Page-1" stroke="none" stroke-width="1" fill="none" fill-rule="evenodd">
    <g id="icon_first">
      <rect id="Rectangle-2" stroke="#F5F5F5" x="0.5" y="0.5" width="23" height="23" rx="2"></rect>
      <path d="M8.646,11.03 C8.42666557,11.1373339 8.18633464,11.221333 7.925,11.282 C8.18633464,11.342667 8.42666557,11.4266661 8.646,11.534 L11.187,12.843 C11.2943339,12.8943336 11.3713331,12.9596663 11.418,13.039 C11.4646669,13.1183337 11.488,13.2046662 11.488,13.298 L11.488,14.53 L5.937,11.632 L5.937,10.932 L11.488,8.041 L11.488,9.273 C11.488,9.3663338 11.4646669,9.45149962 11.418,9.5285 C11.3713331,9.60550039 11.2943339,9.67199972 11.187,9.728 L8.646,11.03 Z M14.766,11.03 C14.5466656,11.1373339 14.3063346,11.221333 14.045,11.282 C14.3063346,11.342667 14.5466656,11.4266661 14.766,11.534 L17.307,12.843 C17.4143339,12.8943336 17.4913331,12.9596663 17.538,13.039 C17.5846669,13.1183337 17.608,13.2046662 17.608,13.298 L17.608,14.53 L12.057,11.632 L12.057,10.932 L17.608,8.041 L17.608,9.273 C17.608,9.3663338 17.5846669,9.45149962 17.538,9.5285 C17.4913331,9.60550039 17.4143339,9.67199972 17.307,9.728 L14.766,11.03 Z"
            id="&lt;&lt;" fill="#FFFFFF"></path>
    </g>
  </g>
</svg>