<?xml version="1.0" standalone="no"?> 
<!DOCTYPE svg PUBLIC "-//W3C//DTD SVG 1.1//EN" "http://www.w3.org/Graphics/SVG/1.1/DTD/svg11.dtd" >
<svg xmlns="http://www.w3.org/2000/svg">
<defs>
  <font id="suitepicon" horiz-adv-x="1365.3334">
    <font-face font-family="suitepicon"
      units-per-em="1365.3334" ascent="1365.3334"
      descent="0" />
    <missing-glyph horiz-adv-x="0" />
    <glyph glyph-name="action-above"
      unicode="&#xF101;"
      horiz-adv-x="1365.3334" d=" M0 334.0989749800924L1365.3334 334.0989749800924L682.6667 1031.2344250199076zM0 334.0989749800924" />
    <glyph glyph-name="action-add"
      unicode="&#xF102;"
      horiz-adv-x="1365.3334" d=" M993.8542151947022 769.7604535859577L993.8542151947022 632.8750309020996L765.7083707214356 632.8750309020996L765.7083707214356 387.4687682527058L610.3281551345113 387.4687682527058L610.3281551345113 632.8750309020996L383.4166853881836 632.8750309020996L383.4166853881836 769.7604535859577L610.3281551345113 769.7604535859577L610.3281551345113 1013.937549508667L765.7083707214356 1013.937549508667L765.7083707214356 769.7604535859577zM683.348992033315 1366.015692033315C502.3021071931356 1366.015692033315 328.6510573807475 1294.083396520996 200.6302177963969 1166.0677649368997C72.614587545634 1038.0469253525491 0.682292033315 864.3958755401611 0.682292033315 683.3489920333151C0.682292033315 502.3021071931355 72.614587545634 328.6458493804933 200.6302177963969 200.6302177963969C328.6510573807475 72.6093782120463 502.3021071931356 0.682292033315 683.348992033315 0.682292033315C864.3958755401611 0.682292033315 1038.0469253525494 72.6093782120463 1166.0677649368997 200.6302177963969C1294.083396520996 328.6458493804933 1366.0156920333152 502.3021071931355 1366.0156920333152 683.3489920333151C1366.0156920333152 864.3958755401611 1294.083396520996 1038.0469253525491 1166.0677649368997 1166.0677649368997C1038.0469253525494 1294.083396520996 864.3958755401611 1366.015692033315 683.348992033315 1366.015692033315zM683.348992033315 1321.9688138825886C852.729208303833 1321.9688138825886 1015.156300234843 1254.6927692642923 1134.927138083028 1134.9219300827738C1254.6979785978801 1015.1510909012552 1321.9740232161764 852.729208303833 1321.9740232161764 683.3489920333151C1321.9740232161764 513.9687744294636 1254.6979785978801 351.5468918320414 1134.927138083028 231.7708446502686C1015.156300234843 112.00000546875 852.729208303833 44.7239608504538 683.348992033315 44.7239608504538C513.9687744294637 44.7239608504538 351.5468918320414 112.00000546875 231.7708446502686 231.7708446502686C112.00000546875 351.5468918320414 44.7239608504537 513.9687744294636 44.7239608504537 683.3489920333151C44.7239608504537 852.729208303833 112.00000546875 1015.1510909012552 231.7708446502686 1134.9219300827738C351.5468918320414 1254.6927692642923 513.9687744294637 1321.9688138825886 683.348992033315 1321.9688138825886zM683.348992033315 1321.9688138825886" />
    <glyph glyph-name="action-alerts-small"
      unicode="&#xF103;"
      horiz-adv-x="1365.3334" d=" M682.6667 1365.3334C473.1093977677103 1365.3334 297.5937638642781 1192.9271409150595 297.5937638642781 982.7812986540324C297.5937638642781 806.6146233854777 260.1093873673197 725.0677434036967 217.5885519577738 651.0885731247661C175.0677165482279 577.1094028458353 116.479172354126 502.6302325424906 107.9635466049906 379.8854345490925L102.6302130112406 303.0520974641315L501.8646085051066 303.0520974641315L501.8646085051066 179.9270914521687C501.8646085051066 81.1770866303914 584.0573205184224 0 682.6667 0C781.2812888151653 0 863.4687914948933 81.1770866303914 863.4687914948933 179.9270914521687L863.4687914948933 303.0520974641315L1262.7031869887594 303.0520974641315L1257.3698533950094 379.8854345490925C1248.8594356461283 502.6302325424906 1190.2708914520263 577.1094028458353 1147.7500560424805 651.0885731247661C1105.2344286331888 725.0677434036967 1067.744844135976 806.6146233854777 1067.744844135976 982.7812986540324C1067.744844135976 1192.9271409150595 892.2240022322896 1365.3334 682.6667 1365.3334zM682.6667 1221.6146436491497C812.6042063446044 1221.6146436491497 924.0260864517924 1111.8906796248677 924.0260864517924 982.7812986540324C924.0260864517924 784.1719129563089 974.3229649076947 664.4166991088867 1023.145883291626 579.4687776277058C1054.4844261551616 524.9375256317138 1080.5313034269816 488.0052318283794 1096.776094886851 446.7708551483154L268.5573051131491 446.7708551483154C284.8020965730184 488.0052318283794 310.8437645112508 524.9375256317138 342.187516708374 579.4687776277058C391.0156444258932 664.4166991088867 441.3125215484619 784.1719129563089 441.3125215484619 982.7812986540324C441.3125215484619 1111.8906796248677 552.7291936553955 1221.6146436491497 682.6667 1221.6146436491497zM650.4635730942484 162.0989665816549L714.8698269057516 162.0989665816549C708.8802426132914 151.0625073760987 697.640659397817 143.7187563508503 682.6667 143.7187563508503C667.692740602183 143.7187563508503 656.4531573867087 151.0625073760987 650.4635730942484 162.0989665816549zM650.4635730942484 162.0989665816549" />
    <glyph glyph-name="action-alerts"
      unicode="&#xF104;"
      horiz-adv-x="1365.3334" d=" M677.4271157441609 1365.1094413223977C337.2239751326803 1365.1094413223977 69.4218780564066 1084.8490116378073 69.4218780564066 735.8437852632039C69.4218780564066 559.7031526625874 139.6979241545207 427.0364795180563 243.0364705336813 308.4479323942669L211.9791770172119 0.250000012207L470.1458562896728 158.1979250578411C540.8229437407024 129.2083396423341 612.6250299133301 117.2291723907472 693.3958671905517 117.2291723907472C1033.5833838012695 117.2291723907472 1293.3906884871724 384.182310758901 1293.3906884871724 733.1823277999166C1293.3906884871724 1082.1875528411865 1017.6094243546244 1365.1094413223977 677.4271157441609 1365.1094413223977zM682.6094079972025 1309.7500639526368C989.3906736434224 1309.7500639526368 1238.0833937866212 1055.9167182250976 1238.0833937866212 742.8021189362996C1238.0833937866212 429.6823129805806 989.3906736434224 175.8489672530416 682.6094079972025 175.8489672530416C609.7708631072998 175.8489672530416 528.2396097929484 196.1666762451173 464.5052306809183 222.1823028487447L281.7708470916748 111.500005444336L303.9895988432414 328.4010573685405C201.7916765197754 431.2187703889363 127.1093808731791 584.7708618865967 127.1093808731791 742.8021189362996C127.1093808731791 1055.9167182250976 375.817726350474 1309.7500639526368 682.6094079972025 1309.7500639526368zM682.6094079972025 1309.7500639526368 M682.6667 1016.1667162841798C597.7812798552043 1016.1667162841798 526.6875257171631 946.3281715407614 526.6875257171631 861.2031673842672C526.6875257171631 789.8437878999226 511.5000249755859 756.8125369537354 494.2760654679056 726.8437848237508C477.0521059602254 696.8802420273539 453.3177301346537 666.7083658874511 449.8698139662985 616.9896141264446L447.7135631943461 585.8646126066692L609.4271124238485 585.8646126066692L609.4271124238485 535.9896101713665C609.4271124238485 495.9896082182415 642.7239900496725 463.1093972794291 682.6667 463.1093972794291C722.6094099503275 463.1093972794291 755.9062875761516 495.9948162184957 755.9062875761516 535.9896101713665L755.9062875761516 585.8646126066692L917.619836805654 585.8646126066692L915.4635860337016 616.9896141264446C912.0156698653462 666.7083658874511 888.2812940397747 696.8802420273539 871.0573345320943 726.8437848237508C853.8333750244141 756.8125369537354 838.6510822830912 789.8437878999226 838.6510822830912 861.2031673842672C838.6510822830912 946.3281715407614 767.5521201447956 1016.1667162841798 682.6667 1016.1667162841798zM682.6667 957.947964108134C735.3021185700886 957.947964108134 780.4323301070455 913.5052526047464 780.4323301070455 861.2031673842672C780.4323301070455 780.7552461228129 800.8073311019185 732.2448277541403 820.5833734008789 697.8333674072265C833.2812913542278 675.7448249953511 843.8281665358785 660.7864909316304 850.4115001906637 644.0833647827149L514.9218998093363 644.0833647827149C521.5052334641215 660.7864909316304 532.0521086457723 675.7448249953511 544.750026599121 697.8333674072265C564.5260688980813 732.2448277541403 584.9010698929544 780.7552461228129 584.9010698929544 861.2031673842672C584.9010698929544 913.5052526047464 630.0312814299114 957.947964108134 682.6667 957.947964108134zM669.6198246962789 528.7708591522216L695.7135753037211 528.7708591522216C693.2864925185445 524.3021082673542 688.7344082962749 521.322942788554 682.6667 521.322942788554C676.6041997039795 521.322942788554 672.0469074814554 524.3021082673542 669.6198246962789 528.7708591522216zM669.6198246962789 528.7708591522216" />
    <glyph glyph-name="action-back"
      unicode="&#xF105;"
      horiz-adv-x="1365.3334" d=" M1031.2344250199076 0L1031.2344250199076 1365.3334L334.0989749800924 682.6667zM1031.2344250199076 0" />
    <glyph glyph-name="action-below"
      unicode="&#xF106;"
      horiz-adv-x="1365.3334" d=" M0 1031.2344250199076L1365.3334 1031.2344250199076L682.6667 334.0989749800924zM0 1031.2344250199076" />
    <glyph glyph-name="action-caret"
      unicode="&#xF107;"
      horiz-adv-x="1365.3334" d=" M1366.69798406663 631.1666974853515L684.0312840666302 1.3645840666302L1.3645840666301 631.1666974853515zM1366.69798406663 631.1666974853515" />
    <glyph glyph-name="action-clear"
      unicode="&#xF108;"
      horiz-adv-x="1365.3334" d=" M1145.1164706029053 390.8691981477602L975.9829316699042 221.7356592147589L694.0894260470454 503.6291648376175L390.8692017744271 200.4089405649991L198.8837713612773 392.3943709781489L502.1039956338956 695.6145952507673L221.7356628414259 975.982928043237L390.8692017744271 1145.1164669762381L671.2375345668968 864.7481341837686L972.9390253951838 1166.4496250120555L1164.9244558083337 974.4641945989058L863.2229649800466 672.7627037706187z" />
    <glyph glyph-name="action-confirm"
      unicode="&#xF109;"
      horiz-adv-x="1365.3334" d=" M671.3610636751691 129.5751181306218L277.5129458154168 647.1135698361039L398.208538737597 767.809156166541L624.2533532994329 471.2558610335692L1124.0337901486453 1284.5719294533797L1255.0549662248065 1155.8046680755224z" />
    <glyph glyph-name="action-create-contact-vcard"
      unicode="&#xF10A;"
      horiz-adv-x="1365.3334" d=" M242.0208451507569 991.6250484191894L242.0208451507569 331.1250161682128L1120.6510960526225 331.1250161682128L1120.6510960526225 991.6250484191894zM330.0208494476318 904.9010855179544L1034.5052585129497 904.9010855179544L1034.5052585129497 419.3802284775493L330.0208494476318 419.3802284775493zM330.0208494476318 904.9010855179544 M739.2864947646382 628.1614893386128L739.2864947646382 479.1666900634766L644.9427394913431 479.1666900634766L644.9427394913431 628.1614893386128L507.1771074311727 628.1614893386128L507.1771074311727 711.2708680633544L644.9427394913431 711.2708680633544L644.9427394913431 859.5208753021241L739.2864947646382 859.5208753021241L739.2864947646382 711.2708680633544L877.7969175278422 711.2708680633544L877.7969175278422 628.1614893386128zM739.2864947646382 628.1614893386128 M683.348992033315 1366.015692033315C502.3021071931356 1366.015692033315 328.6510573807475 1294.083396520996 200.6302177963969 1166.0677649368997C72.614587545634 1038.0469253525491 0.682292033315 864.3958755401611 0.682292033315 683.3489920333151C0.682292033315 502.3021071931355 72.614587545634 328.6510573807475 200.6302177963969 200.6302177963969C328.6510573807475 72.6145875456341 502.3021071931356 0.682292033315 683.348992033315 0.682292033315C864.3958755401611 0.682292033315 1038.0469253525494 72.6145875456341 1166.0677649368997 200.6302177963969C1294.083396520996 328.6510573807475 1366.0156920333152 502.3021071931355 1366.0156920333152 683.3489920333151C1366.0156920333152 864.3958755401611 1294.083396520996 1038.0469253525491 1166.0677649368997 1166.0677649368997C1038.0469253525494 1294.083396520996 864.3958755401611 1366.015692033315 683.348992033315 1366.015692033315zM683.348992033315 1321.9740232161764C852.729208303833 1321.9740232161764 1015.156300234843 1254.6979785978801 1134.927138083028 1134.9271380830282C1254.6979785978801 1015.156300234843 1321.9740232161764 852.729208303833 1321.9740232161764 683.3489920333151C1321.9740232161764 513.9687744294636 1254.6979785978801 351.5468918320414 1134.927138083028 231.7708446502686C1015.156300234843 112.00000546875 852.729208303833 44.7239608504538 683.348992033315 44.7239608504538C513.9687744294637 44.7239608504538 351.5468918320414 112.00000546875 231.7708446502686 231.7708446502686C112.00000546875 351.5468918320414 44.7239608504537 513.9687744294636 44.7239608504537 683.3489920333151C44.7239608504537 852.729208303833 112.00000546875 1015.156300234843 231.7708446502686 1134.9271380830282C351.5468918320414 1254.6979785978801 513.9687744294637 1321.9740232161764 683.348992033315 1321.9740232161764zM683.348992033315 1321.9740232161764" />
    <glyph glyph-name="action-create-group-user"
      unicode="&#xF10B;"
      horiz-adv-x="1365.3334" d=" M683.348992033315 1366.015692033315C502.3021071931356 1366.015692033315 328.6510573807475 1294.083396520996 200.6302177963969 1166.0677649368997C72.614587545634 1038.0469253525491 0.682292033315 864.3958755401611 0.682292033315 683.3489920333151C0.682292033315 502.3021071931355 72.614587545634 328.6510573807475 200.6302177963969 200.6302177963969C328.6510573807475 72.6145875456341 502.3021071931356 0.682292033315 683.348992033315 0.682292033315C864.3958755401611 0.682292033315 1038.0469253525494 72.6145875456341 1166.0677649368997 200.6302177963969C1294.083396520996 328.6510573807475 1366.0156920333152 502.3021071931355 1366.0156920333152 683.3489920333151C1366.0156920333152 864.3958755401611 1294.083396520996 1038.0469253525491 1166.0677649368997 1166.0677649368997C1038.0469253525494 1294.083396520996 864.3958755401611 1366.015692033315 683.348992033315 1366.015692033315zM683.348992033315 1321.9740232161764C852.729208303833 1321.9740232161764 1015.156300234843 1254.6979785978801 1134.927138083028 1134.9271380830282C1254.6979785978801 1015.156300234843 1321.9740232161764 852.729208303833 1321.9740232161764 683.3489920333151C1321.9740232161764 513.9687744294636 1254.6979785978801 351.5468918320414 1134.927138083028 231.7708446502686C1015.156300234843 112.00000546875 852.729208303833 44.7239608504538 683.348992033315 44.7239608504538C513.9687744294637 44.7239608504538 351.5468918320414 112.00000546875 231.7708446502686 231.7708446502686C112.00000546875 351.5468918320414 44.7239608504537 513.9687744294636 44.7239608504537 683.3489920333151C44.7239608504537 852.729208303833 112.00000546875 1015.156300234843 231.7708446502686 1134.9271380830282C351.5468918320414 1254.6979785978801 513.9687744294637 1321.9740232161764 683.348992033315 1321.9740232161764zM683.348992033315 1321.9740232161764 M1128.135471084737 665.8541991790771C1207.2083922790528 642.312531362915 1193.6719329514262 583.9635698471782 1193.4219329392192 544.9114852736715L996.0937979707234 544.9114852736715C988.989632290507 568.5469024277446 971.4896314360147 590.6510701737162 929.593794723653 603.052112112569L916.3229620756634 607.0729469755657C860.9062927031048 623.4010717728373 831.2864992568258 632.2396148710735 823.5521228791706 649.9844064041849C821.6198321181539 656.4010733841654 822.2500401489258 663.4583657287598 840.6875410491944 670.3333660644531C900.0833772827149 687.895866921997 930.130253416514 697.0989927047018 937.2396297636516 719.6614938063864L941.0156712813618 719.6614938063864C939.9583792297364 720.5521178498739 938.994837849355 721.4427432266947 938.1146298063762 722.5156606124166C908.7656697066548 751.2448286818747 886.369835279775 807.2656647506002 886.369835279775 852.4792082916259C886.369835279775 916.4479620817668 934.60942030189 958.5573388045552 980.2865065322164 958.5573388045552C1025.8750500915528 958.5573388045552 1071.817760334849 913.1354605866902 1071.817760334849 849.0990001265768C1071.817760334849 803.8594139176126 1046.8802591171977 749.5312872648723 1016.3125496246338 721.8073272444967C1022.5469245957134 695.5677419632669 1056.885467605733 687.0052415451761 1128.135471084737 665.8541991790771zM1128.135471084737 665.8541991790771 M991.8906737654926 397.7916860900879L378.7656438277487 397.7916860900879C378.4062691435344 404.0521023957722 377.9791851226807 410.2864787001851 377.2812690886028 417.5937697236531C375.3489769942526 442.2135629257914 373.505226237559 467.4687721589557 380.2500185668946 490.6510652909037C388.5260603043314 517.7812759489543 410.052102688741 541.6927344498392 459.6875224456787 556.3958605010986L478.9166900512695 562.6562781401165C566.2448196486715 587.9791953765869 612.9791965972901 602.2552374069926 628.4531560195211 635.7135723740337L633.3541975921631 644.0937807832233L633.0156562422994 654.713573301768C631.8698228530172 655.4219066696879 631.1719054856059 656.1510733719584 629.5729480741984 658.0208654632569C624.3125304840088 663.5521150666706 619.0521128938192 668.9844073319193 614.1250299865723 675.5833663208008C580.2083616638183 719.2969097885843 556.1458604888916 786.8229557524211 556.1458604888916 842.5937904756063C556.1458604888916 913.8698366225486 608.1406550276998 989.4115069777732 685.7083668151855 989.4115069777732C746.3437857758992 989.4115069777732 811.520872958374 928.4844200028178 811.520872958374 837.5000408935547C811.520872958374 779.5156633956198 781.7448301711323 707.6042012176514 741.057328184438 665.3333658203125C738.4271187226765 662.3854483430379 735.4375359100342 659.8021148835652 732.807327781606 657.2031574233297L727.8802435410258 652.7500318725586L729.3854516145221 646.1458648834229C739.9323281295063 604.3125295074462 787.3646224455364 590.0364874770406 882.6771257661335 562.4739861312154L902.265669389272 556.239611160136C951.6562971342572 541.5104424409382 974.9323396041158 517.3229425932415 985.1198401015524 490.4896079496868L985.484422786021 490.4896079496868C994.8802565781352 464.4323146773579 993.734423188853 436.1614799636128 992.5885897995709 409.7604360078327C992.2292151153564 405.9271024873249 992.2292151153564 401.5416862731934 991.8906737654926 397.7916860900879zM991.8906737654926 397.7916860900879 M240.8333450927735 665.8541991790771C161.6927158951518 642.312531362915 175.2968832260844 583.9635698471782 175.567716572642 544.9114852736715L372.8750182067871 544.9114852736715C380.0052265549418 568.5469024277446 397.4791860748291 590.6510701737162 439.4687707917684 603.052112112569L452.6458554351806 607.0729469755657C508.0833581420898 623.4010717728373 537.7708595916748 632.2396148710735 545.5104426362508 649.9844064041849C543.395859866333 657.0416987487793 547.2604427217 667.5677405960795 528.2812764616496 670.3333660644531C468.9948149001364 687.895866921997 438.8593960953471 697.0989927047018 431.8229384184367 719.6614938063864L428.1302289047953 719.6614938063864C429.0989796187643 720.5521178498739 430.1562716703899 721.4427432266947 431.0312717131145 722.5156606124166C460.3802304795023 751.2448286818747 482.7812742399699 807.2656647506002 482.7812742399699 852.4792082916259C482.7812742399699 916.4479620817668 434.5625212188721 958.5573388045552 388.8646029875285 958.5573388045552C343.1875167572022 958.5573388045552 297.3281398513082 913.1354605866902 297.3281398513082 849.0990001265768C297.3281398513082 803.8594139176126 322.1823077315572 749.5312872648723 352.7656425582174 721.8073272444967C346.4479342497356 695.5677419632669 311.9948072341207 687.0052415451761 240.8333450927735 665.8541991790771zM240.8333450927735 665.8541991790771" />
    <glyph glyph-name="action-create-person-form"
      unicode="&#xF10C;"
      horiz-adv-x="1365.3334" d=" M683.348992033315 1366.015692033315C502.3021071931356 1366.015692033315 328.6510573807475 1294.083396520996 200.6302177963969 1166.0677649368997C72.614587545634 1038.0469253525491 0.682292033315 864.3958755401611 0.682292033315 683.3489920333151C0.682292033315 502.3021071931355 72.614587545634 328.6510573807475 200.6302177963969 200.6302177963969C328.6510573807475 72.6145875456341 502.3021071931356 0.682292033315 683.348992033315 0.682292033315C864.3958755401611 0.682292033315 1038.0469253525494 72.6145875456341 1166.0677649368997 200.6302177963969C1294.083396520996 328.6510573807475 1366.0156920333152 502.3021071931355 1366.0156920333152 683.3489920333151C1366.0156920333152 864.3958755401611 1294.083396520996 1038.0469253525491 1166.0677649368997 1166.0677649368997C1038.0469253525494 1294.083396520996 864.3958755401611 1366.015692033315 683.348992033315 1366.015692033315zM683.348992033315 1321.9740232161764C852.729208303833 1321.9740232161764 1015.156300234843 1254.6979785978801 1134.927138083028 1134.9271380830282C1254.6979785978801 1015.156300234843 1321.9740232161764 852.729208303833 1321.9740232161764 683.3489920333151C1321.9740232161764 513.9687744294636 1254.6979785978801 351.5468918320414 1134.927138083028 231.7708446502686C1015.156300234843 112.00000546875 852.729208303833 44.7239608504538 683.348992033315 44.7239608504538C513.9687744294637 44.7239608504538 351.5468918320414 112.00000546875 231.7708446502686 231.7708446502686C112.00000546875 351.5468918320414 44.7239608504537 513.9687744294636 44.7239608504537 683.3489920333151C44.7239608504537 852.729208303833 112.00000546875 1015.156300234843 231.7708446502686 1134.9271380830282C351.5468918320414 1254.6979785978801 513.9687744294637 1321.9740232161764 683.348992033315 1321.9740232161764zM683.348992033315 1321.9740232161764 M910.5781697951558 741.427118869161C855.9635831284281 667.3437819184772 768.1458708404541 619.2291969024658 669.0208660003663 619.2291969024658C567.9739863997702 619.2291969024658 478.7031487075094 669.2135740097758 424.3385620529886 745.7969110825296C318.3437648774617 670.5208660736084 249.0729294950969 546.8802347031352 249.0729294950969 406.9479372038373L1079.7344273880717 406.9479372038373C1079.7344273880717 544.135442569112 1013.161508137441 665.8073245101216 910.5781697951558 741.427118869161zM910.5781697951558 741.427118869161 M867.4531676894429 909.9583777648926C867.4531676894429 795.2656641646627 774.4844124832865 702.2917009582519 659.7916988830566 702.2917009582519C545.0989852828268 702.2917009582519 452.125022076416 795.2656641646627 452.125022076416 909.9583777648926C452.125022076416 1024.6510913651225 545.0989852828268 1117.6250545715332 659.7916988830566 1117.6250545715332C774.4844124832865 1117.6250545715332 867.4531676894429 1024.6510913651225 867.4531676894429 909.9583777648926" />
    <glyph glyph-name="action-create-security-group"
      unicode="&#xF10D;"
      horiz-adv-x="1365.3334" d=" M918.7604608613484 817.6354559236042L918.7604608613484 659.8750322204589L818.8698319838766 659.8750322204589L818.8698319838766 817.6354559236042L673.0000328613281 817.6354559236042L673.0000328613281 905.6354602204792L818.8698319838766 905.6354602204792L818.8698319838766 1062.6042185516358L918.7604608613484 1062.6042185516358L918.7604608613484 905.6354602204792L1065.4219266892192 905.6354602204792L1065.4219266892192 817.6354559236042zM709.8021173249714 587.203154005361L681.1719079270121 587.203154005361C677.515658415151 587.203154005361 673.822950234843 590.1458621490478 673.822950234843 594.5469036972759L673.822950234843 662.0729496611126C673.822950234843 739.8958694610595 613.6250299621582 805.9531646865133 535.8281514968161 808.8750394958496C454.3541888519287 811.8229569731242 386.8021015534871 746.494828449941 386.8021015534871 665.0156578047994L386.8021015534871 593.8021116609088C386.8021015534871 590.1458621490478 383.8593934098002 586.4531539687398 379.453143861318 586.4531539687398L350.828142463613 586.4531539687398C339.8125165924073 586.4531539687398 331.0052241623637 577.6458615386963 331.0052241623637 566.6406530013326L331.0052241623637 306.7864736464742C331.0052241623637 295.7708477752685 339.8125165924073 286.9635553452252 350.828142463613 286.9635553452252L709.0364932875874 286.9635553452252C720.0417018249511 286.9635553452252 728.8489942549946 295.7708477752685 728.8489942549946 306.7864736464742L728.8489942549946 567.3802357041118C729.6198276259663 578.3906535750631 720.8125351959228 587.203154005361 709.8021173249714 587.203154005361zM431.5937704072469 665.0156578047994C431.5937704072469 721.5312858976847 478.5729407011515 767.0573294539694 535.8281514968161 764.1146213102824C589.4271114472859 761.1667038330078 630.5260721207377 715.6667016113281 630.5260721207377 662.0729496611126L630.5260721207377 593.8021116609088C630.5260721207377 590.1458621490478 627.5781559767966 586.4531539687398 623.1771130952352 586.4531539687398L438.197938729716 586.4531539687398C434.5312718840129 586.4531539687398 430.8437703706258 589.401070112681 430.8437703706258 593.8021116609088L430.8437703706258 665.0156578047994zM683.348992033315 1366.015692033315C502.3021071931356 1366.015692033315 328.6510573807475 1294.083396520996 200.6302177963969 1166.0677649368997C72.614587545634 1038.0469253525491 0.682292033315 864.3958755401611 0.682292033315 683.3489920333151C0.682292033315 502.3021071931355 72.614587545634 328.6510573807475 200.6302177963969 200.6302177963969C328.6510573807475 72.6145875456341 502.3021071931356 0.682292033315 683.348992033315 0.682292033315C864.3958755401611 0.682292033315 1038.0469253525494 72.6145875456341 1166.0677649368997 200.6302177963969C1294.083396520996 328.6510573807475 1366.0156920333152 502.3021071931355 1366.0156920333152 683.3489920333151C1366.0156920333152 864.3958755401611 1294.083396520996 1038.0469253525491 1166.0677649368997 1166.0677649368997C1038.0469253525494 1294.083396520996 864.3958755401611 1366.015692033315 683.348992033315 1366.015692033315zM683.348992033315 1321.9740232161764C852.729208303833 1321.9740232161764 1015.156300234843 1254.6979785978801 1134.927138083028 1134.9271380830282C1254.6979785978801 1015.156300234843 1321.9740232161764 852.729208303833 1321.9740232161764 683.3489920333151C1321.9740232161764 513.9687744294636 1254.6979785978801 351.5468918320414 1134.927138083028 231.7708446502686C1015.156300234843 112.00000546875 852.729208303833 44.7239608504538 683.348992033315 44.7239608504538C513.9687744294637 44.7239608504538 351.5468918320414 112.00000546875 231.7708446502686 231.7708446502686C112.00000546875 351.5468918320414 44.7239608504537 513.9687744294636 44.7239608504537 683.3489920333151C44.7239608504537 852.729208303833 112.00000546875 1015.156300234843 231.7708446502686 1134.9271380830282C351.5468918320414 1254.6979785978801 513.9687744294637 1321.9740232161764 683.348992033315 1321.9740232161764zM683.348992033315 1321.9740232161764" />
    <glyph glyph-name="action-current-user"
      unicode="&#xF10E;"
      horiz-adv-x="1365.3334" d=" M468.1536628590645 776.3698245753476L451.8437687293496 764.7891040098827C358.0307774819708 698.1644207567246 296.6927211536153 588.5522554045683 296.6927211536153 464.802102695414V444.8021017188516H1032.1146370628867V464.802102695414C1032.1146370628867 586.1242019526777 973.1673941846036 693.9862205527108 882.3646297508751 760.9219171543887L866.26826896492 772.7891044005078L854.4010817188008 756.6901436144257C812.3004263297715 699.5816208259238 744.7826896996738 662.5208590163163 668.2682592969512 662.5208590163163C590.2684821550353 662.5208590163163 521.6407588040723 701.0227808962928 479.7317967577364 760.0599304456327zM459.7291957810468 720.6458751877851C509.462998209455 660.7538055967012 584.4595618713964 622.5208570631914 668.2682592969511 622.5208570631914C750.3374633042363 622.5208570631914 823.9741335664432 659.1953921872735 873.6901493273164 716.9245150060781C941.2528326262754 660.797418932164 985.897821472873 578.151228230039 991.5104617469276 484.8021036719765H337.309909803543C343.0522967505996 580.2716550002422 389.6121790240312 664.4758724451093 459.7291957810468 720.6458751877851z M660.5416989196777 1079.7708793898516C553.7137603701367 1079.7708793898516 466.6875294541426 992.7446218071896 466.6875161208086 885.9167099243164C466.6875161208086 779.0887847081093 553.7137603701367 692.0599271253203 660.5416989196777 692.0599271253203C767.3696241358848 692.0599271253203 854.393268385086 779.0893847081386 854.393268385086 885.9167099243164C854.393268385086 992.7440218071602 767.3696241358848 1079.7708793898516 660.5416989196779 1079.7708793898516zM660.5416989196777 1039.7708774367266C745.752689747037 1039.7708774367266 814.393266431961 971.128287418371 814.393266431961 885.9167099243164C814.393266431961 800.7051190969278 745.7526897470373 732.0599290784453 660.5416989196779 732.0599290784453C575.3306947589845 732.0599290784453 506.6875180739337 800.7057190969571 506.6875180739337 885.9167099243164C506.6875180739337 971.1276874183418 575.3306947589845 1039.7708907700605 660.5416989196779 1039.7708774367266z M682.6667 1362.4766290605091C518.0001319596406 1362.476629727176 360.0663242480294 1296.4667353040368 243.7031318995664 1179.0886042393495C127.3399475511039 1061.7104651746622 62.0078150277252 902.5616307370568 62.0078150277252 736.6667026367187C62.0078150277252 570.7717745363808 127.3399475511039 411.6229400987753 243.7031318995664 294.2448010340879C360.0663242480294 176.8666753027344 518.0001319596406 110.8567787462616 682.6667 110.8567787462616C847.3332680403594 110.8567787462616 1005.2670757519708 176.8666753027344 1121.6302681004336 294.2448010340879C1237.9934471155625 411.6229400987753 1303.3255836389415 570.7717745363808 1303.3255836389415 736.6667026367187C1303.3255836389415 902.5616307370568 1237.9934471155625 1061.7104651746622 1121.6302681004336 1179.0886042393497C1005.2670757519708 1296.4667353040368 847.3332680403594 1362.4766290605091 682.6667 1362.4766290605091zM682.6667 1302.4766262641551C831.3047339243828 1302.4766262641551 973.8442608843204 1242.9404060237798 1079.0208793532304 1136.8464155100762C1184.1975111554746 1030.752410329705 1243.325580709254 886.8090966345567 1243.325580709254 736.6667026367187C1243.325580709254 586.5243086388808 1184.1975111554746 442.5809949437325 1079.0208793532304 336.4869897633614C973.8442608843204 230.3929979163243 831.3047339243828 170.8567816759492 682.6667 170.8567816759492C534.0286660756171 170.8567816759492 391.4891391156798 230.3929979163243 286.3125206467695 336.4869897633614C181.1358888445254 442.5809949437325 122.0078179574127 586.5243086388808 122.0078179574127 736.6667026367187C122.0078179574127 886.8090966345567 181.1358888445254 1030.752410329705 286.3125206467695 1136.8464155100762C391.4891391156798 1242.9404060237798 534.0286660756171 1302.4766262641551 682.6667 1302.4766262641551z" />
    <glyph glyph-name="action-delete"
      unicode="&#xF10F;"
      horiz-adv-x="1365.3334" d=" M507.5728114504942 1184.0442844813263H399.2057928258028H387.0132455637969H280.4904803624903C265.480586296252 1184.0442844813263 252.5104923296133 1178.7049775539513 241.9341851465255 1168.8085104040586C231.3579046301056 1158.9120032541641 223.0148375560625 1030.6311436571173 226.7672377392852 1012.355489431418L262.2475194717208 839.5566009939727L427.3646342007461 30.6054681610742L428.6159809285137 29.2886680967774L481.0682234896582 -226.1621443764061C483.1877569264844 -236.4848115471093 487.3832904646778 -247.164545401914 496.1598775598887 -256.7482792032028C504.9364646550996 -266.3321463378317 519.781612046627 -273.8218800368747 534.7914927795313 -273.8218800368747H717.6798883762949H1024.3152233487226H1315.7442509119885C1330.7045449758048 -273.8218800368747 1345.4375323618556 -266.5258796806249 1354.3496661303518 -256.9022792107225C1363.2617998988478 -247.2786787408204 1367.6476667796683 -236.2538782024999 1369.614866875723 -225.389077671992L1405.920601981797 -24.8801345481836L1412.4263356327933 11.052267206328L1431.0822032103908 114.0927789042696L1551.8382091066799 781.0310114696113L1593.8636778253713 1013.1285828025C1597.1120779839848 1031.069997011879 1589.035944256309 1158.857349918162 1578.529543743301 1168.7528170680057C1568.023276563633 1178.6482708845156 1554.9499425919532 1184.044284481326 1539.9898085281447 1184.044284481326H1272.9163288207812zM965.658593817963 1184.0442844813263H836.061054156625zM743.3556762966622 1184.0442844813263H604.7856828638828zM1180.2142309609785 1184.0442844813263H1062.8714918980195zM296.4731611428946 1006.423009141746H370.4802314231875L402.2686729753575 973.088394180746L319.5217356016466 894.1741636608457zM534.4344394287637 1006.423009141746H807.3355060873438L849.2363481332832 962.4846069963164L669.001379332748 790.6029319369902L497.1197042734219 970.8379140708594zM992.5202351295663 1006.423009141746H1244.190740751498L1296.207316624703 951.8807931452188L1115.9690811573419 779.9991180858925L944.0874060980155 960.2341268864297zM1450.6124708306836 1006.423009141746H1524.4722077704491L1494.5411396423046 841.1158944034433L1391.0583345894336 949.630339702zM448.5689419027794 924.5376451434375L620.4506169621054 744.3026630095684L440.2156481615703 572.4209746169081L370.5948714287852 645.4256581815898L335.4388830455176 816.6488932087657zM895.5366437273731 913.9338179590058L1067.4182787866973 733.6988358251367L887.183309986162 561.8172007658126L715.3016215935019 742.0521695663476zM1342.507532218789 903.3300574412442L1479.747538919961 759.417237080918L1464.5708715122462 675.5860063209296L1334.150998477422 551.2134002480489L1162.2693367514298 731.448382381918zM278.1646669155919 762.0313172085586L283.3175205005294 736.9451826503164zM308.7508817423927 613.0672032682539L337.2569631342911 474.2351831560137zM666.7508858895274 695.7518873055918L838.6325742821874 515.5169051717227L658.3975921483184 343.6352567790646L486.5159037556582 523.8702255795996zM1113.718587714121 685.1480867878281L1285.6002494401132 504.9131179872929L1105.365280639578 333.0314295946328L933.4868722470782 513.2664250618359zM1482.1324723697462 396.0383393378086L1526.6899412120706 642.1203513535312zM1444.2803371881641 563.5336941829588L1424.8319362385353 456.1232222716404L1380.4512674048437 502.662637877406zM437.9684213851758 477.5732099856699L609.8500964445019 297.3349478516407L469.5439562602832 163.5345679850859L410.4483533747559 451.3307420376327zM884.9361098764355 466.9661561344141L1056.8145182689357 286.7311606672111L876.5795494684004 114.8494722745509L704.6978610757402 295.084481075088zM1331.900545034203 456.3623689499843L1410.0418021830271 374.4245649491152L1368.9630001772264 147.5551672048416L1323.5504912931522 104.245711756789L1151.665549567 284.4806938906582zM353.1741239114961 396.7098993705996L403.1793530198242 153.1731808124921zM1467.3388716474024 314.3396820152832L1451.3692708676367 226.1450777089065zM656.1503653719238 248.7841854809981L828.0287870977578 68.5492166804629L647.7937782972207 -103.3292050453713L490.4632639484004 61.6470830101114L485.4610903708203 86.0092575330039zM1103.1147871963574 238.1803982965683L1274.9997155891758 57.9454161626993L1094.7647467886407 -113.9362722299609L922.8798183958224 66.2987499039102zM874.3323093586719 20.0017343099805L1046.213984417998 -160.236407824043L997.4568753706131 -206.7333434277343H746.4054364455761L694.0940738913105 -151.8798740826755zM1321.2967311831055 9.3946671253907L1340.332465445918 -10.5648005158591L1304.8161437117226 -206.7333434277341H1183.2607111097323L1141.0617623825701 -162.4869412672654zM515.8999051904237 -62.2341363721093L599.243042593246 -149.6326739729493L544.5534132561874 -201.7868098528713zM810.3852662362577 -273.8218800368752H927.1088852689862z" />
    <glyph glyph-name="action-down"
      unicode="&#xF110;"
      horiz-adv-x="1365.3334" d=" M-5.4754280841931 417.6613941566045L956.5935988370526 20.1773933661307L1213.9081879112762 1028.8198565016896V1131.1018499207926L824.4775787802366 282.2526049949206L206.129754296667 523.7185005435566z" />
    <glyph glyph-name="action-edit"
      unicode="&#xF111;"
      horiz-adv-x="1365.3334" d=" M1043.0060109280253 853.0366016521758L852.8680149772773 1042.9852642603457L219.5795707216582 409.6258200012598L156.3501009676152 156.3530476344258L409.6228600011152 219.6534907252676zM1169.6542304453535 1169.6334837776737C1117.1444145480646 1222.143286341629 1032.0969970620254 1222.0486330036738 979.5871944980704 1169.6334837776737L916.2867647405626 1106.3093740190097L1106.3301206866895 916.2660447395508L1169.6542304453535 979.590154498215C1222.0456463368612 1032.0762770610138 1222.1403530081523 1117.218347885008 1169.6542304453535 1169.633483777674z" />
    <glyph glyph-name="action-empty-action"
      unicode="&#xF112;"
      horiz-adv-x="1365.3334" d=" M687.4479509001262 1360.8333997802733C316.5573074568991 1360.8333997802733 15.4270834199422 1059.70317707665 15.4270834199422 688.8125336334228C15.4270834199422 317.9218901901957 316.5573074568991 16.7916674865724 687.4479509001262 16.7916674865724C1058.3333850097656 16.7916674865724 1359.4636077133891 317.9218901901957 1359.4636077133891 688.8125336334228C1359.4636077133891 1059.70317707665 1058.3333850097656 1360.8333997802733 687.4479509001262 1360.8333997802733zM687.4479509001262 1317.4740229964498C1034.9063011991984 1317.4740229964498 1316.1094389298198 1036.270883932495 1316.1094389298198 688.8125336334228C1316.1094389298198 341.3541833343507 1034.9063011991984 60.1458362701417 687.4479509001262 60.1458362701417C339.9843912674662 60.1458362701417 58.7812535368449 341.3541833343507 58.7812535368449 688.8125336334228C58.7812535368449 1036.270883932495 339.9843912674662 1317.4740229964498 687.4479509001262 1317.4740229964498zM687.4479509001262 1317.4740229964498" />
    <glyph glyph-name="action-first"
      unicode="&#xF113;"
      horiz-adv-x="1365.3334" d=" M177.0284353106328 1363.9688159333698L0 1363.9688159333698V0L177.0284353106328 0zM974.3826342439414 1365.3334L187.9555158441817 683.3489933666484L974.3826342439414 1.3645333999609V250.9955055889727L481.4475835081817 684.0312867332968L974.3826342439414 1128.6376817759258z" />
    <glyph glyph-name="action-forward"
      unicode="&#xF114;"
      horiz-adv-x="1365.3334" d=" M334.0989749800924 0L334.0989749800924 1365.3334L1031.2344250199076 682.6667zM334.0989749800924 0" />
    <glyph glyph-name="action-home"
      unicode="&#xF115;"
      horiz-adv-x="1365.3334" d=" M1177.8698495131734 711.2969093979593L1368.0625667999268 711.2969093979593L682.5469079941507 1368.0625667999268L2.7291667999268 717.9844097244974L2.7291667999268 710.4635760239358L195.7500095581055 710.4635760239358L195.7500095581055 2.7291667999268L577.5208615325928 2.7291667999268L577.5208615325928 400.4635608872173L824.4635815903422 400.4635608872173L824.4635815903422 2.7291667999268L1177.8698495131734 2.7291667999268zM1177.8698495131734 711.2969093979593" />
    <glyph glyph-name="action-import-line-item"
      unicode="&#xF116;"
      horiz-adv-x="1365.3334" d=" M683.348992033315 1366.015692033315C502.3021071931356 1366.015692033315 328.6510573807475 1294.083396520996 200.6302177963969 1166.0677649368997C72.614587545634 1038.0469253525491 0.682292033315 864.3958755401611 0.682292033315 683.3489920333151C0.682292033315 502.3021071931355 72.614587545634 328.6510573807475 200.6302177963969 200.6302177963969C328.6510573807475 72.6145875456341 502.3021071931356 0.682292033315 683.348992033315 0.682292033315C864.3958755401611 0.682292033315 1038.0469253525494 72.6145875456341 1166.0677649368997 200.6302177963969C1294.083396520996 328.6510573807475 1366.0156920333152 502.3021071931355 1366.0156920333152 683.3489920333151C1366.0156920333152 864.3958755401611 1294.083396520996 1038.0469253525491 1166.0677649368997 1166.0677649368997C1038.0469253525494 1294.083396520996 864.3958755401611 1366.015692033315 683.348992033315 1366.015692033315zM683.348992033315 1321.9740232161764C852.729208303833 1321.9740232161764 1015.156300234843 1254.6979785978801 1134.927138083028 1134.9271380830282C1254.6979785978801 1015.156300234843 1321.9740232161764 852.729208303833 1321.9740232161764 683.3489920333151C1321.9740232161764 513.9687744294636 1254.6979785978801 351.5468918320414 1134.927138083028 231.7708446502686C1015.156300234843 112.00000546875 852.729208303833 44.7239608504538 683.348992033315 44.7239608504538C513.9687744294637 44.7239608504538 351.5468918320414 112.00000546875 231.7708446502686 231.7708446502686C143.64584034729 319.9010569535015 83.9375040985107 431.1250210510255 58.5416695251465 551.2187762483112L527.2708590789795 551.2187762483112L527.2708590789795 286.9635553452252L967.6979645842084 639.3073232161763L527.2708590789795 991.6510897537942L527.2708590789795 727.3906608504537L46.2552102585551 727.3906608504537C56.843752108907 880.6771256684774 122.4270886445516 1025.5781754103903 231.7708446502686 1134.9271380830282C351.5468918320414 1254.6979785978801 513.9687744294637 1321.9740232161764 683.348992033315 1321.9740232161764zM683.348992033315 1321.9740232161764" />
    <glyph glyph-name="action-import"
      unicode="&#xF117;"
      horiz-adv-x="1365.3334" d=" M683.348992033315 1366.015692033315C502.3021071931356 1366.015692033315 328.6510573807475 1294.083396520996 200.6302177963969 1166.0677649368997C72.614587545634 1038.0469253525491 0.682292033315 864.3958755401611 0.682292033315 683.3489920333151C0.682292033315 502.3021071931355 72.614587545634 328.6510573807475 200.6302177963969 200.6302177963969C328.6510573807475 72.6145875456341 502.3021071931356 0.682292033315 683.348992033315 0.682292033315C864.3958755401611 0.682292033315 1038.0469253525494 72.6145875456341 1166.0677649368997 200.6302177963969C1294.083396520996 328.6510573807475 1366.0156920333152 502.3021071931355 1366.0156920333152 683.3489920333151C1366.0156920333152 864.3958755401611 1294.083396520996 1038.0469253525491 1166.0677649368997 1166.0677649368997C1038.0469253525494 1294.083396520996 864.3958755401611 1366.015692033315 683.348992033315 1366.015692033315zM595.2656543990378 1315.8646482512004L595.2656543990378 815.4792064849853L331.0052241623637 815.4792064849853L683.348992033315 375.0468929795024L1035.692758570933 815.4792064849853L771.4323296675923 815.4792064849853L771.4323296675923 1315.8646482512004C908.2656696822409 1296.812563320923 1036.1146345915324 1233.7396442411905 1134.927138083028 1134.9271380830282C1254.6979785978801 1015.156300234843 1321.9740232161764 852.729208303833 1321.9740232161764 683.3489920333151C1321.9740232161764 513.9687744294636 1254.6979785978801 351.5468918320414 1134.927138083028 231.7708446502686C1015.156300234843 112.00000546875 852.729208303833 44.7239608504538 683.348992033315 44.7239608504538C513.9687744294637 44.7239608504538 351.5468918320414 112.00000546875 231.7708446502686 231.7708446502686C112.00000546875 351.5468918320414 44.7239608504537 513.9687744294636 44.7239608504537 683.3489920333151C44.7239608504537 852.729208303833 112.00000546875 1015.156300234843 231.7708446502686 1134.9271380830282C330.588557475352 1233.7396442411905 458.4323143843893 1296.812563320923 595.2656543990378 1315.8646482512004zM595.2656543990378 1315.8646482512004" />
    <glyph glyph-name="action-info"
      unicode="&#xF118;"
      horiz-adv-x="1365.3334" d=" M877.2699895021133 283.5324405110234L884.5760831921893 338.3281231865938C842.7000144807928 313.3494686335996 698.3261140979531 213.3287037497735 705.1926344332325 289.0120141119142C737.1014493246132 455.4236622374824 765.2499306990508 574.9180280721679 800.1718390708887 725.551022093961C809.3044528501505 763.9080106335274 823.9166402303027 822.3567334874688 823.9166402303027 844.2750278910313C823.9166402303027 858.8872152711835 818.4370666294121 868.0198290504454 801.9983724934082 868.0198290504454C759.9883437754706 868.0198290504454 519.2714520217168 743.8162629858184 464.4757693461465 707.2857812021036L462.649235923627 654.3166052823848C504.6592779748984 678.0614197751329 570.414094518916 721.8979685822559 595.9854291008496 721.8979685822559C616.0771767485586 721.8979685822559 617.9037101710782 701.8062209345469 617.9037101710782 685.367513465209C615.0356033643673 595.2080823962267 425.4565674409121 102.0731249840392 552.1488669603926 97.227084747416C690.1067136966152 143.4265136699141 844.6900945779649 237.4768249288809 877.2699895021134 283.5324405110234z M937.7563257888808 1120.418174707916A103.48346505290333 103.48346505290333 0 0 0 834.2728540693105 1016.9347296550136A103.48346505290333 103.48346505290333 0 0 0 730.7893823497402 1120.418174707916A103.48346505290333 103.48346505290333 0 0 0 834.2728540693105 1223.9016464274862A103.48346505290333 103.48346505290333 0 0 0 937.7563257888808 1120.418174707916z" />
    <glyph glyph-name="action-invade"
      unicode="&#xF119;"
      horiz-adv-x="1365.3334" d=" M817.8705066017479 1088.2172264689375L457.3676223324023 1088.2172264689375L457.3676223324023 998.1219554030878L367.2027245964863 998.1219554030878L367.2027245964863 907.9744710013554L277.1074668639707 907.9744710013554L277.1074668639707 817.8791999355058L186.9599824622382 817.8791999355058L186.9599824622382 727.7143155329238L96.8647180630556 727.7143155329238L96.8647180630556 637.6190444670742L186.9599824622382 637.6190444670742L186.9599824622382 547.4715733986758L277.1074668639707 547.4715733986758L277.1074668639707 457.3763156661602L367.2027245964863 457.3763156661602L367.2027245964863 547.4715733986758L547.4628933982518 547.4715733986758L547.4628933982518 457.3763156661602L637.6103777999843 457.3763156661602L637.6103777999843 547.4715733986758L727.705622199166 547.4715733986758L727.705622199166 457.3763156661602L817.8705066017479 457.3763156661602L817.8705066017479 547.4715733986758L998.113235402662 547.4715733986758L998.113235402662 457.3763156661602L1088.2085464685135 457.3763156661602L1088.2085464685135 547.4715733986758L1178.3038042010292 547.4715733986758L1178.3038042010292 637.6190444670742L1268.468688603611 637.6190444670742L1268.468688603611 727.7143155329238L1178.3038042010292 727.7143155329238L1178.3038042010292 817.8791999355058L1088.2085464685135 817.8791999355058L1088.2085464685135 907.9744710013554L998.113235402662 907.9744710013554L998.113235402662 998.1219554030878L907.9657643342636 998.1219554030878L907.9657643342636 1088.2172264689375L817.8705066017479 1088.2172264689375zM817.8705066017479 817.8791999355058L907.9657643342636 817.8791999355058L907.9657643342636 727.7143155329238L817.8705066017479 727.7143155329238L817.8705066017479 817.8791999355058zM457.3676223324023 817.8791999355058L547.4628933982518 817.8791999355058L547.4628933982518 727.7143155329238L457.3676223324022 727.7143155329238L457.3676223324022 817.8791999355058zM1088.2085464685135 367.2114312635781L1178.3038042010292 367.2114312635781L1178.3038042010292 457.3763156661601L1088.2085464685135 457.3763156661601L1088.2085464685135 367.2114312635781zM817.8705066017479 367.2114312635781L907.9657643342636 367.2114312635781L907.9657643342636 457.3763156661601L817.8705066017479 457.3763156661601L817.8705066017479 367.2114312635781zM457.3676223324023 457.3763156661601L457.3676223324023 367.2114312635781L367.2027245964863 367.2114312635781L367.2027245964863 277.1161735310625L457.3676223324023 277.1161735310625L457.3676223324023 367.2114312635779L547.4628933982518 367.2114312635779L547.4628933982518 457.3763156661599L457.3676223324022 457.3763156661599zM186.9599824622382 367.2114312635781L277.1074668639707 367.2114312635781L277.1074668639707 457.3763156661601L186.9599824622382 457.3763156661601L186.9599824622382 367.2114312635781zM1178.3038042010292 277.1161735310625L1268.4686886036113 277.1161735310625L1268.4686886036113 367.2114312635779L1178.3038042010292 367.2114312635779L1178.3038042010292 277.1161735310625zM907.9657643342636 277.1161735310625L998.113235402662 277.1161735310625L998.113235402662 367.2114312635779L907.9657643342636 367.2114312635779L907.9657643342636 277.1161735310625zM96.8647180630557 277.1161735310625L186.9599824622383 277.1161735310625L186.9599824622383 367.2114312635779L96.8647180630557 367.2114312635779L96.8647180630557 277.1161735310625z" />
    <glyph glyph-name="action-last"
      unicode="&#xF11A;"
      horiz-adv-x="1365.3334" d=" M1190.7553648090156 1363.9688159333698H1367.7838001196485V0H1190.7553648090156zM393.4011658757071 1365.3334L1179.8282842754668 683.3489933666484L393.4011658757071 1.3645333999609V250.9955055889727L886.3362166114669 684.0312867332968L393.4011658757071 1128.6376817759258z" />
    <glyph glyph-name="action-left"
      unicode="&#xF11B;"
      horiz-adv-x="1365.3334" d=" M786.4271183997597 1365.3333666666663L0 683.3489600333148L786.4271183997597 1.3645000666272V250.995472255639L293.492067664 684.0312533999632L786.4271183997597 1128.637648442592z" />
    <glyph glyph-name="action-list-maps"
      unicode="&#xF11C;"
      horiz-adv-x="1365.3334" d=" M476.8958566192627 999.0156741133932L476.8958566192627 874.2135840195414L353.026058570933 874.2135840195414L353.026058570933 999.0156741133932zM1013.6719241623636 999.0156741133932L1013.6719241623636 874.2135840195414L600.7708626678467 874.2135840195414L600.7708626678467 999.0156741133932zM476.8958566192627 749.4114952590231L476.8958566192627 624.6510718338725L353.026058570933 624.6510718338725L353.026058570933 749.4114952590231zM1013.6719241623636 749.4114952590231L1013.6719241623636 624.6510718338725L600.7708626678467 624.6510718338725L600.7708626678467 749.4114952590231zM476.8958566192627 499.848983073354L476.8958566192627 375.0468929795024L353.026058570933 375.0468929795024L353.026058570933 499.848983073354zM1013.6719241623636 499.848983073354L1013.6719241623636 375.0468929795024L600.7708626678467 375.0468929795024L600.7708626678467 499.848983073354zM683.348992033315 1366.015692033315C502.3021071931356 1366.015692033315 328.6510573807475 1294.083396520996 200.6302177963969 1166.0677649368997C72.614587545634 1038.0469253525491 0.682292033315 864.3958755401611 0.682292033315 683.3489920333151C0.682292033315 502.3021071931355 72.614587545634 328.6510573807475 200.6302177963969 200.6302177963969C328.6510573807475 72.6145875456341 502.3021071931356 0.682292033315 683.348992033315 0.682292033315C864.3958755401611 0.682292033315 1038.0469253525494 72.6145875456341 1166.0677649368997 200.6302177963969C1294.083396520996 328.6510573807475 1366.0156920333152 502.3021071931355 1366.0156920333152 683.3489920333151C1366.0156920333152 864.3958755401611 1294.083396520996 1038.0469253525491 1166.0677649368997 1166.0677649368997C1038.0469253525494 1294.083396520996 864.3958755401611 1366.015692033315 683.348992033315 1366.015692033315zM683.348992033315 1321.9740232161764C852.729208303833 1321.9740232161764 1015.156300234843 1254.6979785978801 1134.927138083028 1134.9271380830282C1254.6979785978801 1015.156300234843 1321.9740232161764 852.729208303833 1321.9740232161764 683.3489920333151C1321.9740232161764 513.9687744294636 1254.6979785978801 351.5468918320414 1134.927138083028 231.7708446502686C1015.156300234843 112.00000546875 852.729208303833 44.7239608504538 683.348992033315 44.7239608504538C513.9687744294637 44.7239608504538 351.5468918320414 112.00000546875 231.7708446502686 231.7708446502686C112.00000546875 351.5468918320414 44.7239608504537 513.9687744294636 44.7239608504537 683.3489920333151C44.7239608504537 852.729208303833 112.00000546875 1015.156300234843 231.7708446502686 1134.9271380830282C351.5468918320414 1254.6979785978801 513.9687744294637 1321.9740232161764 683.348992033315 1321.9740232161764zM683.348992033315 1321.9740232161764" />
    <glyph glyph-name="action-megaphone"
      unicode="&#xF11D;"
      horiz-adv-x="1365.3334" d=" M1087.1285730824472 858.502948585754L1268.4488752693105 963.1882736973419 M1111.7630809519708 776.8008379297265L1293.083383138834 779.6627847361367 M1101.06124042942 698.8883274587383L1282.3815426162832 594.2030023471505 M925.792990516921 1073.2357335266902C924.759570494019 1073.1961435258129 923.9375704758024 1073.0805835232518 923.1347904580114 1072.9818335210634C919.9236403868478 1072.5869135123114 917.434780331691 1071.9550234983078 914.4785402661764 1071.1595634806793C908.5660301351465 1069.568673445423 901.3672199756106 1067.2086633931217 892.8535397869349 1064.2376933272806C875.826189409584 1058.295773195599 853.8856989233507 1049.9473430105857 832.0293184389816 1041.4056628212895C789.1085274877944 1024.6318024495563 748.1637465803983 1007.7508720754504 746.6386865466009 1007.1224520615236C745.1497465136038 1006.7748020538191 592.1827631236326 971.0597512623216 437.6933696999226 934.1322204439538C360.0736479797565 915.578800032783 282.4552762596203 896.8109396168597 224.1308649670664 882.2220592935489C194.9686543207894 874.9276091318934 170.6518937818945 868.6842089935305 153.4140633998791 863.989638889492C144.7951432088713 861.6423488374726 137.9907630580763 859.701518794461 132.9316429459588 858.0990087589471C130.4020828899001 857.2977587411901 128.380592845101 856.6275387263372 126.2636727981869 855.7689387073093C125.2052127747299 855.3396386977954 124.1982027524131 854.9545486892612 122.3730527119651 853.89002866567C121.460472691741 853.357758653874 120.3394826668982 852.7546586405085 118.4277326245311 850.9603386007437C116.5159925821641 849.1660885609806 112.0000024820832 845.6276984825647 112.0000024820832 836.1927682734729L112.0000024820832 654.9056542558864C112.0000024820832 645.4707140467943 116.861362589818 641.4935139586538 118.962892636391 639.6595539180107C121.0644226829639 637.8255938773674 122.2807427099194 637.2559038647422 123.2597727316161 636.7494038535174C125.2178127750091 635.736403831068 126.2596827980985 635.4145638239354 127.3496128222529 635.0443238157304C129.5294628705616 634.3038537993203 131.560302915568 633.7663037874075 134.1035229719294 633.1283037732686C139.1899630846523 631.8523337449913 146.0019532356159 630.3561537118338 154.6269534267585 628.5755736723735C171.8769538090437 625.0144135934529 196.1943343479522 620.372663490585 225.3593849942922 614.9994033715058C252.5346555965358 609.9927232605504 284.1496762971708 604.3194631348227 317.7480570417598 598.3665830028982L366.1328181140365 422.4583791045162L537.044931901698 412.4642388830314L595.5761831988357 550.30213193772C681.1951050962758 535.730071614782 746.7282265485852 524.7246813708864 747.7578265714025 524.5521313670625C749.3840966074431 523.9828013544453 790.0255275081164 509.7471110389616 832.8203284565114 495.6439307264146C854.6415989401025 488.4526605670455 876.5707894260855 481.4427704116962 893.6308798041619 476.5072103023169C902.1609199932 474.0394202476273 909.3922201534562 472.093640204506 915.3301002850482 470.8275201764468C918.299030350844 470.1944701624175 920.821150406738 469.7038501515447 923.9472904760178 469.4642401462345C925.5103405106572 469.344370143578 927.1470505469292 469.1871701400943 930.1152506127086 469.6244001497838C933.0834406784882 470.0616201594734 940.0541608329694 470.3685001662743 945.455100952662 480.026740380315C1064.5598235921964 693.0155751004577 1023.7762226883722 883.5509893230001 946.32814097201 1060.8255832516631C941.72556087001 1071.3606834851364 933.0196606770746 1072.6245935131465 929.7207206039654 1073.034563522232C928.0712505674107 1073.239553526775 926.8264105398232 1073.275333527568 925.792990516921 1073.2357335266902zM916.0566603011498 1029.6986225618443C985.5617418414836 865.6487389262602 1018.1653225640266 701.5878752904324 917.0801003238308 511.6849410819067C913.3072602402192 512.6366211029973 910.0029701669914 513.4127211201969 904.748070050535 514.9329911538882C888.621289693142 519.5985412572837 866.9287492124038 526.5181514106323 845.341818734006 533.6322115682902C802.1679577772104 547.8603018836055 759.2968868271249 562.8744022163398 759.2968968271251 562.8744022163398L757.679706791286 563.4427622289354L755.990246753845 563.7240022351682C755.990246753845 563.7240022351682 600.8563833158526 589.7226328113356 445.7558698785994 616.5755734064361C368.2055981599723 630.0020337039858 290.6558564413571 643.6446040063252 232.6074251549194 654.3392442433338C203.5832145117006 659.686554361838 179.4066139759119 664.3030844641471 162.7128936059547 667.7494045405226C157.975763500973 668.7273445621951 155.4357734446831 669.3508145760121 152.0000033685415 670.1204945930693L152.0000033685415 821.9720579583212C155.6480334493871 823.0397379819826 158.6575135160816 823.9616480024133 163.9238336327909 825.3958880341983C180.6297240030178 829.945578135026 204.8089045388636 836.1567282726742 233.8359451821451 843.4173684335806C291.8900264687082 857.9386387553931 369.4405781873413 876.6927391710112 446.9921999059982 895.229869581821C602.0954333433118 932.3041304034406 757.2324367813737 968.5228412061002 757.2324367813737 968.5228412061002L758.8105668163475 968.893941214324L760.3066568495029 969.5111212280018C760.3066568495029 969.5111212280018 803.3331178030319 987.2434616209762 846.5879087616212 1004.147841995602C868.2152992409157 1012.6000321829148 889.9304097221541 1020.8527623658074 906.033220079016 1026.472062490339C910.3172501739562 1027.9670225234697 912.723810227289 1028.634322538258 916.0566603011498 1029.6986225618443zM361.3457080079472 590.6888528327485C386.8113985723041 586.2225227337681 412.7211391465017 581.6990626335216 438.9296997273214 577.1615025329628C478.6882806084296 570.2780023804144 518.0558914808731 563.5188122306208 555.0449323006042 557.198612090556L511.2422013298718 454.0423598044631L397.0937588001761 460.7161899523649L361.3457080079472 590.6888528327485z" />
    <glyph glyph-name="action-minus"
      unicode="&#xF11E;"
      horiz-adv-x="1365.3334" d=" M1216.000059375 803.3360792253926L1216.000059375 564.1451342128145C1048.047811174207 564.1451342128145 477.0605032939687 564.1451342128145 149.333340625 564.1451342128145L149.333340625 803.3360792253926z" />
    <glyph glyph-name="action-move-down"
      unicode="&#xF11F;"
      horiz-adv-x="1365.3334" d=" M0.1093749386739 1365.2813166641236L682.7187826692096 0.0520826692098L1365.3334 1365.2813166641236zM208.0573021590475 1236.6927683853862L1157.3854725129597 1236.6927683853862L682.7187826692096 287.3645980314739zM208.0573021590475 1236.6927683853862" />
    <glyph glyph-name="action-move-left"
      unicode="&#xF120;"
      horiz-adv-x="1365.3334" d=" M1365.3334 1365.2813166641236L0.1093749386739 682.6667L1365.3334 0.0520826692098zM1236.7448523879293 1157.33338984375L1236.7448523879293 208.00001015625L287.4166807006836 682.6667zM1236.7448523879293 1157.33338984375" />
    <glyph glyph-name="action-move-right"
      unicode="&#xF121;"
      horiz-adv-x="1365.3334" d=" M0.1093749386739 0.0520826692098L1365.3334 682.6667L0.1093749386739 1365.2813166641236zM128.6927142838236 208.00001015625L128.6927142838236 1157.33338984375L1078.0208859710692 682.6667zM128.6927142838236 208.00001015625" />
    <glyph glyph-name="action-move-up"
      unicode="&#xF122;"
      horiz-adv-x="1365.3334" d=" M1365.3334 0.0520826692098L682.7187826692096 1365.2813166641236L0.1093749386739 0.0520826692098zM1157.3854725129597 128.6406316146138L208.0573021590475 128.6406316146138L682.7187826692096 1077.9688019685261zM1157.3854725129597 128.6406316146138" />
    <glyph glyph-name="action-plus"
      unicode="&#xF123;"
      horiz-adv-x="1365.3334" d=" M912 943.83543V764.44223H613.0068V442.82863H409.37551V764.44223H112V943.83543H409.37551V1263.83817H613.0068V943.83543z" />
    <glyph glyph-name="action-quick-radius-map"
      unicode="&#xF124;"
      horiz-adv-x="1365.3334" d=" M683.348992033315 1366.015692033315C502.3021071931356 1366.015692033315 328.6510573807475 1294.083396520996 200.6302177963969 1166.0677649368997C72.614587545634 1038.0469253525491 0.682292033315 864.3958755401611 0.682292033315 683.3489920333151C0.682292033315 502.3021071931355 72.614587545634 328.6510573807475 200.6302177963969 200.6302177963969C328.6510573807475 72.6145875456341 502.3021071931356 0.682292033315 683.348992033315 0.682292033315C864.3958755401611 0.682292033315 1038.0469253525494 72.6145875456341 1166.0677649368997 200.6302177963969C1294.083396520996 328.6510573807475 1366.0156920333152 502.3021071931355 1366.0156920333152 683.3489920333151C1366.0156920333152 864.3958755401611 1294.083396520996 1038.0469253525491 1166.0677649368997 1166.0677649368997C1038.0469253525494 1294.083396520996 864.3958755401611 1366.015692033315 683.348992033315 1366.015692033315zM683.348992033315 1321.9740232161764C852.729208303833 1321.9740232161764 1015.156300234843 1254.6979785978801 1134.927138083028 1134.9271380830282C1141.833389086914 1128.0156804122212 1148.5625560821534 1120.9583880676269 1155.1198484023334 1113.7708877166747L1053.9740101302389 1074.4479697966106L1039.177133407735 1034.8906758651021C863.8958755157471 948.0781716262106 688.5104496186726 879.8854589631551 513.1614837233785 797.6875389495849L667.3333659179688 643.510447421407C520.4114840773824 576.9062788359173 334.5052243332621 528.5885671433207 212.0677183548686 452.5781474318745C454.1771048432821 482.5104395600788 745.9062870878704 482.744815571523 983.0937973359576 503.9896086088664C1009.7604653047079 506.4479420622356 1062.3750518737793 507.9843994705913 1071.2083856384277 533.3854420442096L909.6823364180806 694.9167005981445C1045.3125510406494 728.2396195585734 1181.0417243347167 734.2812865202434 1316.661522956777 765.4739960433249C1320.171939128184 738.3854520539754 1321.9740232161764 710.9583680480957 1321.9740232161764 683.3489920333151C1321.9740232161764 513.9687744294636 1254.6979785978801 351.5468918320414 1134.927138083028 231.7708446502686C1015.156300234843 112.00000546875 852.729208303833 44.7239608504538 683.348992033315 44.7239608504538C513.9687744294637 44.7239608504538 351.5468918320414 112.00000546875 231.7708446502686 231.7708446502686C112.00000546875 351.5468918320414 44.7239608504537 513.9687744294636 44.7239608504537 683.3489920333151C44.7239608504537 852.729208303833 112.00000546875 1015.156300234843 231.7708446502686 1134.9271380830282C351.5468918320414 1254.6979785978801 513.9687744294637 1321.9740232161764 683.348992033315 1321.9740232161764zM683.348992033315 1321.9740232161764" />
    <glyph glyph-name="action-reload"
      unicode="&#xF125;"
      horiz-adv-x="1365.3334" d=" M768.0000375 1282.5833959594727C435.1979412498984 1282.5833959594727 170.666675 1012.619836110992 170.666675 682.6667L0 682.6667L213.33334375 425.5573141124981L426.6666875 682.6667L256.0000125000001 682.6667C256.0000125000001 965.484420476125 482.1302368748477 1196.88027177475 768.0000375 1196.88027177475C1053.8698381251522 1196.88027177475 1280.0000625 965.484420476125 1280.0000625 682.6667C1280.0000625 399.848979523875 1053.8698381251522 168.4479282249961 768.0000375 168.4479282249961L768.0000375 82.7500040405273C1100.8021337501016 82.7500040405273 1365.3334 352.7135638890078 1365.3334 682.6667C1365.3334 1012.619836110992 1100.8021337501016 1282.5833959594727 768.0000375 1282.5833959594727" />
    <glyph glyph-name="action-resource-chart"
      unicode="&#xF126;"
      horiz-adv-x="1365.3334" d=" M331.0052241623637 419.0937697968953L1080.890678111196 419.0937697968953L918.2187941682332 705.8125344635009L786.4271210664265 641.5000313232422L648.604198336792 900.2760852921244L497.0573162703756 804.8489979659322L331.0052241623637 1052.65109273231zM683.348992033315 1366.015692033315C502.3021071931356 1366.015692033315 328.6510573807475 1294.083396520996 200.6302177963969 1166.0677649368997C72.614587545634 1038.0469253525491 0.682292033315 864.3958755401611 0.682292033315 683.3489920333151C0.682292033315 502.3021071931355 72.614587545634 328.6510573807475 200.6302177963969 200.6302177963969C328.6510573807475 72.6145875456341 502.3021071931356 0.682292033315 683.348992033315 0.682292033315C864.3958755401611 0.682292033315 1038.0469253525494 72.6145875456341 1166.0677649368997 200.6302177963969C1294.083396520996 328.6510573807475 1366.0156920333152 502.3021071931355 1366.0156920333152 683.3489920333151C1366.0156920333152 864.3958755401611 1294.083396520996 1038.0469253525491 1166.0677649368997 1166.0677649368997C1038.0469253525494 1294.083396520996 864.3958755401611 1366.015692033315 683.348992033315 1366.015692033315zM683.348992033315 1321.9740232161764C852.729208303833 1321.9740232161764 1015.156300234843 1254.6979785978801 1134.927138083028 1134.9271380830282C1254.6979785978801 1015.156300234843 1321.9740232161764 852.729208303833 1321.9740232161764 683.3489920333151C1321.9740232161764 513.9687744294636 1254.6979785978801 351.5468918320414 1134.927138083028 231.7708446502686C1015.156300234843 112.00000546875 852.729208303833 44.7239608504538 683.348992033315 44.7239608504538C513.9687744294637 44.7239608504538 351.5468918320414 112.00000546875 231.7708446502686 231.7708446502686C112.00000546875 351.5468918320414 44.7239608504537 513.9687744294636 44.7239608504537 683.3489920333151C44.7239608504537 852.729208303833 112.00000546875 1015.156300234843 231.7708446502686 1134.9271380830282C351.5468918320414 1254.6979785978801 513.9687744294637 1321.9740232161764 683.348992033315 1321.9740232161764zM683.348992033315 1321.9740232161764" />
    <glyph glyph-name="action-right"
      unicode="&#xF127;"
      horiz-adv-x="1365.3334" d=" M578.9062416002383 1365.3333666666663L1365.333359999998 683.3489600333148L578.9062416002383 1.3645000666272V250.995472255639L1071.841292335998 684.0312533999632L578.9062416002383 1128.637648442592z" />
    <glyph glyph-name="action-role-management"
      unicode="&#xF128;"
      horiz-adv-x="1365.3334" d=" M683.348992033315 1366.015692033315C306.5833483032227 1366.015692033315 0.682292033315 1060.1146357634075 0.682292033315 683.3489920333151C0.682292033315 306.5833483032227 306.5833483032227 0.682292033315 683.348992033315 0.682292033315C1060.1146357634075 0.682292033315 1366.0156920333152 306.5833483032227 1366.0156920333152 683.3489920333151C1366.0156920333152 1060.1146357634075 1060.1146357634075 1366.015692033315 683.348992033315 1366.015692033315zM683.348992033315 1321.9740232161764C1036.3125506011963 1321.9740232161764 1321.9740232161764 1036.3125506011963 1321.9740232161764 683.3489920333151C1321.9740232161764 330.3854321321003 1036.3125506011963 44.7239608504538 683.348992033315 44.7239608504538C330.3854321321004 44.7239608504538 44.7239608504537 330.3854321321003 44.7239608504537 683.3489920333151C44.7239608504537 1036.3125506011963 330.3854321321004 1321.9740232161764 683.348992033315 1321.9740232161764zM683.348992033315 1321.9740232161764 M1124.218804226827 560.3541940277099L1010.5937986787312 560.3541940277099L1010.5937986787312 804.0521219270223C1010.5937986787312 883.3229604643352 946.3177542069194 947.6094209366556 867.0521250031941 947.6094209366556L544.1302345688578 947.6094209366556C464.864606698466 947.6094209366556 400.6406448958639 883.3229604643352 400.6406448958639 804.0521219270223L400.6406448958639 560.3541940277099L286.963555345225 560.3541940277099L286.963555345225 493.0937734101765L1124.218804226827 493.0937734101765zM1124.218804226827 560.3541940277099" />
    <glyph glyph-name="action-schedule-call"
      unicode="&#xF129;"
      horiz-adv-x="1365.3334" d=" M1061.8750518493653 507.3385661057231C1058.4896356840618 510.7656502730611 1055.2865101943257 514.1458584381104 1052.0365100356344 517.5625252716064L1033.312550454712 536.6771088716023C957.92712944045 610.8177378250834 928.3333786621095 641.1458646392822 925.2083785095214 643.2604474092C921.7917116760254 646.5104475678913 918.406295510722 649.7604477265827 914.9792113433838 653.0989905562642C877.8958761993408 687.9844082596537 852.1094162735698 660.1666989013672 818.531290634013 609.3854457551472C815.4583731506348 604.703154859853 812.5521223420612 600.2812799772747 809.9114982131246 596.1198211074117C809.8281648757222 595.9948211013082 809.7396235380656 595.8646130949504 809.6510808670756 595.6875290863037C808.6510808182475 594.1823210128072 807.8281647780659 592.8698209487203 806.8750393981934 591.406279543925C769.0052455490825 532.6094006729838 772.1667043701171 531.3073179427388 758.9583703918457 534.427108761739C758.3906623641255 534.5156514327291 757.9167036743164 534.6823181075338 757.3594116471049 534.859400782847C714.3646188810833 548.2916934387207 719.3125351226806 550.8854428987019 635.8541977142334 635.8073230452779C550.9791935699462 719.2656604537252 548.3385681076761 714.3281602126364 534.9062767851359 757.3125369781494C534.7291927764893 757.8229543364055 534.5937754365438 758.3437863618367 534.4739847640279 758.9114957228902C531.3437752778524 772.1302457016702 532.6562766752727 769.0052455490824 591.4427368790384 806.8281647292379C592.9166956176758 807.7812901091105 594.3073210189108 808.6458728179931 595.7344037552591 809.6042061981201C595.8698210952048 809.6875395355224 596.0000291015625 809.776080873179 596.1666957763672 809.8646235441691C600.3281546462301 812.5521223420614 604.7083628601074 815.4114984816794 609.4323217574362 818.484414631724C660.2135735703226 852.0729589384563 688.0364922621968 877.8958761993408 653.151073225474 914.9427526749369C649.7656570601705 918.3594195084328 646.5625315704345 921.74483700707 643.3125314117432 925.161503840566C641.1927393082376 928.286503993154 610.8229471586711 957.8802547714944 536.7239848738913 1033.2656757857565L517.5677332718607 1052.0365100356344C514.1510664383646 1055.2865101943257 510.7656502730612 1058.536510353017 507.338566105723 1061.8750518493653C466.0989814254049 1100.697971078349 427.9166875610352 1072.8333857177734 388.2760602921244 1011.1250493713378C349.0625170440674 950.0729637236124 336.1510577469584 912.9479619108683 336.0625164093018 912.6510858963724C318.3385568772074 856.578167158437 351.7916838439941 788.0260798111674 365.8802258652445 764.4583706604004C414.5729375761516 682.4375333221435 433.5521038362019 648.078156977773 541.6562771147258 541.6562771147259C648.0781569777731 433.5521038362019 682.4427413223978 414.5729375761516 764.4583706604004 365.8802258652446C788.0312891447552 351.7916838439942 856.578167158437 318.3385568772076 912.604211227417 336.0625164093017C912.9062952421672 336.1510577469585 950.0000463867189 349.0625170440674 1011.0833827026368 388.2760602921245C1072.8333857177734 427.9166875610352 1100.697971078349 466.0989814254049 1061.8750518493653 507.3385661057231zM683.348992033315 1366.015692033315C502.3021071931356 1366.015692033315 328.6510573807475 1294.083396520996 200.6302177963969 1166.0677649368997C72.614587545634 1038.0469253525491 0.682292033315 864.3958755401611 0.682292033315 683.3489920333151C0.682292033315 502.3021071931355 72.614587545634 328.6510573807475 200.6302177963969 200.6302177963969C328.6510573807475 72.6145875456341 502.3021071931356 0.682292033315 683.348992033315 0.682292033315C864.3958755401611 0.682292033315 1038.0469253525494 72.6145875456341 1166.0677649368997 200.6302177963969C1294.083396520996 328.6510573807475 1366.0156920333152 502.3021071931355 1366.0156920333152 683.3489920333151C1366.0156920333152 864.3958755401611 1294.083396520996 1038.0469253525491 1166.0677649368997 1166.0677649368997C1038.0469253525494 1294.083396520996 864.3958755401611 1366.015692033315 683.348992033315 1366.015692033315zM683.348992033315 1321.9740232161764C852.729208303833 1321.9740232161764 1015.156300234843 1254.6979785978801 1134.927138083028 1134.9271380830282C1254.6979785978801 1015.156300234843 1321.9740232161764 852.729208303833 1321.9740232161764 683.3489920333151C1321.9740232161764 513.9687744294636 1254.6979785978801 351.5468918320414 1134.927138083028 231.7708446502686C1015.156300234843 112.00000546875 852.729208303833 44.7239608504538 683.348992033315 44.7239608504538C513.9687744294637 44.7239608504538 351.5468918320414 112.00000546875 231.7708446502686 231.7708446502686C112.00000546875 351.5468918320414 44.7239608504537 513.9687744294636 44.7239608504537 683.3489920333151C44.7239608504537 852.729208303833 112.00000546875 1015.156300234843 231.7708446502686 1134.9271380830282C351.5468918320414 1254.6979785978801 513.9687744294637 1321.9740232161764 683.348992033315 1321.9740232161764zM683.348992033315 1321.9740232161764" />
    <glyph glyph-name="action-schedule-meeting"
      unicode="&#xF12A;"
      horiz-adv-x="1365.3334" d=" M683.3489933666484 1366.015692033315C502.3021045264687 1366.015692033315 328.6510560474141 1294.083396520996 200.6302231297305 1166.0677636035664C72.614587545634 1038.0469306858827 0.682292033315 864.3958822068281 0.682292033315 683.3489933666484C0.682292033315 502.3021045264688 72.614587545634 328.6510560474142 200.6302231297305 200.6302231297305C328.6510560474141 72.6145902123008 502.3021045264687 0.6822666999806 683.3489933666484 0.6822666999806C864.395868873494 0.6822666999806 1038.0469306858827 72.6145902123008 1166.0677636035664 200.6302231297305C1294.083396520996 328.6510560474142 1366.0156666999806 502.3021045264688 1366.0156666999806 683.3489933666484C1366.0156666999806 864.3958822068281 1294.083396520996 1038.046930685883 1166.0677636035664 1166.0677636035664C1038.046930685883 1294.083396520996 864.3958688734941 1366.015692033315 683.3489933666484 1366.015692033315zM683.3489933666484 1321.9740232161764C852.729201637166 1321.9740232161764 1015.1563029015095 1254.6979785978801 1134.9271354163614 1134.9271354163614C1254.6979812645468 1015.1563029015095 1321.9740245495097 852.7292149704999 1321.9740245495097 683.3489933666484C1321.9740245495097 513.9687717627969 1254.6979812645468 351.5468971653751 1134.9271354163614 231.7708513169357C1015.1563029015098 112.00000546875 852.729201637166 44.7239621837871 683.3489933666484 44.7239621837871C513.9687717627969 44.7239621837871 351.546897165375 112.00000546875 231.7708379836016 231.7708513169355C112.00000546875 351.5468971653751 44.7239608504537 513.9687717627968 44.7239608504537 683.3489933666484C44.7239608504537 852.7292149704999 112.00000546875 1015.1563029015095 231.7708379836016 1134.9271354163614C351.546897165375 1254.6979785978801 513.9687717627969 1321.9740232161764 683.3489933666484 1321.9740232161764z M462.1163692309414 991.0757683923692C462.1163692309414 932.3521521916718 462.1163692309414 873.6285359909746 462.1163692309414 814.9049197902773C491.4774906645899 814.9049197902773 520.8386120982383 814.9049197902773 550.1997201985528 814.9049197902773C550.1997201985528 873.6285359909746 550.1997201985528 932.3521521916718 550.1997201985528 991.0757683923692C520.8386120982383 991.0757683923692 491.4774906645898 991.0757683923692 462.1163692309414 991.0757683923692zM814.4601464352266 991.0757683923692C814.4601464352266 932.3521521916718 814.4601464352266 873.6285359909746 814.4601464352266 814.9049197902773C843.8212545355411 814.9049197902773 873.1823626358555 814.9049197902773 902.543484069504 814.9049197902773C902.543484069504 873.6285359909746 902.543484069504 932.3521521916718 902.543484069504 991.0757683923692C873.1823626358555 991.0757683923692 843.8212545355411 991.0757683923692 814.4601464352266 991.0757683923692zM374.028871596461 947.0340862418964C374.028871596461 756.1799169228457 374.028871596461 565.3257476037949 374.028871596461 374.4715649514102C577.7035748748477 374.3308716112071 781.4215714886818 374.7543782985528 985.0688747657306 374.2576316076309C996.7536086696076 380.0470318903164 987.9019949040664 399.2340194938478 990.63307503742 411.1217000743009C990.63307503742 589.7591754635001 990.63307503742 768.3966375193653 990.63307503742 947.0340862418966C975.9525143205958 947.0340862418966 961.2719536037716 947.0340862418966 946.5913928869473 947.0340862418966C946.5913928869473 888.3104833745333 946.5913928869473 829.586867173836 946.5913928869473 770.8632509731387C887.8670833528829 770.8632509731387 829.1427871521524 770.8632509731387 770.418464284754 770.8632509731387C770.418464284754 829.586867173836 770.418464284754 888.3104833745333 770.418464284754 947.0340862418964C711.6948614173907 947.0340862418964 652.9712452166934 947.0340862418964 594.2476290159963 947.0340862418964C594.2476290159963 888.3104833745332 594.2476290159963 829.5868671738359 594.2476290159963 770.8632509731387C535.5233194819318 770.8632509731387 476.7990232812013 770.8632509731387 418.0747137471369 770.8632509731387C418.0747137471369 829.586867173836 418.0747137471369 888.3104833745333 418.0747137471369 947.0340862418964C403.3927663635783 947.0340862418964 388.7108189800197 947.0340862418964 374.0288715964611 947.0340862418964z" />
    <glyph glyph-name="action-schedule"
      unicode="&#xF12B;"
      horiz-adv-x="1365.3334" d=" M990.8490070479634 1348.9427738663433L898.1562945219524 1348.9427738663433L898.1562945219524 1184.4271405000204L466.8646067961222 1184.4271405000204L466.8646067961222 1348.9427738663433L374.1771009370321 1348.9427738663433L374.1771009370321 1184.4271405000204L21.1770837007039 1184.4271405000204L21.1770837007039 15.6093754288431L1343.8438149507037 15.6093754288431L1343.8438149507037 1184.4271405000204L990.8490070479634 1184.4271405000204zM113.8697975600485 108.1562559477336L113.8697975600485 761.2708705047608L1251.1563117582805 761.2708705047608L1251.1563117582805 108.1562559477336zM1251.1563117582805 1091.875053314209L1251.1563117582805 855.5052497727152L113.8697975600485 855.5052497727152L113.8697975600485 1091.875053314209L374.2604342744344 1091.875053314209L374.2604342744344 980.0990065230612L466.9531481337789 980.0990065230612L466.9531481337789 1091.875053314209L896.6667104492187 1091.875053314209L896.6667104492187 980.0990065230612L989.333381640625 980.0990065230612L989.333381640625 1091.875053314209zM1251.1563117582805 1091.875053314209 M407.3883132253399 428.5539009254824C407.3883132253399 274.8542920243454 531.9864645796268 150.2561406700586 685.6860734807638 150.2561406700586C839.3856823819007 150.2561406700586 963.9838337361876 274.8542920243454 963.9838337361876 428.5539009254824C963.9838337361876 582.2535098266193 839.3856823819007 706.8516611809061 685.6860734807638 706.8516611809061C531.9864645796268 706.8516611809061 407.3883132253399 582.2535098266193 407.3883132253399 428.5539009254824z M559.500787319373 578.5476682493965L692.8286471628554 402.3644329800332L821.3947867738319 580.9285216989823V580.9285216989823" />
    <glyph glyph-name="action-search"
      unicode="&#xF12C;"
      horiz-adv-x="1365.3334" d=" M503.3593992447611 1335.7240238875631C226.062511038208 1335.7240238875631 0 1109.661512849355 0 832.3646246428019C0 555.0677351029154 226.062511038208 329.0052240647074 503.3593992447611 329.0052240647074C780.6562887846477 329.0052240647074 1006.7187984895222 555.0677351029154 1006.7187984895222 832.3646246428019C1006.7187984895222 1109.661512849355 780.6562887846477 1335.7240238875631 503.3593992447611 1335.7240238875631zM503.3593992447611 1217.286518104482C716.6458683258056 1217.286518104482 888.2812940397747 1045.651092390513 888.2812940397747 832.3646246428019C888.2812940397747 619.0729475615032 716.6458683258056 447.4427298477886 503.3593992447611 447.4427298477886C290.07293149705 447.4427298477886 118.4375057830811 619.0729475615032 118.4375057830811 832.3646246428019C118.4375057830811 1045.651092390513 290.07293149705 1217.286518104482 503.3593992447611 1217.286518104482zM503.3593992447611 1217.286518104482 M1035.088591874766 478.2500233520508C986.8854641877645 478.2239820174459 943.5052540695903 448.9948139235738 925.3854611848346 404.3281450759175C907.2656696334126 359.6614762282614 918.015670158315 308.4687643952839 952.5833798461914 274.8645974211225L1161.9531820693257 65.4947951979877C1191.7292248565673 34.8645857023723 1235.6875603363037 22.6354171052449 1277.00527035377 33.5000016357421C1318.3177723709819 44.3593768326518 1350.5833992797852 76.625003741455 1361.4427744766947 117.9427137589214C1372.3073590071922 159.2552157761331 1360.078191743398 203.2187592561238 1329.4479822477824 232.9895953764447L1120.078180024648 442.3646055998333C1097.7604696015828 465.3177307205913 1067.1042187713622 478.2604393525593 1035.088591874766 478.2500233520508zM1035.088591874766 478.2500233520508" />
    <glyph glyph-name="action-security-groups"
      unicode="&#xF12D;"
      horiz-adv-x="1365.3334" d=" M943.2448380568746 781.3646221525676L900.2969186264751 781.3646221525676C894.8125436920166 781.3646221525676 889.2708767547607 785.7812890348918 889.2708767547607 792.3802466904398L889.2708767547607 893.6719183029886C889.2708767547607 1010.4010906693215 798.9792056793212 1109.489638174296 682.2864919814352 1113.8750543884278C560.0729446806438 1118.2917212707519 458.7448143996481 1020.307341819692 458.7448143996481 898.0833771850586L458.7448143996481 791.2708719696045C458.7448143996481 785.7812890348918 454.3281475173239 780.2448300978903 447.7187711946004 780.2448300978903L404.7812704313762 780.2448300978903C388.2604349580281 780.2448300978903 375.0468929795023 767.0312881193645 375.0468929795023 750.5208699798584L375.0468929795023 360.7396016142376C375.0468929795023 344.2187661408894 388.2604349580281 331.0052241623637 404.7812704313762 331.0052241623637L942.0937953340047 331.0052241623637C958.6042134735108 331.0052241623637 971.8177554520366 344.2187661408894 971.8177554520366 360.7396016142376L971.8177554520366 751.6302447006937C972.968796841573 768.1510788407084 959.7552548630472 781.3646221525676 943.2448380568746 781.3646221525676zM525.9271083467 898.0833771850586C525.9271083467 982.8542146575928 596.4010704544779 1051.1510926590677 682.2864919814352 1046.7344257767436C762.6823292403462 1042.312550894165 824.3281655837301 974.0625475616454 824.3281655837301 893.6719183029886L824.3281655837301 791.2708719696045C824.3281655837301 785.7812890348918 819.9114987014058 780.2448300978903 813.3021223786824 780.2448300978903L535.8333594970703 780.2448300978903C530.3385672287699 780.2448300978903 524.8073176253561 784.6614969802145 524.8073176253561 791.2708719696045L524.8073176253561 898.0833771850586zM683.348992033315 1366.015692033315C502.3021071931356 1366.015692033315 328.6510573807475 1294.083396520996 200.6302177963969 1166.0677649368997C72.614587545634 1038.0469253525491 0.682292033315 864.3958755401611 0.682292033315 683.3489920333151C0.682292033315 502.3021071931355 72.614587545634 328.6510573807475 200.6302177963969 200.6302177963969C328.6510573807475 72.6145875456341 502.3021071931356 0.682292033315 683.348992033315 0.682292033315C864.3958755401611 0.682292033315 1038.0469253525494 72.6145875456341 1166.0677649368997 200.6302177963969C1294.083396520996 328.6510573807475 1366.0156920333152 502.3021071931355 1366.0156920333152 683.3489920333151C1366.0156920333152 864.3958755401611 1294.083396520996 1038.0469253525491 1166.0677649368997 1166.0677649368997C1038.0469253525494 1294.083396520996 864.3958755401611 1366.015692033315 683.348992033315 1366.015692033315zM683.348992033315 1321.9740232161764C852.729208303833 1321.9740232161764 1015.156300234843 1254.6979785978801 1134.927138083028 1134.9271380830282C1254.6979785978801 1015.156300234843 1321.9740232161764 852.729208303833 1321.9740232161764 683.3489920333151C1321.9740232161764 513.9687744294636 1254.6979785978801 351.5468918320414 1134.927138083028 231.7708446502686C1015.156300234843 112.00000546875 852.729208303833 44.7239608504538 683.348992033315 44.7239608504538C513.9687744294637 44.7239608504538 351.5468918320414 112.00000546875 231.7708446502686 231.7708446502686C112.00000546875 351.5468918320414 44.7239608504537 513.9687744294636 44.7239608504537 683.3489920333151C44.7239608504537 852.729208303833 112.00000546875 1015.156300234843 231.7708446502686 1134.9271380830282C351.5468918320414 1254.6979785978801 513.9687744294637 1321.9740232161764 683.348992033315 1321.9740232161764zM683.348992033315 1321.9740232161764" />
    <glyph glyph-name="action-security-suite-settings"
      unicode="&#xF12E;"
      horiz-adv-x="1365.3334" d=" M917.2760861222026 705.3698264418844L864.3021248689167 705.3698264418844L864.3021248689167 599.4166959350586L917.2760861222026 599.4166959350586L917.2760861222026 334.5364750014546L1023.2292166290284 334.5364750014546L1023.2292166290284 599.4166959350586L1076.203177882314 599.4166959350586L1076.203177882314 705.3698264418844L1023.2292166290284 705.3698264418844L1023.2292166290284 1076.203177882314L917.2760861222026 1076.203177882314zM334.5364750014547 546.4427346817729L334.5364750014547 440.4896055082806L387.5156442549948 440.4896055082806L387.5156442549948 334.5364750014546L493.4635654282328 334.5364750014546L493.4635654282328 440.4896055082806L546.4427346817728 440.4896055082806L546.4427346817728 546.4427346817729L493.4635654282328 546.4427346817729L493.4635654282328 1076.203177882314L387.5156442549948 1076.203177882314L387.5156442549948 546.4427346817729zM599.4166959350586 917.2760861222026L599.4166959350586 811.3229569487102L652.3958651885986 811.3229569487102L652.3958651885986 334.5364750014546L758.3489956954244 334.5364750014546L758.3489956954244 811.3229569487102L811.3229569487103 811.3229569487102L811.3229569487103 917.2760861222026L758.3489956954244 917.2760861222026L758.3489956954244 1076.203177882314L652.3958651885986 1076.203177882314L652.3958651885986 917.2760861222026zM683.348992033315 1366.015692033315C502.3021071931356 1366.015692033315 328.6510573807475 1294.083396520996 200.6302177963969 1166.0677649368997C72.614587545634 1038.0469253525491 0.682292033315 864.3958755401611 0.682292033315 683.3489920333151C0.682292033315 502.3021071931355 72.614587545634 328.6510573807475 200.6302177963969 200.6302177963969C328.6510573807475 72.6145875456341 502.3021071931356 0.682292033315 683.348992033315 0.682292033315C864.3958755401611 0.682292033315 1038.0469253525494 72.6145875456341 1166.0677649368997 200.6302177963969C1294.083396520996 328.6510573807475 1366.0156920333152 502.3021071931355 1366.0156920333152 683.3489920333151C1366.0156920333152 864.3958755401611 1294.083396520996 1038.0469253525491 1166.0677649368997 1166.0677649368997C1038.0469253525494 1294.083396520996 864.3958755401611 1366.015692033315 683.348992033315 1366.015692033315zM683.348992033315 1321.9740232161764C852.729208303833 1321.9740232161764 1015.156300234843 1254.6979785978801 1134.927138083028 1134.9271380830282C1254.6979785978801 1015.156300234843 1321.9740232161764 852.729208303833 1321.9740232161764 683.3489920333151C1321.9740232161764 513.9687744294636 1254.6979785978801 351.5468918320414 1134.927138083028 231.7708446502686C1015.156300234843 112.00000546875 852.729208303833 44.7239608504538 683.348992033315 44.7239608504538C513.9687744294637 44.7239608504538 351.5468918320414 112.00000546875 231.7708446502686 231.7708446502686C112.00000546875 351.5468918320414 44.7239608504537 513.9687744294636 44.7239608504537 683.3489920333151C44.7239608504537 852.729208303833 112.00000546875 1015.156300234843 231.7708446502686 1134.9271380830282C351.5468918320414 1254.6979785978801 513.9687744294637 1321.9740232161764 683.348992033315 1321.9740232161764zM683.348992033315 1321.9740232161764" />
    <glyph glyph-name="action-select"
      unicode="&#xF12F;"
      horiz-adv-x="1365.3334" d=" M297.4539211907832 1184.8975245229883L396.6310460334161 -81.9933640035822L877.9669362028104 315.8076687536289L1357.2679329395116 -264.1421862309003L1510.7274070993162 -137.3143933714707L1031.426450362617 442.6354216130568L1522.9906076981054 848.890134783045z" />
    <glyph glyph-name="action-setup-email"
      unicode="&#xF130;"
      horiz-adv-x="1365.3334" d=" M397.2916860656739 991.6510897537942C365.2864765029196 991.6510897537942 338.7135578720805 969.171921989512 332.4531415663961 939.0573378524068L695.4844086258647 576.0312787931927L1058.5208850189208 939.0573378524068C1052.2135927109478 969.1302553208108 1025.6771327485553 991.6510897537942 993.6719231858012 991.6510897537942L397.2500193969727 991.6510897537942M331.0052241623637 893.6615023024801L331.0052241623637 486.0104397309773L534.8489847823386 689.8542003509522L331.0052241623637 893.6875436370849M1059.9583850891113 893.6875436370849L859.0781672805074 692.8177418289896L1059.9583850891113 491.9375240203857L1059.9583850891113 893.765668974233M835.6562914701946 669.4635740219828L707.2135758652446 541.0208597503662C700.760450216817 534.5677341019389 690.244825703359 534.5677341019389 683.7917000549317 541.0208597503662L558.3125272613526 666.5000325439453L333.8906416365865 442.0885629196879C342.1718913742777 414.9427282608745 367.3385592697855 395.3073113021138 397.2500193969727 395.3073113021138L993.6719231858012 395.3073113021138C1025.302132730245 395.3073113021138 1051.531302010966 417.2552283737895 1058.2500516723633 446.791688482666L835.6146248014934 669.4219073532817M683.348992033315 1366.015692033315C502.3021071931356 1366.015692033315 328.6510573807475 1294.083396520996 200.6302177963969 1166.0677649368997C72.614587545634 1038.0469253525491 0.682292033315 864.3958755401611 0.682292033315 683.3489920333151C0.682292033315 502.3021071931355 72.614587545634 328.6510573807475 200.6302177963969 200.6302177963969C328.6510573807475 72.6145875456341 502.3021071931356 0.682292033315 683.348992033315 0.682292033315C864.3958755401611 0.682292033315 1038.0469253525494 72.6145875456341 1166.0677649368997 200.6302177963969C1294.083396520996 328.6510573807475 1366.0156920333152 502.3021071931355 1366.0156920333152 683.3489920333151C1366.0156920333152 864.3958755401611 1294.083396520996 1038.0469253525491 1166.0677649368997 1166.0677649368997C1038.0469253525494 1294.083396520996 864.3958755401611 1366.015692033315 683.348992033315 1366.015692033315zM683.348992033315 1321.9740232161764C852.729208303833 1321.9740232161764 1015.156300234843 1254.6979785978801 1134.927138083028 1134.9271380830282C1254.6979785978801 1015.156300234843 1321.9740232161764 852.729208303833 1321.9740232161764 683.3489920333151C1321.9740232161764 513.9687744294636 1254.6979785978801 351.5468918320414 1134.927138083028 231.7708446502686C1015.156300234843 112.00000546875 852.729208303833 44.7239608504538 683.348992033315 44.7239608504538C513.9687744294637 44.7239608504538 351.5468918320414 112.00000546875 231.7708446502686 231.7708446502686C112.00000546875 351.5468918320414 44.7239608504537 513.9687744294636 44.7239608504537 683.3489920333151C44.7239608504537 852.729208303833 112.00000546875 1015.156300234843 231.7708446502686 1134.9271380830282C351.5468918320414 1254.6979785978801 513.9687744294637 1321.9740232161764 683.348992033315 1321.9740232161764zM683.348992033315 1321.9740232161764" />
    <glyph glyph-name="action-sorting-ascending"
      unicode="&#xF131;"
      horiz-adv-x="1365.3334" d=" M91.530388469257 609.1912288921478H1273.8029718507412L682.666680159999 5.52612677668zM91.530388469257 609.1912288921478 M682.6666822399991 1355.2118970136405L90.9383510909292 750.9404680862796H135.0140482850721H1274.3950166645188zM682.6666822399991 1302.2459971178007L1186.2414844993825 787.9982620458351H179.0918777969826z" />
    <glyph glyph-name="action-sorting-descending"
      unicode="&#xF132;"
      horiz-adv-x="1365.3334" d=" M91.530388469257 751.5467308834653H1273.8029718507412L682.666680159999 1355.2118329989332zM91.530388469257 751.5467308834653 M682.6666822399991 5.5260360953048L90.9383510909292 609.797465022666H135.0140482850721H1274.3950166645188zM682.6666822399991 58.4919359911446L1186.2414844993825 572.7396710631102H179.0918777969826z" />
    <glyph glyph-name="action-sorting-none"
      unicode="&#xF133;"
      horiz-adv-x="1365.3334" d=" M682.6666822399991 1355.2118970136405L90.9383510909292 750.9404680862796H135.0140482850721H1274.3950166645188zM682.6666822399991 1302.2459971178007L1186.2414844993825 787.9982620458351H179.0918777969826z M682.6666822399991 5.5280360954023L90.9383510909292 609.7994650227633H135.0140482850721H1274.3950166645188zM682.6666822399991 58.4939359912421L1186.2414844993825 572.7416710632077H179.0918777969826z" />
    <glyph glyph-name="action-subtract"
      unicode="&#xF134;"
      horiz-adv-x="1365.3334" d=" M521.6458588043213 965.3542138031004C575.1302360825297 911.8698365248922 628.6094053604837 858.3906672469382 682.0937826386922 804.9062899687297C739.6458694488525 862.4583754455566 797.1979562590129 920.0104609223836 854.7500417358399 977.5625477325437C891.3750435241699 940.9375459442138 928.0000453125 904.3125441558838 964.6250471008302 867.692750367808C907.0729616240033 810.1354555573934 849.5208748138427 752.5833700805664 791.9687880036823 695.0312846037394C845.7396252958782 641.2604473115437 899.5156692549947 587.4844033524272 953.286505213857 533.7135673935649C921.026086305308 501.447941818095 888.7604593965046 469.1823149092916 856.4948338210347 436.9166880004883C802.7239978621724 490.6927319596049 748.9479539030559 544.4687759187213 695.17711661086 598.2396132109172C637.333364453125 540.3958597198487 579.4896122953899 482.55210622878 521.6458588043213 424.708354071045C485.0208570159912 461.333355859375 448.3958552276611 497.958357647705 411.7708534393311 534.5833594360352C469.6146069303996 592.4271115937702 527.4583590881348 650.2708650848389 585.3021112458699 708.1146185759075C531.8177339676615 761.5937865205282 478.3333566894531 815.0781651320699 424.8541874114991 868.5625424102783C457.114606320048 900.8281693190816 489.3802318955179 933.0885868942972 521.6458588043213 965.3542138031004zM683.348992033315 1366.015692033315C414.8958535919189 1369.6927748795267 156.1406329573873 1197.0104744477742 54.3645866545207 948.9635876694438C-51.9166692016602 705.2656597701315 3.2135414902445 402.5312703215129 189.2812599089152 212.4479277067669C368.2656433150534 19.8020836335652 663.156283047343 -50.7395864775187 910.1042111053466 39.3072939193014C1166.0521396028034 126.3802141709086 1354.9063168241985 377.7604344453328 1365.125066656494 648.2396156523236C1382.0990261519676 911.1823364913228 1229.5156853682759 1173.8542239837645 994.0208818695068 1291.281313717509C898.3542105316162 1340.4740241194966 790.9010799515482 1366.177149374532 683.348992033315 1366.015692033315zM683.348992033315 1321.9740232161764C945.0312968107708 1325.7604807343953 1196.5260997574564 1150.0000561523439 1283.2500626586914 903.0312947599894C1374.8542337982178 660.8385736008403 1300.505271501231 367.1823099288229 1101.3854697785846 200.3645937834269C903.6302521225688 23.7031264907125 593.2604449677938 -5.4114589308981 365.3541845062256 129.2760476456401C141.9114655959371 253.3958457061767 12.2135419296977 520.5156507491353 50.916669152832 772.718787063741C84.3125041168213 1036.6719252854105 300.4843893387553 1263.85943637855 562.3854434602254 1310.5521466584676C602.2239880721335 1318.1823563643698 642.7864900527243 1321.9740232161764 683.348992033315 1321.9740232161764zM683.348992033315 1321.9740232161764" />
    <glyph glyph-name="action-today"
      unicode="&#xF135;"
      horiz-adv-x="1365.3334" d=" M856.0000417968749 653.4010732376811L960.5885882370708 331.0052241623637L686.8750335388183 529.7552338669535L412.0468947861429 331.0052241623637L516.6354412263387 653.4010732376811L242.9166785278321 852.1510829422708L581.1719030441996 852.1510829422708L686.8750335388183 1174.5469320175882L791.4635799790141 852.1510829422708L1130.8281805495503 852.1510829422708zM683.348992033315 1366.015692033315C502.3021071931356 1366.015692033315 328.6510573807475 1294.083396520996 200.6302177963969 1166.0677649368997C72.614587545634 1038.0469253525491 0.682292033315 864.3958755401611 0.682292033315 683.3489920333151C0.682292033315 502.3021071931355 72.614587545634 328.6510573807475 200.6302177963969 200.6302177963969C328.6510573807475 72.6145875456341 502.3021071931356 0.682292033315 683.348992033315 0.682292033315C864.3958755401611 0.682292033315 1038.0469253525494 72.6145875456341 1166.0677649368997 200.6302177963969C1294.083396520996 328.6510573807475 1366.0156920333152 502.3021071931355 1366.0156920333152 683.3489920333151C1366.0156920333152 864.3958755401611 1294.083396520996 1038.0469253525491 1166.0677649368997 1166.0677649368997C1038.0469253525494 1294.083396520996 864.3958755401611 1366.015692033315 683.348992033315 1366.015692033315zM683.348992033315 1321.9740232161764C852.729208303833 1321.9740232161764 1015.156300234843 1254.6979785978801 1134.927138083028 1134.9271380830282C1254.6979785978801 1015.156300234843 1321.9740232161764 852.729208303833 1321.9740232161764 683.3489920333151C1321.9740232161764 513.9687744294636 1254.6979785978801 351.5468918320414 1134.927138083028 231.7708446502686C1015.156300234843 112.00000546875 852.729208303833 44.7239608504538 683.348992033315 44.7239608504538C513.9687744294637 44.7239608504538 351.5468918320414 112.00000546875 231.7708446502686 231.7708446502686C112.00000546875 351.5468918320414 44.7239608504537 513.9687744294636 44.7239608504537 683.3489920333151C44.7239608504537 852.729208303833 112.00000546875 1015.156300234843 231.7708446502686 1134.9271380830282C351.5468918320414 1254.6979785978801 513.9687744294637 1321.9740232161764 683.348992033315 1321.9740232161764zM683.348992033315 1321.9740232161764" />
    <glyph glyph-name="action-up"
      unicode="&#xF136;"
      horiz-adv-x="1365.3334" d=" M1365.3334 578.531068248586L682.6667 1364.9633999819337L0 578.531068248586H238.0603049573711L682.6667 1071.466118984346L1115.7024811443243 578.531068248586z" />
    <glyph glyph-name="action-user-small"
      unicode="&#xF137;"
      horiz-adv-x="1365.3334" d=" M687.2500335571289 1227.9948519606833C529.0833591674805 1227.9948519606833 400.343768881368 1099.2552616745706 400.343768881368 941.0833792846678C400.343768881368 782.8489968917135 529.0833591674805 654.177114608907 687.2500335571289 654.177114608907C845.4219159470317 654.177114608907 974.1615062331442 782.8489968917135 974.1615062331442 941.0833792846678C974.1615062331442 1099.2552616745706 845.4219159470317 1227.9948519606833 687.2500335571289 1227.9948519606833M687.2500335571289 558.9635686264751C476.5416899353027 558.9635686264751 305.1354308991903 730.3698276625876 305.1354308991903 941.0833792846678C305.1354308991903 1151.7969309067485 476.5416899353027 1323.203189942861 687.2500335571289 1323.203189942861C897.9635851792094 1323.203189942861 1069.3698442153218 1151.7969309067485 1069.3698442153218 941.0833792846678C1069.3698442153218 730.3698276625876 897.9635851792094 558.9635686264751 687.2500335571289 558.9635686264751 M122.7500059936523 101.7447969680075L1251.70318645165 101.7447969680075C1178.2604735322468 348.7448090285543 949.5417130310058 522.5000255126953 687.223992222524 522.5000255126953C424.9791874176026 522.5000255126953 196.1875095794678 348.7448090285543 122.7500059936523 101.7447969680075zM1369.8906922225242 6.5364589858295L4.557292222524 6.5364589858295L15.4427087540385 63.1145870817668C77.1927117691752 384.4896027739055 359.7343922318217 617.7135714951273 687.223992222524 617.7135714951273C1014.7187988801472 617.7135714951273 1297.1927713394878 384.4896027739055 1359.0052743576762 63.1145870817668zM1369.8906922225242 6.5364589858295" />
    </font>
</defs>
</svg>
