<?xml version="1.0" encoding="UTF-8" standalone="no"?>
<svg
   xmlns:dc="http://purl.org/dc/elements/1.1/"
   xmlns:cc="http://creativecommons.org/ns#"
   xmlns:rdf="http://www.w3.org/1999/02/22-rdf-syntax-ns#"
   xmlns:svg="http://www.w3.org/2000/svg"
   xmlns="http://www.w3.org/2000/svg"
   xmlns:sodipodi="http://sodipodi.sourceforge.net/DTD/sodipodi-0.dtd"
   xmlns:inkscape="http://www.inkscape.org/namespaces/inkscape"
   width="30px"
   height="30px"
   viewBox="0 0 30 30"
   version="1.1"
   id="svg2"
   inkscape:version="0.48.4 r9939"
   sodipodi:docname="sale.svg">
  <metadata
     id="metadata15">
    <rdf:RDF>
      <cc:Work
         rdf:about="">
        <dc:format>image/svg+xml</dc:format>
        <dc:type
           rdf:resource="http://purl.org/dc/dcmitype/StillImage" />
        <dc:title>acc_product_categories</dc:title>
      </cc:Work>
    </rdf:RDF>
  </metadata>
  <sodipodi:namedview
     pagecolor="#ffffff"
     bordercolor="#666666"
     borderopacity="1"
     objecttolerance="10"
     gridtolerance="10"
     guidetolerance="10"
     inkscape:pageopacity="0"
     inkscape:pageshadow="2"
     inkscape:window-width="1855"
     inkscape:window-height="1056"
     id="namedview13"
     showgrid="false"
     inkscape:zoom="22.250293"
     inkscape:cx="2.0960567"
     inkscape:cy="18.039321"
     inkscape:window-x="65"
     inkscape:window-y="24"
     inkscape:window-maximized="1"
     inkscape:current-layer="svg2" />
  <!-- Generator: Sketch 3.8.3 (29802) - http://www.bohemiancoding.com/sketch -->
  <title
     id="title4">acc_product_categories</title>
  <desc
     id="desc6">Created with Sketch.</desc>
  <defs
     id="defs8" />
  <g
     id="Page-1"
     style="fill:#778591;fill-opacity:1;fill-rule:evenodd;stroke:none"
     transform="matrix(1.0535332,0,0,1.0535332,-0.80299764,-0.80299767)">
    <g
       id="acc_product_categories"
       style="fill:#778591;fill-opacity:1;stroke:none">
      <path
         d="m 20.878635,27.223923 c -1.658804,1.658804 -4.352544,1.658804 -6.011802,0 L 3.0560229,15.710754 C 2.2052961,14.930809 1.5673645,13.768375 1.5673645,12.520643 l 0,-6.7350346 c 0,-2.3539044 1.9001833,-4.253634 4.253634,-4.253634 l 6.7350335,0 c 1.247733,0 2.410166,0.6379316 3.190112,1.4886584 L 27.188532,14.902678 c 1.658804,1.658804 1.658804,4.352998 0,6.011802 z M 2.9852424,5.7856084 c -0.9452519,15.5068056 -0.472626,7.7534036 0,0 z M 7.9475885,4.3677303 c 1.956899,0 3.5449215,1.5880234 3.5449215,3.5449219 0,1.9564444 -1.5880225,3.5444688 -3.5449215,3.5444688 -1.9564447,0 -3.5444681,-1.5880244 -3.5444681,-3.5444688 0,-1.9568985 1.5880234,-3.5449219 3.5444681,-3.5449219 z"
         id="Page-1-Copy-2"
         style="fill:#778591;fill-opacity:1;stroke:none"
         inkscape:connector-curvature="0"
         sodipodi:nodetypes="cccssssccccccscsss" />
    </g>
  </g>
</svg>
