<?xml version="1.0" encoding="UTF-8" standalone="no"?>
<svg width="30px" height="30px" viewBox="0 0 30 30" version="1.1" xmlns="http://www.w3.org/2000/svg" xmlns:xlink="http://www.w3.org/1999/xlink">
    <!-- Generator: Sketch 39.1 (31720) - http://www.bohemiancoding.com/sketch -->
    <title>opps_lead_source_dark</title>
    <desc>Created with Sketch.</desc>
    <defs></defs>
    <g id="Page-1" stroke="none" stroke-width="1" fill="none" fill-rule="evenodd">
        <g id="opps_lead_source_dark" fill="#778591">
            <path d="M25.7432494,22.3107554 C23.4040276,25.7385972 19.4640185,27.9890038 15,27.9890038 C9.49515258,27.9890038 4.79006442,24.567506 2.89364955,19.7351161 L15.0545579,15.7502765 L25.7432494,22.3107554 Z M26.2338474,21.535949 C27.3558787,19.6128896 28,17.3760167 28,14.9885809 C28,11.5806168 26.6884963,8.47969939 24.5421303,6.16162405 L16.022643,15.2681372 L26.2338474,21.535949 Z M23.7394105,5.36567116 C21.5503286,3.37621186 18.6790617,2.12391828 15.520203,2 L15.520203,14.4700696 L23.7394105,5.36567116 Z M14.479797,2 C7.54079641,2.27278938 2,7.98402629 2,14.9885809 C2,16.3055827 2.19666211,17.577331 2.55995836,18.7754896 L14.479797,14.8633938 L14.479797,2 Z" id="Page-1"></path>
        </g>
    </g>
</svg>