<?xml version="1.0" encoding="UTF-8" standalone="no"?>
<svg width="30px" height="30px" viewBox="0 0 30 30" version="1.1" xmlns="http://www.w3.org/2000/svg" xmlns:xlink="http://www.w3.org/1999/xlink">
    <!-- Generator: Sketch 39.1 (31720) - http://www.bohemiancoding.com/sketch -->
    <title>suitecrm_news_dark</title>
    <desc>Created with Sketch.</desc>
    <defs></defs>
    <g id="Page-1" stroke="none" stroke-width="1" fill="none" fill-rule="evenodd">
        <g id="suitecrm_news_dark" fill="#778591">
            <path d="M19.3780533,5.69498667 L5.23509333,5.69498667 C4.93592,5.69498667 4.6936,5.93730667 4.6936,6.23648 L4.6936,12.29656 C4.6936,12.5957333 4.93592,12.8380533 5.23509333,12.8380533 L19.3766667,12.8380533 C19.67584,12.8380533 19.9185067,12.5957333 19.9185067,12.29656 L19.9185067,6.23648 C19.9185067,5.93592 19.6772267,5.69498667 19.3780533,5.69498667 L19.3780533,5.69498667 Z M27.4585067,7.04074667 L22.6131467,7.04074667 L22.6131467,3.54184 C22.6131467,3.24232 22.3708267,3 22.0713067,3 L2.54149333,3 C2.24232,3 2,3.24232 2,3.54184 L2,24.4174133 C2,26.2010133 3.45184,27.6525067 5.23509333,27.6525067 L24.76352,27.6525067 C26.54816,27.6538933 28,26.2024 28,24.4174133 L28,7.58258667 C28,7.28341333 27.75768,7.04074667 27.4585067,7.04074667 L27.4585067,7.04074667 Z M5.23509333,26.57056 C4.0488,26.57056 3.08194667,25.6050933 3.08194667,24.4188 C3.08194667,24.3986933 3.08749333,24.3810133 3.08749333,24.36056 L3.08333333,24.36056 L3.08333333,4.08333333 L21.5298133,4.08333333 L21.5298133,24.4174133 C21.5298133,25.24352 21.8438933,25.99648 22.35592,26.5691733 L5.23509333,26.5691733 L5.23509333,26.57056 Z M26.9166667,24.3591733 L26.91112,24.3591733 C26.91112,24.3796267 26.9166667,24.3973067 26.9166667,24.4174133 C26.9166667,25.6037067 25.9512,26.5691733 24.7649067,26.5691733 C23.5786133,26.5691733 22.6131467,25.6037067 22.6131467,24.4174133 C22.6131467,24.3973067 22.6186933,24.3796267 22.6186933,24.3591733 L22.6131467,24.3591733 L22.6131467,16.1868533 C22.6550933,16.1979467 22.6984267,16.2045333 22.7445333,16.2045333 L24.7649067,16.2045333 C25.06408,16.2045333 25.3064,15.9622133 25.3064,15.66304 C25.3064,15.36352 25.06408,15.1212 24.7649067,15.1212 L22.7445333,15.1212 C22.6984267,15.1212 22.6550933,15.1281333 22.6131467,15.13888 L22.6131467,13.4936 C22.6550933,13.5043467 22.6984267,13.51128 22.7445333,13.51128 L24.7649067,13.51128 C25.06408,13.51128 25.3064,13.2686133 25.3064,12.96944 C25.3064,12.6702667 25.06408,12.4276 24.7649067,12.4276 L22.7445333,12.4276 C22.6984267,12.4276 22.6550933,12.4345333 22.6131467,12.44528 L22.6131467,10.7986133 C22.6550933,10.8097067 22.6984267,10.8162933 22.7445333,10.8162933 L24.7649067,10.8162933 C25.06408,10.8162933 25.3064,10.5739733 25.3064,10.2748 C25.3064,9.97528 25.06408,9.73296 24.7649067,9.73296 L22.7445333,9.73296 C22.6984267,9.73296 22.6550933,9.73989333 22.6131467,9.75064 L22.6131467,8.12165333 L26.9166667,8.12165333 L26.9166667,24.3591733 Z M5.25,15.6925067 L11.20816,15.6925067 C11.50768,15.6925067 11.75,15.4501867 11.75,15.1510133 C11.75,14.85184 11.50768,14.6091733 11.20816,14.6091733 L5.25,14.6091733 C4.95082667,14.6091733 4.70816,14.85184 4.70816,15.1510133 C4.70816,15.4501867 4.95082667,15.6925067 5.25,15.6925067 L5.25,15.6925067 Z M13.3748267,15.6925067 L19.3333333,15.6925067 C19.6325067,15.6925067 19.8748267,15.4501867 19.8748267,15.1510133 C19.8748267,14.85184 19.6325067,14.6091733 19.3333333,14.6091733 L13.3748267,14.6091733 C13.0756533,14.6091733 12.8333333,14.85184 12.8333333,15.1510133 C12.8333333,15.4501867 13.0756533,15.6925067 13.3748267,15.6925067 L13.3748267,15.6925067 Z M11.20816,16.77584 L5.25,16.77584 C4.95082667,16.77584 4.70816,17.0185067 4.70816,17.31768 C4.70816,17.6168533 4.95082667,17.8591733 5.25,17.8591733 L11.20816,17.8591733 C11.50768,17.8591733 11.75,17.6168533 11.75,17.31768 C11.75,17.0185067 11.50768,16.77584 11.20816,16.77584 L11.20816,16.77584 Z M19.3333333,16.77584 L13.3748267,16.77584 C13.0756533,16.77584 12.8333333,17.0185067 12.8333333,17.31768 C12.8333333,17.6168533 13.0756533,17.8591733 13.3748267,17.8591733 L19.3333333,17.8591733 C19.6325067,17.8591733 19.8748267,17.6168533 19.8748267,17.31768 C19.8748267,17.0185067 19.6325067,16.77584 19.3333333,16.77584 L19.3333333,16.77584 Z M11.20816,18.9425067 L5.25,18.9425067 C4.95082667,18.9425067 4.70816,19.1851733 4.70816,19.4843467 C4.70816,19.78352 4.95082667,20.02584 5.25,20.02584 L11.20816,20.02584 C11.50768,20.02584 11.75,19.78352 11.75,19.4843467 C11.75,19.1851733 11.50768,18.9425067 11.20816,18.9425067 L11.20816,18.9425067 Z M19.3333333,18.9425067 L13.3748267,18.9425067 C13.0756533,18.9425067 12.8333333,19.1851733 12.8333333,19.4843467 C12.8333333,19.78352 13.0756533,20.02584 13.3748267,20.02584 L19.3333333,20.02584 C19.6325067,20.02584 19.8748267,19.78352 19.8748267,19.4843467 C19.8748267,19.1851733 19.6325067,18.9425067 19.3333333,18.9425067 L19.3333333,18.9425067 Z M11.20816,21.1091733 L5.25,21.1091733 C4.95082667,21.1091733 4.70816,21.35184 4.70816,21.6510133 C4.70816,21.9501867 4.95082667,22.1925067 5.25,22.1925067 L11.20816,22.1925067 C11.50768,22.1925067 11.75,21.9501867 11.75,21.6510133 C11.75,21.35184 11.50768,21.1091733 11.20816,21.1091733 L11.20816,21.1091733 Z M19.3333333,21.1091733 L13.3748267,21.1091733 C13.0756533,21.1091733 12.8333333,21.35184 12.8333333,21.6510133 C12.8333333,21.9501867 13.0756533,22.1925067 13.3748267,22.1925067 L19.3333333,22.1925067 C19.6325067,22.1925067 19.8748267,21.9501867 19.8748267,21.6510133 C19.8748267,21.35184 19.6325067,21.1091733 19.3333333,21.1091733 L19.3333333,21.1091733 Z" id="Page-1"></path>
        </g>
    </g>
</svg>