<?xml version="1.0" encoding="UTF-8" standalone="no"?>
<svg width="28px" height="28px" viewBox="0 0 28 28" version="1.1" xmlns="http://www.w3.org/2000/svg" xmlns:xlink="http://www.w3.org/1999/xlink">
    <!-- Generator: Sketch 3.8.3 (29802) - http://www.bohemiancoding.com/sketch -->
    <title>admin_role_management</title>
    <desc>Created with Sketch.</desc>
    <defs></defs>
    <g id="Page-1" stroke="none" stroke-width="1" fill="none" fill-rule="evenodd">
        <g id="admin_role_management">
            <circle id="Oval-7" stroke="#534D64" cx="14" cy="14" r="13"></circle>
            <path d="M10.9225421,8.00241857 C10.6569098,8.01711894 10.3926449,8.08788587 10.1119702,8.21471934 C9.50310119,8.48445415 9.03713346,9.07862283 8.83543063,9.78765957 L6.81361614,16.8082856 L5.65160271,16.8082856 C5.32204079,16.7802523 5,17.0698155 5,17.4038218 C5,17.7296231 5.3230664,18.0273912 5.65160271,17.9979904 L22.557035,17.9979904 C22.8869388,18.0260237 23.2086377,17.7282556 23.2086377,17.4038218 C23.2086377,17.071183 22.8855713,16.7802523 22.557035,16.8082856 L21.3950216,16.8082856 L19.3745745,9.78765957 C19.1742392,9.07999031 18.7082715,8.48445415 18.0980349,8.21471934 C17.538395,7.96618043 17.0375566,7.93165164 16.4779168,8.13711503 L14.1050026,9.01606077 L11.7320884,8.13711503 C11.4527813,8.03045184 11.1871489,7.98908567 10.9225421,8.00241857 L10.9225421,8.00241857 Z M11.0722809,9.22836154 C11.1936444,9.22836154 11.3232128,9.25639482 11.4596187,9.30562398 L13.8968042,10.2057656 C13.9607338,10.2337989 14.0328682,10.2406363 14.1050026,10.2406363 C14.177137,10.2406363 14.2492714,10.2337989 14.3132009,10.2057656 L16.7503865,9.30562398 C17.4741236,9.03588918 18.0700016,9.58219617 18.220766,10.1138028 L19.4467089,14.3563996 L8.76466371,14.3563996 L9.99060668,10.1138028 C10.1119702,9.68099637 10.5273413,9.23485706 11.0722809,9.22836154 L11.0722809,9.22836154 Z M8.42005955,15.5461045 L19.7899456,15.5461045 L20.1478827,16.8069181 L8.06212249,16.8069181 L8.42005955,15.5461045 Z" id="Page-1" fill="#5C566C"></path>
        </g>
    </g>
</svg>