<?xml version="1.0" encoding="UTF-8" standalone="no"?>
<svg width="28px" height="28px" viewBox="0 0 28 28" version="1.1" xmlns="http://www.w3.org/2000/svg" xmlns:xlink="http://www.w3.org/1999/xlink">
    <!-- Generator: Sketch 3.8.3 (29802) - http://www.bohemiancoding.com/sketch -->
    <title>admin_configure_module_menu_filters</title>
    <desc>Created with Sketch.</desc>
    <defs></defs>
    <g id="Page-1" stroke="none" stroke-width="1" fill="none" fill-rule="evenodd">
        <g id="admin_configure_module_menu_filters">
            <circle id="Oval-7" stroke="#534D64" cx="14" cy="14" r="13"></circle>
            <path d="M15.6621979,16.6666667 L5.51953125,16.6666667 L5.51953125,18.3333333 L15.6621979,18.3333333 C16.0048646,19.3042667 16.9309979,20 18.0195312,20 C19.1080646,20 20.0341979,19.3042667 20.3768646,18.3333333 L22.1861979,18.3333333 L22.1861979,16.6666667 L20.3768646,16.6666667 C20.0341979,15.6957333 19.1080646,15 18.0195312,15 C16.9309979,15 16.0048646,15.6957333 15.6621979,16.6666667 L15.6621979,16.6666667 Z M7.32886458,9.16666667 L5.51953125,9.16666667 L5.51953125,10.8333333 L7.32886458,10.8333333 C7.67153125,11.8042667 8.59766458,12.5 9.68619792,12.5 C10.7747313,12.5 11.7008646,11.8042667 12.0435313,10.8333333 L22.1861979,10.8333333 L22.1861979,9.16666667 L12.0435313,9.16666667 C11.7008646,8.19573333 10.7747313,7.5 9.68619792,7.5 C8.59766458,7.5 7.67153125,8.19573333 7.32886458,9.16666667 L7.32886458,9.16666667 Z M9.68619792,10.8333333 C10.1467313,10.8333333 10.5195312,10.4605333 10.5195312,10 C10.5195312,9.53946667 10.1467313,9.16666667 9.68619792,9.16666667 C9.22566458,9.16666667 8.85286458,9.53946667 8.85286458,10 C8.85286458,10.4605333 9.22566458,10.8333333 9.68619792,10.8333333 L9.68619792,10.8333333 Z M18.0195313,18.3333333 C18.4800646,18.3333333 18.8528646,17.9605333 18.8528646,17.5 C18.8528646,17.0394667 18.4800646,16.6666667 18.0195313,16.6666667 C17.5589979,16.6666667 17.1861979,17.0394667 17.1861979,17.5 C17.1861979,17.9605333 17.5589979,18.3333333 18.0195313,18.3333333 L18.0195313,18.3333333 Z" id="Page-1" fill="#5C566C"></path>
        </g>
    </g>
</svg>