<?xml version="1.0" encoding="UTF-8" standalone="no"?>
<svg width="28px" height="28px" viewBox="0 0 28 28" version="1.1" xmlns="http://www.w3.org/2000/svg" xmlns:xlink="http://www.w3.org/1999/xlink">
    <!-- Generator: Sketch 3.8.3 (29802) - http://www.bohemiancoding.com/sketch -->
    <title>admin_global_search</title>
    <desc>Created with Sketch.</desc>
    <defs></defs>
    <g id="Page-1" stroke="none" stroke-width="1" fill="none" fill-rule="evenodd">
        <g id="admin_global_search">
            <circle id="Oval-7" stroke="#534D64" cx="14" cy="14" r="13"></circle>
            <path d="M7.59953125,12.82018 L10.4963313,12.82018 C10.7243313,12.42634 10.9979313,12.06274 11.3149713,11.74018 L8.13953125,11.74018 C7.84145125,11.74018 7.59953125,11.49826 7.59953125,11.20018 L7.59953125,7.96018 C7.59953125,7.6621 7.84145125,7.42018 8.13953125,7.42018 L11.3795313,7.42018 C11.6776113,7.42018 11.9195313,7.6621 11.9195313,7.96018 L11.9195313,11.20018 C11.9195313,11.2057 11.9166513,11.21146 11.9156913,11.21698 C12.2495313,10.96498 12.6114513,10.74826 12.9995313,10.57762 L12.9995313,7.42018 C12.9995313,6.82402 12.5156913,6.34018 11.9195313,6.34018 L7.59953125,6.34018 C7.00337125,6.34018 6.51953125,6.82402 6.51953125,7.42018 L6.51953125,11.74018 C6.51953125,12.33634 7.00337125,12.82018 7.59953125,12.82018 L7.59953125,12.82018 Z M16.2395313,10.22986 L16.2395313,7.96018 C16.2395313,7.6621 16.4814512,7.42018 16.7795313,7.42018 L20.0195312,7.42018 C20.3176112,7.42018 20.5595312,7.6621 20.5595312,7.96018 L20.5595312,11.20018 C20.5595312,11.49826 20.3176112,11.74018 20.0195312,11.74018 L19.0136913,11.74018 C19.3304913,12.06274 19.6043313,12.42634 19.8330513,12.82018 L20.5604913,12.82018 C21.1566512,12.82018 21.6404913,12.33634 21.6404913,11.74018 L21.6404913,7.42018 C21.6404913,6.82402 21.1566512,6.34018 20.5604913,6.34018 L16.2404913,6.34018 C15.6443313,6.34018 15.1604913,6.82402 15.1604913,7.42018 L15.1604913,10.12306 L15.1652913,10.12306 C15.5327313,10.1221 15.8917713,10.15954 16.2395313,10.22986 L16.2395313,10.22986 Z M11.9195313,19.84018 C11.9195313,20.13826 11.6776112,20.38018 11.3795313,20.38018 L8.13953125,20.38018 C7.84145125,20.38018 7.59953125,20.13826 7.59953125,19.84018 L7.59953125,16.60018 C7.59953125,16.3021 7.84145125,16.06018 8.13953125,16.06018 L9.79529125,16.06018 C9.77729125,15.8821 9.76793125,15.7021 9.76793125,15.51826 C9.76793125,15.33634 9.77729125,15.1573 9.79529125,14.98018 L7.59953125,14.98018 C7.00337125,14.98018 6.51953125,15.46402 6.51953125,16.06018 L6.51953125,20.38018 C6.51953125,20.97634 7.00337125,21.46018 7.59953125,21.46018 L11.9195313,21.46018 C12.4904913,21.46018 12.9527313,21.0157 12.9920913,20.4553 C12.6085713,20.28634 12.2504912,20.07178 11.9195313,19.82242 L11.9195313,19.84018 Z M21.4801713,21.0589 L18.5766513,18.15538 C19.1411313,17.42506 19.4804913,16.51306 19.4804913,15.51922 C19.4804913,13.1353 17.5472913,11.20306 15.1633713,11.20306 C12.7792113,11.20306 10.8469712,13.1353 10.8469712,15.51826 C10.8469712,17.90242 12.7801713,19.83538 15.1643313,19.83538 C16.1569713,19.83538 17.0682512,19.49698 17.7976112,18.93466 L20.7020913,21.8389 C20.9166512,22.0537 21.2663313,22.0537 21.4811313,21.8389 C21.6966512,21.62434 21.6956913,21.27466 21.4801713,21.0589 L21.4801713,21.0589 Z M15.1633713,18.75634 C13.3756113,18.75634 11.9252913,17.30698 11.9252913,15.51826 C11.9252913,13.7305 13.3746512,12.28114 15.1633713,12.28114 C16.9520913,12.28114 18.4014513,13.7305 18.4014513,15.51826 C18.4014513,17.30698 16.9520913,18.75634 15.1633713,18.75634 L15.1633713,18.75634 Z" id="Page-1" fill="#5C566C"></path>
        </g>
    </g>
</svg>