<?xml version="1.0" encoding="UTF-8" standalone="no"?>
<svg width="28px" height="28px" viewBox="0 0 28 28" version="1.1" xmlns="http://www.w3.org/2000/svg" xmlns:xlink="http://www.w3.org/1999/xlink">
    <!-- Generator: Sketch 3.8.3 (29802) - http://www.bohemiancoding.com/sketch -->
    <title>admin_security_suite_settings</title>
    <desc>Created with Sketch.</desc>
    <defs></defs>
    <g id="Page-1" stroke="none" stroke-width="1" fill="none" fill-rule="evenodd">
        <g id="admin_security_suite_settings">
            <circle id="Oval-7" stroke="#534D64" cx="14" cy="14" r="13"></circle>
            <path d="M18.9258582,13.0508156 L18.3298711,13.0508156 L18.3298711,10.0689485 L18.3221436,10.0689485 C18.3234315,10.0183975 18.3298711,9.96945638 18.3298711,9.91922733 C18.3298711,7.20235076 16.1275204,5 13.4093559,5 C10.6940892,5 8.49173846,7.20235076 8.49173846,9.91922733 C8.49173846,9.96945638 8.49560223,10.0183975 8.4978561,10.0689485 L8.49173846,10.0689485 L8.49173846,13.0495276 L7.89414153,13.0495276 C7.40118846,13.0495276 7,13.4497502 7,13.9439911 L7,21.1003432 C7,21.5945842 7.39990053,21.9948067 7.89414153,21.9948067 L18.9258582,21.9948067 C19.4200992,21.9948067 19.8199997,21.5945842 19.8199997,21.1003432 L19.8199997,13.9439911 C19.8199997,13.4507161 19.4200992,13.0508156 18.9258582,13.0508156 L18.9258582,13.0508156 Z M15.9449571,10.0689485 L15.9449571,13.0495276 L10.8763305,13.0495276 L10.8763305,10.0689485 L10.885024,10.0689485 C10.8827702,10.0183975 10.8763305,9.96945638 10.8763305,9.91922733 C10.8763305,8.52054141 12.0109919,7.38620197 13.4093559,7.38620197 C14.8080418,7.38620197 15.9449571,8.52054141 15.9449571,9.91922733 C15.9449571,9.96945638 15.9414153,10.0183975 15.9375515,10.0689485 L15.9449571,10.0689485 Z" id="Page-1" fill="#534D64"></path>
        </g>
    </g>
</svg>