<?xml version="1.0" encoding="UTF-8" standalone="no"?>
<svg width="28px" height="28px" viewBox="0 0 28 28" version="1.1" xmlns="http://www.w3.org/2000/svg" xmlns:xlink="http://www.w3.org/1999/xlink">
    <!-- Generator: Sketch 3.8.3 (29802) - http://www.bohemiancoding.com/sketch -->
    <title>admin_connectors</title>
    <desc>Created with Sketch.</desc>
    <defs></defs>
    <g id="Page-1" stroke="none" stroke-width="1" fill="none" fill-rule="evenodd">
        <g id="admin_connectors">
            <circle id="Oval-7" stroke="#534D64" cx="14" cy="14" r="13"></circle>
            <path d="M13.4020913,8.2702 L13.4370913,8.28532 C13.5947313,8.32816 13.7596513,8.35112 13.9304513,8.35112 C14.9737313,8.35112 15.8204513,7.5044 15.8204513,6.46112 C15.8204513,5.41756 14.9737313,4.57112 13.9304513,4.57112 C12.8868913,4.57112 12.0404513,5.41756 12.0404513,6.46112 C12.0404513,6.96512 12.2372913,7.42348 12.5587313,7.76144 L12.5598513,7.76144 L7.98577125,14.31624 L7.98045125,14.31512 C7.80321125,14.26052 7.61085125,14.23 7.41597125,14.23 C6.37269125,14.23 5.51953125,15.07644 5.51953125,16.12 C5.51953125,17.16328 6.35281125,18.01 7.39749125,18.01 C8.06669125,18.01 8.64545125,17.66112 8.97361125,17.13612 L16.8715713,19.98316 L16.8757712,19.98316 C16.8726913,20.0246 16.8715713,20.06716 16.8715713,20.11 C16.8715713,21.15328 17.7180113,22 18.7615713,22 C19.8048512,22 20.6515713,21.15328 20.6515713,20.11 C20.6515713,19.06644 19.8048512,18.22 18.7615713,18.22 C18.1259712,18.22 17.5637313,18.53276 17.2215713,19.01408 L17.2226913,19.0152 L9.26229125,16.12 C9.26229125,15.65184 9.18025125,15.22316 8.76025125,14.89276 L8.76025125,14.89388 L13.3900513,8.28308" id="Page-1" fill="#5C566C"></path>
        </g>
    </g>
</svg>