<?xml version="1.0" encoding="UTF-8" standalone="no"?>
<svg width="28px" height="28px" viewBox="0 0 28 28" version="1.1" xmlns="http://www.w3.org/2000/svg" xmlns:xlink="http://www.w3.org/1999/xlink">
    <!-- Generator: Sketch 3.8.3 (29802) - http://www.bohemiancoding.com/sketch -->
    <title>admin_rename_modules</title>
    <desc>Created with Sketch.</desc>
    <defs></defs>
    <g id="Page-1" stroke="none" stroke-width="1" fill="none" fill-rule="evenodd">
        <g id="admin_rename_modules">
            <circle id="Oval-7" stroke="#534D64" cx="14" cy="14" r="13"></circle>
            <path d="M7.77583689,12.3576992 L8.27119626,12.9980488 C8.79504782,12.4496152 9.51510447,12.2848418 10.1060849,12.2848418 C10.865749,12.2848418 11.2413154,12.603998 11.4218525,12.9004453 C11.6349424,13.2503906 11.6299931,13.6619004 11.6299931,14.0008535 L11.6299931,14.230418 L11.4246006,14.230418 C10.4824853,14.230418 9.47403415,14.2205469 8.66029782,14.5195918 C7.65147751,14.8903457 7.19370212,15.6378828 7.19370212,16.3468789 C7.19370212,17.2851934 8.00921579,18.1570898 9.34550486,18.1570898 C10.1311045,18.1570898 10.9442256,17.8711426 11.6420791,17.299248 L11.6420791,18 L12.5965537,18 L12.5965537,14.0370977 C12.5965537,13.5128633 12.5777275,13.0176816 12.2825107,12.5256855 C11.8627705,11.8261504 11.0511533,11.4629707 10.0584248,11.4629707 C9.19560642,11.4629707 8.37336618,11.7405234 7.77583689,12.3576992 L7.77583689,12.3576992 Z M11.6662373,15.0036582 L11.6662373,15.4265293 C11.6662373,15.7578398 11.6634482,16.1726855 11.2319775,16.6312676 C10.9995967,16.8782637 10.387958,17.3860645 9.55024118,17.3860645 C8.70228415,17.3860645 8.20677439,16.8505645 8.20677439,16.2788477 C8.20677439,15.81425 8.53295798,15.2919023 9.33484079,15.1004688 C9.91573142,14.9617949 10.7720693,15.0036582 11.4366728,15.0036582 L11.6662373,15.0036582 Z M15.3531875,8.68477734 L15.3531875,18 L16.005623,18 L16.3559922,17.1542578 C16.7760332,17.7782832 17.481707,18.1579922 18.2491914,18.1579922 C19.5606934,18.1579922 20.9230547,17.0436387 20.9230547,14.7233574 C20.9230547,12.4889492 19.6080664,11.450707 18.3510742,11.450707 C17.5364902,11.450707 16.7857539,11.8842969 16.3801641,12.5872637 L16.3801641,8.99891602 C16.3801641,8.92452734 16.3953262,8.89391602 16.4610605,8.84170313 C16.4845215,8.82305469 16.5610977,8.76891406 16.5372266,8.68477734 L15.3531875,8.68477734 Z M17.9999805,12.3172031 C18.6010371,12.3172031 19.8747363,12.6768691 19.8747363,14.9350527 C19.8747363,16.8937676 18.6095547,17.2512461 17.9839707,17.2512461 C17.5465254,17.2512461 16.5802793,17.0764102 16.4191016,15.857084 C16.3751328,15.5244063 16.3797813,15.147541 16.3797813,14.5940352 C16.3797813,14.0155645 16.4020117,13.6038906 16.5474258,13.2519766 C16.7857266,12.6752969 17.366877,12.3172031 17.9999805,12.3172031 L17.9999805,12.3172031 Z" id="ab" fill="#5C566C"></path>
        </g>
    </g>
</svg>