<?xml version="1.0" encoding="UTF-8" standalone="no"?>
<svg width="32px" height="112px" viewBox="0 0 32 112" version="1.1" xmlns="http://www.w3.org/2000/svg" xmlns:xlink="http://www.w3.org/1999/xlink">
    <!-- Generator: Sketch 3.8.3 (29802) - http://www.bohemiancoding.com/sketch -->
    <title>sb_create_person_form</title>
    <desc>Created with Sketch.</desc>
    <defs></defs>
    <g id="Page-1" stroke="none" stroke-width="1" fill="none" fill-rule="evenodd">
        <g id="sb_create_person_form">
            <ellipse id="Oval-7" stroke="#F5F5F5" cx="16" cy="16" rx="15" ry="15"></ellipse>
            <ellipse id="Oval-7" stroke="#534D64" cx="16" cy="56" rx="15" ry="15"></ellipse>
            <ellipse id="Oval-7" stroke="#F08377" cx="16" cy="96" rx="15" ry="15"></ellipse>
            <g id="Page-1" transform="translate(6.000000, 86.000000)" fill="#F08377">
                <path d="M15.1592059,8.68132353 C13.9191765,10.3633824 11.9252941,11.4558824 9.67463235,11.4558824 C7.38038235,11.4558824 5.35352941,10.3209118 4.11908824,8.58213235 C1.71251471,10.2912941 0.139705882,13.0985441 0.139705882,16.2757353 L19,16.2757353 C19,13.1608529 17.4883824,10.3983088 15.1592059,8.68132353 L15.1592059,8.68132353 Z" id="Fill-1"></path>
                <path d="M14.1801471,4.85477941 C14.1801471,7.45889706 12.0691912,9.56985294 9.46507353,9.56985294 C6.86095588,9.56985294 4.75,7.45889706 4.75,4.85477941 C4.75,2.25066176 6.86095588,0.139705882 9.46507353,0.139705882 C12.0691912,0.139705882 14.1801471,2.25066176 14.1801471,4.85477941" id="Fill-2"></path>
            </g>
            <g id="Page-1" transform="translate(6.000000, 46.000000)" fill="#534D64">
                <path d="M15.1592059,8.68132353 C13.9191765,10.3633824 11.9252941,11.4558824 9.67463235,11.4558824 C7.38038235,11.4558824 5.35352941,10.3209118 4.11908824,8.58213235 C1.71251471,10.2912941 0.139705882,13.0985441 0.139705882,16.2757353 L19,16.2757353 C19,13.1608529 17.4883824,10.3983088 15.1592059,8.68132353 L15.1592059,8.68132353 Z" id="Fill-1"></path>
                <path d="M14.1801471,4.85477941 C14.1801471,7.45889706 12.0691912,9.56985294 9.46507353,9.56985294 C6.86095588,9.56985294 4.75,7.45889706 4.75,4.85477941 C4.75,2.25066176 6.86095588,0.139705882 9.46507353,0.139705882 C12.0691912,0.139705882 14.1801471,2.25066176 14.1801471,4.85477941" id="Fill-2"></path>
            </g>
            <g id="Page-1" transform="translate(6.000000, 6.000000)" fill="#F5F5F5">
                <path d="M15.1592059,8.68132353 C13.9191765,10.3633824 11.9252941,11.4558824 9.67463235,11.4558824 C7.38038235,11.4558824 5.35352941,10.3209118 4.11908824,8.58213235 C1.71251471,10.2912941 0.139705882,13.0985441 0.139705882,16.2757353 L19,16.2757353 C19,13.1608529 17.4883824,10.3983088 15.1592059,8.68132353 L15.1592059,8.68132353 Z" id="Fill-1"></path>
                <path d="M14.1801471,4.85477941 C14.1801471,7.45889706 12.0691912,9.56985294 9.46507353,9.56985294 C6.86095588,9.56985294 4.75,7.45889706 4.75,4.85477941 C4.75,2.25066176 6.86095588,0.139705882 9.46507353,0.139705882 C12.0691912,0.139705882 14.1801471,2.25066176 14.1801471,4.85477941" id="Fill-2"></path>
            </g>
        </g>
    </g>
</svg>