<?xml version="1.0" encoding="UTF-8" standalone="no"?>
<svg width="32px" height="112px" viewBox="0 0 32 112" version="1.1" xmlns="http://www.w3.org/2000/svg" xmlns:xlink="http://www.w3.org/1999/xlink">
    <!-- Generator: Sketch 3.8.3 (29802) - http://www.bohemiancoding.com/sketch -->
    <title>sb_create_group_user</title>
    <desc>Created with Sketch.</desc>
    <defs></defs>
    <g id="Page-1" stroke="none" stroke-width="1" fill="none" fill-rule="evenodd">
        <g id="sb_create_group_user">
            <ellipse id="Oval-7" stroke="#F5F5F5" cx="16" cy="16" rx="15" ry="15"></ellipse>
            <ellipse id="Oval-7" stroke="#534D64" cx="16" cy="56" rx="15" ry="15"></ellipse>
            <ellipse id="Oval-7" stroke="#F08377" cx="16" cy="96" rx="15" ry="15"></ellipse>
            <g id="Page-1" transform="translate(4.000000, 89.000000)" fill="#F08377">
                <path d="M22.0988936,7.39718519 C23.8942979,7.93177778 23.5868936,9.25659259 23.5812766,10.1432593 L19.1009362,10.1432593 C18.9395745,9.60659259 18.5422979,9.10466667 17.5909787,8.82311111 L17.2897021,8.73185185 C16.0314894,8.36111111 15.3589787,8.16044444 15.1833191,7.75755556 C15.1394043,7.61185185 15.1537021,7.45162963 15.5724255,7.29555556 C16.9210213,6.89681481 17.603234,6.68785185 17.7645957,6.17555556 L17.850383,6.17555556 C17.826383,6.15533333 17.8044255,6.13511111 17.7845106,6.11074074 C17.1181277,5.45844444 16.6095319,4.18651852 16.6095319,3.15985185 C16.6095319,1.70748148 17.7048511,0.751333333 18.7419574,0.751333333 C19.7770213,0.751333333 20.8202553,1.78266667 20.8202553,3.23659259 C20.8202553,4.26377778 20.2539574,5.49733333 19.56,6.12681481 C19.7014468,6.72259259 20.4811915,6.91703704 22.0988936,7.39718519 L22.0988936,7.39718519 Z" id="Fill-1"></path>
                <path d="M19.0054468,13.4835556 L5.08442553,13.4835556 C5.07625532,13.3414815 5.06655319,13.1999259 5.0507234,13.034 C5.00680851,12.475037 4.96493617,11.9015556 5.11812766,11.3752593 C5.30604255,10.7592593 5.7947234,10.2163704 6.92170213,9.88244444 L7.35829787,9.74037037 C9.34110638,9.16533333 10.4022128,8.84125926 10.7535319,8.08162963 L10.8648511,7.89133333 L10.8571915,7.65022222 C10.8311489,7.63414815 10.8153191,7.61755556 10.7790638,7.57503704 C10.6595745,7.44955556 10.5400851,7.32614815 10.4282553,7.1762963 C9.65821277,6.18385185 9.11182979,4.65059259 9.11182979,3.38437037 C9.11182979,1.76607407 10.2924255,0.0508148148 12.053617,0.0508148148 C13.4302979,0.0508148148 14.9101277,1.43422222 14.9101277,3.5 C14.9101277,4.81651852 14.2340426,6.44933333 13.3102979,7.40911111 C13.2505532,7.476 13.1826383,7.53459259 13.1228936,7.5937037 L13.0110638,7.69481481 L13.0452766,7.84466667 C13.284766,8.79459259 14.3617021,9.11866667 16.5257872,9.74451852 L16.9705532,9.88607407 C18.0919149,10.2205185 18.6204255,10.7696296 18.8517447,11.3788889 L18.8599149,11.3788889 C19.0733617,11.9705185 19.0473191,12.6124444 19.0212766,13.2118519 C19.0131064,13.298963 19.0131064,13.3985185 19.0054468,13.4835556 L19.0054468,13.4835556 Z" id="Fill-2"></path>
                <path d="M1.95268085,7.39718519 C0.155744681,7.93177778 0.464680851,9.25659259 0.470808511,10.1432593 L4.9506383,10.1432593 C5.11251064,9.60659259 5.5092766,9.10466667 6.4626383,8.82311111 L6.76187234,8.73185185 C8.02059574,8.36111111 8.6946383,8.16044444 8.87029787,7.75755556 C8.82229787,7.59733333 8.91012766,7.3582963 8.47914894,7.29555556 C7.13310638,6.89681481 6.44885106,6.68785185 6.28902128,6.17555556 L6.2052766,6.17555556 C6.22723404,6.15533333 6.25123404,6.13511111 6.27114894,6.11074074 C6.93753191,5.45844444 7.44612766,4.18651852 7.44612766,3.15985185 C7.44612766,1.70748148 6.35131915,0.751333333 5.31370213,0.751333333 C4.27659574,0.751333333 3.23540426,1.78266667 3.23540426,3.23659259 C3.23540426,4.26377778 3.79965957,5.49733333 4.49412766,6.12681481 C4.3506383,6.72259259 3.56834043,6.91703704 1.95268085,7.39718519 L1.95268085,7.39718519 Z" id="Fill-3"></path>
            </g>
            <g id="Page-1" transform="translate(4.000000, 49.000000)" fill="#534D64">
                <path d="M22.0988936,7.39718519 C23.8942979,7.93177778 23.5868936,9.25659259 23.5812766,10.1432593 L19.1009362,10.1432593 C18.9395745,9.60659259 18.5422979,9.10466667 17.5909787,8.82311111 L17.2897021,8.73185185 C16.0314894,8.36111111 15.3589787,8.16044444 15.1833191,7.75755556 C15.1394043,7.61185185 15.1537021,7.45162963 15.5724255,7.29555556 C16.9210213,6.89681481 17.603234,6.68785185 17.7645957,6.17555556 L17.850383,6.17555556 C17.826383,6.15533333 17.8044255,6.13511111 17.7845106,6.11074074 C17.1181277,5.45844444 16.6095319,4.18651852 16.6095319,3.15985185 C16.6095319,1.70748148 17.7048511,0.751333333 18.7419574,0.751333333 C19.7770213,0.751333333 20.8202553,1.78266667 20.8202553,3.23659259 C20.8202553,4.26377778 20.2539574,5.49733333 19.56,6.12681481 C19.7014468,6.72259259 20.4811915,6.91703704 22.0988936,7.39718519 L22.0988936,7.39718519 Z" id="Fill-1"></path>
                <path d="M19.0054468,13.4835556 L5.08442553,13.4835556 C5.07625532,13.3414815 5.06655319,13.1999259 5.0507234,13.034 C5.00680851,12.475037 4.96493617,11.9015556 5.11812766,11.3752593 C5.30604255,10.7592593 5.7947234,10.2163704 6.92170213,9.88244444 L7.35829787,9.74037037 C9.34110638,9.16533333 10.4022128,8.84125926 10.7535319,8.08162963 L10.8648511,7.89133333 L10.8571915,7.65022222 C10.8311489,7.63414815 10.8153191,7.61755556 10.7790638,7.57503704 C10.6595745,7.44955556 10.5400851,7.32614815 10.4282553,7.1762963 C9.65821277,6.18385185 9.11182979,4.65059259 9.11182979,3.38437037 C9.11182979,1.76607407 10.2924255,0.0508148148 12.053617,0.0508148148 C13.4302979,0.0508148148 14.9101277,1.43422222 14.9101277,3.5 C14.9101277,4.81651852 14.2340426,6.44933333 13.3102979,7.40911111 C13.2505532,7.476 13.1826383,7.53459259 13.1228936,7.5937037 L13.0110638,7.69481481 L13.0452766,7.84466667 C13.284766,8.79459259 14.3617021,9.11866667 16.5257872,9.74451852 L16.9705532,9.88607407 C18.0919149,10.2205185 18.6204255,10.7696296 18.8517447,11.3788889 L18.8599149,11.3788889 C19.0733617,11.9705185 19.0473191,12.6124444 19.0212766,13.2118519 C19.0131064,13.298963 19.0131064,13.3985185 19.0054468,13.4835556 L19.0054468,13.4835556 Z" id="Fill-2"></path>
                <path d="M1.95268085,7.39718519 C0.155744681,7.93177778 0.464680851,9.25659259 0.470808511,10.1432593 L4.9506383,10.1432593 C5.11251064,9.60659259 5.5092766,9.10466667 6.4626383,8.82311111 L6.76187234,8.73185185 C8.02059574,8.36111111 8.6946383,8.16044444 8.87029787,7.75755556 C8.82229787,7.59733333 8.91012766,7.3582963 8.47914894,7.29555556 C7.13310638,6.89681481 6.44885106,6.68785185 6.28902128,6.17555556 L6.2052766,6.17555556 C6.22723404,6.15533333 6.25123404,6.13511111 6.27114894,6.11074074 C6.93753191,5.45844444 7.44612766,4.18651852 7.44612766,3.15985185 C7.44612766,1.70748148 6.35131915,0.751333333 5.31370213,0.751333333 C4.27659574,0.751333333 3.23540426,1.78266667 3.23540426,3.23659259 C3.23540426,4.26377778 3.79965957,5.49733333 4.49412766,6.12681481 C4.3506383,6.72259259 3.56834043,6.91703704 1.95268085,7.39718519 L1.95268085,7.39718519 Z" id="Fill-3"></path>
            </g>
            <g id="Page-1" transform="translate(4.000000, 9.000000)" fill="#F5F5F5">
                <path d="M22.0988936,7.39718519 C23.8942979,7.93177778 23.5868936,9.25659259 23.5812766,10.1432593 L19.1009362,10.1432593 C18.9395745,9.60659259 18.5422979,9.10466667 17.5909787,8.82311111 L17.2897021,8.73185185 C16.0314894,8.36111111 15.3589787,8.16044444 15.1833191,7.75755556 C15.1394043,7.61185185 15.1537021,7.45162963 15.5724255,7.29555556 C16.9210213,6.89681481 17.603234,6.68785185 17.7645957,6.17555556 L17.850383,6.17555556 C17.826383,6.15533333 17.8044255,6.13511111 17.7845106,6.11074074 C17.1181277,5.45844444 16.6095319,4.18651852 16.6095319,3.15985185 C16.6095319,1.70748148 17.7048511,0.751333333 18.7419574,0.751333333 C19.7770213,0.751333333 20.8202553,1.78266667 20.8202553,3.23659259 C20.8202553,4.26377778 20.2539574,5.49733333 19.56,6.12681481 C19.7014468,6.72259259 20.4811915,6.91703704 22.0988936,7.39718519 L22.0988936,7.39718519 Z" id="Fill-1"></path>
                <path d="M19.0054468,13.4835556 L5.08442553,13.4835556 C5.07625532,13.3414815 5.06655319,13.1999259 5.0507234,13.034 C5.00680851,12.475037 4.96493617,11.9015556 5.11812766,11.3752593 C5.30604255,10.7592593 5.7947234,10.2163704 6.92170213,9.88244444 L7.35829787,9.74037037 C9.34110638,9.16533333 10.4022128,8.84125926 10.7535319,8.08162963 L10.8648511,7.89133333 L10.8571915,7.65022222 C10.8311489,7.63414815 10.8153191,7.61755556 10.7790638,7.57503704 C10.6595745,7.44955556 10.5400851,7.32614815 10.4282553,7.1762963 C9.65821277,6.18385185 9.11182979,4.65059259 9.11182979,3.38437037 C9.11182979,1.76607407 10.2924255,0.0508148148 12.053617,0.0508148148 C13.4302979,0.0508148148 14.9101277,1.43422222 14.9101277,3.5 C14.9101277,4.81651852 14.2340426,6.44933333 13.3102979,7.40911111 C13.2505532,7.476 13.1826383,7.53459259 13.1228936,7.5937037 L13.0110638,7.69481481 L13.0452766,7.84466667 C13.284766,8.79459259 14.3617021,9.11866667 16.5257872,9.74451852 L16.9705532,9.88607407 C18.0919149,10.2205185 18.6204255,10.7696296 18.8517447,11.3788889 L18.8599149,11.3788889 C19.0733617,11.9705185 19.0473191,12.6124444 19.0212766,13.2118519 C19.0131064,13.298963 19.0131064,13.3985185 19.0054468,13.4835556 L19.0054468,13.4835556 Z" id="Fill-2"></path>
                <path d="M1.95268085,7.39718519 C0.155744681,7.93177778 0.464680851,9.25659259 0.470808511,10.1432593 L4.9506383,10.1432593 C5.11251064,9.60659259 5.5092766,9.10466667 6.4626383,8.82311111 L6.76187234,8.73185185 C8.02059574,8.36111111 8.6946383,8.16044444 8.87029787,7.75755556 C8.82229787,7.59733333 8.91012766,7.3582963 8.47914894,7.29555556 C7.13310638,6.89681481 6.44885106,6.68785185 6.28902128,6.17555556 L6.2052766,6.17555556 C6.22723404,6.15533333 6.25123404,6.13511111 6.27114894,6.11074074 C6.93753191,5.45844444 7.44612766,4.18651852 7.44612766,3.15985185 C7.44612766,1.70748148 6.35131915,0.751333333 5.31370213,0.751333333 C4.27659574,0.751333333 3.23540426,1.78266667 3.23540426,3.23659259 C3.23540426,4.26377778 3.79965957,5.49733333 4.49412766,6.12681481 C4.3506383,6.72259259 3.56834043,6.91703704 1.95268085,7.39718519 L1.95268085,7.39718519 Z" id="Fill-3"></path>
            </g>
        </g>
    </g>
</svg>