<?xml version="1.0" encoding="UTF-8" standalone="no"?>
<svg width="32px" height="112px" viewBox="0 0 32 112" version="1.1" xmlns="http://www.w3.org/2000/svg" xmlns:xlink="http://www.w3.org/1999/xlink">
    <!-- Generator: Sketch 3.8.3 (29802) - http://www.bohemiancoding.com/sketch -->
    <title>sb_view_process_audit</title>
    <desc>Created with Sketch.</desc>
    <defs></defs>
    <g id="Page-1" stroke="none" stroke-width="1" fill="none" fill-rule="evenodd">
        <g id="sb_view_process_audit">
            <ellipse id="Oval-7" stroke="#F5F5F5" cx="16" cy="16" rx="15" ry="15"></ellipse>
            <path d="M16.5,5 L16.5,26 L19.125,26 L19.125,5 L16.5,5 Z M11.25,7.625 L11.25,23.375 L13.875,23.375 L13.875,7.625 L11.25,7.625 Z M21.75,10.25 L21.75,20.75 L24.375,20.75 L24.375,10.25 L21.75,10.25 Z M6,12.875 L6,18.125 L8.625,18.125 L8.625,12.875 L6,12.875 Z" id="Page-1" fill="#F5F5F5"></path>
            <ellipse id="Oval-7" stroke="#534D64" cx="16" cy="56" rx="15" ry="15"></ellipse>
            <path d="M16.5,45 L16.5,66 L19.125,66 L19.125,45 L16.5,45 Z M11.25,47.625 L11.25,63.375 L13.875,63.375 L13.875,47.625 L11.25,47.625 Z M21.75,50.25 L21.75,60.75 L24.375,60.75 L24.375,50.25 L21.75,50.25 Z M6,52.875 L6,58.125 L8.625,58.125 L8.625,52.875 L6,52.875 Z" id="Page-1" fill="#534D64"></path>
            <ellipse id="Oval-7" stroke="#F08377" cx="16" cy="96" rx="15" ry="15"></ellipse>
            <path d="M16.5,85 L16.5,106 L19.125,106 L19.125,85 L16.5,85 Z M11.25,87.625 L11.25,103.375 L13.875,103.375 L13.875,87.625 L11.25,87.625 Z M21.75,90.25 L21.75,100.75 L24.375,100.75 L24.375,90.25 L21.75,90.25 Z M6,92.875 L6,98.125 L8.625,98.125 L8.625,92.875 L6,92.875 Z" id="Page-1" fill="#F08377"></path>
        </g>
    </g>
</svg>