<?xml version="1.0" encoding="UTF-8" standalone="no"?>
<!DOCTYPE svg PUBLIC "-//W3C//DTD SVG 1.1//EN"
 "http://www.w3.org/Graphics/SVG/1.1/DTD/svg11.dtd">
<!-- Generated by graphviz version 2.26.3 (20100126.1600)
 -->
<!-- Title: G Pages: 1 -->
<svg width="570pt" height="314pt"
 viewBox="0.00 0.00 570.00 314.00" xmlns="http://www.w3.org/2000/svg" xmlns:xlink="http://www.w3.org/1999/xlink">
<g id="graph1" class="graph" transform="scale(1 1) rotate(0) translate(4 310)">
<title>G</title>
<polygon fill="white" stroke="white" points="-4,5 -4,-310 567,-310 567,5 -4,5"/>
<g id="graph2" class="cluster"><title>cluster_Global</title>
<polyline fill="none" stroke="gray" points="372,-8 542,-8 "/>
<path fill="none" stroke="gray" d="M542,-8C548,-8 554,-14 554,-20"/>
<polyline fill="none" stroke="gray" points="554,-20 554,-286 "/>
<path fill="none" stroke="gray" d="M554,-286C554,-292 548,-298 542,-298"/>
<polyline fill="none" stroke="gray" points="542,-298 372,-298 "/>
<path fill="none" stroke="gray" d="M372,-298C366,-298 360,-292 360,-286"/>
<polyline fill="none" stroke="gray" points="360,-286 360,-20 "/>
<path fill="none" stroke="gray" d="M360,-20C360,-14 366,-8 372,-8"/>
<text text-anchor="middle" x="457" y="-284.1" font-family="Times Roman,serif" font-size="11.00" fill="gray">Global</text>
</g>
<!-- \\OneLogin_Saml_Response -->
<g id="node2" class="node"><title>\\OneLogin_Saml_Response</title>
<polygon fill="none" stroke="black" points="537,-268 377,-268 377,-232 537,-232 537,-268"/>
<text text-anchor="middle" x="457" y="-247.1" font-family="Times Roman,serif" font-size="11.00">OneLogin_Saml_Response</text>
</g>
<!-- \\OneLogin_Saml2_Response -->
<g id="node8" class="node"><title>\\OneLogin_Saml2_Response</title>
<ellipse fill="none" stroke="black" cx="148" cy="-250" rx="147.785" ry="18.3848"/>
<text text-anchor="middle" x="148" y="-246.4" font-family="Times Roman,serif" font-size="14.00" fill="gray">\OneLogin_Saml2_Response</text>
</g>
<!-- \\OneLogin_Saml_Response&#45;&gt;\\OneLogin_Saml2_Response -->
<g id="edge3" class="edge"><title>\\OneLogin_Saml_Response&#45;&gt;\\OneLogin_Saml2_Response</title>
<path fill="none" stroke="black" d="M376.621,-250C354.932,-250 330.689,-250 306.32,-250"/>
<polygon fill="none" stroke="black" points="306.246,-246.5 296.246,-250 306.246,-253.5 306.246,-246.5"/>
</g>
<!-- \\OneLogin_Saml_Metadata -->
<g id="node3" class="node"><title>\\OneLogin_Saml_Metadata</title>
<polygon fill="none" stroke="black" points="537,-214 377,-214 377,-178 537,-178 537,-214"/>
<text text-anchor="middle" x="457" y="-193.1" font-family="Times Roman,serif" font-size="11.00">OneLogin_Saml_Metadata</text>
</g>
<!-- \\OneLogin_Saml_AuthRequest -->
<g id="node4" class="node"><title>\\OneLogin_Saml_AuthRequest</title>
<polygon fill="none" stroke="black" points="545,-160 369,-160 369,-124 545,-124 545,-160"/>
<text text-anchor="middle" x="457" y="-139.1" font-family="Times Roman,serif" font-size="11.00">OneLogin_Saml_AuthRequest</text>
</g>
<!-- \\OneLogin_Saml_Settings -->
<g id="node5" class="node"><title>\\OneLogin_Saml_Settings</title>
<polygon fill="none" stroke="black" points="533,-106 381,-106 381,-70 533,-70 533,-106"/>
<text text-anchor="middle" x="457" y="-85.1" font-family="Times Roman,serif" font-size="11.00">OneLogin_Saml_Settings</text>
</g>
<!-- \\OneLogin_Saml_XmlSec -->
<g id="node6" class="node"><title>\\OneLogin_Saml_XmlSec</title>
<polygon fill="none" stroke="black" points="531,-52 383,-52 383,-16 531,-16 531,-52"/>
<text text-anchor="middle" x="457" y="-31.1" font-family="Times Roman,serif" font-size="11.00">OneLogin_Saml_XmlSec</text>
</g>
</g>
</svg>
