<?xml version="1.0" encoding="UTF-8" standalone="no"?>
<svg width="30px" height="30px" viewBox="0 0 30 30" version="1.1" xmlns="http://www.w3.org/2000/svg" xmlns:xlink="http://www.w3.org/1999/xlink">
    <!-- Generator: Sketch 3.8.3 (29802) - http://www.bohemiancoding.com/sketch -->
    <title>acc_kb_cat</title>
    <desc>Created with Sketch.</desc>
    <defs></defs>
    <g id="Page-1" stroke="none" stroke-width="1" fill="none" fill-rule="evenodd">
        <g id="acc_kb_cat" fill="#FFFFFF">
            <g id="Page-1-Copy-2" transform="translate(3.000000, 0.000000)">
                <path d="M16.7763014,13.1997671 C16.8104658,13.3701918 17.0837808,13.9970685 17.1195342,14.1774247 C17.1628356,14.3899589 17.0821918,14.5202603 16.8744247,14.5715068 C16.7393562,14.6040822 16.6011096,14.6271233 16.4660411,14.6612877 C16.3218356,14.6986301 16.2129863,14.6553288 16.1136712,14.5496575 C15.6794658,14.0840685 15.0013425,13.1763288 14.5667397,12.7107397 C14.510726,12.6503562 14.4626575,12.6316849 14.3760548,12.6519452 C13.9879315,12.7433151 13.6307945,12.7031918 13.3670137,12.3786301 C12.7913836,12.6876986 12.2125753,12.5756712 11.6369452,12.4266986 C11.3636301,12.355589 11.1201096,12.2189315 10.9000274,12.0417534 C10.6576986,11.8478904 10.4916438,11.6059589 10.412589,11.3048356 C10.4034521,11.2706712 10.3923288,11.2365068 10.3847808,11.2102877 C10.1595342,11.2643151 9.94858904,11.329863 9.73128767,11.3636301 C9.29668493,11.4319589 8.87956164,11.3870685 8.51328767,11.1109726 C8.34246575,10.9822603 8.21375342,10.8189863 8.13310959,10.6203562 C8.1160274,10.5770548 8.08941096,10.5289863 8.05246575,10.5027671 C7.53563014,10.1349041 7.27621918,9.62442466 7.22060274,9.00350685 C7.15982192,8.31783562 7.31991781,7.68778082 7.73267123,7.13678082 C7.8550274,6.97231507 8.03538356,6.85115068 8.18713699,6.71012329 C8.22130137,6.67754795 8.265,6.64616438 8.28208219,6.60445205 C8.68371233,5.61447945 9.45360274,5.08532877 10.4622466,4.85253425 C10.6096301,4.81836986 10.7617808,4.80128767 10.9091644,4.77030137 C10.9679589,4.7579863 11.0287397,4.73613699 11.0783973,4.70356164 C11.5841096,4.36827397 12.1458356,4.20857534 12.7433151,4.15732877 C13.3904521,4.10131507 14.0189178,4.20221918 14.6410274,4.37145205 C15.3644384,4.56849315 16.0997671,4.72382192 16.7858356,5.04043836 C17.4436986,5.34275342 17.9883425,5.79284932 18.4694247,6.322 C18.6930822,6.56869863 18.8281507,6.86823288 18.9334247,7.18326027 C18.9536849,7.24205479 19.0049315,7.29330137 19.053,7.33858904 C19.1833014,7.46253425 19.3477671,7.55867123 19.4454932,7.70327397 C19.7263562,8.11443836 19.8646027,8.57208219 19.8010411,9.07660274 C19.7513836,9.46591781 19.5404384,9.75909589 19.2393151,9.99665753 C19.2003836,10.0260548 19.1614521,10.0554521 19.1260959,10.0836575 C19.1288767,10.0943836 19.1272877,10.1007397 19.1288767,10.1023288 C19.5074658,10.4697945 19.5015068,10.9091644 19.3573014,11.3699863 C19.0605479,12.3198356 18.3609726,12.8334932 17.4484658,13.1004521 C17.2391096,13.1608356 17.0075068,13.1671918 16.7763014,13.1997671 L16.7763014,13.1997671 Z" id="Fill-1"></path>
                <path d="M10.4046438,28.9674247 L9.47068493,27.0029726 C9.33561644,26.7205205 9.20054795,26.4412466 9.06110959,26.1615753 C8.64676712,25.3114384 8.55976712,25.3114384 8.19031507,25.3114384 C8.01353425,25.3114384 7.78232877,25.3301096 7.49987671,25.3670548 C6.58578082,25.4759041 5.63315068,25.4230685 4.76235616,25.3499726 C4.03934247,25.289589 3.43709589,24.9916438 3.01838356,24.4903014 C2.78082192,24.2050685 2.39428767,23.5793836 2.48287671,22.6005342 C2.52935616,22.0868767 2.45943836,21.7110685 2.233,21.2625616 C2.1150137,21.0329452 2.01410959,20.7675753 1.92750685,20.4573151 L1.91161644,20.3889863 L1.69908219,19.2826164 C1.67286301,19.1026575 1.64783562,18.9413699 1.62161644,18.7908082 C1.20727397,18.6199863 0.605027397,18.2819178 0.311849315,17.6113425 C-0.0357534247,16.8120548 0.232794521,16.0377945 0.464,15.524137 C0.609794521,15.2106986 0.772671233,14.8988493 0.977657534,14.5373425 C1.19336986,14.1416712 1.39041096,13.7801644 1.51157534,13.4385205 C1.66372603,13.0070959 1.67286301,12.7059726 1.65419178,12.6269178 C0.592712329,9.44287671 1.18860274,6.52063014 3.4200137,3.94638356 C5.52271233,1.53143836 9.11235616,0.0325753425 12.7897945,0.0325753425 C14.4594795,0.0325753425 16.0799041,0.346013699 17.476274,0.938726027 C22.2743836,2.97945205 24.901863,7.8629726 23.8650137,12.8116438 C23.7160411,13.4881781 23.517411,14.1166438 23.2723014,14.6863151 C23.0271918,15.2667123 22.7260685,15.8626027 22.4591096,16.3901644 L22.3367534,16.6320959 C21.4504658,18.3546164 20.6885205,19.8367945 20.909,21.4286164 C20.9336301,21.6117534 20.9634247,21.7686712 21.0035479,21.924 L21.3122192,23.314411 L10.4046438,28.9674247 Z M8.19031507,23.7100822 C9.42261644,23.7100822 9.93468493,24.2964384 10.496411,25.4540548 C10.6358493,25.7317397 10.7740959,26.0205479 10.9123425,26.3093562 L11.1387808,26.7840822 L19.4796575,22.4622877 L19.4423151,22.2978219 C19.3926575,22.1067397 19.3509452,21.8850685 19.3199589,21.6459178 C19.0295616,19.5559315 19.9841781,17.7015205 20.907411,15.9074932 L21.0269863,15.6699315 C21.2939452,15.1423699 21.5700411,14.596137 21.7964795,14.0622192 C22.0046438,13.5799452 22.1718904,13.0492055 22.2962329,12.4779452 C23.1729863,8.29280822 20.9320411,4.1509726 16.8462192,2.41454795 C15.6453014,1.90565753 14.2425753,1.63552055 12.7854247,1.63552055 C9.55887671,1.63552055 6.4320411,2.92343836 4.62450685,4.99832877 C2.76373973,7.14273973 2.28583562,9.47664384 3.16894521,12.1287534 C3.37989041,12.7540411 3.16258904,13.5533288 3.01520548,13.9740274 C2.85073973,14.4364384 2.62390411,14.8523699 2.38515068,15.2929315 C2.18334247,15.6528493 2.03913699,15.9277534 1.91320548,16.1947123 C1.74873973,16.5593973 1.70226027,16.8076849 1.77376712,16.9705616 C1.84209589,17.1270822 2.06217808,17.2653288 2.44235616,17.3864932 L2.56352055,17.4250274 L2.80545205,17.5990274 L3.05413699,17.8937945 L3.0990274,18.0705753 C3.17967123,18.3796438 3.22615068,18.7006301 3.27263014,19.0124795 L3.47284932,20.0493288 C3.52886301,20.2431918 3.59083562,20.4028904 3.65757534,20.5363699 C4.01908219,21.2550137 4.14660274,21.933137 4.07350685,22.7431507 C4.03616438,23.1483562 4.16487671,23.3684384 4.24432877,23.4645753 C4.38376712,23.6322192 4.60106849,23.7299452 4.89106849,23.7533836 C5.68558904,23.8201233 6.53453425,23.8681918 7.29489041,23.7780137 C7.64567123,23.7331233 7.94043836,23.7100822 8.19031507,23.7100822 L8.19031507,23.7100822 Z" id="Fill-2"></path>
                <path d="M6.62471233,15.5535342 C6.11423288,15.5662466 5.7960274,15.3084247 5.78967123,14.8630959 C5.78649315,14.6195753 5.68121918,14.5587945 5.48417808,14.501589 C4.86008219,14.315274 4.62132877,13.9772055 4.76553425,13.5255205 C4.90536986,13.0909178 5.28713699,12.9574384 5.89534247,13.1330274 C6.76136986,13.3829041 7.63017808,13.6296027 8.49461644,13.8838493 C8.94312329,14.0157397 9.15565753,14.2906438 9.12308219,14.6628767 C9.08891781,15.0478219 8.81282192,15.2790274 8.34087671,15.3334521 C7.74657534,15.4029726 7.15545205,15.4852055 6.62471233,15.5535342 L6.62471233,15.5535342 Z" id="Fill-3"></path>
            </g>
        </g>
    </g>
</svg>