<?xml version="1.0" encoding="UTF-8" standalone="no"?>
<svg width="30px" height="30px" viewBox="0 0 30 30" version="1.1" xmlns="http://www.w3.org/2000/svg" xmlns:xlink="http://www.w3.org/1999/xlink">
    <!-- Generator: Sketch 3.8.3 (29802) - http://www.bohemiancoding.com/sketch -->
    <title>acc_case_updates</title>
    <desc>Created with Sketch.</desc>
    <defs></defs>
    <g id="Page-1" stroke="none" stroke-width="1" fill="none" fill-rule="evenodd">
        <g id="acc_case_updates" fill="#FFFFFF">
            <path d="M28.8,28 L26.4,28 L26.4,6.4 L28.8,6.4 C29.4715733,6.4 30.0168533,6.94314667 30.0168533,7.61642667 L30.0168533,26.8164267 C30.0168533,27.45472 29.4715733,28 28.8,28 L28.8,28 Z M4.8,28 L4.8,6.4 L8.38357333,6.4 L10.7835733,2.208 L19.16672,2.208 L21.56672,6.4 L25.1502933,6.4 L25.1502933,28 L4.8,28 Z M18.0168533,4 L12,4 L10.7835733,6.4 L19.16672,6.4 L18.0168533,4 Z M0,26.81472 L0,7.61472 C0,6.94314667 0.543573333,6.39829333 1.21685333,6.39829333 L3.61685333,6.39829333 L3.61685333,27.9982933 L1.21685333,27.9982933 C0.54528,28 0,27.45472 0,26.81472 L0,26.81472 Z" id="Page-1-Copy-2"></path>
        </g>
    </g>
</svg>