<?xml version="1.0" encoding="UTF-8" standalone="no"?>
<svg width="30px" height="30px" viewBox="0 0 30 30" version="1.1" xmlns="http://www.w3.org/2000/svg" xmlns:xlink="http://www.w3.org/1999/xlink">
    <!-- Generator: Sketch 39.1 (31720) - http://www.bohemiancoding.com/sketch -->
    <title>acc_email</title>
    <desc>Created with Sketch.</desc>
    <defs></defs>
    <g id="Page-1" stroke="none" stroke-width="1" fill="none" fill-rule="evenodd">
        <g id="acc_email" fill="#FFFFFF">
            <path d="M5.22309147,5 C4.14968381,5 3.25849143,5.75396049 3.04856901,6.76380468 L15.2237434,18.9389791 L27.3992438,6.76380468 C27.1876915,5.75526436 26.297803,5 25.2243953,5 L5.2217876,5 M3,8.28639416 L3,21.9580807 L9.83649521,15.1215855 L3,8.28541626 M27.4474868,8.28541626 L20.7104114,15.0221657 L27.4474868,21.7592412 L27.4474868,8.28280853 M19.9248321,15.8054632 L15.617185,20.1131104 C15.4007432,20.3295521 15.0480475,20.3295521 14.8316057,20.1131104 L10.6233783,15.904883 L3.09681205,23.4311233 C3.3745355,24.3415477 4.21846274,25 5.2217876,25 L25.2243953,25 C26.2850903,25 27.1648739,24.2639677 27.3901167,23.2733555 L19.9235283,15.8067671" id="Page-1"></path>
        </g>
    </g>
</svg>