<?xml version="1.0" encoding="UTF-8" standalone="no"?>
<svg width="30px" height="30px" viewBox="0 0 30 30" version="1.1" xmlns="http://www.w3.org/2000/svg" xmlns:xlink="http://www.w3.org/1999/xlink">
    <!-- Generator: Sketch 3.8.3 (29802) - http://www.bohemiancoding.com/sketch -->
    <title>acc_history</title>
    <desc>Created with Sketch.</desc>
    <defs>
        <polygon id="path-1" points="25.968547 0.0057132113 25.968547 22.8265574 0 22.8265574 0 0.0057132113 25.968547 0.0057132113"></polygon>
    </defs>
    <g id="Page-1" stroke="none" stroke-width="1" fill="none" fill-rule="evenodd">
        <g id="acc_history">
            <g id="Page-1" transform="translate(2.000000, 4.000000)">
                <g id="Group-3" transform="translate(0.000000, 0.038117)">
                    <mask id="mask-2" fill="white">
                        <use xlink:href="#path-1"></use>
                    </mask>
                    <g id="Clip-2"></g>
                    <path d="M14.6073191,0.0057132113 C8.27745336,0.0057132113 3.24606074,5.14041805 3.24606074,11.4161441 L-1.30872491e-05,11.4161441 L4.05760101,16.3063287 L8.11517148,11.4161441 L4.86914128,11.4161441 C4.86914128,6.03691904 9.17013456,1.63577476 14.6073191,1.63577476 C20.0445037,1.63577476 24.3455406,6.03691904 24.3455406,11.4161441 C24.3455406,16.7953253 20.0445037,21.1965572 14.6073191,21.1965572 L14.6073191,22.8265749 C20.9371849,22.8265749 25.9685775,17.6918701 25.9685775,11.4161441 C25.9685775,5.14041805 20.9371849,0.0057132113 14.6073191,0.0057132113" id="Fill-1" fill="#FFFFFF" mask="url(#mask-2)"></path>
                </g>
                <polygon id="Fill-4" fill="#FFFFFF" points="13.7958007 4.934002 12.9842604 4.934002 12.9842604 13.0843098 19.4764517 13.0843098 19.4764517 11.4542482 14.6073409 11.4542482 14.6073409 4.934002"></polygon>
            </g>
        </g>
    </g>
</svg>