<?xml version="1.0" encoding="UTF-8" standalone="no"?>
<svg width="30px" height="30px" viewBox="0 0 30 30" version="1.1" xmlns="http://www.w3.org/2000/svg" xmlns:xlink="http://www.w3.org/1999/xlink">
    <!-- Generator: Sketch 3.8.3 (29802) - http://www.bohemiancoding.com/sketch -->
    <title>acc_project_tasks</title>
    <desc>Created with Sketch.</desc>
    <defs></defs>
    <g id="Page-1" stroke="none" stroke-width="1" fill="none" fill-rule="evenodd">
        <g id="acc_project_tasks" fill="#FFFFFF">
            <path d="M27.7689333,19.0780533 L26.65456,19.0780533 L26.65456,12.2282533 C28.57552,11.7313867 30,10.00028 30,7.92349333 C30,5.46004 28.0017067,3.46174667 25.5382533,3.46174667 C23.4614667,3.46174667 21.7319067,4.88738667 21.2334933,6.80718667 L17.7310667,6.80718667 L17.7310667,4.57650667 C17.7310667,3.96170667 17.22956,3.46174667 16.6163067,3.46174667 L12.15456,3.46174667 C11.53976,3.46174667 11.0398,3.96325333 11.0398,4.57650667 L11.0398,6.80718667 L7.69281333,6.80718667 L7.69281333,2.34544 C7.69281333,1.73064 7.19130667,1.23068 6.57805333,1.23068 L2.11476,1.23068 C1.49996,1.23068 1,1.73218667 1,2.34544 L1,13.5 C1,14.1148 1.50150667,14.61476 2.11476,14.61476 L6.57650667,14.61476 C7.19130667,14.61476 7.69126667,14.1132533 7.69126667,13.5 L7.69126667,9.03825333 L11.0367067,9.03825333 L11.0367067,11.2689333 C11.0367067,11.8837333 11.5382133,12.3836933 12.1514667,12.3836933 L16.6132133,12.3836933 C17.2280133,12.3836933 17.7279733,11.8821867 17.7279733,11.2689333 L17.7279733,9.03825333 L21.2319467,9.03825333 C21.6367867,10.6015467 22.8586533,11.82032 24.4204,12.2267067 L24.4204,19.0765067 L23.3060267,19.0765067 C22.6912267,19.0765067 22.1912667,19.5776267 22.1912667,20.19088 L22.1912667,22.4219467 L17.5721467,22.4219467 C17.07528,20.5006 15.34456,19.0765067 13.2677733,19.0765067 C10.8039333,19.0765067 8.80602667,21.0748 8.80602667,23.5382533 C8.80602667,26.0017067 10.8039333,28 13.2677733,28 C15.34456,28 17.0737333,26.5739733 17.5706,24.6541733 L22.1928133,24.6541733 L22.1928133,26.88524 C22.1928133,27.50004 22.6939333,28 23.3071867,28 L27.7689333,28 C28.3837333,28 28.8836933,27.4984933 28.8836933,26.88524 L28.8836933,20.1924267 C28.88524,19.5791733 28.3837333,19.0780533 27.7689333,19.0780533 L27.7689333,19.0780533 Z" id="Page-1-Copy-2"></path>
        </g>
    </g>
</svg>