<?xml version="1.0" encoding="UTF-8" standalone="no"?>
<svg width="30px" height="30px" viewBox="0 0 30 30" version="1.1" xmlns="http://www.w3.org/2000/svg" xmlns:xlink="http://www.w3.org/1999/xlink">
    <!-- Generator: Sketch 3.8.3 (29802) - http://www.bohemiancoding.com/sketch -->
    <title>acc_target_list</title>
    <desc>Created with Sketch.</desc>
    <defs></defs>
    <g id="Page-1" stroke="none" stroke-width="1" fill="none" fill-rule="evenodd">
        <g id="acc_target_list" fill="#FFFFFF">
            <g id="Page-1" transform="translate(2.000000, 2.000000)">
                <path d="M12.9822899,0.282608696 C5.95965217,0.282608696 0.282608696,5.99507246 0.282608696,13.0177101 C0.282608696,20.0418551 5.95965217,25.7173913 12.9822899,25.7173913 C20.0418551,25.7173913 25.7173913,20.0418551 25.7173913,13.0177101 C25.7173913,5.99507246 20.0418551,0.282608696 12.9822899,0.282608696 L12.9822899,0.282608696 Z M12.9822899,21.495971 C8.32527536,21.495971 4.50402899,17.6762319 4.50402899,13.0192174 C4.50402899,8.32527536 8.32527536,4.54095652 12.9822899,4.54095652 C17.6762319,4.54095652 21.4605507,8.32527536 21.4605507,13.0192174 C21.4605507,17.6762319 17.6762319,21.495971 12.9822899,21.495971 L12.9822899,21.495971 Z" id="Fill-1"></path>
                <path d="M12.9822899,9.08907246 C10.8348406,9.08907246 9.05214493,10.8363478 9.05214493,13.0192174 C9.05214493,15.1651594 10.8348406,16.9478551 12.9822899,16.9478551 C15.1651594,16.9478551 16.9109275,15.1651594 16.9109275,13.0192174 C16.9109275,10.8348406 15.1651594,9.08907246 12.9822899,9.08907246 L12.9822899,9.08907246 Z" id="Fill-2"></path>
            </g>
        </g>
    </g>
</svg>