<?xml version="1.0" encoding="UTF-8" standalone="no"?>
<svg width="30px" height="30px" viewBox="0 0 30 30" version="1.1" xmlns="http://www.w3.org/2000/svg" xmlns:xlink="http://www.w3.org/1999/xlink">
    <!-- Generator: Sketch 3.8.3 (29802) - http://www.bohemiancoding.com/sketch -->
    <title>acc_tasks</title>
    <desc>Created with Sketch.</desc>
    <defs></defs>
    <g id="Page-1" stroke="none" stroke-width="1" fill="none" fill-rule="evenodd">
        <g id="acc_tasks" fill="#FFFFFF">
            <g id="Page-1" transform="translate(1.000000, 1.000000)">
                <path d="M20.7398841,14.1156522 C21.1789565,16.7026087 20.4785507,19.4531014 18.5493913,21.5056232 C15.2762319,24.9881739 9.78173913,25.1545507 6.30243478,21.8846377 C2.82150725,18.6126957 2.65026087,13.1202319 5.92382609,9.63930435 C7.8542029,7.58475362 10.5555942,6.71634783 13.1644638,6.99513043 L15.9417391,4.04052174 C11.624058,2.66162319 6.70376812,3.74875362 3.40017391,7.26457971 C-1.18086957,12.1390145 -0.944695652,19.8284638 3.92973913,24.4095072 C8.80214493,28.9905507 16.4936232,28.7527536 21.0746667,23.8803478 C24.3794783,20.3645217 25.1594203,15.3853913 23.5171594,11.1626667 L20.7398841,14.1156522 Z" id="Fill-1"></path>
                <path d="M26.4007536,0.979594203 C25.5002899,0.0791304348 24.0418551,0.0807536232 23.1413913,0.979594203 L22.0558841,2.06550725 L25.3148406,5.32446377 L26.4007536,4.23855072 C27.2991884,3.33849275 27.3008116,1.87843478 26.4007536,0.979594203 L26.4007536,0.979594203 Z" id="Fill-2"></path>
                <polygon id="Fill-3" points="9.02411594 18.3558261 13.3673623 17.2703188 24.2289275 6.40875362 20.9683478 3.15142029 10.1084058 14.0125797"></polygon>
            </g>
        </g>
    </g>
</svg>