<?xml version="1.0" encoding="UTF-8" standalone="no"?>
<svg
   xmlns:dc="http://purl.org/dc/elements/1.1/"
   xmlns:cc="http://creativecommons.org/ns#"
   xmlns:rdf="http://www.w3.org/1999/02/22-rdf-syntax-ns#"
   xmlns:svg="http://www.w3.org/2000/svg"
   xmlns="http://www.w3.org/2000/svg"
   xmlns:sodipodi="http://sodipodi.sourceforge.net/DTD/sodipodi-0.dtd"
   xmlns:inkscape="http://www.inkscape.org/namespaces/inkscape"
   width="20"
   height="20"
   viewBox="0 0 20 20"
   version="1.1"
   id="svg2"
   inkscape:version="0.48.4 r9939"
   sodipodi:docname="file.svg">
  <metadata
     id="metadata27">
    <rdf:RDF>
      <cc:Work
         rdf:about="">
        <dc:format>image/svg+xml</dc:format>
        <dc:type
           rdf:resource="http://purl.org/dc/dcmitype/StillImage" />
        <dc:title>my_pdf_templates_dark</dc:title>
      </cc:Work>
    </rdf:RDF>
  </metadata>
  <sodipodi:namedview
     pagecolor="#ffffff"
     bordercolor="#666666"
     borderopacity="1"
     objecttolerance="10"
     gridtolerance="10"
     guidetolerance="10"
     inkscape:pageopacity="0"
     inkscape:pageshadow="2"
     inkscape:window-width="1855"
     inkscape:window-height="1056"
     id="namedview25"
     showgrid="false"
     inkscape:zoom="11.125147"
     inkscape:cx="-27.733454"
     inkscape:cy="24.368883"
     inkscape:window-x="65"
     inkscape:window-y="24"
     inkscape:window-maximized="1"
     inkscape:current-layer="Page-1" />
  <!-- Generator: Sketch 39.1 (31720) - http://www.bohemiancoding.com/sketch -->
  <title
     id="title4">my_pdf_templates_dark</title>
  <desc
     id="desc6">Created with Sketch.</desc>
  <defs
     id="defs8" />
  <g
     id="Page-1"
     style="fill:none;stroke:none"
     transform="translate(0,-10)">
    <g
       id="my_pdf_templates_dark"
       style="fill:#ffffff"
       transform="matrix(0.63384882,0,0,0.63384882,0.49226773,10.605972)">
      <g
         id="g12"
         transform="translate(4,1)"
         style="fill:#ffffff">
        <polygon
           id="Fill-1"
           points="20.99061,3.4025424 7.951322,16.44183 11.289729,16.44183 21.924305,5.8057627 21.924305,4.3362373 "
           style="fill:#ffffff" />
        <polygon
           id="Fill-2"
           points="6.7148475,16.44183 20.373119,2.7850509 18.703729,1.115661 3.3779322,16.44183 "
           style="fill:#ffffff" />
        <polygon
           id="Fill-3"
           points="21.924305,16.44183 21.924305,11.616 17.098475,16.44183 "
           style="fill:#ffffff" />
        <polygon
           id="Fill-4"
           points="21.924305,7.0426102 12.525085,16.44183 15.862,16.44183 21.924305,10.381017 "
           style="fill:#ffffff" />
        <polygon
           id="Fill-5"
           points="6.0984746,0 0.075694915,6.0227797 0.075694915,9.3600678 9.4357627,0 "
           style="fill:#ffffff" />
        <polygon
           id="Fill-6"
           points="15.246,0 0.075694915,15.170305 0.075694915,16.44183 2.1410848,16.44183 18.086237,0.49816949 17.588068,0 "
           style="fill:#ffffff" />
        <polygon
           id="Fill-7"
           points="4.862,0 0.075694915,0 0.075694915,4.7863051 "
           style="fill:#ffffff" />
        <polygon
           id="Fill-8"
           points="10.672237,0 0.075694915,10.596542 0.075694915,13.933458 14.009153,0 "
           style="fill:#ffffff" />
        <path
           d="m 11.821458,21.481322 c -0.107763,-0.101797 -0.243119,-0.170407 -0.409424,-0.206576 -0.123797,-0.02797 -0.365424,-0.04251 -0.726746,-0.04251 l -0.397491,0 0,2.900271 0.659627,0 c 0.247593,0 0.425457,-0.01454 0.534712,-0.04251 0.142813,-0.03617 0.262135,-0.09583 0.356847,-0.181966 0.09471,-0.08576 0.171898,-0.225593 0.233051,-0.422475 0.05966,-0.195017 0.09024,-0.463118 0.09024,-0.80244 0,-0.339322 -0.02909,-0.598475 -0.09024,-0.780814 -0.05966,-0.17898 -0.142814,-0.320302 -0.250576,-0.42098 l 0,0 z"
           id="Fill-9"
           style="fill:#ffffff"
           inkscape:connector-curvature="0" />
        <path
           d="M 7.275661,21.262814 C 7.1693898,21.24417 6.9579661,21.233729 6.6391525,21.233729 l -0.4269491,0 0,1.24244 0.4836271,0 c 0.3482712,0 0.5828136,-0.02312 0.6991525,-0.06824 0.1167119,-0.04512 0.2099323,-0.116712 0.276678,-0.215525 0.067119,-0.09769 0.100678,-0.211424 0.100678,-0.339695 0,-0.159966 -0.04661,-0.291221 -0.1413221,-0.394509 -0.09322,-0.104779 -0.2125423,-0.170406 -0.3553559,-0.195389 l 0,0 z"
           id="Fill-10"
           style="fill:#ffffff"
           inkscape:connector-curvature="0" />
        <path
           d="m 21.924305,17.315864 -21.84861008,0 0,10.650238 21.84861008,0 z"
           id="Fill-11"
           inkscape:connector-curvature="0"
           sodipodi:nodetypes="ccccc"
           style="fill:#ffffff" />
      </g>
    </g>
  </g>
</svg>
