<?xml version="1.0" encoding="UTF-8" standalone="no"?>
<svg width="28px" height="28px" viewBox="0 0 28 28" version="1.1" xmlns="http://www.w3.org/2000/svg" xmlns:xlink="http://www.w3.org/1999/xlink">
    <!-- Generator: Sketch 3.8.3 (29802) - http://www.bohemiancoding.com/sketch -->
    <title>admin_aod_settings</title>
    <desc>Created with Sketch.</desc>
    <defs></defs>
    <g id="Page-1" stroke="none" stroke-width="1" fill="none" fill-rule="evenodd">
        <g id="admin_aod_settings">
            <circle id="Oval-7" stroke="#534D64" cx="14" cy="14" r="13"></circle>
            <path d="M7.81025,14.4935 L7.20275,12.698 C7.15774978,12.5839994 7.10975026,12.4497508 7.05875,12.29525 C7.00774975,12.1407492 6.95675026,11.9735009 6.90575,11.7935 C6.86074978,11.9765009 6.81275026,12.1459992 6.76175,12.302 C6.71074975,12.4580008 6.66275023,12.5929994 6.61775,12.707 L6.01475,14.4935 L7.81025,14.4935 Z M10.22675,17 L9.04775,17 C8.91574934,17 8.80925041,16.9692503 8.72825,16.90775 C8.6472496,16.8462497 8.58575021,16.7675005 8.54375,16.6715 L8.15675,15.5285 L5.66375,15.5285 L5.27675,16.6715 C5.24374984,16.7555004 5.18450043,16.8312497 5.099,16.89875 C5.01349957,16.9662503 4.90775063,17 4.78175,17 L3.59375,17 L6.13175,10.4435 L7.68875,10.4435 L10.22675,17 Z M17.17925,13.7195 C17.17925,14.1935024 17.0975008,14.634498 16.934,15.0425 C16.7704992,15.450502 16.5402515,15.8052485 16.24325,16.10675 C15.9462485,16.4082515 15.5885021,16.6444991 15.17,16.8155 C14.7514979,16.9865009 14.2872526,17.072 13.77725,17.072 C13.2672475,17.072 12.8022521,16.9865009 12.38225,16.8155 C11.9622479,16.6444991 11.6030015,16.4082515 11.3045,16.10675 C11.0059985,15.8052485 10.7750008,15.450502 10.6115,15.0425 C10.4479992,14.634498 10.36625,14.1935024 10.36625,13.7195 C10.36625,13.2454976 10.4479992,12.804502 10.6115,12.3965 C10.7750008,11.988498 11.0059985,11.6345015 11.3045,11.3345 C11.6030015,11.0344985 11.9622479,10.7990009 12.38225,10.628 C12.8022521,10.4569991 13.2672475,10.3715 13.77725,10.3715 C14.2872526,10.3715 14.7514979,10.4577491 15.17,10.63025 C15.5885021,10.8027509 15.9462485,11.0389985 16.24325,11.339 C16.5402515,11.6390015 16.7704992,11.992998 16.934,12.401 C17.0975008,12.809002 17.17925,13.2484976 17.17925,13.7195 L17.17925,13.7195 Z M15.62225,13.7195 C15.62225,13.3954984 15.5802504,13.1037513 15.49625,12.84425 C15.4122496,12.5847487 15.2915008,12.3650009 15.134,12.185 C14.9764992,12.0049991 14.7837511,11.8670005 14.55575,11.771 C14.3277489,11.6749995 14.0682515,11.627 13.77725,11.627 C13.4832485,11.627 13.2215011,11.6749995 12.992,11.771 C12.7624989,11.8670005 12.5690008,12.0049991 12.4115,12.185 C12.2539992,12.3650009 12.1332504,12.5847487 12.04925,12.84425 C11.9652496,13.1037513 11.92325,13.3954984 11.92325,13.7195 C11.92325,14.0465016 11.9652496,14.3397487 12.04925,14.59925 C12.1332504,14.8587513 12.2539992,15.0784991 12.4115,15.2585 C12.5690008,15.4385009 12.7624989,15.5757495 12.992,15.67025 C13.2215011,15.7647505 13.4832485,15.812 13.77725,15.812 C14.0682515,15.812 14.3277489,15.7647505 14.55575,15.67025 C14.7837511,15.5757495 14.9764992,15.4385009 15.134,15.2585 C15.2915008,15.0784991 15.4122496,14.8587513 15.49625,14.59925 C15.5802504,14.3397487 15.62225,14.0465016 15.62225,13.7195 L15.62225,13.7195 Z M24.02375,13.7195 C24.02375,14.1935024 23.9420008,14.630748 23.7785,15.03125 C23.6149992,15.431752 23.3847515,15.7782485 23.08775,16.07075 C22.7907485,16.3632515 22.4330021,16.5912492 22.0145,16.75475 C21.5959979,16.9182508 21.1317526,17 20.62175,17 L18.07475,17 L18.07475,10.4435 L20.62175,10.4435 C21.1317526,10.4435 21.5959979,10.5259992 22.0145,10.691 C22.4330021,10.8560008 22.7907485,11.0839985 23.08775,11.375 C23.3847515,11.6660015 23.6149992,12.011748 23.7785,12.41225 C23.9420008,12.812752 24.02375,13.2484976 24.02375,13.7195 L24.02375,13.7195 Z M22.46675,13.7195 C22.46675,13.3954984 22.4247504,13.1030013 22.34075,12.842 C22.2567496,12.5809987 22.1360008,12.3597509 21.9785,12.17825 C21.8209992,11.9967491 21.6282511,11.8572505 21.40025,11.75975 C21.1722489,11.6622495 20.9127515,11.6135 20.62175,11.6135 L19.60475,11.6135 L19.60475,15.83 L20.62175,15.83 C20.9127515,15.83 21.1722489,15.7812505 21.40025,15.68375 C21.6282511,15.5862495 21.8209992,15.4467509 21.9785,15.26525 C22.1360008,15.0837491 22.2567496,14.8625013 22.34075,14.6015 C22.4247504,14.3404987 22.46675,14.0465016 22.46675,13.7195 L22.46675,13.7195 Z" id="AOD" fill="#5C566C"></path>
        </g>
    </g>
</svg>