<?xml version="1.0" encoding="UTF-8" standalone="no"?>
<svg width="28px" height="28px" viewBox="0 0 28 28" version="1.1" xmlns="http://www.w3.org/2000/svg" xmlns:xlink="http://www.w3.org/1999/xlink">
    <!-- Generator: Sketch 3.8.3 (29802) - http://www.bohemiancoding.com/sketch -->
    <title>admin_dropdown_editor</title>
    <desc>Created with Sketch.</desc>
    <defs></defs>
    <g id="Page-1" stroke="none" stroke-width="1" fill="none" fill-rule="evenodd">
        <g id="admin_dropdown_editor">
            <circle id="Oval-7" stroke="#534D64" cx="14" cy="14" r="13"></circle>
            <path d="M20.2711313,7 L7.76793125,7 C7.63053125,7 7.51953125,7.1124 7.51953125,7.2484 L7.51953125,19.7516 C7.51953125,19.889 7.63193125,20 7.76793125,20 L20.2711313,20 C20.4085313,20 20.5195312,19.8876 20.5195312,19.7516 L20.5195312,7.2484 C20.5195312,7.111 20.4071312,7 20.2711313,7 L20.2711313,7 Z M8.01953125,7.5 L20.0195312,7.5 L20.0195312,11 L8.01953125,11 L8.01953125,7.5 Z M8.01953125,11.5 L12.0195312,11.5 L12.0195312,19.5 L8.01953125,19.5 L8.01953125,11.5 Z M12.5195312,11.5 L20.0195312,11.5 L20.0195312,19.5 L12.5195312,19.5 L12.5195312,11.5 Z" id="Page-1" fill="#696478"></path>
        </g>
    </g>
</svg>