<?xml version="1.0" encoding="UTF-8" standalone="no"?>
<svg width="28px" height="28px" viewBox="0 0 28 28" version="1.1" xmlns="http://www.w3.org/2000/svg" xmlns:xlink="http://www.w3.org/1999/xlink">
    <!-- Generator: Sketch 3.8.3 (29802) - http://www.bohemiancoding.com/sketch -->
    <title>admin_studio</title>
    <desc>Created with Sketch.</desc>
    <defs></defs>
    <g id="Page-1" stroke="none" stroke-width="1" fill="none" fill-rule="evenodd">
        <g id="admin_studio">
            <circle id="Oval-7" stroke="#534D64" cx="14" cy="14" r="13"></circle>
            <path d="M20.0421532,7.47571915 C16.7475532,4.18111915 11.4068332,4.18111915 8.11223322,7.47571915 C5.33284655,10.2551058 4.71223322,14.6830391 6.61940655,17.9164391 L8.85683322,15.6790125 C9.68099322,14.8555325 11.0153799,14.8555325 11.8397666,15.6790125 C12.6641532,16.5033991 12.6641532,17.8377858 11.8397666,18.6619458 L9.60233989,20.8993725 C12.8375532,22.8074525 17.2636732,22.1868391 20.0421532,19.4083591 C23.3385666,16.1119458 23.3385666,10.7721325 20.0421532,7.47571915 L20.0421532,7.47571915 Z M11.0056332,10.4994525 C10.5903799,10.9171991 9.91740655,10.9147058 9.50305989,10.4994525 C9.08871322,10.0866925 9.08871322,9.41394581 9.50305989,8.99687915 C9.91921989,8.58162581 10.5912866,8.58411915 11.0074466,8.99687915 C11.4199799,9.41394581 11.4199799,10.0866925 11.0056332,10.4994525 L11.0056332,10.4994525 Z M17.0177399,8.99869248 C17.4329932,8.58321248 18.1048332,8.58321248 18.5228066,8.99869248 C18.9380599,9.41394581 18.9355666,10.0866925 18.5246199,10.5010391 C18.1048332,10.9162925 17.4320866,10.9162925 17.0193266,10.5010391 C16.6024866,10.0866925 16.6049799,9.41394581 17.0177399,8.99869248 L17.0177399,8.99869248 Z M14.0116866,9.25618581 C13.4237132,9.25618581 12.9499799,8.77905248 12.9490732,8.19289248 C12.9490732,7.60763915 13.4246199,7.13027915 14.0116866,7.13027915 C14.6003399,7.13027915 15.0749799,7.60763915 15.0767932,8.19107915 C15.0749799,8.78086581 14.5996599,9.25618581 14.0116866,9.25618581 L14.0116866,9.25618581 Z M18.5209932,18.0184391 C18.1057399,18.4336925 17.4329932,18.4309725 17.0184199,18.0184391 C16.6031666,17.6029591 16.6031666,16.9302125 17.0184199,16.5158658 C17.4336732,16.1006125 18.1057399,16.1006125 18.5209932,16.5158658 C18.9355666,16.9274925 18.9355666,17.6022791 18.5209932,18.0184391 L18.5209932,18.0184391 Z M19.3258866,14.5706125 C18.7388199,14.5706125 18.2634999,14.0950658 18.2634999,13.5079991 C18.2634999,12.9200258 18.7388199,12.4447058 19.3258866,12.4447058 C19.9129532,12.4447058 20.3894066,12.9200258 20.3894066,13.5079991 C20.3884999,14.0950658 19.9129532,14.5706125 19.3258866,14.5706125 L19.3258866,14.5706125 Z" id="Page-1" fill="#5C566C"></path>
        </g>
    </g>
</svg>