<?xml version="1.0" encoding="UTF-8"?>
<svg width="80px" height="80px" viewBox="0 0 80 80" version="1.1" xmlns="http://www.w3.org/2000/svg" xmlns:xlink="http://www.w3.org/1999/xlink">
    <!-- Generator: Sketch 43.2 (39069) - http://www.bohemiancoding.com/sketch -->
    <title>icon_visit_site</title>
    <desc>Created with Sketch.</desc>
    <defs></defs>
    <g id="Page-1" stroke="none" stroke-width="1" fill="none" fill-rule="evenodd">
        <g id="icon_visit_site" fill="#E98074">
            <path d="M40.37,-0.1006675 C24.09279,-0.1006675 11,13.5973225 11,30.1593325 C11,36.0382275 12.59577,41.7328925 15.728125,46.7079925 L15.728125,46.735805 C19.166462,52.082747 24.092701,56.031855 26.130445,60.253125 L26.1026325,72.935625 C26.0922017,76.6311711 28.6509695,80 32.3604005,80 L48.3804005,80 C52.1386035,80 54.6104005,76.537366 54.6104005,72.88 L54.6104005,60.25268 C56.6476995,56.032122 61.5739385,52.082747 65.0127205,46.73536 L65.0127205,46.7075475 C68.1450755,41.7326255 69.7408455,36.0382275 69.7408455,30.1588875 C69.7408455,13.5968775 56.6480555,-0.1011125 40.3708455,-0.1011125 L40.37,-0.1006675 Z M40.37,5.2393325 C53.65414,5.2393325 64.4,16.3919225 64.4,30.1593325 C64.4,35.0786295 63.085826,39.7375125 60.50625,43.8430825 C60.5027701,43.8500334 60.5097299,43.8639441 60.50625,43.870895 C57.968326,47.806386 53.16375,51.536732 50.27125,56.859555 L43.04,56.859555 L43.04,44.371965 C43.6101518,44.5214583 44.204654,44.6222775 44.82,44.6222775 C48.720692,44.6222775 51.94,41.4029695 51.94,37.5022775 C51.94,33.6015855 48.720692,30.3822775 44.82,30.3822775 C43.140837,30.3822775 41.59375,30.9767708 40.37,31.9675455 C39.14625,30.9767085 37.599163,30.3822775 35.92,30.3822775 C32.019308,30.3822775 28.8,33.6015855 28.8,37.5022775 C28.8,41.4029695 32.019308,44.6222775 35.92,44.6222775 C36.5353549,44.6222775 37.129866,44.5214583 37.7,44.371965 L37.7,56.859555 L30.46875,56.859555 C27.57625,51.53691 22.771674,47.806475 20.23375,43.870895 C20.2302701,43.8639441 20.2372299,43.8500334 20.23375,43.8430825 C17.654174,39.7372455 16.34,35.0786295 16.34,30.1593325 C16.34,16.3919225 27.08586,5.2393325 40.37,5.2393325 Z M35.92,35.7218325 C36.935134,35.7218325 37.7,36.4866807 37.7,37.5018325 C37.7,38.5169843 36.9351518,39.2818325 35.92,39.2818325 C34.9048482,39.2818325 34.14,38.5169843 34.14,37.5018325 C34.14,36.4866807 34.9048482,35.7218325 35.92,35.7218325 Z M44.82,35.7218325 C45.835134,35.7218325 46.6,36.4866807 46.6,37.5018325 C46.6,38.5169843 45.8351518,39.2818325 44.82,39.2818325 C43.8048482,39.2818325 43.04,38.5169843 43.04,37.5018325 C43.04,36.4866807 43.8048482,35.7218325 44.82,35.7218325 Z M31.47,62.1993325 L49.27,62.1993325 L49.27,72.8793325 C49.27,74.1517655 48.4391049,74.6593325 48.38,74.6593325 L32.36,74.6593325 C32.2522299,74.6593325 31.438672,74.1691383 31.442232,72.9349575 L31.47,62.1993325 Z" id="Page-1"></path>
        </g>
    </g>
</svg>