<?xml version="1.0" encoding="UTF-8"?>
<svg width="80px" height="80px" viewBox="0 0 80 80" version="1.1" xmlns="http://www.w3.org/2000/svg" xmlns:xlink="http://www.w3.org/1999/xlink">
    <!-- Generator: Sketch 43.2 (39069) - http://www.bohemiancoding.com/sketch -->
    <title>icon_import_data</title>
    <desc>Created with Sketch.</desc>
    <defs></defs>
    <g id="Page-1" stroke="none" stroke-width="1" fill="none" fill-rule="evenodd">
        <g id="icon_import_data" fill="#E98074">
            <g id="Page-1">
                <path d="M74.9913514,10.1264865 L50.4854054,34.5945946 L56.9718919,41.043027 C57.9938486,42.0818811 58.2937297,43.6316757 57.7278054,44.9745946 C57.1745946,46.3175135 55.8696432,47.2001081 54.4127784,47.2085405 L36.3976432,47.2085405 C35.9246703,47.2000973 35.4601405,47.1029622 35.0252108,46.9171568 C34.1468324,46.5539784 33.4458595,45.8529622 33.0826162,44.9745622 C32.8968108,44.5396 32.7996757,44.0750703 32.7912324,43.6021297 L32.7912324,25.5869946 C32.7996757,24.1300216 33.6822811,22.8251568 35.0251784,22.2719676 C36.3680973,21.7060865 37.9179351,22.0059243 38.9567459,23.0278811 L45.4051784,29.5143676 L69.8732865,5.00842162 C71.2879892,3.59793514 73.5768541,3.59793514 74.9915568,5.00842162 C76.4020432,6.42312432 76.4020432,8.71198919 74.9915568,10.1266919 L74.9913514,10.1264865 Z" id="Fill-1"></path>
                <path d="M67.027027,79.6410811 L12.972973,79.6410811 C6.0092973,79.6410811 0.358918919,73.9907027 0.358918919,67.027027 L0.358918919,12.972973 C0.358918919,6.0092973 6.0092973,0.358918919 12.972973,0.358918919 L36.3978378,0.358918919 C38.3868108,0.358918919 40,1.97210811 40,3.9652973 C40,5.95427027 38.3868108,7.56745946 36.3978378,7.56745946 L12.972973,7.56745946 C9.98735135,7.56745946 7.56756757,9.98724324 7.56756757,12.9728649 L7.56756757,67.0269189 C7.56756757,70.0125405 9.98735135,72.4323243 12.972973,72.4323243 L67.027027,72.4323243 C70.0126486,72.4323243 72.4324324,70.0125405 72.4324324,67.0269189 L72.4324324,43.6020541 C72.4324324,41.6130811 74.0456216,39.9998919 76.0345946,39.9998919 C78.0278919,39.9998919 79.640973,41.6130811 79.640973,43.6020541 L79.640973,67.0269189 C79.640973,70.3715676 78.3107027,73.580973 75.9458378,75.9458378 C73.580973,78.3107027 70.3715676,79.640973 67.0269189,79.640973 L67.027027,79.6410811 Z" id="Fill-2"></path>
            </g>
        </g>
    </g>
</svg>