<?xml version="1.0" encoding="UTF-8"?>
<svg width="80px" height="80px" viewBox="0 0 80 80" version="1.1" xmlns="http://www.w3.org/2000/svg" xmlns:xlink="http://www.w3.org/1999/xlink">
    <!-- Generator: Sketch 43.2 (39069) - http://www.bohemiancoding.com/sketch -->
    <title>icon_create_users</title>
    <desc>Created with Sketch.</desc>
    <defs></defs>
    <g id="Page-1" stroke="none" stroke-width="1" fill="none" fill-rule="evenodd">
        <g id="icon_create_users" fill="#E98074">
            <g id="Group">
                <g id="Page-1">
                    <path d="M32.0647619,40 C37.3251429,40 42.3733333,37.9092381 46.0933333,34.1889524 C49.8133333,30.4686667 51.904381,25.420381 51.904381,20.160381 C51.904381,14.8962857 49.813619,9.85180952 46.0933333,6.128 C42.3731429,2.40780952 37.3247619,0.316952381 32.0647619,0.316952381 C26.8006667,0.316952381 21.7561905,2.40771429 18.032381,6.128 C14.3121905,9.852 12.2213333,14.8965714 12.2213333,20.160381 C12.2213333,25.4207619 14.3120952,30.4689524 18.032381,34.1889524 C21.756381,37.9091429 26.8009524,40 32.0647619,40 Z M32.0647619,8.2552381 C36.8787619,8.2552381 41.2202857,11.1533333 43.0619048,15.6026667 C44.9034286,20.0520952 43.8878,25.1712381 40.4800952,28.5750476 C37.0760952,31.9827619 31.9570476,32.998381 27.5077143,31.1568571 C23.0582857,29.3153333 20.1602857,24.9738095 20.1602857,20.1597143 C20.1602857,13.582381 25.4877143,8.25495238 32.0650476,8.25495238 L32.0647619,8.2552381 Z" id="Fill-1"></path>
                    <path d="M49.8028571,51.9047619 C49.8028571,50.8519048 49.3824667,49.8437143 48.638381,49.0997143 C47.8942952,48.3557143 46.8861905,47.9352381 45.8333333,47.9352381 L12.2209524,47.9352381 C5.64733333,47.9352381 0.316190476,53.266381 0.316190476,59.84 L0.316190476,67.7789524 C0.316190476,69.9701905 2.09447619,71.7447619 4.28571429,71.7447619 C6.47695238,71.7447619 8.2552381,69.9701905 8.2552381,67.7789524 L8.2552381,59.84 C8.2552381,57.6487619 10.0298095,55.8741905 12.2210476,55.8741905 L45.8334286,55.8741905 C46.8862857,55.8741905 47.8944762,55.4538 48.6384762,54.7097143 C49.3824762,53.9656286 49.8029524,52.9575238 49.8029524,51.9046667 L49.8028571,51.9047619 Z" id="Fill-2"></path>
                    <path d="M75.7142857,59.84 L67.7790476,59.84 L67.7790476,51.9047619 C67.7790476,49.7135238 66.0007619,47.9352381 63.8095238,47.9352381 C61.6182857,47.9352381 59.84,49.7135238 59.84,51.9047619 L59.84,59.84 L51.9047619,59.84 C49.7135238,59.84 47.9352381,61.6182857 47.9352381,63.8095238 C47.9352381,66.0007619 49.7135238,67.7790476 51.9047619,67.7790476 L59.84,67.7790476 L59.84,75.7142857 C59.84,77.9055238 61.6182857,79.6838105 63.8095238,79.6838105 C66.0007619,79.6838105 67.7790476,77.9055238 67.7790476,75.7142857 L67.7790476,67.7790476 L75.7142857,67.7790476 C77.9055238,67.7790476 79.6838095,66.0007619 79.6838095,63.8095238 C79.6838095,61.6182857 77.9055238,59.84 75.7142857,59.84 Z" id="Fill-3"></path>
                </g>
            </g>
        </g>
    </g>
</svg>