<?xml version="1.0" encoding="UTF-8"?>
<svg width="80px" height="80px" viewBox="0 0 80 80" version="1.1" xmlns="http://www.w3.org/2000/svg" xmlns:xlink="http://www.w3.org/1999/xlink">
    <!-- Generator: Sketch 43.2 (39069) - http://www.bohemiancoding.com/sketch -->
    <title>icon_start_using</title>
    <desc>Created with Sketch.</desc>
    <defs></defs>
    <g id="Page-1" stroke="none" stroke-width="1" fill="none" fill-rule="evenodd">
        <g id="icon_start_using" fill="#E98074">
            <path d="M47.4388625,21.99786 C47.4388625,19.273342 45.2319425,17.058048 42.4701125,17.058048 C39.7290585,17.058048 37.5013625,19.294012 37.5013625,21.99786 L37.5013625,36.93326 L34.1888625,36.93326 L34.1888625,5.49366 C34.1888625,2.73183 31.9819425,0.495972 29.2201125,0.495972 C26.4790585,0.495972 24.2513625,2.702892 24.2513625,5.49366 L24.2513625,39.58326 C17.4317465,32.29576 8.45524253,24.28322 4.78234253,27.98156 C1.18003853,31.60464 10.4674405,41.58348 23.4150225,63.38344 C29.2532905,73.20911 36.6438225,80 49.0956425,80 C62.8131025,80 73.9399225,68.87424 73.9399225,55.15572 L73.9399225,28.67692 C73.9399225,25.923358 71.7330025,23.6875 68.9711725,23.6875 C66.2301185,23.6875 64.0024225,25.923464 64.0024225,28.67692 L64.0024225,36.9375 L60.6899225,36.9375 L60.6899225,25.3146 C60.6899225,22.581814 58.4830025,20.374788 55.7211725,20.374788 C52.9801185,20.374788 50.7524225,22.569306 50.7524225,25.3146 L50.7524225,33.624788 L47.4399225,33.624788 L47.4388625,21.99786 Z" id="Page-1"></path>
        </g>
    </g>
</svg>