<?xml version="1.0" encoding="UTF-8"?>
<svg width="50px" height="50px" viewBox="0 0 50 50" version="1.1" xmlns="http://www.w3.org/2000/svg" xmlns:xlink="http://www.w3.org/1999/xlink">
    <!-- Generator: Sketch 43.2 (39069) - http://www.bohemiancoding.com/sketch -->
    <title>icon_forums</title>
    <desc>Created with Sketch.</desc>
    <defs></defs>
    <g id="Page-1" stroke="none" stroke-width="1" fill="none" fill-rule="evenodd">
        <g id="icon_forums" fill="#E98074">
            <path d="M19.4455289,79.7322961 L42.6379289,61.9914926 L55.2738489,61.9914926 C60.8838489,61.9914926 66.2632889,59.7640366 70.2268089,55.7970846 C74.1936729,51.8302206 76.4246489,46.4506046 76.4246489,40.8441246 L76.4246489,21.9584446 C76.4246489,16.3484446 74.1936729,10.9690046 70.2268089,7.00196456 C66.2633769,3.03510056 60.8838489,0.807556558 55.2738489,0.807556558 L24.1508889,0.807556558 C18.5408889,0.807556558 13.1614489,3.03501256 9.19440888,7.00196456 C5.23097688,10.9688286 3,16.3484446 3,21.9584446 L3,40.8441246 C3,46.4506926 5.23097688,51.8300446 9.19440888,55.7970846 C13.1612729,59.7639486 18.5408889,61.9914926 24.1508889,61.9914926 L17.4443209,78.1922961 C17.2174481,78.7388553 17.3858801,79.3678872 17.8533801,79.7288632 C18.3243209,80.089804 18.9739721,80.089804 19.4449481,79.7323005 L19.4455289,79.7322961 Z" id="Page-1"></path>
        </g>
    </g>
</svg>