<?xml version="1.0" encoding="UTF-8"?>
<svg width="80px" height="80px" viewBox="0 0 80 80" version="1.1" xmlns="http://www.w3.org/2000/svg" xmlns:xlink="http://www.w3.org/1999/xlink">
    <!-- Generator: Sketch 43.2 (39069) - http://www.bohemiancoding.com/sketch -->
    <title>icon_configure</title>
    <desc>Created with Sketch.</desc>
    <defs></defs>
    <g id="Page-1" stroke="none" stroke-width="1" fill="none" fill-rule="evenodd">
        <g id="icon_configure" fill="#E98074">
            <path d="M79.9963395,58.659984 L48.0290895,35.330034 L47.356428,34.846047 L47.4794775,34.033935 C47.590221,33.377685 47.668152,32.676285 47.7296715,31.942125 C47.7912015,31.2530625 47.8076025,30.551715 47.8076025,29.833935 C47.8076025,22.89816 45.1210725,16.614435 40.7939175,12.082635 C36.4667625,7.566795 30.4989825,4.769595 23.9036175,4.769595 C21.9800175,4.769595 20.1219375,5.003388 18.3418725,5.4586575 C17.2016775,5.741664 16.0901475,6.1149075 15.0278625,6.5660925 L24.7157925,13.9571475 L25.248993,14.3632035 L25.248993,29.6575035 L24.3261375,29.952816 L10.4220375,34.546566 L9.7493865,34.7639475 L9.1874685,34.325079 L0.1107435,27.401589 L0.1107435,27.47952 C0.049224,28.2465135 0,29.025855 0,29.80926 C0,36.745035 2.68653,43.02876 7.013685,47.56056 C11.34084,52.0764 17.30862,54.8736 23.903985,54.8736 C25.905495,54.8736 27.841485,54.623406 29.687175,54.139419 C31.594395,53.639031 33.41961,52.904829 35.10948,51.953319 L35.860062,51.530862 L36.5491245,52.03125 L68.0323245,75 L79.9844745,58.61055 L79.9963395,58.659984 Z" id="Page-1"></path>
        </g>
    </g>
</svg>