<?xml version="1.0" encoding="UTF-8"?>
<svg width="80px" height="80px" viewBox="0 0 80 80" version="1.1" xmlns="http://www.w3.org/2000/svg" xmlns:xlink="http://www.w3.org/1999/xlink">
    <!-- Generator: Sketch 43.2 (39069) - http://www.bohemiancoding.com/sketch -->
    <title>icon_view_and_manage</title>
    <desc>Created with Sketch.</desc>
    <defs></defs>
    <g id="Page-1" stroke="none" stroke-width="1" fill="none" fill-rule="evenodd">
        <g id="icon_view_and_manage" fill="#E98074">
            <g id="Page-1">
                <path d="M77.0911325,31.6916605 L68.7888168,31.6916605 C68.1720371,29.4965913 67.2952575,27.4165387 66.1705525,25.4149699 L72.078288,19.5313175 C73.1788135,18.4307797 73.1788135,16.6589966 72.078288,15.5343719 L64.3685415,7.84884315 C63.268016,6.7483054 61.472104,6.7483054 60.3716404,7.84884315 L54.4940907,13.7324956 C52.4985813,12.6319579 50.4125148,11.7612677 48.21747,11.1142021 L48.21747,2.81179392 C48.21747,1.23360415 46.9778734,0 45.4057074,0 L34.5153131,0 C32.9673266,0 31.7035505,1.2396104 31.7035505,2.81179392 L31.7035505,11.1142021 C29.5388462,11.7612213 27.4284763,12.6319733 25.4571156,13.7324956 L19.5493801,7.84884315 C18.4488546,6.7483054 16.6770912,6.7483054 15.5826648,7.84884315 L7.8548068,15.5343719 C6.75428131,16.6590895 6.75428131,18.4308416 7.8548068,19.5313175 L13.7383937,25.4149699 C12.6378682,27.4105015 11.7671878,29.4965913 11.1503152,31.6916605 L2.81781058,31.6916605 C1.26982412,31.6916605 0.00604798308,32.9554662 0.00604798308,34.5034544 L0,45.4000072 C0,46.9480109 1.26379162,48.2118012 2.81176259,48.2118012 L11.1442625,48.2118012 C11.7610423,50.3765295 12.6378218,52.486923 13.7323411,54.4884918 L7.85479132,60.3721442 C6.75426583,61.472682 6.75426583,63.2444651 7.85479132,64.3389037 L15.5645378,72.0487361 C16.6650633,73.1492739 18.4368267,73.1492739 19.5312531,72.0487361 L25.4389886,66.1650837 C27.4101946,67.2656214 29.5205645,68.1363116 31.6854236,68.7833771 L31.6854236,77.0857853 C31.6854236,78.633789 32.9492152,79.8975793 34.4971862,79.8975793 L45.3875805,79.8975793 C46.9657527,79.8975793 48.1993431,78.6337736 48.1993431,77.0857853 L48.1993431,68.7833771 C50.3943879,68.136358 52.4744173,67.2656059 54.4759637,66.1650837 L60.3595507,72.0487361 C61.4600761,73.1492739 63.2559881,73.1492739 64.3564517,72.0487361 L72.0661982,64.3389037 C73.1667237,63.2383659 73.1667237,61.4665828 72.0661982,60.3721442 L66.1584627,54.4884918 C67.2831677,52.4929602 68.153972,50.3766843 68.776727,48.2118012 L77.0790427,48.2118012 C78.6572149,48.2118012 79.8908053,46.9479955 79.8908053,45.4000072 L79.8908053,34.5094916 C79.9089477,32.9614879 78.6693512,31.6916605 77.091117,31.6916605 L77.0911325,31.6916605 Z M39.9704174,55.9519745 C31.1300215,55.9519745 23.9828133,48.7743457 23.9828133,39.9394242 C23.9828133,31.129116 31.1301763,23.951642 39.9704174,23.951642 C48.8106584,23.951642 55.9580215,31.1292708 55.9580215,39.9394242 C55.9580215,48.7738813 48.8046213,55.9519745 39.9704174,55.9519745 Z" id="Fill-1"></path>
            </g>
        </g>
    </g>
</svg>