<?xml version="1.0" encoding="UTF-8"?>
<svg width="2400px" height="1308px" viewBox="0 0 2400 1308" version="1.1" xmlns="http://www.w3.org/2000/svg" xmlns:xlink="http://www.w3.org/1999/xlink">
    <!-- Generator: Sketch 43.2 (39069) - http://www.bohemiancoding.com/sketch -->
    <title>bg_initial_page</title>
    <desc>Created with Sketch.</desc>
    <defs>
        <polygon id="path-1" points="0.370345924 0.570984799 382.049858 0.570984799 382.049858 79.4984727 382.049858 158.425961 0.370345924 158.425961 0.370345924 0.570984799"></polygon>
    </defs>
    <g id="Page-1" stroke="none" stroke-width="1" fill="none" fill-rule="evenodd">
        <g id="bg_initial_page">
            <g id="Group" transform="translate(-189.000000, -24.000000)">
                <rect id="Rectangle-2" fill="#FFD797" x="94" y="0" width="2550.62097" height="386.922379"></rect>
                <g id="Page-1" transform="translate(0.000000, 333.508852)">
                    <polygon id="Fill-1" fill="#FFD797" points="182.926642 972.058566 2594.92945 972.058566 2594.92945 24.2906798 182.926642 24.2906798"></polygon>
                    <polygon id="Fill-2" fill="#778490" points="2411.01048 642.047076 2658.4651 480.69998 2795.56833 747.382485"></polygon>
                    <g id="Group-48" transform="translate(0.000000, 0.267519)">
                        <path d="M1937.80938,480.450436 C1937.80938,537.363325 1891.67247,583.499398 1834.76042,583.499398 C1777.84837,583.499398 1731.71229,537.363325 1731.71229,480.450436 C1731.71229,423.537547 1777.84837,377.401473 1834.76042,377.401473 C1891.67247,377.401473 1937.80938,423.537547 1937.80938,480.450436" id="Fill-3" fill="#F8EFA3"></path>
                        <polygon id="Fill-5" fill="#E4BCA8" points="2752.44602 718.865849 2023.17554 449.352664 1784.29071 521.913713 1458.54012 392.035989 1210.64745 464.597039 936.587285 394.474588 618.29461 577.402066 971.944035 806.060996 2748.7877 892.037262"></polygon>
                        <path d="M121.719747,659.541197 C121.17635,654.975827 124.185097,649.747512 128.406038,647.924206 L508.180317,483.824178 C512.401257,482.000037 519.476285,481.527699 523.902045,482.774168 L1144.39532,657.510565 C1148.82108,658.757034 1155.96048,658.444371 1160.26001,656.815853 L1529.70389,516.907021 C1534.00425,515.278502 1541.0124,515.351234 1545.27681,517.068368 L2143.46991,757.87431 C2147.73516,759.591444 2148.68485,763.772257 2145.5808,767.163054 L1972.22547,956.601264 C1969.12142,959.993733 1962.82052,962.707374 1958.22338,962.632134 L162.627506,933.285355 C158.030368,933.210115 153.823639,929.413024 153.281078,924.847654 L121.719747,659.541197 Z" id="Fill-7" fill="#778490"></path>
                        <path d="M93.7710863,821.018123 C94.5142861,816.48034 98.7920742,811.940886 103.277189,810.929331 L1222.33634,558.509743 C1226.82145,557.498188 1233.97255,558.095925 1238.22777,559.838975 L1848.07548,809.600099 C1852.3307,811.343149 1859.2076,811.150034 1863.35915,809.172069 L2129.87864,682.179365 C2134.03019,680.202236 2141.04252,679.619548 2145.46242,680.88608 L2746.84819,853.149603 C2751.26894,854.4153 2754.88545,859.213077 2754.88545,863.811051 L2754.88545,993.43296 C2754.88545,998.030934 2751.12347,1001.77118 2746.5255,1001.74359 L75.1451107,985.796143 C70.5471365,985.767719 67.3929262,982.033328 68.136126,977.495546 L93.7710863,821.018123 Z" id="Fill-9" fill="#8EAE7B"></path>
                        <path d="M181.882902,914.878159 C182.487327,899.501697 183.154451,884.126071 184.084914,868.765494 C514.210267,841.282984 963.195762,843.986592 1455.55269,883.417147 C1842.8108,914.417526 2199.96305,963.572378 2491.25057,1021.91482 L176.221542,1021.91482 C179.425076,986.326499 180.48261,950.574323 181.882902,914.878159" id="Fill-11" fill="#A0C488"></path>
                        <path d="M2294.80061,988.141277 C2295.64831,1000.19633 2298.72143,1011.5667 2303.57606,1021.91214 L2480.35145,1009.48758 C2483.71131,998.565303 2485.16427,986.876416 2484.31657,974.821364 C2480.68417,923.125922 2436.30118,884.028093 2384.79718,886.643086 C2384.16266,886.634726 2383.53065,886.679034 2382.89947,886.724178 C2369.05372,887.69644 2356.05148,891.626454 2344.58414,897.828703 C2312.66834,914.937348 2292.09617,949.659577 2294.80061,988.141277" id="Fill-13" fill="#759067"></path>
                        <path d="M1688.2917,1014.89798 C1689.72376,1035.27035 1700.63099,1052.70336 1716.33851,1063.18507 L1793.61958,1057.7536 C1807.70694,1045.17773 1816.06857,1026.3904 1814.63651,1006.01803 C1812.99712,982.696272 1798.98667,963.260217 1779.47622,953.627879 C1769.72099,948.81171 1758.65826,946.468416 1747.02455,947.286019 C1716.912,949.401923 1693.27758,972.171927 1688.88693,1000.78387 C1688.14874,1005.33252 1687.95229,1010.05422 1688.2917,1014.89798" id="Fill-15" fill="#759067"></path>
                        <path d="M1743.89517,1053.31213 C1744.08076,1055.94384 1744.31818,1058.57305 1744.71361,1061.19055 L2007.40424,1042.72759 C2007.42932,1040.08083 2007.29723,1037.44494 2007.11164,1034.81239 C2005.06596,1005.70052 1993.69642,979.413486 1976.10875,958.747682 C1949.91702,927.840935 1909.79008,909.394699 1866.25395,912.454441 C1831.82599,914.873812 1801.37904,930.292909 1779.4768,953.628047 C1755.10503,979.465318 1741.20577,1015.0411 1743.89517,1053.31213" id="Fill-19" fill="#759067"></path>
                        <path d="M2198.56234,973.744017 C2200.03202,994.643063 2208.53827,1013.30164 2221.60989,1027.67324 L2362.27279,1017.78676 C2373.20594,1001.72896 2379.01861,982.063006 2377.55061,961.163959 C2375.73733,935.369324 2363.20827,912.91867 2344.58397,897.828118 C2327.52632,883.94976 2305.45604,876.295387 2281.76644,877.96069 C2246.60114,880.431892 2217.64978,902.834894 2205.08728,933.343707 C2199.92585,945.715602 2197.55664,959.425089 2198.56234,973.744017" id="Fill-21" fill="#759067"></path>
                        <path d="M1964.07217,1024.61157 C1964.57628,1031.77104 1965.65053,1038.78504 1967.18458,1045.55493 L2232.40159,1026.9139 C2232.97341,1019.99604 2233.05701,1012.90179 2232.55374,1005.74232 C2230.63346,978.420324 2220.63412,953.570363 2205.08711,933.343456 C2178.58105,898.703155 2135.67777,877.646941 2088.87791,880.936582 C2038.18232,884.498758 1996.04314,915.711479 1976.108,958.747682 C1966.87694,978.706234 1962.4261,1001.18615 1964.07217,1024.61157" id="Fill-23" fill="#759067"></path>
                        <path d="M2603.89759,850.135923 C2620.55563,838.754683 2640.36705,831.595219 2661.95078,830.078724 C2667.09215,829.716738 2672.17667,829.695838 2677.18847,829.982584 C2673.0553,885.571257 2669.0233,941.176649 2663.36612,996.624874 L2565.05474,1003.53438 C2557.66789,989.504702 2553.01223,973.696867 2551.82846,956.850725 C2548.74615,912.998591 2569.90017,872.998723 2603.89759,850.135923" id="Fill-25" fill="#759067"></path>
                        <path d="M2376.25548,942.738706 C2378.17911,970.113373 2388.49445,994.940761 2404.59823,1014.81153 L2616.22459,999.938341 C2629.39068,978.009348 2636.13131,951.983978 2634.20769,924.608476 C2632.20632,896.129459 2621.08674,870.40672 2603.89784,850.135505 C2578.22108,819.774663 2538.86075,801.697101 2496.16731,804.697488 C2444.6817,808.316512 2402.42297,841.599993 2384.79768,886.642585 C2377.97345,903.946016 2374.86773,922.997513 2376.25548,942.738706" id="Fill-27" fill="#759067"></path>
                        <path d="M2750.49723,207.90334 C2750.49723,270.361386 2598.60106,320.993442 2411.22692,320.993442 C2223.85279,320.993442 2071.95662,270.361386 2071.95662,207.90334 C2071.95662,145.445294 2223.85279,94.8132381 2411.22692,94.8132381 C2598.60106,94.8132381 2750.49723,145.445294 2750.49723,207.90334" id="Fill-29" fill="#A9839A"></path>
                        <g id="Group-33" transform="translate(2486.250062, 0.000000)">
                            <mask id="mask-2" fill="white">
                                <use xlink:href="#path-1"></use>
                            </mask>
                            <g id="Clip-32"></g>
                            <path d="M382.049858,79.4988071 C382.049858,123.089275 296.607793,158.425961 191.21052,158.425961 C85.8115749,158.425961 0.370345924,123.089275 0.370345924,79.4988071 C0.370345924,35.9083395 85.8115749,0.5708176 191.21052,0.5708176 C296.607793,0.5708176 382.049858,35.9083395 382.049858,79.4988071" id="Fill-31" fill="#A9839A" mask="url(#mask-2)"></path>
                        </g>
                        <path d="M2179.27409,186.547087 C2179.27409,188.815143 2179.10354,191.04725 2178.77333,193.254278 L1995.62682,193.254278 C1995.29827,191.04725 1995.12773,188.815143 1995.12773,186.547087 C1995.12773,180.38831 1996.38256,174.437695 1998.71248,168.803087 C2009.77353,142.071301 2045.2005,122.523222 2087.20007,122.523222 C2138.05367,122.523222 2179.27409,151.193682 2179.27409,186.547087" id="Fill-34" fill="#FFFFFF"></path>
                        <path d="M2024.81008,193.254612 L1917.88293,193.254612 C1922.32207,176.620813 1944.56623,163.986416 1971.3465,163.986416 C1981.33414,163.986416 1990.68809,165.742006 1998.71197,168.803421 C2012.23671,173.961512 2022.02956,182.815539 2024.81008,193.254612" id="Fill-36" fill="#FFFFFF"></path>
                        <path d="M478.049708,179.230038 C478.049708,180.657082 478.00122,182.084126 477.891705,183.49863 L122.109655,183.49863 C122.000976,182.084126 121.951652,180.657082 121.951652,179.230038 C121.951652,122.315477 201.671329,76.1810761 300.000262,76.1810761 C361.269523,76.1810761 415.318292,94.0956197 447.354468,121.364115 C466.732839,137.864154 478.049708,157.778399 478.049708,179.230038" id="Fill-38" fill="#A9839A"></path>
                        <path d="M581.70903,179.230038 C581.70903,180.669622 581.622923,182.09583 581.46492,183.49863 L381.95213,183.49863 C381.793291,182.09583 381.708856,180.669622 381.708856,179.230038 C381.708856,152.657091 409.050082,130.010814 447.354552,121.364115 C458.06198,118.961464 469.634663,117.644772 481.708943,117.644772 C536.939809,117.644772 581.70903,145.217569 581.70903,179.230038" id="Fill-40" fill="#A9839A"></path>
                        <path d="M315.854412,179.230038 C315.854412,202.466528 245.148436,221.303175 157.927373,221.303175 C70.70631,221.303175 0.000334398125,202.466528 0.000334398125,179.230038 C0.000334398125,155.993549 70.70631,137.156902 157.927373,137.156902 C245.148436,137.156902 315.854412,155.993549 315.854412,179.230038" id="Fill-42" fill="#FFFFFF"></path>
                        <path d="M1739.02867,247.63268 C1739.02867,255.455924 1689.98584,261.797784 1629.48737,261.797784 C1568.98973,261.797784 1519.94607,255.455924 1519.94607,247.63268 C1519.94607,239.810272 1568.98973,233.468411 1629.48737,233.468411 C1689.98584,233.468411 1739.02867,239.810272 1739.02867,247.63268" id="Fill-44" fill="#FFFFFF"></path>
                        <path d="M1655.92873,217.414375 C1655.92873,229.410072 1628.87007,239.133533 1595.49129,239.133533 C1562.11334,239.133533 1535.05468,229.410072 1535.05468,217.414375 C1535.05468,205.418678 1562.11334,195.695217 1595.49129,195.695217 C1628.87007,195.695217 1655.92873,205.418678 1655.92873,217.414375" id="Fill-46" fill="#FFFFFF"></path>
                    </g>
                </g>
            </g>
        </g>
    </g>
</svg>