<?xml version="1.0" encoding="UTF-8" standalone="no"?>
<svg
   xmlns:dc="http://purl.org/dc/elements/1.1/"
   xmlns:cc="http://creativecommons.org/ns#"
   xmlns:rdf="http://www.w3.org/1999/02/22-rdf-syntax-ns#"
   xmlns:svg="http://www.w3.org/2000/svg"
   xmlns="http://www.w3.org/2000/svg"
   xmlns:sodipodi="http://sodipodi.sourceforge.net/DTD/sodipodi-0.dtd"
   xmlns:inkscape="http://www.inkscape.org/namespaces/inkscape"
   width="30px"
   height="30px"
   viewBox="0 0 30 30"
   version="1.1"
   id="svg2"
   inkscape:version="0.48.4 r9939"
   sodipodi:docname="Createbasic.svg">
  <metadata
     id="metadata23">
    <rdf:RDF>
      <cc:Work
         rdf:about="">
        <dc:format>image/svg+xml</dc:format>
        <dc:type
           rdf:resource="http://purl.org/dc/dcmitype/StillImage" />
      </cc:Work>
    </rdf:RDF>
  </metadata>
  <sodipodi:namedview
     pagecolor="#ffffff"
     bordercolor="#666666"
     borderopacity="1"
     objecttolerance="10"
     gridtolerance="10"
     guidetolerance="10"
     inkscape:pageopacity="0"
     inkscape:pageshadow="2"
     inkscape:window-width="1855"
     inkscape:window-height="1056"
     id="namedview21"
     showgrid="false"
     inkscape:zoom="11.313708"
     inkscape:cx="-30.269391"
     inkscape:cy="27.694984"
     inkscape:window-x="65"
     inkscape:window-y="24"
     inkscape:window-maximized="1"
     inkscape:current-layer="svg2" />
  <!-- Generator: Sketch 39.1 (31720) - http://www.bohemiancoding.com/sketch -->
  <title
     id="title4">acc_default_module</title>
  <desc
     id="desc6">Created with Sketch.</desc>
  <defs
     id="defs8" />
  <path
     inkscape:connector-curvature="0"
     id="rect3903"
     style="fill:none;fill-opacity:1;stroke:#778591;stroke-width:0.96763343000000002;stroke-miterlimit:4;stroke-opacity:1;stroke-dashoffset:0"
     d="m 17.87217,26.28291 c 3.62454,-0.08668 6.488043,-0.08668 6.488043,-0.08668 M 17.87217,24.23431 c 3.62454,-0.08668 6.488043,-0.08668 6.488043,-0.08668 M 17.87217,22.185711 c 3.62454,-0.08668 6.488043,-0.08668 6.488043,-0.08668 M 17.87217,20.137112 c 3.62454,-0.08668 6.488043,-0.08668 6.488043,-0.08668 M 17.87217,18.088513 c 3.62454,-0.08668 6.488043,-0.08668 6.488043,-0.08668 M 17.87217,16.039914 c 3.62454,-0.08668 6.488043,-0.08668 6.488043,-0.08668 M 17.87217,13.991313 c 3.62454,-0.08668 6.488043,-0.08668 6.488043,-0.08668 m -6.953449,-2.187247 7.418855,0 0,16.728556 -7.418855,0 z m -15.8563054,5.566368 5.5126359,0 0,11.146978 -5.5126359,0 z M 12.468992,0.73624515 c -0.01162,0.43529165 -0.01828,1.28304835 -0.01041,1.36571555 m -0.107306,0.017167 c 0,0 -1.277894,0.473791 -1.458592,0.8894292 -0.818666,0 -1.5019697,0.4897956 -1.6025624,1.1028133 -0.831133,0.048229 -1.4853023,0.5956646 -1.4853023,1.2518428 0.047859,7.6809411 -0.1112984,15.5076901 0.00146,23.1022821 l 9.1676497,-0.0028 c 0,-7.345856 0.07017,-15.869519 0.0945,-23.0994814 0,-0.6879289 -0.714519,-1.2518428 -1.602562,-1.2518428 C 15.3661,3.5092756 14.74099,3.0240065 13.94143,3.0085558 13.345549,2.2504363 12.351242,2.1191276 12.351242,2.1191276 z m 0.02672,2.5585523 c 0.221163,0.4831774 0.824844,0.8345615 1.524389,0.8345615 0.0051,0.030677 -0.0078,0.059482 0,0.089428 l -2.931519,0 c 0.0078,-0.029946 -0.0051,-0.058731 0,-0.089428 0.659854,-0.025509 1.19166,-0.3747263 1.40713,-0.8345615 z"
     sodipodi:nodetypes="ccccccccccccccccccccccccccccccccccccccccccc" />
  <path
     sodipodi:type="arc"
     style="fill:#ffffff;fill-opacity:1;stroke:none"
     id="path3009"
     sodipodi:cx="21.16901"
     sodipodi:cy="24.387341"
     sodipodi:rx="5.2591066"
     sodipodi:ry="5.1707182"
     d="m 26.428117,24.387341 a 5.2591066,5.1707182 0 1 1 -10.518213,0 5.2591066,5.1707182 0 1 1 10.518213,0 z"
     transform="matrix(1.2118079,0,0,1.2118079,-3.1009001,-5.993235)" />
  <polygon
     transform="matrix(0.55180817,0,0,0.58402069,13.702933,-8.7141735)"
     style="fill:#534d64"
     id="polygon18"
     points="17.87,57.146 17.87,62.718 14.342,62.718 14.342,57.146 9.19,57.146 9.19,54.038 14.342,54.038 14.342,48.494 17.87,48.494 17.87,54.038 23.05,54.038 23.05,57.146 " />
  <rect
     style="fill:#778591;fill-opacity:1;stroke:none"
     id="rect2986"
     width="6.2755728"
     height="17.67767"
     x="9.3691645"
     y="8.3448544" />
</svg>
